G04*
G04 #@! TF.GenerationSoftware,Altium Limited,Altium Designer,19.0.15 (446)*
G04*
G04 Layer_Color=128*
%FSLAX43Y43*%
%MOMM*%
G71*
G01*
G75*
%ADD18C,0.254*%
%ADD46C,0.051*%
%ADD49C,0.300*%
D18*
X370393Y-131120D02*
X370279Y-131005D01*
X370107Y-130948D01*
X369878D01*
X369706Y-131005D01*
X369592Y-131120D01*
Y-131234D01*
X369649Y-131349D01*
X369706Y-131406D01*
X369821Y-131463D01*
X370164Y-131578D01*
X370279Y-131635D01*
X370336Y-131692D01*
X370393Y-131807D01*
Y-131978D01*
X370279Y-132093D01*
X370107Y-132150D01*
X369878D01*
X369706Y-132093D01*
X369592Y-131978D01*
X370662Y-130948D02*
Y-132150D01*
X371464Y-130948D02*
Y-132150D01*
X370662Y-131520D02*
X371464D01*
X372540Y-130948D02*
X371796D01*
Y-132150D01*
X372540D01*
X371796Y-131520D02*
X372254D01*
X373484Y-130948D02*
X372740D01*
Y-132150D01*
X373484D01*
X372740Y-131520D02*
X373198D01*
X374085Y-130948D02*
Y-132150D01*
X373685Y-130948D02*
X374486D01*
X376632D02*
X377262D01*
X376919Y-131406D01*
X377090D01*
X377205Y-131463D01*
X377262Y-131520D01*
X377319Y-131692D01*
Y-131807D01*
X377262Y-131978D01*
X377148Y-132093D01*
X376976Y-132150D01*
X376804D01*
X376632Y-132093D01*
X376575Y-132036D01*
X376518Y-131921D01*
X378876Y-130948D02*
X378762Y-131005D01*
X378647Y-131120D01*
X378590Y-131234D01*
X378533Y-131406D01*
Y-131692D01*
X378590Y-131864D01*
X378647Y-131978D01*
X378762Y-132093D01*
X378876Y-132150D01*
X379105D01*
X379220Y-132093D01*
X379334Y-131978D01*
X379391Y-131864D01*
X379449Y-131692D01*
Y-131406D01*
X379391Y-131234D01*
X379334Y-131120D01*
X379220Y-131005D01*
X379105Y-130948D01*
X378876D01*
X379729D02*
Y-132150D01*
Y-130948D02*
X380473D01*
X379729Y-131520D02*
X380187D01*
X381670Y-130948D02*
X382299D01*
X381956Y-131406D01*
X382128D01*
X382242Y-131463D01*
X382299Y-131520D01*
X382357Y-131692D01*
Y-131807D01*
X382299Y-131978D01*
X382185Y-132093D01*
X382013Y-132150D01*
X381841D01*
X381670Y-132093D01*
X381612Y-132036D01*
X381555Y-131921D01*
D46*
X16673Y46905D02*
X19673D01*
X18173Y45405D02*
Y48405D01*
X15764Y13905D02*
X17464D01*
X16614Y13055D02*
Y14755D01*
X82814Y13905D02*
X84014D01*
X83414Y13305D02*
Y14505D01*
X12500Y56000D02*
X15500D01*
X14000Y54500D02*
Y57500D01*
X49400Y23900D02*
X50600D01*
X50000Y23300D02*
Y24500D01*
X49600Y52100D02*
X50400D01*
X50000Y51700D02*
Y52500D01*
X80313Y46905D02*
X83313D01*
X81813Y45405D02*
Y48405D01*
X12500Y4000D02*
X15500D01*
X14000Y2500D02*
Y5500D01*
X84500Y4000D02*
X87500D01*
X86000Y2500D02*
Y5500D01*
X84500Y56000D02*
X87500D01*
X86000Y54500D02*
Y57500D01*
X32362Y56000D02*
X33262D01*
X32812Y55550D02*
Y56450D01*
X29822Y56000D02*
X30722D01*
X30272Y55550D02*
Y56450D01*
X27282Y56000D02*
X28182D01*
X27732Y55550D02*
Y56450D01*
X24742Y56000D02*
X25642D01*
X25192Y55550D02*
Y56450D01*
X64437Y37453D02*
X64691D01*
X64564Y37326D02*
Y37580D01*
X64483Y42386D02*
X64737D01*
X64610Y42259D02*
Y42513D01*
X47786Y51943D02*
X48040D01*
X47913Y51816D02*
Y52070D01*
X52037Y51943D02*
X52291D01*
X52164Y51816D02*
Y52070D01*
X41037Y11805D02*
X41291D01*
X41164Y11678D02*
Y11932D01*
X39064Y52324D02*
X39318D01*
X39191Y52197D02*
Y52451D01*
X50640Y7805D02*
X50894D01*
X50767Y7678D02*
Y7932D01*
X76167Y24162D02*
X76421D01*
X76294Y24035D02*
Y24289D01*
X78707Y26035D02*
X78961D01*
X78834Y25908D02*
Y26162D01*
X79977Y14925D02*
X80231D01*
X80104Y14798D02*
Y15052D01*
X54237Y7805D02*
X54491D01*
X54364Y7678D02*
Y7932D01*
X33570Y13895D02*
X33824D01*
X33697Y13768D02*
Y14022D01*
X51402Y11835D02*
X51656D01*
X51529Y11708D02*
Y11962D01*
X38637Y11805D02*
X38891D01*
X38764Y11678D02*
Y11932D01*
X25933Y13000D02*
X26187D01*
X26060Y12873D02*
Y13127D01*
X44567Y13918D02*
X44821D01*
X44694Y13791D02*
Y14045D01*
X80231Y15955D02*
X80485D01*
X80358Y15828D02*
Y16082D01*
X71661Y14925D02*
X71915D01*
X71788Y14798D02*
Y15052D01*
X69135Y15955D02*
X69389D01*
X69262Y15828D02*
Y16082D01*
X25933Y44596D02*
X26187D01*
X26060Y44469D02*
Y44723D01*
X69944Y33977D02*
X70198D01*
X70071Y33849D02*
Y34104D01*
X53773Y49603D02*
X54027D01*
X53900Y49476D02*
Y49730D01*
X53773Y47203D02*
X54027D01*
X53900Y47076D02*
Y47330D01*
X53773Y44803D02*
X54027D01*
X53900Y44676D02*
Y44930D01*
X53773Y40803D02*
X54027D01*
X53900Y40676D02*
Y40930D01*
X53773Y37603D02*
X54027D01*
X53900Y37476D02*
Y37730D01*
X48237Y25390D02*
X48491D01*
X48364Y25263D02*
Y25517D01*
X44544Y24062D02*
X44798D01*
X44671Y23935D02*
Y24189D01*
X32987Y24062D02*
X33241D01*
X33114Y23935D02*
Y24189D01*
X64373Y24062D02*
X64627D01*
X64500Y23935D02*
Y24189D01*
X20443Y25908D02*
X20697D01*
X20570Y25781D02*
Y26035D01*
X80337Y21000D02*
X80591D01*
X80464Y20873D02*
Y21127D01*
X79373Y19685D02*
X79627D01*
X79500Y19558D02*
Y19812D01*
X80947Y19685D02*
X81201D01*
X81074Y19558D02*
Y19812D01*
X81537Y21000D02*
X81791D01*
X81664Y20873D02*
Y21127D01*
X64033Y12865D02*
X64287D01*
X64160Y12738D02*
Y12992D01*
X61908Y12865D02*
X62162D01*
X62035Y12738D02*
Y12992D01*
X62971Y12865D02*
X63225D01*
X63098Y12738D02*
Y12992D01*
X60847Y12865D02*
X61100D01*
X60973Y12738D02*
Y12992D01*
X58722Y12865D02*
X58976D01*
X58849Y12738D02*
Y12992D01*
X77056Y19685D02*
X77310D01*
X77183Y19558D02*
Y19812D01*
X24097Y14957D02*
X24351D01*
X24224Y14830D02*
Y15084D01*
X27433Y48128D02*
X27687D01*
X27560Y48001D02*
Y48255D01*
X36812Y12812D02*
X37065D01*
X36938Y12686D02*
Y12939D01*
X33368Y48993D02*
X33622D01*
X33495Y48866D02*
Y49120D01*
X33558Y39404D02*
X33812D01*
X33686Y39278D02*
Y39532D01*
X33467Y41782D02*
X33721D01*
X33594Y41655D02*
Y41909D01*
X39064Y36384D02*
X39318D01*
X39191Y36257D02*
Y36511D01*
X45273Y43200D02*
X45527D01*
X45400Y43073D02*
Y43327D01*
X47319Y12847D02*
X47574D01*
X47446Y12719D02*
Y12974D01*
X51021Y21180D02*
X51275D01*
X51148Y21053D02*
Y21307D01*
X39161Y28256D02*
X39415D01*
X39288Y28129D02*
Y28383D01*
X39064Y32320D02*
X39318D01*
X39191Y32193D02*
Y32447D01*
X20373Y19685D02*
X20627D01*
X20500Y19558D02*
Y19812D01*
X59784Y12865D02*
X60038D01*
X59911Y12738D02*
Y12992D01*
X62937Y19685D02*
X63191D01*
X63064Y19558D02*
Y19812D01*
X69944Y42008D02*
X70198D01*
X70071Y41881D02*
Y42135D01*
X74937Y19685D02*
X75191D01*
X75064Y19558D02*
Y19812D01*
X45973Y44000D02*
X46227D01*
X46100Y43873D02*
Y44127D01*
X45973Y39200D02*
X46227D01*
X46100Y39073D02*
Y39327D01*
X45973Y36800D02*
X46227D01*
X46100Y36673D02*
Y36927D01*
X45973Y33600D02*
X46227D01*
X46100Y33473D02*
Y33727D01*
X54583Y24062D02*
X54837D01*
X54710Y23935D02*
Y24189D01*
X76137Y19685D02*
X76391D01*
X76264Y19558D02*
Y19812D01*
X45973Y49600D02*
X46227D01*
X46100Y49473D02*
Y49727D01*
X53773Y26403D02*
X54027D01*
X53900Y26276D02*
Y26530D01*
X77937Y19656D02*
X78191D01*
X78064Y19529D02*
Y19783D01*
X21537Y19685D02*
X21791D01*
X21664Y19558D02*
Y19812D01*
X20637Y7805D02*
X20891D01*
X20764Y7678D02*
Y7932D01*
X21237Y7805D02*
X21491D01*
X21364Y7678D02*
Y7932D01*
X29637Y7805D02*
X29891D01*
X29764Y7678D02*
Y7932D01*
X33837Y7805D02*
X34091D01*
X33964Y7678D02*
Y7932D01*
X46437Y7805D02*
X46691D01*
X46564Y7678D02*
Y7932D01*
X65637Y7805D02*
X65891D01*
X65764Y7678D02*
Y7932D01*
X75837Y7805D02*
X76091D01*
X75964Y7678D02*
Y7932D01*
X80637Y7805D02*
X80891D01*
X80764Y7678D02*
Y7932D01*
X81237Y7805D02*
X81491D01*
X81364Y7678D02*
Y7932D01*
X24097Y32421D02*
X24351D01*
X24224Y32294D02*
Y32548D01*
X24097Y37453D02*
X24351D01*
X24224Y37326D02*
Y37580D01*
X22400Y32421D02*
X22654D01*
X22527Y32294D02*
Y32548D01*
X24236Y44596D02*
X24490D01*
X24363Y44469D02*
Y44723D01*
X21557Y24112D02*
X21811D01*
X21684Y23985D02*
Y24239D01*
X71937Y24123D02*
X72191D01*
X72064Y23996D02*
Y24250D01*
X54373Y19685D02*
X54627D01*
X54500Y19558D02*
Y19812D01*
X34130Y19685D02*
X34384D01*
X34257Y19558D02*
Y19812D01*
X46737Y19685D02*
X46991D01*
X46864Y19558D02*
Y19812D01*
X65937Y19685D02*
X66191D01*
X66064Y19558D02*
Y19812D01*
X97173Y46905D02*
X100173D01*
X98673Y45405D02*
Y48405D01*
X96264Y13905D02*
X97964D01*
X97114Y13055D02*
Y14755D01*
X163314Y13905D02*
X164514D01*
X163914Y13305D02*
Y14505D01*
X93000Y56000D02*
X96000D01*
X94500Y54500D02*
Y57500D01*
X129900Y23900D02*
X131100D01*
X130500Y23300D02*
Y24500D01*
X130100Y52100D02*
X130900D01*
X130500Y51700D02*
Y52500D01*
X160813Y46905D02*
X163813D01*
X162313Y45405D02*
Y48405D01*
X93000Y4000D02*
X96000D01*
X94500Y2500D02*
Y5500D01*
X165000Y4000D02*
X168000D01*
X166500Y2500D02*
Y5500D01*
X165000Y56000D02*
X168000D01*
X166500Y54500D02*
Y57500D01*
X112862Y56000D02*
X113762D01*
X113312Y55550D02*
Y56450D01*
X110322Y56000D02*
X111222D01*
X110772Y55550D02*
Y56450D01*
X107782Y56000D02*
X108682D01*
X108232Y55550D02*
Y56450D01*
X105242Y56000D02*
X106142D01*
X105692Y55550D02*
Y56450D01*
X144937Y37453D02*
X145191D01*
X145064Y37326D02*
Y37580D01*
X144983Y42386D02*
X145237D01*
X145110Y42259D02*
Y42513D01*
X128286Y51943D02*
X128540D01*
X128413Y51816D02*
Y52070D01*
X132537Y51943D02*
X132791D01*
X132664Y51816D02*
Y52070D01*
X121537Y11805D02*
X121791D01*
X121664Y11678D02*
Y11932D01*
X119564Y52324D02*
X119818D01*
X119691Y52197D02*
Y52451D01*
X131140Y7805D02*
X131394D01*
X131267Y7678D02*
Y7932D01*
X156667Y24162D02*
X156921D01*
X156794Y24035D02*
Y24289D01*
X159207Y26035D02*
X159461D01*
X159334Y25908D02*
Y26162D01*
X160477Y14925D02*
X160731D01*
X160604Y14798D02*
Y15052D01*
X134737Y7805D02*
X134991D01*
X134864Y7678D02*
Y7932D01*
X114070Y13895D02*
X114324D01*
X114197Y13768D02*
Y14022D01*
X131902Y11835D02*
X132156D01*
X132029Y11708D02*
Y11962D01*
X119137Y11805D02*
X119391D01*
X119264Y11678D02*
Y11932D01*
X106433Y13000D02*
X106687D01*
X106560Y12873D02*
Y13127D01*
X125067Y13918D02*
X125321D01*
X125194Y13791D02*
Y14045D01*
X160731Y15955D02*
X160985D01*
X160858Y15828D02*
Y16082D01*
X152161Y14925D02*
X152415D01*
X152288Y14798D02*
Y15052D01*
X149635Y15955D02*
X149889D01*
X149762Y15828D02*
Y16082D01*
X106433Y44596D02*
X106687D01*
X106560Y44469D02*
Y44723D01*
X150444Y33977D02*
X150698D01*
X150571Y33849D02*
Y34104D01*
X134273Y49603D02*
X134527D01*
X134400Y49476D02*
Y49730D01*
X134273Y47203D02*
X134527D01*
X134400Y47076D02*
Y47330D01*
X134273Y44803D02*
X134527D01*
X134400Y44676D02*
Y44930D01*
X134273Y40803D02*
X134527D01*
X134400Y40676D02*
Y40930D01*
X134273Y37603D02*
X134527D01*
X134400Y37476D02*
Y37730D01*
X128737Y25390D02*
X128991D01*
X128864Y25263D02*
Y25517D01*
X125044Y24062D02*
X125298D01*
X125171Y23935D02*
Y24189D01*
X113487Y24062D02*
X113741D01*
X113614Y23935D02*
Y24189D01*
X144873Y24062D02*
X145127D01*
X145000Y23935D02*
Y24189D01*
X100943Y25908D02*
X101197D01*
X101070Y25781D02*
Y26035D01*
X160837Y21000D02*
X161091D01*
X160964Y20873D02*
Y21127D01*
X159873Y19685D02*
X160127D01*
X160000Y19558D02*
Y19812D01*
X161447Y19685D02*
X161701D01*
X161574Y19558D02*
Y19812D01*
X162037Y21000D02*
X162291D01*
X162164Y20873D02*
Y21127D01*
X144533Y12865D02*
X144787D01*
X144660Y12738D02*
Y12992D01*
X142408Y12865D02*
X142662D01*
X142535Y12738D02*
Y12992D01*
X143471Y12865D02*
X143725D01*
X143598Y12738D02*
Y12992D01*
X141346Y12865D02*
X141600D01*
X141473Y12738D02*
Y12992D01*
X139222Y12865D02*
X139476D01*
X139349Y12738D02*
Y12992D01*
X157556Y19685D02*
X157810D01*
X157683Y19558D02*
Y19812D01*
X104597Y14957D02*
X104851D01*
X104724Y14830D02*
Y15084D01*
X107933Y48128D02*
X108187D01*
X108060Y48001D02*
Y48255D01*
X117312Y12812D02*
X117565D01*
X117438Y12686D02*
Y12939D01*
X113868Y48993D02*
X114122D01*
X113995Y48866D02*
Y49120D01*
X114059Y39404D02*
X114312D01*
X114186Y39278D02*
Y39532D01*
X113967Y41782D02*
X114221D01*
X114094Y41655D02*
Y41909D01*
X119564Y36384D02*
X119818D01*
X119691Y36257D02*
Y36511D01*
X125773Y43200D02*
X126027D01*
X125900Y43073D02*
Y43327D01*
X127820Y12847D02*
X128074D01*
X127947Y12719D02*
Y12974D01*
X131521Y21180D02*
X131775D01*
X131648Y21053D02*
Y21307D01*
X119661Y28256D02*
X119915D01*
X119788Y28129D02*
Y28383D01*
X119564Y32320D02*
X119818D01*
X119691Y32193D02*
Y32447D01*
X100873Y19685D02*
X101127D01*
X101000Y19558D02*
Y19812D01*
X140284Y12865D02*
X140538D01*
X140411Y12738D02*
Y12992D01*
X143437Y19685D02*
X143691D01*
X143564Y19558D02*
Y19812D01*
X150444Y42008D02*
X150698D01*
X150571Y41881D02*
Y42135D01*
X155437Y19685D02*
X155691D01*
X155564Y19558D02*
Y19812D01*
X126473Y44000D02*
X126727D01*
X126600Y43873D02*
Y44127D01*
X126473Y39200D02*
X126727D01*
X126600Y39073D02*
Y39327D01*
X126473Y36800D02*
X126727D01*
X126600Y36673D02*
Y36927D01*
X126473Y33600D02*
X126727D01*
X126600Y33473D02*
Y33727D01*
X135083Y24062D02*
X135337D01*
X135210Y23935D02*
Y24189D01*
X156637Y19685D02*
X156891D01*
X156764Y19558D02*
Y19812D01*
X126473Y49600D02*
X126727D01*
X126600Y49473D02*
Y49727D01*
X134273Y26403D02*
X134527D01*
X134400Y26276D02*
Y26530D01*
X158437Y19656D02*
X158691D01*
X158564Y19529D02*
Y19783D01*
X102037Y19685D02*
X102291D01*
X102164Y19558D02*
Y19812D01*
X101137Y7805D02*
X101391D01*
X101264Y7678D02*
Y7932D01*
X101737Y7805D02*
X101991D01*
X101864Y7678D02*
Y7932D01*
X110137Y7805D02*
X110391D01*
X110264Y7678D02*
Y7932D01*
X114337Y7805D02*
X114591D01*
X114464Y7678D02*
Y7932D01*
X126937Y7805D02*
X127191D01*
X127064Y7678D02*
Y7932D01*
X146137Y7805D02*
X146391D01*
X146264Y7678D02*
Y7932D01*
X156337Y7805D02*
X156591D01*
X156464Y7678D02*
Y7932D01*
X161137Y7805D02*
X161391D01*
X161264Y7678D02*
Y7932D01*
X161737Y7805D02*
X161991D01*
X161864Y7678D02*
Y7932D01*
X104597Y32421D02*
X104851D01*
X104724Y32294D02*
Y32548D01*
X104597Y37453D02*
X104851D01*
X104724Y37326D02*
Y37580D01*
X102900Y32421D02*
X103154D01*
X103027Y32294D02*
Y32548D01*
X104736Y44596D02*
X104990D01*
X104863Y44469D02*
Y44723D01*
X102057Y24112D02*
X102311D01*
X102184Y23985D02*
Y24239D01*
X152437Y24123D02*
X152691D01*
X152564Y23996D02*
Y24250D01*
X134873Y19685D02*
X135127D01*
X135000Y19558D02*
Y19812D01*
X114630Y19685D02*
X114884D01*
X114757Y19558D02*
Y19812D01*
X127237Y19685D02*
X127491D01*
X127364Y19558D02*
Y19812D01*
X146437Y19685D02*
X146691D01*
X146564Y19558D02*
Y19812D01*
X16673Y107405D02*
X19673D01*
X18173Y105905D02*
Y108905D01*
X15764Y74405D02*
X17464D01*
X16614Y73555D02*
Y75255D01*
X82814Y74405D02*
X84014D01*
X83414Y73805D02*
Y75005D01*
X12500Y116500D02*
X15500D01*
X14000Y115000D02*
Y118000D01*
X49400Y84400D02*
X50600D01*
X50000Y83800D02*
Y85000D01*
X49600Y112600D02*
X50400D01*
X50000Y112200D02*
Y113000D01*
X80313Y107405D02*
X83313D01*
X81813Y105905D02*
Y108905D01*
X12500Y64500D02*
X15500D01*
X14000Y63000D02*
Y66000D01*
X84500Y64500D02*
X87500D01*
X86000Y63000D02*
Y66000D01*
X84500Y116500D02*
X87500D01*
X86000Y115000D02*
Y118000D01*
X32362Y116500D02*
X33262D01*
X32812Y116050D02*
Y116950D01*
X29822Y116500D02*
X30722D01*
X30272Y116050D02*
Y116950D01*
X27282Y116500D02*
X28182D01*
X27732Y116050D02*
Y116950D01*
X24742Y116500D02*
X25642D01*
X25192Y116050D02*
Y116950D01*
X64437Y97953D02*
X64691D01*
X64564Y97826D02*
Y98080D01*
X64483Y102886D02*
X64737D01*
X64610Y102759D02*
Y103013D01*
X47786Y112443D02*
X48040D01*
X47913Y112316D02*
Y112570D01*
X52037Y112443D02*
X52291D01*
X52164Y112316D02*
Y112570D01*
X41037Y72305D02*
X41291D01*
X41164Y72178D02*
Y72432D01*
X39064Y112824D02*
X39318D01*
X39191Y112697D02*
Y112951D01*
X50640Y68305D02*
X50894D01*
X50767Y68178D02*
Y68432D01*
X76167Y84662D02*
X76421D01*
X76294Y84535D02*
Y84789D01*
X78707Y86535D02*
X78961D01*
X78834Y86408D02*
Y86662D01*
X79977Y75425D02*
X80231D01*
X80104Y75298D02*
Y75552D01*
X54237Y68305D02*
X54491D01*
X54364Y68178D02*
Y68432D01*
X33570Y74395D02*
X33824D01*
X33697Y74268D02*
Y74522D01*
X51402Y72335D02*
X51656D01*
X51529Y72208D02*
Y72462D01*
X38637Y72305D02*
X38891D01*
X38764Y72178D02*
Y72432D01*
X25933Y73500D02*
X26187D01*
X26060Y73373D02*
Y73627D01*
X44567Y74418D02*
X44821D01*
X44694Y74291D02*
Y74545D01*
X80231Y76455D02*
X80485D01*
X80358Y76328D02*
Y76582D01*
X71661Y75425D02*
X71915D01*
X71788Y75298D02*
Y75552D01*
X69135Y76455D02*
X69389D01*
X69262Y76328D02*
Y76582D01*
X25933Y105096D02*
X26187D01*
X26060Y104969D02*
Y105223D01*
X69944Y94477D02*
X70198D01*
X70071Y94350D02*
Y94604D01*
X53773Y110103D02*
X54027D01*
X53900Y109976D02*
Y110230D01*
X53773Y107703D02*
X54027D01*
X53900Y107576D02*
Y107830D01*
X53773Y105303D02*
X54027D01*
X53900Y105176D02*
Y105430D01*
X53773Y101303D02*
X54027D01*
X53900Y101176D02*
Y101430D01*
X53773Y98103D02*
X54027D01*
X53900Y97976D02*
Y98230D01*
X48237Y85890D02*
X48491D01*
X48364Y85763D02*
Y86017D01*
X44544Y84562D02*
X44798D01*
X44671Y84435D02*
Y84689D01*
X32987Y84562D02*
X33241D01*
X33114Y84435D02*
Y84689D01*
X64373Y84562D02*
X64627D01*
X64500Y84435D02*
Y84689D01*
X20443Y86408D02*
X20697D01*
X20570Y86281D02*
Y86535D01*
X80337Y81500D02*
X80591D01*
X80464Y81373D02*
Y81627D01*
X79373Y80185D02*
X79627D01*
X79500Y80058D02*
Y80312D01*
X80947Y80185D02*
X81201D01*
X81074Y80058D02*
Y80312D01*
X81537Y81500D02*
X81791D01*
X81664Y81373D02*
Y81627D01*
X64033Y73365D02*
X64287D01*
X64160Y73238D02*
Y73492D01*
X61908Y73365D02*
X62162D01*
X62035Y73238D02*
Y73492D01*
X62971Y73365D02*
X63225D01*
X63098Y73238D02*
Y73492D01*
X60847Y73365D02*
X61100D01*
X60973Y73238D02*
Y73492D01*
X58722Y73365D02*
X58976D01*
X58849Y73238D02*
Y73492D01*
X77056Y80185D02*
X77310D01*
X77183Y80058D02*
Y80312D01*
X24097Y75457D02*
X24351D01*
X24224Y75330D02*
Y75584D01*
X27433Y108628D02*
X27687D01*
X27560Y108501D02*
Y108755D01*
X36812Y73312D02*
X37065D01*
X36938Y73186D02*
Y73439D01*
X33368Y109493D02*
X33622D01*
X33495Y109366D02*
Y109620D01*
X33558Y99905D02*
X33812D01*
X33686Y99777D02*
Y100032D01*
X33467Y102282D02*
X33721D01*
X33594Y102155D02*
Y102409D01*
X39064Y96884D02*
X39318D01*
X39191Y96757D02*
Y97011D01*
X45273Y103700D02*
X45527D01*
X45400Y103573D02*
Y103827D01*
X47319Y73346D02*
X47574D01*
X47446Y73219D02*
Y73474D01*
X51021Y81680D02*
X51275D01*
X51148Y81553D02*
Y81807D01*
X39161Y88756D02*
X39415D01*
X39288Y88629D02*
Y88883D01*
X39064Y92820D02*
X39318D01*
X39191Y92693D02*
Y92947D01*
X20373Y80185D02*
X20627D01*
X20500Y80058D02*
Y80312D01*
X59784Y73365D02*
X60038D01*
X59911Y73238D02*
Y73492D01*
X62937Y80185D02*
X63191D01*
X63064Y80058D02*
Y80312D01*
X69944Y102508D02*
X70198D01*
X70071Y102381D02*
Y102635D01*
X74937Y80185D02*
X75191D01*
X75064Y80058D02*
Y80312D01*
X45973Y104500D02*
X46227D01*
X46100Y104373D02*
Y104627D01*
X45973Y99700D02*
X46227D01*
X46100Y99573D02*
Y99827D01*
X45973Y97300D02*
X46227D01*
X46100Y97173D02*
Y97427D01*
X45973Y94100D02*
X46227D01*
X46100Y93973D02*
Y94227D01*
X54583Y84562D02*
X54837D01*
X54710Y84435D02*
Y84689D01*
X76137Y80185D02*
X76391D01*
X76264Y80058D02*
Y80312D01*
X45973Y110100D02*
X46227D01*
X46100Y109973D02*
Y110227D01*
X53773Y86903D02*
X54027D01*
X53900Y86776D02*
Y87030D01*
X77937Y80156D02*
X78191D01*
X78064Y80029D02*
Y80283D01*
X21537Y80185D02*
X21791D01*
X21664Y80058D02*
Y80312D01*
X20637Y68305D02*
X20891D01*
X20764Y68178D02*
Y68432D01*
X21237Y68305D02*
X21491D01*
X21364Y68178D02*
Y68432D01*
X29637Y68305D02*
X29891D01*
X29764Y68178D02*
Y68432D01*
X33837Y68305D02*
X34091D01*
X33964Y68178D02*
Y68432D01*
X46437Y68305D02*
X46691D01*
X46564Y68178D02*
Y68432D01*
X65637Y68305D02*
X65891D01*
X65764Y68178D02*
Y68432D01*
X75837Y68305D02*
X76091D01*
X75964Y68178D02*
Y68432D01*
X80637Y68305D02*
X80891D01*
X80764Y68178D02*
Y68432D01*
X81237Y68305D02*
X81491D01*
X81364Y68178D02*
Y68432D01*
X24097Y92921D02*
X24351D01*
X24224Y92794D02*
Y93048D01*
X24097Y97953D02*
X24351D01*
X24224Y97826D02*
Y98080D01*
X22400Y92921D02*
X22654D01*
X22527Y92794D02*
Y93048D01*
X24236Y105096D02*
X24490D01*
X24363Y104969D02*
Y105223D01*
X21557Y84612D02*
X21811D01*
X21684Y84485D02*
Y84739D01*
X71937Y84623D02*
X72191D01*
X72064Y84496D02*
Y84750D01*
X54373Y80185D02*
X54627D01*
X54500Y80058D02*
Y80312D01*
X34130Y80185D02*
X34384D01*
X34257Y80058D02*
Y80312D01*
X46737Y80185D02*
X46991D01*
X46864Y80058D02*
Y80312D01*
X65937Y80185D02*
X66191D01*
X66064Y80058D02*
Y80312D01*
X97173Y107405D02*
X100173D01*
X98673Y105905D02*
Y108905D01*
X96264Y74405D02*
X97964D01*
X97114Y73555D02*
Y75255D01*
X163314Y74405D02*
X164514D01*
X163914Y73805D02*
Y75005D01*
X93000Y116500D02*
X96000D01*
X94500Y115000D02*
Y118000D01*
X129900Y84400D02*
X131100D01*
X130500Y83800D02*
Y85000D01*
X130100Y112600D02*
X130900D01*
X130500Y112200D02*
Y113000D01*
X160813Y107405D02*
X163813D01*
X162313Y105905D02*
Y108905D01*
X93000Y64500D02*
X96000D01*
X94500Y63000D02*
Y66000D01*
X165000Y64500D02*
X168000D01*
X166500Y63000D02*
Y66000D01*
X165000Y116500D02*
X168000D01*
X166500Y115000D02*
Y118000D01*
X112862Y116500D02*
X113762D01*
X113312Y116050D02*
Y116950D01*
X110322Y116500D02*
X111222D01*
X110772Y116050D02*
Y116950D01*
X107782Y116500D02*
X108682D01*
X108232Y116050D02*
Y116950D01*
X105242Y116500D02*
X106142D01*
X105692Y116050D02*
Y116950D01*
X144937Y97953D02*
X145191D01*
X145064Y97826D02*
Y98080D01*
X144983Y102886D02*
X145237D01*
X145110Y102759D02*
Y103013D01*
X128286Y112443D02*
X128540D01*
X128413Y112316D02*
Y112570D01*
X132537Y112443D02*
X132791D01*
X132664Y112316D02*
Y112570D01*
X121537Y72305D02*
X121791D01*
X121664Y72178D02*
Y72432D01*
X119564Y112824D02*
X119818D01*
X119691Y112697D02*
Y112951D01*
X131140Y68305D02*
X131394D01*
X131267Y68178D02*
Y68432D01*
X156667Y84662D02*
X156921D01*
X156794Y84535D02*
Y84789D01*
X159207Y86535D02*
X159461D01*
X159334Y86408D02*
Y86662D01*
X160477Y75425D02*
X160731D01*
X160604Y75298D02*
Y75552D01*
X134737Y68305D02*
X134991D01*
X134864Y68178D02*
Y68432D01*
X114070Y74395D02*
X114324D01*
X114197Y74268D02*
Y74522D01*
X131902Y72335D02*
X132156D01*
X132029Y72208D02*
Y72462D01*
X119137Y72305D02*
X119391D01*
X119264Y72178D02*
Y72432D01*
X106433Y73500D02*
X106687D01*
X106560Y73373D02*
Y73627D01*
X125067Y74418D02*
X125321D01*
X125194Y74291D02*
Y74545D01*
X160731Y76455D02*
X160985D01*
X160858Y76328D02*
Y76582D01*
X152161Y75425D02*
X152415D01*
X152288Y75298D02*
Y75552D01*
X149635Y76455D02*
X149889D01*
X149762Y76328D02*
Y76582D01*
X106433Y105096D02*
X106687D01*
X106560Y104969D02*
Y105223D01*
X150444Y94477D02*
X150698D01*
X150571Y94350D02*
Y94604D01*
X134273Y110103D02*
X134527D01*
X134400Y109976D02*
Y110230D01*
X134273Y107703D02*
X134527D01*
X134400Y107576D02*
Y107830D01*
X134273Y105303D02*
X134527D01*
X134400Y105176D02*
Y105430D01*
X134273Y101303D02*
X134527D01*
X134400Y101176D02*
Y101430D01*
X134273Y98103D02*
X134527D01*
X134400Y97976D02*
Y98230D01*
X128737Y85890D02*
X128991D01*
X128864Y85763D02*
Y86017D01*
X125044Y84562D02*
X125298D01*
X125171Y84435D02*
Y84689D01*
X113487Y84562D02*
X113741D01*
X113614Y84435D02*
Y84689D01*
X144873Y84562D02*
X145127D01*
X145000Y84435D02*
Y84689D01*
X100943Y86408D02*
X101197D01*
X101070Y86281D02*
Y86535D01*
X160837Y81500D02*
X161091D01*
X160964Y81373D02*
Y81627D01*
X159873Y80185D02*
X160127D01*
X160000Y80058D02*
Y80312D01*
X161447Y80185D02*
X161701D01*
X161574Y80058D02*
Y80312D01*
X162037Y81500D02*
X162291D01*
X162164Y81373D02*
Y81627D01*
X144533Y73365D02*
X144787D01*
X144660Y73238D02*
Y73492D01*
X142408Y73365D02*
X142662D01*
X142535Y73238D02*
Y73492D01*
X143471Y73365D02*
X143725D01*
X143598Y73238D02*
Y73492D01*
X141346Y73365D02*
X141600D01*
X141473Y73238D02*
Y73492D01*
X139222Y73365D02*
X139476D01*
X139349Y73238D02*
Y73492D01*
X157556Y80185D02*
X157810D01*
X157683Y80058D02*
Y80312D01*
X104597Y75457D02*
X104851D01*
X104724Y75330D02*
Y75584D01*
X107933Y108628D02*
X108187D01*
X108060Y108501D02*
Y108755D01*
X117312Y73312D02*
X117565D01*
X117438Y73186D02*
Y73439D01*
X113868Y109493D02*
X114122D01*
X113995Y109366D02*
Y109620D01*
X114059Y99905D02*
X114312D01*
X114186Y99777D02*
Y100032D01*
X113967Y102282D02*
X114221D01*
X114094Y102155D02*
Y102409D01*
X119564Y96884D02*
X119818D01*
X119691Y96757D02*
Y97011D01*
X125773Y103700D02*
X126027D01*
X125900Y103573D02*
Y103827D01*
X127820Y73346D02*
X128074D01*
X127947Y73219D02*
Y73474D01*
X131521Y81680D02*
X131775D01*
X131648Y81553D02*
Y81807D01*
X119661Y88756D02*
X119915D01*
X119788Y88629D02*
Y88883D01*
X119564Y92820D02*
X119818D01*
X119691Y92693D02*
Y92947D01*
X100873Y80185D02*
X101127D01*
X101000Y80058D02*
Y80312D01*
X140284Y73365D02*
X140538D01*
X140411Y73238D02*
Y73492D01*
X143437Y80185D02*
X143691D01*
X143564Y80058D02*
Y80312D01*
X150444Y102508D02*
X150698D01*
X150571Y102381D02*
Y102635D01*
X155437Y80185D02*
X155691D01*
X155564Y80058D02*
Y80312D01*
X126473Y104500D02*
X126727D01*
X126600Y104373D02*
Y104627D01*
X126473Y99700D02*
X126727D01*
X126600Y99573D02*
Y99827D01*
X126473Y97300D02*
X126727D01*
X126600Y97173D02*
Y97427D01*
X126473Y94100D02*
X126727D01*
X126600Y93973D02*
Y94227D01*
X135083Y84562D02*
X135337D01*
X135210Y84435D02*
Y84689D01*
X156637Y80185D02*
X156891D01*
X156764Y80058D02*
Y80312D01*
X126473Y110100D02*
X126727D01*
X126600Y109973D02*
Y110227D01*
X134273Y86903D02*
X134527D01*
X134400Y86776D02*
Y87030D01*
X158437Y80156D02*
X158691D01*
X158564Y80029D02*
Y80283D01*
X102037Y80185D02*
X102291D01*
X102164Y80058D02*
Y80312D01*
X101137Y68305D02*
X101391D01*
X101264Y68178D02*
Y68432D01*
X101737Y68305D02*
X101991D01*
X101864Y68178D02*
Y68432D01*
X110137Y68305D02*
X110391D01*
X110264Y68178D02*
Y68432D01*
X114337Y68305D02*
X114591D01*
X114464Y68178D02*
Y68432D01*
X126937Y68305D02*
X127191D01*
X127064Y68178D02*
Y68432D01*
X146137Y68305D02*
X146391D01*
X146264Y68178D02*
Y68432D01*
X156337Y68305D02*
X156591D01*
X156464Y68178D02*
Y68432D01*
X161137Y68305D02*
X161391D01*
X161264Y68178D02*
Y68432D01*
X161737Y68305D02*
X161991D01*
X161864Y68178D02*
Y68432D01*
X104597Y92921D02*
X104851D01*
X104724Y92794D02*
Y93048D01*
X104597Y97953D02*
X104851D01*
X104724Y97826D02*
Y98080D01*
X102900Y92921D02*
X103154D01*
X103027Y92794D02*
Y93048D01*
X104736Y105096D02*
X104990D01*
X104863Y104969D02*
Y105223D01*
X102057Y84612D02*
X102311D01*
X102184Y84485D02*
Y84739D01*
X152437Y84623D02*
X152691D01*
X152564Y84496D02*
Y84750D01*
X134873Y80185D02*
X135127D01*
X135000Y80058D02*
Y80312D01*
X114630Y80185D02*
X114884D01*
X114757Y80058D02*
Y80312D01*
X127237Y80185D02*
X127491D01*
X127364Y80058D02*
Y80312D01*
X146437Y80185D02*
X146691D01*
X146564Y80058D02*
Y80312D01*
X16673Y167905D02*
X19673D01*
X18173Y166405D02*
Y169405D01*
X15764Y134905D02*
X17464D01*
X16614Y134055D02*
Y135755D01*
X82814Y134905D02*
X84014D01*
X83414Y134305D02*
Y135505D01*
X12500Y177000D02*
X15500D01*
X14000Y175500D02*
Y178500D01*
X49400Y144900D02*
X50600D01*
X50000Y144300D02*
Y145500D01*
X49600Y173100D02*
X50400D01*
X50000Y172700D02*
Y173500D01*
X80313Y167905D02*
X83313D01*
X81813Y166405D02*
Y169405D01*
X12500Y125000D02*
X15500D01*
X14000Y123500D02*
Y126500D01*
X84500Y125000D02*
X87500D01*
X86000Y123500D02*
Y126500D01*
X84500Y177000D02*
X87500D01*
X86000Y175500D02*
Y178500D01*
X32362Y177000D02*
X33262D01*
X32812Y176550D02*
Y177450D01*
X29822Y177000D02*
X30722D01*
X30272Y176550D02*
Y177450D01*
X27282Y177000D02*
X28182D01*
X27732Y176550D02*
Y177450D01*
X24742Y177000D02*
X25642D01*
X25192Y176550D02*
Y177450D01*
X64437Y158453D02*
X64691D01*
X64564Y158326D02*
Y158580D01*
X64483Y163386D02*
X64737D01*
X64610Y163259D02*
Y163513D01*
X47786Y172943D02*
X48040D01*
X47913Y172816D02*
Y173070D01*
X52037Y172943D02*
X52291D01*
X52164Y172816D02*
Y173070D01*
X41037Y132805D02*
X41291D01*
X41164Y132678D02*
Y132932D01*
X39064Y173324D02*
X39318D01*
X39191Y173197D02*
Y173451D01*
X50640Y128805D02*
X50894D01*
X50767Y128678D02*
Y128932D01*
X76167Y145162D02*
X76421D01*
X76294Y145035D02*
Y145289D01*
X78707Y147035D02*
X78961D01*
X78834Y146908D02*
Y147162D01*
X79977Y135925D02*
X80231D01*
X80104Y135798D02*
Y136052D01*
X54237Y128805D02*
X54491D01*
X54364Y128678D02*
Y128932D01*
X33570Y134895D02*
X33824D01*
X33697Y134768D02*
Y135022D01*
X51402Y132835D02*
X51656D01*
X51529Y132708D02*
Y132962D01*
X38637Y132805D02*
X38891D01*
X38764Y132678D02*
Y132932D01*
X25933Y134000D02*
X26187D01*
X26060Y133873D02*
Y134127D01*
X44567Y134918D02*
X44821D01*
X44694Y134791D02*
Y135045D01*
X80231Y136955D02*
X80485D01*
X80358Y136828D02*
Y137082D01*
X71661Y135925D02*
X71915D01*
X71788Y135798D02*
Y136052D01*
X69135Y136955D02*
X69389D01*
X69262Y136828D02*
Y137082D01*
X25933Y165596D02*
X26187D01*
X26060Y165469D02*
Y165723D01*
X69944Y154977D02*
X70198D01*
X70071Y154850D02*
Y155104D01*
X53773Y170603D02*
X54027D01*
X53900Y170476D02*
Y170730D01*
X53773Y168203D02*
X54027D01*
X53900Y168076D02*
Y168330D01*
X53773Y165803D02*
X54027D01*
X53900Y165676D02*
Y165930D01*
X53773Y161803D02*
X54027D01*
X53900Y161676D02*
Y161930D01*
X53773Y158603D02*
X54027D01*
X53900Y158476D02*
Y158730D01*
X48237Y146390D02*
X48491D01*
X48364Y146263D02*
Y146517D01*
X44544Y145062D02*
X44798D01*
X44671Y144935D02*
Y145189D01*
X32987Y145062D02*
X33241D01*
X33114Y144935D02*
Y145189D01*
X64373Y145062D02*
X64627D01*
X64500Y144935D02*
Y145189D01*
X20443Y146908D02*
X20697D01*
X20570Y146781D02*
Y147035D01*
X80337Y142000D02*
X80591D01*
X80464Y141873D02*
Y142127D01*
X79373Y140685D02*
X79627D01*
X79500Y140558D02*
Y140812D01*
X80947Y140685D02*
X81201D01*
X81074Y140558D02*
Y140812D01*
X81537Y142000D02*
X81791D01*
X81664Y141873D02*
Y142127D01*
X64033Y133865D02*
X64287D01*
X64160Y133738D02*
Y133992D01*
X61908Y133865D02*
X62162D01*
X62035Y133738D02*
Y133992D01*
X62971Y133865D02*
X63225D01*
X63098Y133738D02*
Y133992D01*
X60847Y133865D02*
X61100D01*
X60973Y133738D02*
Y133992D01*
X58722Y133865D02*
X58976D01*
X58849Y133738D02*
Y133992D01*
X77056Y140685D02*
X77310D01*
X77183Y140558D02*
Y140812D01*
X24097Y135957D02*
X24351D01*
X24224Y135830D02*
Y136084D01*
X27433Y169128D02*
X27687D01*
X27560Y169001D02*
Y169255D01*
X36812Y133812D02*
X37065D01*
X36938Y133686D02*
Y133939D01*
X33368Y169993D02*
X33622D01*
X33495Y169866D02*
Y170120D01*
X33558Y160404D02*
X33812D01*
X33686Y160277D02*
Y160531D01*
X33467Y162782D02*
X33721D01*
X33594Y162655D02*
Y162909D01*
X39064Y157384D02*
X39318D01*
X39191Y157257D02*
Y157511D01*
X45273Y164200D02*
X45527D01*
X45400Y164073D02*
Y164327D01*
X47319Y133846D02*
X47574D01*
X47446Y133719D02*
Y133973D01*
X51021Y142180D02*
X51275D01*
X51148Y142053D02*
Y142307D01*
X39161Y149256D02*
X39415D01*
X39288Y149129D02*
Y149383D01*
X39064Y153320D02*
X39318D01*
X39191Y153193D02*
Y153447D01*
X20373Y140685D02*
X20627D01*
X20500Y140558D02*
Y140812D01*
X59784Y133865D02*
X60038D01*
X59911Y133738D02*
Y133992D01*
X62937Y140685D02*
X63191D01*
X63064Y140558D02*
Y140812D01*
X69944Y163008D02*
X70198D01*
X70071Y162881D02*
Y163135D01*
X74937Y140685D02*
X75191D01*
X75064Y140558D02*
Y140812D01*
X45973Y165000D02*
X46227D01*
X46100Y164873D02*
Y165127D01*
X45973Y160200D02*
X46227D01*
X46100Y160073D02*
Y160327D01*
X45973Y157800D02*
X46227D01*
X46100Y157673D02*
Y157927D01*
X45973Y154600D02*
X46227D01*
X46100Y154473D02*
Y154727D01*
X54583Y145062D02*
X54837D01*
X54710Y144935D02*
Y145189D01*
X76137Y140685D02*
X76391D01*
X76264Y140558D02*
Y140812D01*
X45973Y170600D02*
X46227D01*
X46100Y170473D02*
Y170727D01*
X53773Y147403D02*
X54027D01*
X53900Y147276D02*
Y147530D01*
X77937Y140656D02*
X78191D01*
X78064Y140529D02*
Y140783D01*
X21537Y140685D02*
X21791D01*
X21664Y140558D02*
Y140812D01*
X20637Y128805D02*
X20891D01*
X20764Y128678D02*
Y128932D01*
X21237Y128805D02*
X21491D01*
X21364Y128678D02*
Y128932D01*
X29637Y128805D02*
X29891D01*
X29764Y128678D02*
Y128932D01*
X33837Y128805D02*
X34091D01*
X33964Y128678D02*
Y128932D01*
X46437Y128805D02*
X46691D01*
X46564Y128678D02*
Y128932D01*
X65637Y128805D02*
X65891D01*
X65764Y128678D02*
Y128932D01*
X75837Y128805D02*
X76091D01*
X75964Y128678D02*
Y128932D01*
X80637Y128805D02*
X80891D01*
X80764Y128678D02*
Y128932D01*
X81237Y128805D02*
X81491D01*
X81364Y128678D02*
Y128932D01*
X24097Y153421D02*
X24351D01*
X24224Y153294D02*
Y153548D01*
X24097Y158453D02*
X24351D01*
X24224Y158326D02*
Y158580D01*
X22400Y153421D02*
X22654D01*
X22527Y153294D02*
Y153548D01*
X24236Y165596D02*
X24490D01*
X24363Y165469D02*
Y165723D01*
X21557Y145112D02*
X21811D01*
X21684Y144985D02*
Y145239D01*
X71937Y145123D02*
X72191D01*
X72064Y144996D02*
Y145250D01*
X54373Y140685D02*
X54627D01*
X54500Y140558D02*
Y140812D01*
X34130Y140685D02*
X34384D01*
X34257Y140558D02*
Y140812D01*
X46737Y140685D02*
X46991D01*
X46864Y140558D02*
Y140812D01*
X65937Y140685D02*
X66191D01*
X66064Y140558D02*
Y140812D01*
X97173Y167905D02*
X100173D01*
X98673Y166405D02*
Y169405D01*
X96264Y134905D02*
X97964D01*
X97114Y134055D02*
Y135755D01*
X163314Y134905D02*
X164514D01*
X163914Y134305D02*
Y135505D01*
X93000Y177000D02*
X96000D01*
X94500Y175500D02*
Y178500D01*
X129900Y144900D02*
X131100D01*
X130500Y144300D02*
Y145500D01*
X130100Y173100D02*
X130900D01*
X130500Y172700D02*
Y173500D01*
X160813Y167905D02*
X163813D01*
X162313Y166405D02*
Y169405D01*
X93000Y125000D02*
X96000D01*
X94500Y123500D02*
Y126500D01*
X165000Y125000D02*
X168000D01*
X166500Y123500D02*
Y126500D01*
X165000Y177000D02*
X168000D01*
X166500Y175500D02*
Y178500D01*
X112862Y177000D02*
X113762D01*
X113312Y176550D02*
Y177450D01*
X110322Y177000D02*
X111222D01*
X110772Y176550D02*
Y177450D01*
X107782Y177000D02*
X108682D01*
X108232Y176550D02*
Y177450D01*
X105242Y177000D02*
X106142D01*
X105692Y176550D02*
Y177450D01*
X144937Y158453D02*
X145191D01*
X145064Y158326D02*
Y158580D01*
X144983Y163386D02*
X145237D01*
X145110Y163259D02*
Y163513D01*
X128286Y172943D02*
X128540D01*
X128413Y172816D02*
Y173070D01*
X132537Y172943D02*
X132791D01*
X132664Y172816D02*
Y173070D01*
X121537Y132805D02*
X121791D01*
X121664Y132678D02*
Y132932D01*
X119564Y173324D02*
X119818D01*
X119691Y173197D02*
Y173451D01*
X131140Y128805D02*
X131394D01*
X131267Y128678D02*
Y128932D01*
X156667Y145162D02*
X156921D01*
X156794Y145035D02*
Y145289D01*
X159207Y147035D02*
X159461D01*
X159334Y146908D02*
Y147162D01*
X160477Y135925D02*
X160731D01*
X160604Y135798D02*
Y136052D01*
X134737Y128805D02*
X134991D01*
X134864Y128678D02*
Y128932D01*
X114070Y134895D02*
X114324D01*
X114197Y134768D02*
Y135022D01*
X131902Y132835D02*
X132156D01*
X132029Y132708D02*
Y132962D01*
X119137Y132805D02*
X119391D01*
X119264Y132678D02*
Y132932D01*
X106433Y134000D02*
X106687D01*
X106560Y133873D02*
Y134127D01*
X125067Y134918D02*
X125321D01*
X125194Y134791D02*
Y135045D01*
X160731Y136955D02*
X160985D01*
X160858Y136828D02*
Y137082D01*
X152161Y135925D02*
X152415D01*
X152288Y135798D02*
Y136052D01*
X149635Y136955D02*
X149889D01*
X149762Y136828D02*
Y137082D01*
X106433Y165596D02*
X106687D01*
X106560Y165469D02*
Y165723D01*
X150444Y154977D02*
X150698D01*
X150571Y154850D02*
Y155104D01*
X134273Y170603D02*
X134527D01*
X134400Y170476D02*
Y170730D01*
X134273Y168203D02*
X134527D01*
X134400Y168076D02*
Y168330D01*
X134273Y165803D02*
X134527D01*
X134400Y165676D02*
Y165930D01*
X134273Y161803D02*
X134527D01*
X134400Y161676D02*
Y161930D01*
X134273Y158603D02*
X134527D01*
X134400Y158476D02*
Y158730D01*
X128737Y146390D02*
X128991D01*
X128864Y146263D02*
Y146517D01*
X125044Y145062D02*
X125298D01*
X125171Y144935D02*
Y145189D01*
X113487Y145062D02*
X113741D01*
X113614Y144935D02*
Y145189D01*
X144873Y145062D02*
X145127D01*
X145000Y144935D02*
Y145189D01*
X100943Y146908D02*
X101197D01*
X101070Y146781D02*
Y147035D01*
X160837Y142000D02*
X161091D01*
X160964Y141873D02*
Y142127D01*
X159873Y140685D02*
X160127D01*
X160000Y140558D02*
Y140812D01*
X161447Y140685D02*
X161701D01*
X161574Y140558D02*
Y140812D01*
X162037Y142000D02*
X162291D01*
X162164Y141873D02*
Y142127D01*
X144533Y133865D02*
X144787D01*
X144660Y133738D02*
Y133992D01*
X142408Y133865D02*
X142662D01*
X142535Y133738D02*
Y133992D01*
X143471Y133865D02*
X143725D01*
X143598Y133738D02*
Y133992D01*
X141346Y133865D02*
X141600D01*
X141473Y133738D02*
Y133992D01*
X139222Y133865D02*
X139476D01*
X139349Y133738D02*
Y133992D01*
X157556Y140685D02*
X157810D01*
X157683Y140558D02*
Y140812D01*
X104597Y135957D02*
X104851D01*
X104724Y135830D02*
Y136084D01*
X107933Y169128D02*
X108187D01*
X108060Y169001D02*
Y169255D01*
X117312Y133812D02*
X117565D01*
X117438Y133686D02*
Y133939D01*
X113868Y169993D02*
X114122D01*
X113995Y169866D02*
Y170120D01*
X114059Y160404D02*
X114312D01*
X114186Y160277D02*
Y160531D01*
X113967Y162782D02*
X114221D01*
X114094Y162655D02*
Y162909D01*
X119564Y157384D02*
X119818D01*
X119691Y157257D02*
Y157511D01*
X125773Y164200D02*
X126027D01*
X125900Y164073D02*
Y164327D01*
X127820Y133846D02*
X128074D01*
X127947Y133719D02*
Y133973D01*
X131521Y142180D02*
X131775D01*
X131648Y142053D02*
Y142307D01*
X119661Y149256D02*
X119915D01*
X119788Y149129D02*
Y149383D01*
X119564Y153320D02*
X119818D01*
X119691Y153193D02*
Y153447D01*
X100873Y140685D02*
X101127D01*
X101000Y140558D02*
Y140812D01*
X140284Y133865D02*
X140538D01*
X140411Y133738D02*
Y133992D01*
X143437Y140685D02*
X143691D01*
X143564Y140558D02*
Y140812D01*
X150444Y163008D02*
X150698D01*
X150571Y162881D02*
Y163135D01*
X155437Y140685D02*
X155691D01*
X155564Y140558D02*
Y140812D01*
X126473Y165000D02*
X126727D01*
X126600Y164873D02*
Y165127D01*
X126473Y160200D02*
X126727D01*
X126600Y160073D02*
Y160327D01*
X126473Y157800D02*
X126727D01*
X126600Y157673D02*
Y157927D01*
X126473Y154600D02*
X126727D01*
X126600Y154473D02*
Y154727D01*
X135083Y145062D02*
X135337D01*
X135210Y144935D02*
Y145189D01*
X156637Y140685D02*
X156891D01*
X156764Y140558D02*
Y140812D01*
X126473Y170600D02*
X126727D01*
X126600Y170473D02*
Y170727D01*
X134273Y147403D02*
X134527D01*
X134400Y147276D02*
Y147530D01*
X158437Y140656D02*
X158691D01*
X158564Y140529D02*
Y140783D01*
X102037Y140685D02*
X102291D01*
X102164Y140558D02*
Y140812D01*
X101137Y128805D02*
X101391D01*
X101264Y128678D02*
Y128932D01*
X101737Y128805D02*
X101991D01*
X101864Y128678D02*
Y128932D01*
X110137Y128805D02*
X110391D01*
X110264Y128678D02*
Y128932D01*
X114337Y128805D02*
X114591D01*
X114464Y128678D02*
Y128932D01*
X126937Y128805D02*
X127191D01*
X127064Y128678D02*
Y128932D01*
X146137Y128805D02*
X146391D01*
X146264Y128678D02*
Y128932D01*
X156337Y128805D02*
X156591D01*
X156464Y128678D02*
Y128932D01*
X161137Y128805D02*
X161391D01*
X161264Y128678D02*
Y128932D01*
X161737Y128805D02*
X161991D01*
X161864Y128678D02*
Y128932D01*
X104597Y153421D02*
X104851D01*
X104724Y153294D02*
Y153548D01*
X104597Y158453D02*
X104851D01*
X104724Y158326D02*
Y158580D01*
X102900Y153421D02*
X103154D01*
X103027Y153294D02*
Y153548D01*
X104736Y165596D02*
X104990D01*
X104863Y165469D02*
Y165723D01*
X102057Y145112D02*
X102311D01*
X102184Y144985D02*
Y145239D01*
X152437Y145123D02*
X152691D01*
X152564Y144996D02*
Y145250D01*
X134873Y140685D02*
X135127D01*
X135000Y140558D02*
Y140812D01*
X114630Y140685D02*
X114884D01*
X114757Y140558D02*
Y140812D01*
X127237Y140685D02*
X127491D01*
X127364Y140558D02*
Y140812D01*
X146437Y140685D02*
X146691D01*
X146564Y140558D02*
Y140812D01*
D49*
X77716Y264752D02*
Y258754D01*
X80715D01*
X81715Y259754D01*
Y263753D01*
X80715Y264752D01*
X77716D01*
X83714Y258754D02*
Y264752D01*
X86713D01*
X87713Y263753D01*
Y261753D01*
X86713Y260754D01*
X83714D01*
X85714D02*
X87713Y258754D01*
X89712Y264752D02*
X91712D01*
X90712D01*
Y258754D01*
X89712D01*
X91712D01*
X94711Y264752D02*
Y258754D01*
X98709D01*
X100709Y264752D02*
Y258754D01*
X104707D01*
X116704Y263753D02*
X115704Y264752D01*
X113705D01*
X112705Y263753D01*
Y259754D01*
X113705Y258754D01*
X115704D01*
X116704Y259754D01*
Y261753D01*
X114704D01*
X118703Y264752D02*
Y259754D01*
X119703Y258754D01*
X121702D01*
X122702Y259754D01*
Y264752D01*
X124701D02*
X126700D01*
X125701D01*
Y258754D01*
X124701D01*
X126700D01*
X129699Y264752D02*
Y258754D01*
X132698D01*
X133698Y259754D01*
Y263753D01*
X132698Y264752D01*
X129699D01*
X139696D02*
X135697D01*
Y258754D01*
X139696D01*
X135697Y261753D02*
X137697D01*
M02*
