G04*
G04 #@! TF.GenerationSoftware,Altium Limited,Altium Designer,19.0.15 (446)*
G04*
G04 Layer_Color=32896*
%FSLAX43Y43*%
%MOMM*%
G71*
G01*
G75*
%ADD18C,0.254*%
%ADD28C,0.200*%
%ADD30C,0.127*%
D18*
X39535Y33602D02*
Y35125D01*
X38773D01*
X38519Y34872D01*
Y34364D01*
X38773Y34110D01*
X39535D01*
X39027D02*
X38519Y33602D01*
X36995D02*
X38011D01*
X36995Y34618D01*
Y34872D01*
X37249Y35125D01*
X37757D01*
X38011Y34872D01*
X36488Y33856D02*
X36234Y33602D01*
X35726D01*
X35472Y33856D01*
Y34872D01*
X35726Y35125D01*
X36234D01*
X36488Y34872D01*
Y34618D01*
X36234Y34364D01*
X35472D01*
X64295Y31392D02*
Y32916D01*
X63533D01*
X63279Y32662D01*
Y32154D01*
X63533Y31900D01*
X64295D01*
X63787D02*
X63279Y31392D01*
X62771D02*
X62264D01*
X62518D01*
Y32916D01*
X62771Y32662D01*
X60486Y32916D02*
X61502D01*
Y32154D01*
X60994Y32408D01*
X60740D01*
X60486Y32154D01*
Y31646D01*
X60740Y31392D01*
X61248D01*
X61502Y31646D01*
X64295Y25281D02*
Y26805D01*
X63534D01*
X63280Y26551D01*
Y26043D01*
X63534Y25789D01*
X64295D01*
X63788D02*
X63280Y25281D01*
X62772D02*
X62264D01*
X62518D01*
Y26805D01*
X62772Y26551D01*
X61502D02*
X61248Y26805D01*
X60741D01*
X60487Y26551D01*
Y26297D01*
X60741Y26043D01*
X60487Y25789D01*
Y25535D01*
X60741Y25281D01*
X61248D01*
X61502Y25535D01*
Y25789D01*
X61248Y26043D01*
X61502Y26297D01*
Y26551D01*
X61248Y26043D02*
X60741D01*
X39535Y45794D02*
Y47318D01*
X38773D01*
X38519Y47064D01*
Y46556D01*
X38773Y46302D01*
X39535D01*
X39027D02*
X38519Y45794D01*
X36996D02*
X38011D01*
X36996Y46810D01*
Y47064D01*
X37250Y47318D01*
X37758D01*
X38011Y47064D01*
X36488D02*
X36234Y47318D01*
X35726D01*
X35472Y47064D01*
Y46810D01*
X35726Y46556D01*
X35980D01*
X35726D01*
X35472Y46302D01*
Y46048D01*
X35726Y45794D01*
X36234D01*
X36488Y46048D01*
X39535Y43762D02*
Y45286D01*
X38773D01*
X38519Y45032D01*
Y44524D01*
X38773Y44270D01*
X39535D01*
X39027D02*
X38519Y43762D01*
X36996D02*
X38011D01*
X36996Y44778D01*
Y45032D01*
X37250Y45286D01*
X37758D01*
X38011Y45032D01*
X35726Y43762D02*
Y45286D01*
X36488Y44524D01*
X35472D01*
X39535Y41730D02*
Y43254D01*
X38773D01*
X38519Y43000D01*
Y42492D01*
X38773Y42238D01*
X39535D01*
X39027D02*
X38519Y41730D01*
X36996D02*
X38011D01*
X36996Y42746D01*
Y43000D01*
X37250Y43254D01*
X37758D01*
X38011Y43000D01*
X35472Y43254D02*
X36488D01*
Y42492D01*
X35980Y42746D01*
X35726D01*
X35472Y42492D01*
Y41984D01*
X35726Y41730D01*
X36234D01*
X36488Y41984D01*
X39535Y39698D02*
Y41222D01*
X38773D01*
X38519Y40968D01*
Y40460D01*
X38773Y40206D01*
X39535D01*
X39027D02*
X38519Y39698D01*
X36996D02*
X38011D01*
X36996Y40714D01*
Y40968D01*
X37250Y41222D01*
X37758D01*
X38011Y40968D01*
X35472Y41222D02*
X35980Y40968D01*
X36488Y40460D01*
Y39952D01*
X36234Y39698D01*
X35726D01*
X35472Y39952D01*
Y40206D01*
X35726Y40460D01*
X36488D01*
X64295Y37499D02*
Y39023D01*
X63534D01*
X63280Y38769D01*
Y38261D01*
X63534Y38007D01*
X64295D01*
X63788D02*
X63280Y37499D01*
X62772D02*
X62264D01*
X62518D01*
Y39023D01*
X62772Y38769D01*
X60487Y37499D02*
X61502D01*
X60487Y38515D01*
Y38769D01*
X60741Y39023D01*
X61248D01*
X61502Y38769D01*
X64295Y35463D02*
Y36986D01*
X63534D01*
X63280Y36733D01*
Y36225D01*
X63534Y35971D01*
X64295D01*
X63788D02*
X63280Y35463D01*
X62772D02*
X62264D01*
X62518D01*
Y36986D01*
X62772Y36733D01*
X61502D02*
X61248Y36986D01*
X60741D01*
X60487Y36733D01*
Y36479D01*
X60741Y36225D01*
X60995D01*
X60741D01*
X60487Y35971D01*
Y35717D01*
X60741Y35463D01*
X61248D01*
X61502Y35717D01*
X64295Y33427D02*
Y34951D01*
X63534D01*
X63280Y34697D01*
Y34189D01*
X63534Y33935D01*
X64295D01*
X63788D02*
X63280Y33427D01*
X62772D02*
X62264D01*
X62518D01*
Y34951D01*
X62772Y34697D01*
X60741Y33427D02*
Y34951D01*
X61502Y34189D01*
X60487D01*
X64295Y43607D02*
Y45131D01*
X63534D01*
X63280Y44877D01*
Y44369D01*
X63534Y44115D01*
X64295D01*
X63788D02*
X63280Y43607D01*
X62772Y43861D02*
X62518Y43607D01*
X62010D01*
X61756Y43861D01*
Y44877D01*
X62010Y45131D01*
X62518D01*
X62772Y44877D01*
Y44623D01*
X62518Y44369D01*
X61756D01*
X64295Y41571D02*
Y43095D01*
X63534D01*
X63280Y42841D01*
Y42333D01*
X63534Y42079D01*
X64295D01*
X63788D02*
X63280Y41571D01*
X62772D02*
X62264D01*
X62518D01*
Y43095D01*
X62772Y42841D01*
X61502D02*
X61248Y43095D01*
X60741D01*
X60487Y42841D01*
Y41825D01*
X60741Y41571D01*
X61248D01*
X61502Y41825D01*
Y42841D01*
X64295Y39535D02*
Y41059D01*
X63534D01*
X63280Y40805D01*
Y40297D01*
X63534Y40043D01*
X64295D01*
X63788D02*
X63280Y39535D01*
X62772D02*
X62264D01*
X62518D01*
Y41059D01*
X62772Y40805D01*
X61502Y39535D02*
X60995D01*
X61248D01*
Y41059D01*
X61502Y40805D01*
X64295Y48983D02*
Y50507D01*
X63534D01*
X63280Y50253D01*
Y49745D01*
X63534Y49491D01*
X64295D01*
X63788D02*
X63280Y48983D01*
X62772Y50507D02*
X61756D01*
Y50253D01*
X62772Y49237D01*
Y48983D01*
X64295Y46947D02*
Y48471D01*
X63534D01*
X63280Y48217D01*
Y47709D01*
X63534Y47455D01*
X64295D01*
X63788D02*
X63280Y46947D01*
X62772Y48217D02*
X62518Y48471D01*
X62010D01*
X61756Y48217D01*
Y47963D01*
X62010Y47709D01*
X61756Y47455D01*
Y47201D01*
X62010Y46947D01*
X62518D01*
X62772Y47201D01*
Y47455D01*
X62518Y47709D01*
X62772Y47963D01*
Y48217D01*
X62518Y47709D02*
X62010D01*
X64295Y29355D02*
Y30878D01*
X63534D01*
X63280Y30624D01*
Y30116D01*
X63534Y29862D01*
X64295D01*
X63788D02*
X63280Y29355D01*
X62772D02*
X62264D01*
X62518D01*
Y30878D01*
X62772Y30624D01*
X60487Y30878D02*
X60995Y30624D01*
X61502Y30116D01*
Y29609D01*
X61248Y29355D01*
X60741D01*
X60487Y29609D01*
Y29862D01*
X60741Y30116D01*
X61502D01*
X64295Y27318D02*
Y28842D01*
X63534D01*
X63280Y28588D01*
Y28080D01*
X63534Y27826D01*
X64295D01*
X63788D02*
X63280Y27318D01*
X62772D02*
X62264D01*
X62518D01*
Y28842D01*
X62772Y28588D01*
X61502Y28842D02*
X60487D01*
Y28588D01*
X61502Y27572D01*
Y27318D01*
X39535Y37666D02*
Y39189D01*
X38773D01*
X38519Y38936D01*
Y38428D01*
X38773Y38174D01*
X39535D01*
X39027D02*
X38519Y37666D01*
X36995D02*
X38011D01*
X36995Y38682D01*
Y38936D01*
X37249Y39189D01*
X37757D01*
X38011Y38936D01*
X36488Y39189D02*
X35472D01*
Y38936D01*
X36488Y37920D01*
Y37666D01*
X39535Y35634D02*
Y37158D01*
X38773D01*
X38519Y36904D01*
Y36396D01*
X38773Y36142D01*
X39535D01*
X39027D02*
X38519Y35634D01*
X36995D02*
X38011D01*
X36995Y36650D01*
Y36904D01*
X37249Y37158D01*
X37757D01*
X38011Y36904D01*
X36488D02*
X36234Y37158D01*
X35726D01*
X35472Y36904D01*
Y36650D01*
X35726Y36396D01*
X35472Y36142D01*
Y35888D01*
X35726Y35634D01*
X36234D01*
X36488Y35888D01*
Y36142D01*
X36234Y36396D01*
X36488Y36650D01*
Y36904D01*
X36234Y36396D02*
X35726D01*
X39535Y31570D02*
Y33093D01*
X38773D01*
X38519Y32840D01*
Y32332D01*
X38773Y32078D01*
X39535D01*
X39027D02*
X38519Y31570D01*
X38011Y32840D02*
X37757Y33093D01*
X37249D01*
X36995Y32840D01*
Y32586D01*
X37249Y32332D01*
X37503D01*
X37249D01*
X36995Y32078D01*
Y31824D01*
X37249Y31570D01*
X37757D01*
X38011Y31824D01*
X36488Y32840D02*
X36234Y33093D01*
X35726D01*
X35472Y32840D01*
Y31824D01*
X35726Y31570D01*
X36234D01*
X36488Y31824D01*
Y32840D01*
X39535Y29538D02*
Y31062D01*
X38773D01*
X38519Y30808D01*
Y30300D01*
X38773Y30046D01*
X39535D01*
X39027D02*
X38519Y29538D01*
X38011Y30808D02*
X37757Y31062D01*
X37249D01*
X36995Y30808D01*
Y30554D01*
X37249Y30300D01*
X37503D01*
X37249D01*
X36995Y30046D01*
Y29792D01*
X37249Y29538D01*
X37757D01*
X38011Y29792D01*
X36488Y29538D02*
X35980D01*
X36234D01*
Y31062D01*
X36488Y30808D01*
X39535Y27506D02*
Y29030D01*
X38773D01*
X38519Y28776D01*
Y28268D01*
X38773Y28014D01*
X39535D01*
X39027D02*
X38519Y27506D01*
X38011Y28776D02*
X37757Y29030D01*
X37249D01*
X36995Y28776D01*
Y28522D01*
X37249Y28268D01*
X37503D01*
X37249D01*
X36995Y28014D01*
Y27760D01*
X37249Y27506D01*
X37757D01*
X38011Y27760D01*
X35472Y27506D02*
X36488D01*
X35472Y28522D01*
Y28776D01*
X35726Y29030D01*
X36234D01*
X36488Y28776D01*
X39535Y25474D02*
Y26998D01*
X38773D01*
X38519Y26744D01*
Y26236D01*
X38773Y25982D01*
X39535D01*
X39027D02*
X38519Y25474D01*
X38011Y26744D02*
X37757Y26998D01*
X37249D01*
X36995Y26744D01*
Y26490D01*
X37249Y26236D01*
X37503D01*
X37249D01*
X36995Y25982D01*
Y25728D01*
X37249Y25474D01*
X37757D01*
X38011Y25728D01*
X36488Y26744D02*
X36234Y26998D01*
X35726D01*
X35472Y26744D01*
Y26490D01*
X35726Y26236D01*
X35980D01*
X35726D01*
X35472Y25982D01*
Y25728D01*
X35726Y25474D01*
X36234D01*
X36488Y25728D01*
X39535Y23442D02*
Y24966D01*
X38773D01*
X38519Y24712D01*
Y24204D01*
X38773Y23950D01*
X39535D01*
X39027D02*
X38519Y23442D01*
X38011Y24712D02*
X37757Y24966D01*
X37249D01*
X36995Y24712D01*
Y24458D01*
X37249Y24204D01*
X37503D01*
X37249D01*
X36995Y23950D01*
Y23696D01*
X37249Y23442D01*
X37757D01*
X38011Y23696D01*
X35726Y23442D02*
Y24966D01*
X36488Y24204D01*
X35472D01*
X39535Y53954D02*
Y55478D01*
X38773D01*
X38519Y55224D01*
Y54716D01*
X38773Y54462D01*
X39535D01*
X39027D02*
X38519Y53954D01*
X38011D02*
X37503D01*
X37757D01*
Y55478D01*
X38011Y55224D01*
X36741Y54208D02*
X36488Y53954D01*
X35980D01*
X35726Y54208D01*
Y55224D01*
X35980Y55478D01*
X36488D01*
X36741Y55224D01*
Y54970D01*
X36488Y54716D01*
X35726D01*
X39535Y51918D02*
Y53442D01*
X38773D01*
X38519Y53188D01*
Y52680D01*
X38773Y52426D01*
X39535D01*
X39027D02*
X38519Y51918D01*
X36995D02*
X38011D01*
X36995Y52934D01*
Y53188D01*
X37249Y53442D01*
X37757D01*
X38011Y53188D01*
X36488D02*
X36234Y53442D01*
X35726D01*
X35472Y53188D01*
Y52172D01*
X35726Y51918D01*
X36234D01*
X36488Y52172D01*
Y53188D01*
X39535Y49882D02*
Y51406D01*
X38773D01*
X38519Y51152D01*
Y50644D01*
X38773Y50390D01*
X39535D01*
X39027D02*
X38519Y49882D01*
X36995D02*
X38011D01*
X36995Y50898D01*
Y51152D01*
X37249Y51406D01*
X37757D01*
X38011Y51152D01*
X36488Y49882D02*
X35980D01*
X36234D01*
Y51406D01*
X36488Y51152D01*
X39535Y47846D02*
Y49370D01*
X38773D01*
X38519Y49116D01*
Y48608D01*
X38773Y48354D01*
X39535D01*
X39027D02*
X38519Y47846D01*
X36995D02*
X38011D01*
X36995Y48862D01*
Y49116D01*
X37249Y49370D01*
X37757D01*
X38011Y49116D01*
X35472Y47846D02*
X36488D01*
X35472Y48862D01*
Y49116D01*
X35726Y49370D01*
X36234D01*
X36488Y49116D01*
X72123Y41583D02*
Y43107D01*
X71361D01*
X71107Y42853D01*
Y42345D01*
X71361Y42091D01*
X72123D01*
X71615D02*
X71107Y41583D01*
X69584Y43107D02*
X70092Y42853D01*
X70599Y42345D01*
Y41837D01*
X70346Y41583D01*
X69838D01*
X69584Y41837D01*
Y42091D01*
X69838Y42345D01*
X70599D01*
X72123Y36485D02*
Y38009D01*
X71361D01*
X71107Y37755D01*
Y37247D01*
X71361Y36993D01*
X72123D01*
X71615D02*
X71107Y36485D01*
X69584Y38009D02*
X70599D01*
Y37247D01*
X70092Y37501D01*
X69838D01*
X69584Y37247D01*
Y36739D01*
X69838Y36485D01*
X70346D01*
X70599Y36739D01*
X72123Y43615D02*
Y45139D01*
X71361D01*
X71107Y44885D01*
Y44377D01*
X71361Y44123D01*
X72123D01*
X71615D02*
X71107Y43615D01*
X69838D02*
Y45139D01*
X70599Y44377D01*
X69584D01*
X72123Y38517D02*
Y40041D01*
X71361D01*
X71107Y39787D01*
Y39279D01*
X71361Y39025D01*
X72123D01*
X71615D02*
X71107Y38517D01*
X70599Y39787D02*
X70346Y40041D01*
X69838D01*
X69584Y39787D01*
Y39533D01*
X69838Y39279D01*
X70092D01*
X69838D01*
X69584Y39025D01*
Y38771D01*
X69838Y38517D01*
X70346D01*
X70599Y38771D01*
X50259Y55118D02*
X50767D01*
X50513D01*
Y53848D01*
X50767Y53594D01*
X51021D01*
X51275Y53848D01*
X49751Y54864D02*
X49498Y55118D01*
X48990D01*
X48736Y54864D01*
Y54610D01*
X48990Y54356D01*
X49244D01*
X48990D01*
X48736Y54102D01*
Y53848D01*
X48990Y53594D01*
X49498D01*
X49751Y53848D01*
X120035Y33602D02*
Y35125D01*
X119273D01*
X119019Y34872D01*
Y34364D01*
X119273Y34110D01*
X120035D01*
X119527D02*
X119019Y33602D01*
X117495D02*
X118511D01*
X117495Y34618D01*
Y34872D01*
X117749Y35125D01*
X118257D01*
X118511Y34872D01*
X116988Y33856D02*
X116734Y33602D01*
X116226D01*
X115972Y33856D01*
Y34872D01*
X116226Y35125D01*
X116734D01*
X116988Y34872D01*
Y34618D01*
X116734Y34364D01*
X115972D01*
X144795Y31392D02*
Y32916D01*
X144033D01*
X143779Y32662D01*
Y32154D01*
X144033Y31900D01*
X144795D01*
X144287D02*
X143779Y31392D01*
X143271D02*
X142764D01*
X143018D01*
Y32916D01*
X143271Y32662D01*
X140986Y32916D02*
X142002D01*
Y32154D01*
X141494Y32408D01*
X141240D01*
X140986Y32154D01*
Y31646D01*
X141240Y31392D01*
X141748D01*
X142002Y31646D01*
X144795Y25281D02*
Y26805D01*
X144034D01*
X143780Y26551D01*
Y26043D01*
X144034Y25789D01*
X144795D01*
X144288D02*
X143780Y25281D01*
X143272D02*
X142764D01*
X143018D01*
Y26805D01*
X143272Y26551D01*
X142002D02*
X141748Y26805D01*
X141241D01*
X140987Y26551D01*
Y26297D01*
X141241Y26043D01*
X140987Y25789D01*
Y25535D01*
X141241Y25281D01*
X141748D01*
X142002Y25535D01*
Y25789D01*
X141748Y26043D01*
X142002Y26297D01*
Y26551D01*
X141748Y26043D02*
X141241D01*
X120035Y45794D02*
Y47318D01*
X119273D01*
X119019Y47064D01*
Y46556D01*
X119273Y46302D01*
X120035D01*
X119527D02*
X119019Y45794D01*
X117496D02*
X118511D01*
X117496Y46810D01*
Y47064D01*
X117750Y47318D01*
X118258D01*
X118511Y47064D01*
X116988D02*
X116734Y47318D01*
X116226D01*
X115972Y47064D01*
Y46810D01*
X116226Y46556D01*
X116480D01*
X116226D01*
X115972Y46302D01*
Y46048D01*
X116226Y45794D01*
X116734D01*
X116988Y46048D01*
X120035Y43762D02*
Y45286D01*
X119273D01*
X119019Y45032D01*
Y44524D01*
X119273Y44270D01*
X120035D01*
X119527D02*
X119019Y43762D01*
X117496D02*
X118511D01*
X117496Y44778D01*
Y45032D01*
X117750Y45286D01*
X118258D01*
X118511Y45032D01*
X116226Y43762D02*
Y45286D01*
X116988Y44524D01*
X115972D01*
X120035Y41730D02*
Y43254D01*
X119273D01*
X119019Y43000D01*
Y42492D01*
X119273Y42238D01*
X120035D01*
X119527D02*
X119019Y41730D01*
X117496D02*
X118511D01*
X117496Y42746D01*
Y43000D01*
X117750Y43254D01*
X118258D01*
X118511Y43000D01*
X115972Y43254D02*
X116988D01*
Y42492D01*
X116480Y42746D01*
X116226D01*
X115972Y42492D01*
Y41984D01*
X116226Y41730D01*
X116734D01*
X116988Y41984D01*
X120035Y39698D02*
Y41222D01*
X119273D01*
X119019Y40968D01*
Y40460D01*
X119273Y40206D01*
X120035D01*
X119527D02*
X119019Y39698D01*
X117496D02*
X118511D01*
X117496Y40714D01*
Y40968D01*
X117750Y41222D01*
X118258D01*
X118511Y40968D01*
X115972Y41222D02*
X116480Y40968D01*
X116988Y40460D01*
Y39952D01*
X116734Y39698D01*
X116226D01*
X115972Y39952D01*
Y40206D01*
X116226Y40460D01*
X116988D01*
X144795Y37499D02*
Y39023D01*
X144034D01*
X143780Y38769D01*
Y38261D01*
X144034Y38007D01*
X144795D01*
X144288D02*
X143780Y37499D01*
X143272D02*
X142764D01*
X143018D01*
Y39023D01*
X143272Y38769D01*
X140987Y37499D02*
X142002D01*
X140987Y38515D01*
Y38769D01*
X141241Y39023D01*
X141748D01*
X142002Y38769D01*
X144795Y35463D02*
Y36986D01*
X144034D01*
X143780Y36733D01*
Y36225D01*
X144034Y35971D01*
X144795D01*
X144288D02*
X143780Y35463D01*
X143272D02*
X142764D01*
X143018D01*
Y36986D01*
X143272Y36733D01*
X142002D02*
X141748Y36986D01*
X141241D01*
X140987Y36733D01*
Y36479D01*
X141241Y36225D01*
X141495D01*
X141241D01*
X140987Y35971D01*
Y35717D01*
X141241Y35463D01*
X141748D01*
X142002Y35717D01*
X144795Y33427D02*
Y34951D01*
X144034D01*
X143780Y34697D01*
Y34189D01*
X144034Y33935D01*
X144795D01*
X144288D02*
X143780Y33427D01*
X143272D02*
X142764D01*
X143018D01*
Y34951D01*
X143272Y34697D01*
X141241Y33427D02*
Y34951D01*
X142002Y34189D01*
X140987D01*
X144795Y43607D02*
Y45131D01*
X144034D01*
X143780Y44877D01*
Y44369D01*
X144034Y44115D01*
X144795D01*
X144288D02*
X143780Y43607D01*
X143272Y43861D02*
X143018Y43607D01*
X142510D01*
X142256Y43861D01*
Y44877D01*
X142510Y45131D01*
X143018D01*
X143272Y44877D01*
Y44623D01*
X143018Y44369D01*
X142256D01*
X144795Y41571D02*
Y43095D01*
X144034D01*
X143780Y42841D01*
Y42333D01*
X144034Y42079D01*
X144795D01*
X144288D02*
X143780Y41571D01*
X143272D02*
X142764D01*
X143018D01*
Y43095D01*
X143272Y42841D01*
X142002D02*
X141748Y43095D01*
X141241D01*
X140987Y42841D01*
Y41825D01*
X141241Y41571D01*
X141748D01*
X142002Y41825D01*
Y42841D01*
X144795Y39535D02*
Y41059D01*
X144034D01*
X143780Y40805D01*
Y40297D01*
X144034Y40043D01*
X144795D01*
X144288D02*
X143780Y39535D01*
X143272D02*
X142764D01*
X143018D01*
Y41059D01*
X143272Y40805D01*
X142002Y39535D02*
X141495D01*
X141748D01*
Y41059D01*
X142002Y40805D01*
X144795Y48983D02*
Y50507D01*
X144034D01*
X143780Y50253D01*
Y49745D01*
X144034Y49491D01*
X144795D01*
X144288D02*
X143780Y48983D01*
X143272Y50507D02*
X142256D01*
Y50253D01*
X143272Y49237D01*
Y48983D01*
X144795Y46947D02*
Y48471D01*
X144034D01*
X143780Y48217D01*
Y47709D01*
X144034Y47455D01*
X144795D01*
X144288D02*
X143780Y46947D01*
X143272Y48217D02*
X143018Y48471D01*
X142510D01*
X142256Y48217D01*
Y47963D01*
X142510Y47709D01*
X142256Y47455D01*
Y47201D01*
X142510Y46947D01*
X143018D01*
X143272Y47201D01*
Y47455D01*
X143018Y47709D01*
X143272Y47963D01*
Y48217D01*
X143018Y47709D02*
X142510D01*
X144795Y29355D02*
Y30878D01*
X144034D01*
X143780Y30624D01*
Y30116D01*
X144034Y29862D01*
X144795D01*
X144288D02*
X143780Y29355D01*
X143272D02*
X142764D01*
X143018D01*
Y30878D01*
X143272Y30624D01*
X140987Y30878D02*
X141495Y30624D01*
X142002Y30116D01*
Y29609D01*
X141748Y29355D01*
X141241D01*
X140987Y29609D01*
Y29862D01*
X141241Y30116D01*
X142002D01*
X144795Y27318D02*
Y28842D01*
X144034D01*
X143780Y28588D01*
Y28080D01*
X144034Y27826D01*
X144795D01*
X144288D02*
X143780Y27318D01*
X143272D02*
X142764D01*
X143018D01*
Y28842D01*
X143272Y28588D01*
X142002Y28842D02*
X140987D01*
Y28588D01*
X142002Y27572D01*
Y27318D01*
X120035Y37666D02*
Y39189D01*
X119273D01*
X119019Y38936D01*
Y38428D01*
X119273Y38174D01*
X120035D01*
X119527D02*
X119019Y37666D01*
X117495D02*
X118511D01*
X117495Y38682D01*
Y38936D01*
X117749Y39189D01*
X118257D01*
X118511Y38936D01*
X116988Y39189D02*
X115972D01*
Y38936D01*
X116988Y37920D01*
Y37666D01*
X120035Y35634D02*
Y37158D01*
X119273D01*
X119019Y36904D01*
Y36396D01*
X119273Y36142D01*
X120035D01*
X119527D02*
X119019Y35634D01*
X117495D02*
X118511D01*
X117495Y36650D01*
Y36904D01*
X117749Y37158D01*
X118257D01*
X118511Y36904D01*
X116988D02*
X116734Y37158D01*
X116226D01*
X115972Y36904D01*
Y36650D01*
X116226Y36396D01*
X115972Y36142D01*
Y35888D01*
X116226Y35634D01*
X116734D01*
X116988Y35888D01*
Y36142D01*
X116734Y36396D01*
X116988Y36650D01*
Y36904D01*
X116734Y36396D02*
X116226D01*
X120035Y31570D02*
Y33093D01*
X119273D01*
X119019Y32840D01*
Y32332D01*
X119273Y32078D01*
X120035D01*
X119527D02*
X119019Y31570D01*
X118511Y32840D02*
X118257Y33093D01*
X117749D01*
X117495Y32840D01*
Y32586D01*
X117749Y32332D01*
X118003D01*
X117749D01*
X117495Y32078D01*
Y31824D01*
X117749Y31570D01*
X118257D01*
X118511Y31824D01*
X116988Y32840D02*
X116734Y33093D01*
X116226D01*
X115972Y32840D01*
Y31824D01*
X116226Y31570D01*
X116734D01*
X116988Y31824D01*
Y32840D01*
X120035Y29538D02*
Y31062D01*
X119273D01*
X119019Y30808D01*
Y30300D01*
X119273Y30046D01*
X120035D01*
X119527D02*
X119019Y29538D01*
X118511Y30808D02*
X118257Y31062D01*
X117749D01*
X117495Y30808D01*
Y30554D01*
X117749Y30300D01*
X118003D01*
X117749D01*
X117495Y30046D01*
Y29792D01*
X117749Y29538D01*
X118257D01*
X118511Y29792D01*
X116988Y29538D02*
X116480D01*
X116734D01*
Y31062D01*
X116988Y30808D01*
X120035Y27506D02*
Y29030D01*
X119273D01*
X119019Y28776D01*
Y28268D01*
X119273Y28014D01*
X120035D01*
X119527D02*
X119019Y27506D01*
X118511Y28776D02*
X118257Y29030D01*
X117749D01*
X117495Y28776D01*
Y28522D01*
X117749Y28268D01*
X118003D01*
X117749D01*
X117495Y28014D01*
Y27760D01*
X117749Y27506D01*
X118257D01*
X118511Y27760D01*
X115972Y27506D02*
X116988D01*
X115972Y28522D01*
Y28776D01*
X116226Y29030D01*
X116734D01*
X116988Y28776D01*
X120035Y25474D02*
Y26998D01*
X119273D01*
X119019Y26744D01*
Y26236D01*
X119273Y25982D01*
X120035D01*
X119527D02*
X119019Y25474D01*
X118511Y26744D02*
X118257Y26998D01*
X117749D01*
X117495Y26744D01*
Y26490D01*
X117749Y26236D01*
X118003D01*
X117749D01*
X117495Y25982D01*
Y25728D01*
X117749Y25474D01*
X118257D01*
X118511Y25728D01*
X116988Y26744D02*
X116734Y26998D01*
X116226D01*
X115972Y26744D01*
Y26490D01*
X116226Y26236D01*
X116480D01*
X116226D01*
X115972Y25982D01*
Y25728D01*
X116226Y25474D01*
X116734D01*
X116988Y25728D01*
X120035Y23442D02*
Y24966D01*
X119273D01*
X119019Y24712D01*
Y24204D01*
X119273Y23950D01*
X120035D01*
X119527D02*
X119019Y23442D01*
X118511Y24712D02*
X118257Y24966D01*
X117749D01*
X117495Y24712D01*
Y24458D01*
X117749Y24204D01*
X118003D01*
X117749D01*
X117495Y23950D01*
Y23696D01*
X117749Y23442D01*
X118257D01*
X118511Y23696D01*
X116226Y23442D02*
Y24966D01*
X116988Y24204D01*
X115972D01*
X120035Y53954D02*
Y55478D01*
X119273D01*
X119019Y55224D01*
Y54716D01*
X119273Y54462D01*
X120035D01*
X119527D02*
X119019Y53954D01*
X118511D02*
X118003D01*
X118257D01*
Y55478D01*
X118511Y55224D01*
X117241Y54208D02*
X116988Y53954D01*
X116480D01*
X116226Y54208D01*
Y55224D01*
X116480Y55478D01*
X116988D01*
X117241Y55224D01*
Y54970D01*
X116988Y54716D01*
X116226D01*
X120035Y51918D02*
Y53442D01*
X119273D01*
X119019Y53188D01*
Y52680D01*
X119273Y52426D01*
X120035D01*
X119527D02*
X119019Y51918D01*
X117495D02*
X118511D01*
X117495Y52934D01*
Y53188D01*
X117749Y53442D01*
X118257D01*
X118511Y53188D01*
X116988D02*
X116734Y53442D01*
X116226D01*
X115972Y53188D01*
Y52172D01*
X116226Y51918D01*
X116734D01*
X116988Y52172D01*
Y53188D01*
X120035Y49882D02*
Y51406D01*
X119273D01*
X119019Y51152D01*
Y50644D01*
X119273Y50390D01*
X120035D01*
X119527D02*
X119019Y49882D01*
X117495D02*
X118511D01*
X117495Y50898D01*
Y51152D01*
X117749Y51406D01*
X118257D01*
X118511Y51152D01*
X116988Y49882D02*
X116480D01*
X116734D01*
Y51406D01*
X116988Y51152D01*
X120035Y47846D02*
Y49370D01*
X119273D01*
X119019Y49116D01*
Y48608D01*
X119273Y48354D01*
X120035D01*
X119527D02*
X119019Y47846D01*
X117495D02*
X118511D01*
X117495Y48862D01*
Y49116D01*
X117749Y49370D01*
X118257D01*
X118511Y49116D01*
X115972Y47846D02*
X116988D01*
X115972Y48862D01*
Y49116D01*
X116226Y49370D01*
X116734D01*
X116988Y49116D01*
X152623Y41583D02*
Y43107D01*
X151861D01*
X151607Y42853D01*
Y42345D01*
X151861Y42091D01*
X152623D01*
X152115D02*
X151607Y41583D01*
X150084Y43107D02*
X150592Y42853D01*
X151099Y42345D01*
Y41837D01*
X150846Y41583D01*
X150338D01*
X150084Y41837D01*
Y42091D01*
X150338Y42345D01*
X151099D01*
X152623Y36485D02*
Y38009D01*
X151861D01*
X151607Y37755D01*
Y37247D01*
X151861Y36993D01*
X152623D01*
X152115D02*
X151607Y36485D01*
X150084Y38009D02*
X151099D01*
Y37247D01*
X150592Y37501D01*
X150338D01*
X150084Y37247D01*
Y36739D01*
X150338Y36485D01*
X150846D01*
X151099Y36739D01*
X152623Y43615D02*
Y45139D01*
X151861D01*
X151607Y44885D01*
Y44377D01*
X151861Y44123D01*
X152623D01*
X152115D02*
X151607Y43615D01*
X150338D02*
Y45139D01*
X151099Y44377D01*
X150084D01*
X152623Y38517D02*
Y40041D01*
X151861D01*
X151607Y39787D01*
Y39279D01*
X151861Y39025D01*
X152623D01*
X152115D02*
X151607Y38517D01*
X151099Y39787D02*
X150846Y40041D01*
X150338D01*
X150084Y39787D01*
Y39533D01*
X150338Y39279D01*
X150592D01*
X150338D01*
X150084Y39025D01*
Y38771D01*
X150338Y38517D01*
X150846D01*
X151099Y38771D01*
X130759Y55118D02*
X131267D01*
X131013D01*
Y53848D01*
X131267Y53594D01*
X131521D01*
X131775Y53848D01*
X130251Y54864D02*
X129998Y55118D01*
X129490D01*
X129236Y54864D01*
Y54610D01*
X129490Y54356D01*
X129744D01*
X129490D01*
X129236Y54102D01*
Y53848D01*
X129490Y53594D01*
X129998D01*
X130251Y53848D01*
X39535Y94102D02*
Y95626D01*
X38773D01*
X38519Y95372D01*
Y94864D01*
X38773Y94610D01*
X39535D01*
X39027D02*
X38519Y94102D01*
X36995D02*
X38011D01*
X36995Y95118D01*
Y95372D01*
X37249Y95626D01*
X37757D01*
X38011Y95372D01*
X36488Y94356D02*
X36234Y94102D01*
X35726D01*
X35472Y94356D01*
Y95372D01*
X35726Y95626D01*
X36234D01*
X36488Y95372D01*
Y95118D01*
X36234Y94864D01*
X35472D01*
X64295Y91892D02*
Y93416D01*
X63533D01*
X63279Y93162D01*
Y92654D01*
X63533Y92400D01*
X64295D01*
X63787D02*
X63279Y91892D01*
X62771D02*
X62264D01*
X62518D01*
Y93416D01*
X62771Y93162D01*
X60486Y93416D02*
X61502D01*
Y92654D01*
X60994Y92908D01*
X60740D01*
X60486Y92654D01*
Y92146D01*
X60740Y91892D01*
X61248D01*
X61502Y92146D01*
X64295Y85781D02*
Y87305D01*
X63534D01*
X63280Y87051D01*
Y86543D01*
X63534Y86289D01*
X64295D01*
X63788D02*
X63280Y85781D01*
X62772D02*
X62264D01*
X62518D01*
Y87305D01*
X62772Y87051D01*
X61502D02*
X61248Y87305D01*
X60741D01*
X60487Y87051D01*
Y86797D01*
X60741Y86543D01*
X60487Y86289D01*
Y86035D01*
X60741Y85781D01*
X61248D01*
X61502Y86035D01*
Y86289D01*
X61248Y86543D01*
X61502Y86797D01*
Y87051D01*
X61248Y86543D02*
X60741D01*
X39535Y106294D02*
Y107818D01*
X38773D01*
X38519Y107564D01*
Y107056D01*
X38773Y106802D01*
X39535D01*
X39027D02*
X38519Y106294D01*
X36996D02*
X38011D01*
X36996Y107310D01*
Y107564D01*
X37250Y107818D01*
X37758D01*
X38011Y107564D01*
X36488D02*
X36234Y107818D01*
X35726D01*
X35472Y107564D01*
Y107310D01*
X35726Y107056D01*
X35980D01*
X35726D01*
X35472Y106802D01*
Y106548D01*
X35726Y106294D01*
X36234D01*
X36488Y106548D01*
X39535Y104262D02*
Y105786D01*
X38773D01*
X38519Y105532D01*
Y105024D01*
X38773Y104770D01*
X39535D01*
X39027D02*
X38519Y104262D01*
X36996D02*
X38011D01*
X36996Y105278D01*
Y105532D01*
X37250Y105786D01*
X37758D01*
X38011Y105532D01*
X35726Y104262D02*
Y105786D01*
X36488Y105024D01*
X35472D01*
X39535Y102230D02*
Y103754D01*
X38773D01*
X38519Y103500D01*
Y102992D01*
X38773Y102738D01*
X39535D01*
X39027D02*
X38519Y102230D01*
X36996D02*
X38011D01*
X36996Y103246D01*
Y103500D01*
X37250Y103754D01*
X37758D01*
X38011Y103500D01*
X35472Y103754D02*
X36488D01*
Y102992D01*
X35980Y103246D01*
X35726D01*
X35472Y102992D01*
Y102484D01*
X35726Y102230D01*
X36234D01*
X36488Y102484D01*
X39535Y100198D02*
Y101722D01*
X38773D01*
X38519Y101468D01*
Y100960D01*
X38773Y100706D01*
X39535D01*
X39027D02*
X38519Y100198D01*
X36996D02*
X38011D01*
X36996Y101214D01*
Y101468D01*
X37250Y101722D01*
X37758D01*
X38011Y101468D01*
X35472Y101722D02*
X35980Y101468D01*
X36488Y100960D01*
Y100452D01*
X36234Y100198D01*
X35726D01*
X35472Y100452D01*
Y100706D01*
X35726Y100960D01*
X36488D01*
X64295Y97999D02*
Y99523D01*
X63534D01*
X63280Y99269D01*
Y98761D01*
X63534Y98507D01*
X64295D01*
X63788D02*
X63280Y97999D01*
X62772D02*
X62264D01*
X62518D01*
Y99523D01*
X62772Y99269D01*
X60487Y97999D02*
X61502D01*
X60487Y99015D01*
Y99269D01*
X60741Y99523D01*
X61248D01*
X61502Y99269D01*
X64295Y95963D02*
Y97487D01*
X63534D01*
X63280Y97233D01*
Y96725D01*
X63534Y96471D01*
X64295D01*
X63788D02*
X63280Y95963D01*
X62772D02*
X62264D01*
X62518D01*
Y97487D01*
X62772Y97233D01*
X61502D02*
X61248Y97487D01*
X60741D01*
X60487Y97233D01*
Y96979D01*
X60741Y96725D01*
X60995D01*
X60741D01*
X60487Y96471D01*
Y96217D01*
X60741Y95963D01*
X61248D01*
X61502Y96217D01*
X64295Y93927D02*
Y95451D01*
X63534D01*
X63280Y95197D01*
Y94689D01*
X63534Y94435D01*
X64295D01*
X63788D02*
X63280Y93927D01*
X62772D02*
X62264D01*
X62518D01*
Y95451D01*
X62772Y95197D01*
X60741Y93927D02*
Y95451D01*
X61502Y94689D01*
X60487D01*
X64295Y104107D02*
Y105631D01*
X63534D01*
X63280Y105377D01*
Y104869D01*
X63534Y104615D01*
X64295D01*
X63788D02*
X63280Y104107D01*
X62772Y104361D02*
X62518Y104107D01*
X62010D01*
X61756Y104361D01*
Y105377D01*
X62010Y105631D01*
X62518D01*
X62772Y105377D01*
Y105123D01*
X62518Y104869D01*
X61756D01*
X64295Y102071D02*
Y103595D01*
X63534D01*
X63280Y103341D01*
Y102833D01*
X63534Y102579D01*
X64295D01*
X63788D02*
X63280Y102071D01*
X62772D02*
X62264D01*
X62518D01*
Y103595D01*
X62772Y103341D01*
X61502D02*
X61248Y103595D01*
X60741D01*
X60487Y103341D01*
Y102325D01*
X60741Y102071D01*
X61248D01*
X61502Y102325D01*
Y103341D01*
X64295Y100035D02*
Y101559D01*
X63534D01*
X63280Y101305D01*
Y100797D01*
X63534Y100543D01*
X64295D01*
X63788D02*
X63280Y100035D01*
X62772D02*
X62264D01*
X62518D01*
Y101559D01*
X62772Y101305D01*
X61502Y100035D02*
X60995D01*
X61248D01*
Y101559D01*
X61502Y101305D01*
X64295Y109483D02*
Y111007D01*
X63534D01*
X63280Y110753D01*
Y110245D01*
X63534Y109991D01*
X64295D01*
X63788D02*
X63280Y109483D01*
X62772Y111007D02*
X61756D01*
Y110753D01*
X62772Y109737D01*
Y109483D01*
X64295Y107447D02*
Y108971D01*
X63534D01*
X63280Y108717D01*
Y108209D01*
X63534Y107955D01*
X64295D01*
X63788D02*
X63280Y107447D01*
X62772Y108717D02*
X62518Y108971D01*
X62010D01*
X61756Y108717D01*
Y108463D01*
X62010Y108209D01*
X61756Y107955D01*
Y107701D01*
X62010Y107447D01*
X62518D01*
X62772Y107701D01*
Y107955D01*
X62518Y108209D01*
X62772Y108463D01*
Y108717D01*
X62518Y108209D02*
X62010D01*
X64295Y89855D02*
Y91378D01*
X63534D01*
X63280Y91124D01*
Y90616D01*
X63534Y90363D01*
X64295D01*
X63788D02*
X63280Y89855D01*
X62772D02*
X62264D01*
X62518D01*
Y91378D01*
X62772Y91124D01*
X60487Y91378D02*
X60995Y91124D01*
X61502Y90616D01*
Y90109D01*
X61248Y89855D01*
X60741D01*
X60487Y90109D01*
Y90363D01*
X60741Y90616D01*
X61502D01*
X64295Y87818D02*
Y89342D01*
X63534D01*
X63280Y89088D01*
Y88580D01*
X63534Y88326D01*
X64295D01*
X63788D02*
X63280Y87818D01*
X62772D02*
X62264D01*
X62518D01*
Y89342D01*
X62772Y89088D01*
X61502Y89342D02*
X60487D01*
Y89088D01*
X61502Y88072D01*
Y87818D01*
X39535Y98166D02*
Y99689D01*
X38773D01*
X38519Y99436D01*
Y98928D01*
X38773Y98674D01*
X39535D01*
X39027D02*
X38519Y98166D01*
X36995D02*
X38011D01*
X36995Y99182D01*
Y99436D01*
X37249Y99689D01*
X37757D01*
X38011Y99436D01*
X36488Y99689D02*
X35472D01*
Y99436D01*
X36488Y98420D01*
Y98166D01*
X39535Y96134D02*
Y97658D01*
X38773D01*
X38519Y97404D01*
Y96896D01*
X38773Y96642D01*
X39535D01*
X39027D02*
X38519Y96134D01*
X36995D02*
X38011D01*
X36995Y97150D01*
Y97404D01*
X37249Y97658D01*
X37757D01*
X38011Y97404D01*
X36488D02*
X36234Y97658D01*
X35726D01*
X35472Y97404D01*
Y97150D01*
X35726Y96896D01*
X35472Y96642D01*
Y96388D01*
X35726Y96134D01*
X36234D01*
X36488Y96388D01*
Y96642D01*
X36234Y96896D01*
X36488Y97150D01*
Y97404D01*
X36234Y96896D02*
X35726D01*
X39535Y92070D02*
Y93593D01*
X38773D01*
X38519Y93340D01*
Y92832D01*
X38773Y92578D01*
X39535D01*
X39027D02*
X38519Y92070D01*
X38011Y93340D02*
X37757Y93593D01*
X37249D01*
X36995Y93340D01*
Y93086D01*
X37249Y92832D01*
X37503D01*
X37249D01*
X36995Y92578D01*
Y92324D01*
X37249Y92070D01*
X37757D01*
X38011Y92324D01*
X36488Y93340D02*
X36234Y93593D01*
X35726D01*
X35472Y93340D01*
Y92324D01*
X35726Y92070D01*
X36234D01*
X36488Y92324D01*
Y93340D01*
X39535Y90038D02*
Y91562D01*
X38773D01*
X38519Y91308D01*
Y90800D01*
X38773Y90546D01*
X39535D01*
X39027D02*
X38519Y90038D01*
X38011Y91308D02*
X37757Y91562D01*
X37249D01*
X36995Y91308D01*
Y91054D01*
X37249Y90800D01*
X37503D01*
X37249D01*
X36995Y90546D01*
Y90292D01*
X37249Y90038D01*
X37757D01*
X38011Y90292D01*
X36488Y90038D02*
X35980D01*
X36234D01*
Y91562D01*
X36488Y91308D01*
X39535Y88006D02*
Y89530D01*
X38773D01*
X38519Y89276D01*
Y88768D01*
X38773Y88514D01*
X39535D01*
X39027D02*
X38519Y88006D01*
X38011Y89276D02*
X37757Y89530D01*
X37249D01*
X36995Y89276D01*
Y89022D01*
X37249Y88768D01*
X37503D01*
X37249D01*
X36995Y88514D01*
Y88260D01*
X37249Y88006D01*
X37757D01*
X38011Y88260D01*
X35472Y88006D02*
X36488D01*
X35472Y89022D01*
Y89276D01*
X35726Y89530D01*
X36234D01*
X36488Y89276D01*
X39535Y85974D02*
Y87498D01*
X38773D01*
X38519Y87244D01*
Y86736D01*
X38773Y86482D01*
X39535D01*
X39027D02*
X38519Y85974D01*
X38011Y87244D02*
X37757Y87498D01*
X37249D01*
X36995Y87244D01*
Y86990D01*
X37249Y86736D01*
X37503D01*
X37249D01*
X36995Y86482D01*
Y86228D01*
X37249Y85974D01*
X37757D01*
X38011Y86228D01*
X36488Y87244D02*
X36234Y87498D01*
X35726D01*
X35472Y87244D01*
Y86990D01*
X35726Y86736D01*
X35980D01*
X35726D01*
X35472Y86482D01*
Y86228D01*
X35726Y85974D01*
X36234D01*
X36488Y86228D01*
X39535Y83942D02*
Y85466D01*
X38773D01*
X38519Y85212D01*
Y84704D01*
X38773Y84450D01*
X39535D01*
X39027D02*
X38519Y83942D01*
X38011Y85212D02*
X37757Y85466D01*
X37249D01*
X36995Y85212D01*
Y84958D01*
X37249Y84704D01*
X37503D01*
X37249D01*
X36995Y84450D01*
Y84196D01*
X37249Y83942D01*
X37757D01*
X38011Y84196D01*
X35726Y83942D02*
Y85466D01*
X36488Y84704D01*
X35472D01*
X39535Y114454D02*
Y115978D01*
X38773D01*
X38519Y115724D01*
Y115216D01*
X38773Y114962D01*
X39535D01*
X39027D02*
X38519Y114454D01*
X38011D02*
X37503D01*
X37757D01*
Y115978D01*
X38011Y115724D01*
X36741Y114708D02*
X36488Y114454D01*
X35980D01*
X35726Y114708D01*
Y115724D01*
X35980Y115978D01*
X36488D01*
X36741Y115724D01*
Y115470D01*
X36488Y115216D01*
X35726D01*
X39535Y112418D02*
Y113941D01*
X38773D01*
X38519Y113688D01*
Y113180D01*
X38773Y112926D01*
X39535D01*
X39027D02*
X38519Y112418D01*
X36995D02*
X38011D01*
X36995Y113434D01*
Y113688D01*
X37249Y113941D01*
X37757D01*
X38011Y113688D01*
X36488D02*
X36234Y113941D01*
X35726D01*
X35472Y113688D01*
Y112672D01*
X35726Y112418D01*
X36234D01*
X36488Y112672D01*
Y113688D01*
X39535Y110382D02*
Y111906D01*
X38773D01*
X38519Y111652D01*
Y111144D01*
X38773Y110890D01*
X39535D01*
X39027D02*
X38519Y110382D01*
X36995D02*
X38011D01*
X36995Y111398D01*
Y111652D01*
X37249Y111906D01*
X37757D01*
X38011Y111652D01*
X36488Y110382D02*
X35980D01*
X36234D01*
Y111906D01*
X36488Y111652D01*
X39535Y108346D02*
Y109870D01*
X38773D01*
X38519Y109616D01*
Y109108D01*
X38773Y108854D01*
X39535D01*
X39027D02*
X38519Y108346D01*
X36995D02*
X38011D01*
X36995Y109362D01*
Y109616D01*
X37249Y109870D01*
X37757D01*
X38011Y109616D01*
X35472Y108346D02*
X36488D01*
X35472Y109362D01*
Y109616D01*
X35726Y109870D01*
X36234D01*
X36488Y109616D01*
X72123Y102083D02*
Y103607D01*
X71361D01*
X71107Y103353D01*
Y102845D01*
X71361Y102591D01*
X72123D01*
X71615D02*
X71107Y102083D01*
X69584Y103607D02*
X70092Y103353D01*
X70599Y102845D01*
Y102337D01*
X70346Y102083D01*
X69838D01*
X69584Y102337D01*
Y102591D01*
X69838Y102845D01*
X70599D01*
X72123Y96985D02*
Y98509D01*
X71361D01*
X71107Y98255D01*
Y97747D01*
X71361Y97493D01*
X72123D01*
X71615D02*
X71107Y96985D01*
X69584Y98509D02*
X70599D01*
Y97747D01*
X70092Y98001D01*
X69838D01*
X69584Y97747D01*
Y97239D01*
X69838Y96985D01*
X70346D01*
X70599Y97239D01*
X72123Y104115D02*
Y105639D01*
X71361D01*
X71107Y105385D01*
Y104877D01*
X71361Y104623D01*
X72123D01*
X71615D02*
X71107Y104115D01*
X69838D02*
Y105639D01*
X70599Y104877D01*
X69584D01*
X72123Y99017D02*
Y100541D01*
X71361D01*
X71107Y100287D01*
Y99779D01*
X71361Y99525D01*
X72123D01*
X71615D02*
X71107Y99017D01*
X70599Y100287D02*
X70346Y100541D01*
X69838D01*
X69584Y100287D01*
Y100033D01*
X69838Y99779D01*
X70092D01*
X69838D01*
X69584Y99525D01*
Y99271D01*
X69838Y99017D01*
X70346D01*
X70599Y99271D01*
X50259Y115618D02*
X50767D01*
X50513D01*
Y114348D01*
X50767Y114094D01*
X51021D01*
X51275Y114348D01*
X49751Y115364D02*
X49498Y115618D01*
X48990D01*
X48736Y115364D01*
Y115110D01*
X48990Y114856D01*
X49244D01*
X48990D01*
X48736Y114602D01*
Y114348D01*
X48990Y114094D01*
X49498D01*
X49751Y114348D01*
X120035Y94102D02*
Y95626D01*
X119273D01*
X119019Y95372D01*
Y94864D01*
X119273Y94610D01*
X120035D01*
X119527D02*
X119019Y94102D01*
X117495D02*
X118511D01*
X117495Y95118D01*
Y95372D01*
X117749Y95626D01*
X118257D01*
X118511Y95372D01*
X116988Y94356D02*
X116734Y94102D01*
X116226D01*
X115972Y94356D01*
Y95372D01*
X116226Y95626D01*
X116734D01*
X116988Y95372D01*
Y95118D01*
X116734Y94864D01*
X115972D01*
X144795Y91892D02*
Y93416D01*
X144033D01*
X143779Y93162D01*
Y92654D01*
X144033Y92400D01*
X144795D01*
X144287D02*
X143779Y91892D01*
X143271D02*
X142764D01*
X143018D01*
Y93416D01*
X143271Y93162D01*
X140986Y93416D02*
X142002D01*
Y92654D01*
X141494Y92908D01*
X141240D01*
X140986Y92654D01*
Y92146D01*
X141240Y91892D01*
X141748D01*
X142002Y92146D01*
X144795Y85781D02*
Y87305D01*
X144034D01*
X143780Y87051D01*
Y86543D01*
X144034Y86289D01*
X144795D01*
X144288D02*
X143780Y85781D01*
X143272D02*
X142764D01*
X143018D01*
Y87305D01*
X143272Y87051D01*
X142002D02*
X141748Y87305D01*
X141241D01*
X140987Y87051D01*
Y86797D01*
X141241Y86543D01*
X140987Y86289D01*
Y86035D01*
X141241Y85781D01*
X141748D01*
X142002Y86035D01*
Y86289D01*
X141748Y86543D01*
X142002Y86797D01*
Y87051D01*
X141748Y86543D02*
X141241D01*
X120035Y106294D02*
Y107818D01*
X119273D01*
X119019Y107564D01*
Y107056D01*
X119273Y106802D01*
X120035D01*
X119527D02*
X119019Y106294D01*
X117496D02*
X118511D01*
X117496Y107310D01*
Y107564D01*
X117750Y107818D01*
X118258D01*
X118511Y107564D01*
X116988D02*
X116734Y107818D01*
X116226D01*
X115972Y107564D01*
Y107310D01*
X116226Y107056D01*
X116480D01*
X116226D01*
X115972Y106802D01*
Y106548D01*
X116226Y106294D01*
X116734D01*
X116988Y106548D01*
X120035Y104262D02*
Y105786D01*
X119273D01*
X119019Y105532D01*
Y105024D01*
X119273Y104770D01*
X120035D01*
X119527D02*
X119019Y104262D01*
X117496D02*
X118511D01*
X117496Y105278D01*
Y105532D01*
X117750Y105786D01*
X118258D01*
X118511Y105532D01*
X116226Y104262D02*
Y105786D01*
X116988Y105024D01*
X115972D01*
X120035Y102230D02*
Y103754D01*
X119273D01*
X119019Y103500D01*
Y102992D01*
X119273Y102738D01*
X120035D01*
X119527D02*
X119019Y102230D01*
X117496D02*
X118511D01*
X117496Y103246D01*
Y103500D01*
X117750Y103754D01*
X118258D01*
X118511Y103500D01*
X115972Y103754D02*
X116988D01*
Y102992D01*
X116480Y103246D01*
X116226D01*
X115972Y102992D01*
Y102484D01*
X116226Y102230D01*
X116734D01*
X116988Y102484D01*
X120035Y100198D02*
Y101722D01*
X119273D01*
X119019Y101468D01*
Y100960D01*
X119273Y100706D01*
X120035D01*
X119527D02*
X119019Y100198D01*
X117496D02*
X118511D01*
X117496Y101214D01*
Y101468D01*
X117750Y101722D01*
X118258D01*
X118511Y101468D01*
X115972Y101722D02*
X116480Y101468D01*
X116988Y100960D01*
Y100452D01*
X116734Y100198D01*
X116226D01*
X115972Y100452D01*
Y100706D01*
X116226Y100960D01*
X116988D01*
X144795Y97999D02*
Y99523D01*
X144034D01*
X143780Y99269D01*
Y98761D01*
X144034Y98507D01*
X144795D01*
X144288D02*
X143780Y97999D01*
X143272D02*
X142764D01*
X143018D01*
Y99523D01*
X143272Y99269D01*
X140987Y97999D02*
X142002D01*
X140987Y99015D01*
Y99269D01*
X141241Y99523D01*
X141748D01*
X142002Y99269D01*
X144795Y95963D02*
Y97487D01*
X144034D01*
X143780Y97233D01*
Y96725D01*
X144034Y96471D01*
X144795D01*
X144288D02*
X143780Y95963D01*
X143272D02*
X142764D01*
X143018D01*
Y97487D01*
X143272Y97233D01*
X142002D02*
X141748Y97487D01*
X141241D01*
X140987Y97233D01*
Y96979D01*
X141241Y96725D01*
X141495D01*
X141241D01*
X140987Y96471D01*
Y96217D01*
X141241Y95963D01*
X141748D01*
X142002Y96217D01*
X144795Y93927D02*
Y95451D01*
X144034D01*
X143780Y95197D01*
Y94689D01*
X144034Y94435D01*
X144795D01*
X144288D02*
X143780Y93927D01*
X143272D02*
X142764D01*
X143018D01*
Y95451D01*
X143272Y95197D01*
X141241Y93927D02*
Y95451D01*
X142002Y94689D01*
X140987D01*
X144795Y104107D02*
Y105631D01*
X144034D01*
X143780Y105377D01*
Y104869D01*
X144034Y104615D01*
X144795D01*
X144288D02*
X143780Y104107D01*
X143272Y104361D02*
X143018Y104107D01*
X142510D01*
X142256Y104361D01*
Y105377D01*
X142510Y105631D01*
X143018D01*
X143272Y105377D01*
Y105123D01*
X143018Y104869D01*
X142256D01*
X144795Y102071D02*
Y103595D01*
X144034D01*
X143780Y103341D01*
Y102833D01*
X144034Y102579D01*
X144795D01*
X144288D02*
X143780Y102071D01*
X143272D02*
X142764D01*
X143018D01*
Y103595D01*
X143272Y103341D01*
X142002D02*
X141748Y103595D01*
X141241D01*
X140987Y103341D01*
Y102325D01*
X141241Y102071D01*
X141748D01*
X142002Y102325D01*
Y103341D01*
X144795Y100035D02*
Y101559D01*
X144034D01*
X143780Y101305D01*
Y100797D01*
X144034Y100543D01*
X144795D01*
X144288D02*
X143780Y100035D01*
X143272D02*
X142764D01*
X143018D01*
Y101559D01*
X143272Y101305D01*
X142002Y100035D02*
X141495D01*
X141748D01*
Y101559D01*
X142002Y101305D01*
X144795Y109483D02*
Y111007D01*
X144034D01*
X143780Y110753D01*
Y110245D01*
X144034Y109991D01*
X144795D01*
X144288D02*
X143780Y109483D01*
X143272Y111007D02*
X142256D01*
Y110753D01*
X143272Y109737D01*
Y109483D01*
X144795Y107447D02*
Y108971D01*
X144034D01*
X143780Y108717D01*
Y108209D01*
X144034Y107955D01*
X144795D01*
X144288D02*
X143780Y107447D01*
X143272Y108717D02*
X143018Y108971D01*
X142510D01*
X142256Y108717D01*
Y108463D01*
X142510Y108209D01*
X142256Y107955D01*
Y107701D01*
X142510Y107447D01*
X143018D01*
X143272Y107701D01*
Y107955D01*
X143018Y108209D01*
X143272Y108463D01*
Y108717D01*
X143018Y108209D02*
X142510D01*
X144795Y89855D02*
Y91378D01*
X144034D01*
X143780Y91124D01*
Y90616D01*
X144034Y90363D01*
X144795D01*
X144288D02*
X143780Y89855D01*
X143272D02*
X142764D01*
X143018D01*
Y91378D01*
X143272Y91124D01*
X140987Y91378D02*
X141495Y91124D01*
X142002Y90616D01*
Y90109D01*
X141748Y89855D01*
X141241D01*
X140987Y90109D01*
Y90363D01*
X141241Y90616D01*
X142002D01*
X144795Y87818D02*
Y89342D01*
X144034D01*
X143780Y89088D01*
Y88580D01*
X144034Y88326D01*
X144795D01*
X144288D02*
X143780Y87818D01*
X143272D02*
X142764D01*
X143018D01*
Y89342D01*
X143272Y89088D01*
X142002Y89342D02*
X140987D01*
Y89088D01*
X142002Y88072D01*
Y87818D01*
X120035Y98166D02*
Y99689D01*
X119273D01*
X119019Y99436D01*
Y98928D01*
X119273Y98674D01*
X120035D01*
X119527D02*
X119019Y98166D01*
X117495D02*
X118511D01*
X117495Y99182D01*
Y99436D01*
X117749Y99689D01*
X118257D01*
X118511Y99436D01*
X116988Y99689D02*
X115972D01*
Y99436D01*
X116988Y98420D01*
Y98166D01*
X120035Y96134D02*
Y97658D01*
X119273D01*
X119019Y97404D01*
Y96896D01*
X119273Y96642D01*
X120035D01*
X119527D02*
X119019Y96134D01*
X117495D02*
X118511D01*
X117495Y97150D01*
Y97404D01*
X117749Y97658D01*
X118257D01*
X118511Y97404D01*
X116988D02*
X116734Y97658D01*
X116226D01*
X115972Y97404D01*
Y97150D01*
X116226Y96896D01*
X115972Y96642D01*
Y96388D01*
X116226Y96134D01*
X116734D01*
X116988Y96388D01*
Y96642D01*
X116734Y96896D01*
X116988Y97150D01*
Y97404D01*
X116734Y96896D02*
X116226D01*
X120035Y92070D02*
Y93593D01*
X119273D01*
X119019Y93340D01*
Y92832D01*
X119273Y92578D01*
X120035D01*
X119527D02*
X119019Y92070D01*
X118511Y93340D02*
X118257Y93593D01*
X117749D01*
X117495Y93340D01*
Y93086D01*
X117749Y92832D01*
X118003D01*
X117749D01*
X117495Y92578D01*
Y92324D01*
X117749Y92070D01*
X118257D01*
X118511Y92324D01*
X116988Y93340D02*
X116734Y93593D01*
X116226D01*
X115972Y93340D01*
Y92324D01*
X116226Y92070D01*
X116734D01*
X116988Y92324D01*
Y93340D01*
X120035Y90038D02*
Y91562D01*
X119273D01*
X119019Y91308D01*
Y90800D01*
X119273Y90546D01*
X120035D01*
X119527D02*
X119019Y90038D01*
X118511Y91308D02*
X118257Y91562D01*
X117749D01*
X117495Y91308D01*
Y91054D01*
X117749Y90800D01*
X118003D01*
X117749D01*
X117495Y90546D01*
Y90292D01*
X117749Y90038D01*
X118257D01*
X118511Y90292D01*
X116988Y90038D02*
X116480D01*
X116734D01*
Y91562D01*
X116988Y91308D01*
X120035Y88006D02*
Y89530D01*
X119273D01*
X119019Y89276D01*
Y88768D01*
X119273Y88514D01*
X120035D01*
X119527D02*
X119019Y88006D01*
X118511Y89276D02*
X118257Y89530D01*
X117749D01*
X117495Y89276D01*
Y89022D01*
X117749Y88768D01*
X118003D01*
X117749D01*
X117495Y88514D01*
Y88260D01*
X117749Y88006D01*
X118257D01*
X118511Y88260D01*
X115972Y88006D02*
X116988D01*
X115972Y89022D01*
Y89276D01*
X116226Y89530D01*
X116734D01*
X116988Y89276D01*
X120035Y85974D02*
Y87498D01*
X119273D01*
X119019Y87244D01*
Y86736D01*
X119273Y86482D01*
X120035D01*
X119527D02*
X119019Y85974D01*
X118511Y87244D02*
X118257Y87498D01*
X117749D01*
X117495Y87244D01*
Y86990D01*
X117749Y86736D01*
X118003D01*
X117749D01*
X117495Y86482D01*
Y86228D01*
X117749Y85974D01*
X118257D01*
X118511Y86228D01*
X116988Y87244D02*
X116734Y87498D01*
X116226D01*
X115972Y87244D01*
Y86990D01*
X116226Y86736D01*
X116480D01*
X116226D01*
X115972Y86482D01*
Y86228D01*
X116226Y85974D01*
X116734D01*
X116988Y86228D01*
X120035Y83942D02*
Y85466D01*
X119273D01*
X119019Y85212D01*
Y84704D01*
X119273Y84450D01*
X120035D01*
X119527D02*
X119019Y83942D01*
X118511Y85212D02*
X118257Y85466D01*
X117749D01*
X117495Y85212D01*
Y84958D01*
X117749Y84704D01*
X118003D01*
X117749D01*
X117495Y84450D01*
Y84196D01*
X117749Y83942D01*
X118257D01*
X118511Y84196D01*
X116226Y83942D02*
Y85466D01*
X116988Y84704D01*
X115972D01*
X120035Y114454D02*
Y115978D01*
X119273D01*
X119019Y115724D01*
Y115216D01*
X119273Y114962D01*
X120035D01*
X119527D02*
X119019Y114454D01*
X118511D02*
X118003D01*
X118257D01*
Y115978D01*
X118511Y115724D01*
X117241Y114708D02*
X116988Y114454D01*
X116480D01*
X116226Y114708D01*
Y115724D01*
X116480Y115978D01*
X116988D01*
X117241Y115724D01*
Y115470D01*
X116988Y115216D01*
X116226D01*
X120035Y112418D02*
Y113941D01*
X119273D01*
X119019Y113688D01*
Y113180D01*
X119273Y112926D01*
X120035D01*
X119527D02*
X119019Y112418D01*
X117495D02*
X118511D01*
X117495Y113434D01*
Y113688D01*
X117749Y113941D01*
X118257D01*
X118511Y113688D01*
X116988D02*
X116734Y113941D01*
X116226D01*
X115972Y113688D01*
Y112672D01*
X116226Y112418D01*
X116734D01*
X116988Y112672D01*
Y113688D01*
X120035Y110382D02*
Y111906D01*
X119273D01*
X119019Y111652D01*
Y111144D01*
X119273Y110890D01*
X120035D01*
X119527D02*
X119019Y110382D01*
X117495D02*
X118511D01*
X117495Y111398D01*
Y111652D01*
X117749Y111906D01*
X118257D01*
X118511Y111652D01*
X116988Y110382D02*
X116480D01*
X116734D01*
Y111906D01*
X116988Y111652D01*
X120035Y108346D02*
Y109870D01*
X119273D01*
X119019Y109616D01*
Y109108D01*
X119273Y108854D01*
X120035D01*
X119527D02*
X119019Y108346D01*
X117495D02*
X118511D01*
X117495Y109362D01*
Y109616D01*
X117749Y109870D01*
X118257D01*
X118511Y109616D01*
X115972Y108346D02*
X116988D01*
X115972Y109362D01*
Y109616D01*
X116226Y109870D01*
X116734D01*
X116988Y109616D01*
X152623Y102083D02*
Y103607D01*
X151861D01*
X151607Y103353D01*
Y102845D01*
X151861Y102591D01*
X152623D01*
X152115D02*
X151607Y102083D01*
X150084Y103607D02*
X150592Y103353D01*
X151099Y102845D01*
Y102337D01*
X150846Y102083D01*
X150338D01*
X150084Y102337D01*
Y102591D01*
X150338Y102845D01*
X151099D01*
X152623Y96985D02*
Y98509D01*
X151861D01*
X151607Y98255D01*
Y97747D01*
X151861Y97493D01*
X152623D01*
X152115D02*
X151607Y96985D01*
X150084Y98509D02*
X151099D01*
Y97747D01*
X150592Y98001D01*
X150338D01*
X150084Y97747D01*
Y97239D01*
X150338Y96985D01*
X150846D01*
X151099Y97239D01*
X152623Y104115D02*
Y105639D01*
X151861D01*
X151607Y105385D01*
Y104877D01*
X151861Y104623D01*
X152623D01*
X152115D02*
X151607Y104115D01*
X150338D02*
Y105639D01*
X151099Y104877D01*
X150084D01*
X152623Y99017D02*
Y100541D01*
X151861D01*
X151607Y100287D01*
Y99779D01*
X151861Y99525D01*
X152623D01*
X152115D02*
X151607Y99017D01*
X151099Y100287D02*
X150846Y100541D01*
X150338D01*
X150084Y100287D01*
Y100033D01*
X150338Y99779D01*
X150592D01*
X150338D01*
X150084Y99525D01*
Y99271D01*
X150338Y99017D01*
X150846D01*
X151099Y99271D01*
X130759Y115618D02*
X131267D01*
X131013D01*
Y114348D01*
X131267Y114094D01*
X131521D01*
X131775Y114348D01*
X130251Y115364D02*
X129998Y115618D01*
X129490D01*
X129236Y115364D01*
Y115110D01*
X129490Y114856D01*
X129744D01*
X129490D01*
X129236Y114602D01*
Y114348D01*
X129490Y114094D01*
X129998D01*
X130251Y114348D01*
X39535Y154602D02*
Y156126D01*
X38773D01*
X38519Y155872D01*
Y155364D01*
X38773Y155110D01*
X39535D01*
X39027D02*
X38519Y154602D01*
X36995D02*
X38011D01*
X36995Y155618D01*
Y155872D01*
X37249Y156126D01*
X37757D01*
X38011Y155872D01*
X36488Y154856D02*
X36234Y154602D01*
X35726D01*
X35472Y154856D01*
Y155872D01*
X35726Y156126D01*
X36234D01*
X36488Y155872D01*
Y155618D01*
X36234Y155364D01*
X35472D01*
X64295Y152392D02*
Y153916D01*
X63533D01*
X63279Y153662D01*
Y153154D01*
X63533Y152900D01*
X64295D01*
X63787D02*
X63279Y152392D01*
X62771D02*
X62264D01*
X62518D01*
Y153916D01*
X62771Y153662D01*
X60486Y153916D02*
X61502D01*
Y153154D01*
X60994Y153408D01*
X60740D01*
X60486Y153154D01*
Y152646D01*
X60740Y152392D01*
X61248D01*
X61502Y152646D01*
X64295Y146281D02*
Y147805D01*
X63534D01*
X63280Y147551D01*
Y147043D01*
X63534Y146789D01*
X64295D01*
X63788D02*
X63280Y146281D01*
X62772D02*
X62264D01*
X62518D01*
Y147805D01*
X62772Y147551D01*
X61502D02*
X61248Y147805D01*
X60741D01*
X60487Y147551D01*
Y147297D01*
X60741Y147043D01*
X60487Y146789D01*
Y146535D01*
X60741Y146281D01*
X61248D01*
X61502Y146535D01*
Y146789D01*
X61248Y147043D01*
X61502Y147297D01*
Y147551D01*
X61248Y147043D02*
X60741D01*
X39535Y166794D02*
Y168318D01*
X38773D01*
X38519Y168064D01*
Y167556D01*
X38773Y167302D01*
X39535D01*
X39027D02*
X38519Y166794D01*
X36996D02*
X38011D01*
X36996Y167810D01*
Y168064D01*
X37250Y168318D01*
X37758D01*
X38011Y168064D01*
X36488D02*
X36234Y168318D01*
X35726D01*
X35472Y168064D01*
Y167810D01*
X35726Y167556D01*
X35980D01*
X35726D01*
X35472Y167302D01*
Y167048D01*
X35726Y166794D01*
X36234D01*
X36488Y167048D01*
X39535Y164762D02*
Y166286D01*
X38773D01*
X38519Y166032D01*
Y165524D01*
X38773Y165270D01*
X39535D01*
X39027D02*
X38519Y164762D01*
X36996D02*
X38011D01*
X36996Y165778D01*
Y166032D01*
X37250Y166286D01*
X37758D01*
X38011Y166032D01*
X35726Y164762D02*
Y166286D01*
X36488Y165524D01*
X35472D01*
X39535Y162730D02*
Y164254D01*
X38773D01*
X38519Y164000D01*
Y163492D01*
X38773Y163238D01*
X39535D01*
X39027D02*
X38519Y162730D01*
X36996D02*
X38011D01*
X36996Y163746D01*
Y164000D01*
X37250Y164254D01*
X37758D01*
X38011Y164000D01*
X35472Y164254D02*
X36488D01*
Y163492D01*
X35980Y163746D01*
X35726D01*
X35472Y163492D01*
Y162984D01*
X35726Y162730D01*
X36234D01*
X36488Y162984D01*
X39535Y160698D02*
Y162222D01*
X38773D01*
X38519Y161968D01*
Y161460D01*
X38773Y161206D01*
X39535D01*
X39027D02*
X38519Y160698D01*
X36996D02*
X38011D01*
X36996Y161714D01*
Y161968D01*
X37250Y162222D01*
X37758D01*
X38011Y161968D01*
X35472Y162222D02*
X35980Y161968D01*
X36488Y161460D01*
Y160952D01*
X36234Y160698D01*
X35726D01*
X35472Y160952D01*
Y161206D01*
X35726Y161460D01*
X36488D01*
X64295Y158499D02*
Y160023D01*
X63534D01*
X63280Y159769D01*
Y159261D01*
X63534Y159007D01*
X64295D01*
X63788D02*
X63280Y158499D01*
X62772D02*
X62264D01*
X62518D01*
Y160023D01*
X62772Y159769D01*
X60487Y158499D02*
X61502D01*
X60487Y159515D01*
Y159769D01*
X60741Y160023D01*
X61248D01*
X61502Y159769D01*
X64295Y156463D02*
Y157987D01*
X63534D01*
X63280Y157733D01*
Y157225D01*
X63534Y156971D01*
X64295D01*
X63788D02*
X63280Y156463D01*
X62772D02*
X62264D01*
X62518D01*
Y157987D01*
X62772Y157733D01*
X61502D02*
X61248Y157987D01*
X60741D01*
X60487Y157733D01*
Y157479D01*
X60741Y157225D01*
X60995D01*
X60741D01*
X60487Y156971D01*
Y156717D01*
X60741Y156463D01*
X61248D01*
X61502Y156717D01*
X64295Y154427D02*
Y155951D01*
X63534D01*
X63280Y155697D01*
Y155189D01*
X63534Y154935D01*
X64295D01*
X63788D02*
X63280Y154427D01*
X62772D02*
X62264D01*
X62518D01*
Y155951D01*
X62772Y155697D01*
X60741Y154427D02*
Y155951D01*
X61502Y155189D01*
X60487D01*
X64295Y164607D02*
Y166131D01*
X63534D01*
X63280Y165877D01*
Y165369D01*
X63534Y165115D01*
X64295D01*
X63788D02*
X63280Y164607D01*
X62772Y164861D02*
X62518Y164607D01*
X62010D01*
X61756Y164861D01*
Y165877D01*
X62010Y166131D01*
X62518D01*
X62772Y165877D01*
Y165623D01*
X62518Y165369D01*
X61756D01*
X64295Y162571D02*
Y164095D01*
X63534D01*
X63280Y163841D01*
Y163333D01*
X63534Y163079D01*
X64295D01*
X63788D02*
X63280Y162571D01*
X62772D02*
X62264D01*
X62518D01*
Y164095D01*
X62772Y163841D01*
X61502D02*
X61248Y164095D01*
X60741D01*
X60487Y163841D01*
Y162825D01*
X60741Y162571D01*
X61248D01*
X61502Y162825D01*
Y163841D01*
X64295Y160535D02*
Y162059D01*
X63534D01*
X63280Y161805D01*
Y161297D01*
X63534Y161043D01*
X64295D01*
X63788D02*
X63280Y160535D01*
X62772D02*
X62264D01*
X62518D01*
Y162059D01*
X62772Y161805D01*
X61502Y160535D02*
X60995D01*
X61248D01*
Y162059D01*
X61502Y161805D01*
X64295Y169983D02*
Y171507D01*
X63534D01*
X63280Y171253D01*
Y170745D01*
X63534Y170491D01*
X64295D01*
X63788D02*
X63280Y169983D01*
X62772Y171507D02*
X61756D01*
Y171253D01*
X62772Y170237D01*
Y169983D01*
X64295Y167947D02*
Y169471D01*
X63534D01*
X63280Y169217D01*
Y168709D01*
X63534Y168455D01*
X64295D01*
X63788D02*
X63280Y167947D01*
X62772Y169217D02*
X62518Y169471D01*
X62010D01*
X61756Y169217D01*
Y168963D01*
X62010Y168709D01*
X61756Y168455D01*
Y168201D01*
X62010Y167947D01*
X62518D01*
X62772Y168201D01*
Y168455D01*
X62518Y168709D01*
X62772Y168963D01*
Y169217D01*
X62518Y168709D02*
X62010D01*
X64295Y150355D02*
Y151878D01*
X63534D01*
X63280Y151624D01*
Y151116D01*
X63534Y150863D01*
X64295D01*
X63788D02*
X63280Y150355D01*
X62772D02*
X62264D01*
X62518D01*
Y151878D01*
X62772Y151624D01*
X60487Y151878D02*
X60995Y151624D01*
X61502Y151116D01*
Y150609D01*
X61248Y150355D01*
X60741D01*
X60487Y150609D01*
Y150863D01*
X60741Y151116D01*
X61502D01*
X64295Y148318D02*
Y149842D01*
X63534D01*
X63280Y149588D01*
Y149080D01*
X63534Y148826D01*
X64295D01*
X63788D02*
X63280Y148318D01*
X62772D02*
X62264D01*
X62518D01*
Y149842D01*
X62772Y149588D01*
X61502Y149842D02*
X60487D01*
Y149588D01*
X61502Y148572D01*
Y148318D01*
X39535Y158666D02*
Y160189D01*
X38773D01*
X38519Y159936D01*
Y159428D01*
X38773Y159174D01*
X39535D01*
X39027D02*
X38519Y158666D01*
X36995D02*
X38011D01*
X36995Y159682D01*
Y159936D01*
X37249Y160189D01*
X37757D01*
X38011Y159936D01*
X36488Y160189D02*
X35472D01*
Y159936D01*
X36488Y158920D01*
Y158666D01*
X39535Y156634D02*
Y158158D01*
X38773D01*
X38519Y157904D01*
Y157396D01*
X38773Y157142D01*
X39535D01*
X39027D02*
X38519Y156634D01*
X36995D02*
X38011D01*
X36995Y157650D01*
Y157904D01*
X37249Y158158D01*
X37757D01*
X38011Y157904D01*
X36488D02*
X36234Y158158D01*
X35726D01*
X35472Y157904D01*
Y157650D01*
X35726Y157396D01*
X35472Y157142D01*
Y156888D01*
X35726Y156634D01*
X36234D01*
X36488Y156888D01*
Y157142D01*
X36234Y157396D01*
X36488Y157650D01*
Y157904D01*
X36234Y157396D02*
X35726D01*
X39535Y152570D02*
Y154094D01*
X38773D01*
X38519Y153840D01*
Y153332D01*
X38773Y153078D01*
X39535D01*
X39027D02*
X38519Y152570D01*
X38011Y153840D02*
X37757Y154094D01*
X37249D01*
X36995Y153840D01*
Y153586D01*
X37249Y153332D01*
X37503D01*
X37249D01*
X36995Y153078D01*
Y152824D01*
X37249Y152570D01*
X37757D01*
X38011Y152824D01*
X36488Y153840D02*
X36234Y154094D01*
X35726D01*
X35472Y153840D01*
Y152824D01*
X35726Y152570D01*
X36234D01*
X36488Y152824D01*
Y153840D01*
X39535Y150538D02*
Y152062D01*
X38773D01*
X38519Y151808D01*
Y151300D01*
X38773Y151046D01*
X39535D01*
X39027D02*
X38519Y150538D01*
X38011Y151808D02*
X37757Y152062D01*
X37249D01*
X36995Y151808D01*
Y151554D01*
X37249Y151300D01*
X37503D01*
X37249D01*
X36995Y151046D01*
Y150792D01*
X37249Y150538D01*
X37757D01*
X38011Y150792D01*
X36488Y150538D02*
X35980D01*
X36234D01*
Y152062D01*
X36488Y151808D01*
X39535Y148506D02*
Y150030D01*
X38773D01*
X38519Y149776D01*
Y149268D01*
X38773Y149014D01*
X39535D01*
X39027D02*
X38519Y148506D01*
X38011Y149776D02*
X37757Y150030D01*
X37249D01*
X36995Y149776D01*
Y149522D01*
X37249Y149268D01*
X37503D01*
X37249D01*
X36995Y149014D01*
Y148760D01*
X37249Y148506D01*
X37757D01*
X38011Y148760D01*
X35472Y148506D02*
X36488D01*
X35472Y149522D01*
Y149776D01*
X35726Y150030D01*
X36234D01*
X36488Y149776D01*
X39535Y146474D02*
Y147998D01*
X38773D01*
X38519Y147744D01*
Y147236D01*
X38773Y146982D01*
X39535D01*
X39027D02*
X38519Y146474D01*
X38011Y147744D02*
X37757Y147998D01*
X37249D01*
X36995Y147744D01*
Y147490D01*
X37249Y147236D01*
X37503D01*
X37249D01*
X36995Y146982D01*
Y146728D01*
X37249Y146474D01*
X37757D01*
X38011Y146728D01*
X36488Y147744D02*
X36234Y147998D01*
X35726D01*
X35472Y147744D01*
Y147490D01*
X35726Y147236D01*
X35980D01*
X35726D01*
X35472Y146982D01*
Y146728D01*
X35726Y146474D01*
X36234D01*
X36488Y146728D01*
X39535Y144442D02*
Y145966D01*
X38773D01*
X38519Y145712D01*
Y145204D01*
X38773Y144950D01*
X39535D01*
X39027D02*
X38519Y144442D01*
X38011Y145712D02*
X37757Y145966D01*
X37249D01*
X36995Y145712D01*
Y145458D01*
X37249Y145204D01*
X37503D01*
X37249D01*
X36995Y144950D01*
Y144696D01*
X37249Y144442D01*
X37757D01*
X38011Y144696D01*
X35726Y144442D02*
Y145966D01*
X36488Y145204D01*
X35472D01*
X39535Y174954D02*
Y176478D01*
X38773D01*
X38519Y176224D01*
Y175716D01*
X38773Y175462D01*
X39535D01*
X39027D02*
X38519Y174954D01*
X38011D02*
X37503D01*
X37757D01*
Y176478D01*
X38011Y176224D01*
X36741Y175208D02*
X36488Y174954D01*
X35980D01*
X35726Y175208D01*
Y176224D01*
X35980Y176478D01*
X36488D01*
X36741Y176224D01*
Y175970D01*
X36488Y175716D01*
X35726D01*
X39535Y172918D02*
Y174442D01*
X38773D01*
X38519Y174188D01*
Y173680D01*
X38773Y173426D01*
X39535D01*
X39027D02*
X38519Y172918D01*
X36995D02*
X38011D01*
X36995Y173934D01*
Y174188D01*
X37249Y174442D01*
X37757D01*
X38011Y174188D01*
X36488D02*
X36234Y174442D01*
X35726D01*
X35472Y174188D01*
Y173172D01*
X35726Y172918D01*
X36234D01*
X36488Y173172D01*
Y174188D01*
X39535Y170882D02*
Y172406D01*
X38773D01*
X38519Y172152D01*
Y171644D01*
X38773Y171390D01*
X39535D01*
X39027D02*
X38519Y170882D01*
X36995D02*
X38011D01*
X36995Y171898D01*
Y172152D01*
X37249Y172406D01*
X37757D01*
X38011Y172152D01*
X36488Y170882D02*
X35980D01*
X36234D01*
Y172406D01*
X36488Y172152D01*
X39535Y168846D02*
Y170370D01*
X38773D01*
X38519Y170116D01*
Y169608D01*
X38773Y169354D01*
X39535D01*
X39027D02*
X38519Y168846D01*
X36995D02*
X38011D01*
X36995Y169862D01*
Y170116D01*
X37249Y170370D01*
X37757D01*
X38011Y170116D01*
X35472Y168846D02*
X36488D01*
X35472Y169862D01*
Y170116D01*
X35726Y170370D01*
X36234D01*
X36488Y170116D01*
X72123Y162583D02*
Y164107D01*
X71361D01*
X71107Y163853D01*
Y163345D01*
X71361Y163091D01*
X72123D01*
X71615D02*
X71107Y162583D01*
X69584Y164107D02*
X70092Y163853D01*
X70599Y163345D01*
Y162837D01*
X70346Y162583D01*
X69838D01*
X69584Y162837D01*
Y163091D01*
X69838Y163345D01*
X70599D01*
X72123Y157485D02*
Y159009D01*
X71361D01*
X71107Y158755D01*
Y158247D01*
X71361Y157993D01*
X72123D01*
X71615D02*
X71107Y157485D01*
X69584Y159009D02*
X70599D01*
Y158247D01*
X70092Y158501D01*
X69838D01*
X69584Y158247D01*
Y157739D01*
X69838Y157485D01*
X70346D01*
X70599Y157739D01*
X72123Y164615D02*
Y166139D01*
X71361D01*
X71107Y165885D01*
Y165377D01*
X71361Y165123D01*
X72123D01*
X71615D02*
X71107Y164615D01*
X69838D02*
Y166139D01*
X70599Y165377D01*
X69584D01*
X72123Y159517D02*
Y161041D01*
X71361D01*
X71107Y160787D01*
Y160279D01*
X71361Y160025D01*
X72123D01*
X71615D02*
X71107Y159517D01*
X70599Y160787D02*
X70346Y161041D01*
X69838D01*
X69584Y160787D01*
Y160533D01*
X69838Y160279D01*
X70092D01*
X69838D01*
X69584Y160025D01*
Y159771D01*
X69838Y159517D01*
X70346D01*
X70599Y159771D01*
X50259Y176118D02*
X50767D01*
X50513D01*
Y174848D01*
X50767Y174594D01*
X51021D01*
X51275Y174848D01*
X49751Y175864D02*
X49498Y176118D01*
X48990D01*
X48736Y175864D01*
Y175610D01*
X48990Y175356D01*
X49244D01*
X48990D01*
X48736Y175102D01*
Y174848D01*
X48990Y174594D01*
X49498D01*
X49751Y174848D01*
X120035Y154602D02*
Y156126D01*
X119273D01*
X119019Y155872D01*
Y155364D01*
X119273Y155110D01*
X120035D01*
X119527D02*
X119019Y154602D01*
X117495D02*
X118511D01*
X117495Y155618D01*
Y155872D01*
X117749Y156126D01*
X118257D01*
X118511Y155872D01*
X116988Y154856D02*
X116734Y154602D01*
X116226D01*
X115972Y154856D01*
Y155872D01*
X116226Y156126D01*
X116734D01*
X116988Y155872D01*
Y155618D01*
X116734Y155364D01*
X115972D01*
X144795Y152392D02*
Y153916D01*
X144033D01*
X143779Y153662D01*
Y153154D01*
X144033Y152900D01*
X144795D01*
X144287D02*
X143779Y152392D01*
X143271D02*
X142764D01*
X143018D01*
Y153916D01*
X143271Y153662D01*
X140986Y153916D02*
X142002D01*
Y153154D01*
X141494Y153408D01*
X141240D01*
X140986Y153154D01*
Y152646D01*
X141240Y152392D01*
X141748D01*
X142002Y152646D01*
X144795Y146281D02*
Y147805D01*
X144034D01*
X143780Y147551D01*
Y147043D01*
X144034Y146789D01*
X144795D01*
X144288D02*
X143780Y146281D01*
X143272D02*
X142764D01*
X143018D01*
Y147805D01*
X143272Y147551D01*
X142002D02*
X141748Y147805D01*
X141241D01*
X140987Y147551D01*
Y147297D01*
X141241Y147043D01*
X140987Y146789D01*
Y146535D01*
X141241Y146281D01*
X141748D01*
X142002Y146535D01*
Y146789D01*
X141748Y147043D01*
X142002Y147297D01*
Y147551D01*
X141748Y147043D02*
X141241D01*
X120035Y166794D02*
Y168318D01*
X119273D01*
X119019Y168064D01*
Y167556D01*
X119273Y167302D01*
X120035D01*
X119527D02*
X119019Y166794D01*
X117496D02*
X118511D01*
X117496Y167810D01*
Y168064D01*
X117750Y168318D01*
X118258D01*
X118511Y168064D01*
X116988D02*
X116734Y168318D01*
X116226D01*
X115972Y168064D01*
Y167810D01*
X116226Y167556D01*
X116480D01*
X116226D01*
X115972Y167302D01*
Y167048D01*
X116226Y166794D01*
X116734D01*
X116988Y167048D01*
X120035Y164762D02*
Y166286D01*
X119273D01*
X119019Y166032D01*
Y165524D01*
X119273Y165270D01*
X120035D01*
X119527D02*
X119019Y164762D01*
X117496D02*
X118511D01*
X117496Y165778D01*
Y166032D01*
X117750Y166286D01*
X118258D01*
X118511Y166032D01*
X116226Y164762D02*
Y166286D01*
X116988Y165524D01*
X115972D01*
X120035Y162730D02*
Y164254D01*
X119273D01*
X119019Y164000D01*
Y163492D01*
X119273Y163238D01*
X120035D01*
X119527D02*
X119019Y162730D01*
X117496D02*
X118511D01*
X117496Y163746D01*
Y164000D01*
X117750Y164254D01*
X118258D01*
X118511Y164000D01*
X115972Y164254D02*
X116988D01*
Y163492D01*
X116480Y163746D01*
X116226D01*
X115972Y163492D01*
Y162984D01*
X116226Y162730D01*
X116734D01*
X116988Y162984D01*
X120035Y160698D02*
Y162222D01*
X119273D01*
X119019Y161968D01*
Y161460D01*
X119273Y161206D01*
X120035D01*
X119527D02*
X119019Y160698D01*
X117496D02*
X118511D01*
X117496Y161714D01*
Y161968D01*
X117750Y162222D01*
X118258D01*
X118511Y161968D01*
X115972Y162222D02*
X116480Y161968D01*
X116988Y161460D01*
Y160952D01*
X116734Y160698D01*
X116226D01*
X115972Y160952D01*
Y161206D01*
X116226Y161460D01*
X116988D01*
X144795Y158499D02*
Y160023D01*
X144034D01*
X143780Y159769D01*
Y159261D01*
X144034Y159007D01*
X144795D01*
X144288D02*
X143780Y158499D01*
X143272D02*
X142764D01*
X143018D01*
Y160023D01*
X143272Y159769D01*
X140987Y158499D02*
X142002D01*
X140987Y159515D01*
Y159769D01*
X141241Y160023D01*
X141748D01*
X142002Y159769D01*
X144795Y156463D02*
Y157987D01*
X144034D01*
X143780Y157733D01*
Y157225D01*
X144034Y156971D01*
X144795D01*
X144288D02*
X143780Y156463D01*
X143272D02*
X142764D01*
X143018D01*
Y157987D01*
X143272Y157733D01*
X142002D02*
X141748Y157987D01*
X141241D01*
X140987Y157733D01*
Y157479D01*
X141241Y157225D01*
X141495D01*
X141241D01*
X140987Y156971D01*
Y156717D01*
X141241Y156463D01*
X141748D01*
X142002Y156717D01*
X144795Y154427D02*
Y155951D01*
X144034D01*
X143780Y155697D01*
Y155189D01*
X144034Y154935D01*
X144795D01*
X144288D02*
X143780Y154427D01*
X143272D02*
X142764D01*
X143018D01*
Y155951D01*
X143272Y155697D01*
X141241Y154427D02*
Y155951D01*
X142002Y155189D01*
X140987D01*
X144795Y164607D02*
Y166131D01*
X144034D01*
X143780Y165877D01*
Y165369D01*
X144034Y165115D01*
X144795D01*
X144288D02*
X143780Y164607D01*
X143272Y164861D02*
X143018Y164607D01*
X142510D01*
X142256Y164861D01*
Y165877D01*
X142510Y166131D01*
X143018D01*
X143272Y165877D01*
Y165623D01*
X143018Y165369D01*
X142256D01*
X144795Y162571D02*
Y164095D01*
X144034D01*
X143780Y163841D01*
Y163333D01*
X144034Y163079D01*
X144795D01*
X144288D02*
X143780Y162571D01*
X143272D02*
X142764D01*
X143018D01*
Y164095D01*
X143272Y163841D01*
X142002D02*
X141748Y164095D01*
X141241D01*
X140987Y163841D01*
Y162825D01*
X141241Y162571D01*
X141748D01*
X142002Y162825D01*
Y163841D01*
X144795Y160535D02*
Y162059D01*
X144034D01*
X143780Y161805D01*
Y161297D01*
X144034Y161043D01*
X144795D01*
X144288D02*
X143780Y160535D01*
X143272D02*
X142764D01*
X143018D01*
Y162059D01*
X143272Y161805D01*
X142002Y160535D02*
X141495D01*
X141748D01*
Y162059D01*
X142002Y161805D01*
X144795Y169983D02*
Y171507D01*
X144034D01*
X143780Y171253D01*
Y170745D01*
X144034Y170491D01*
X144795D01*
X144288D02*
X143780Y169983D01*
X143272Y171507D02*
X142256D01*
Y171253D01*
X143272Y170237D01*
Y169983D01*
X144795Y167947D02*
Y169471D01*
X144034D01*
X143780Y169217D01*
Y168709D01*
X144034Y168455D01*
X144795D01*
X144288D02*
X143780Y167947D01*
X143272Y169217D02*
X143018Y169471D01*
X142510D01*
X142256Y169217D01*
Y168963D01*
X142510Y168709D01*
X142256Y168455D01*
Y168201D01*
X142510Y167947D01*
X143018D01*
X143272Y168201D01*
Y168455D01*
X143018Y168709D01*
X143272Y168963D01*
Y169217D01*
X143018Y168709D02*
X142510D01*
X144795Y150355D02*
Y151878D01*
X144034D01*
X143780Y151624D01*
Y151116D01*
X144034Y150863D01*
X144795D01*
X144288D02*
X143780Y150355D01*
X143272D02*
X142764D01*
X143018D01*
Y151878D01*
X143272Y151624D01*
X140987Y151878D02*
X141495Y151624D01*
X142002Y151116D01*
Y150609D01*
X141748Y150355D01*
X141241D01*
X140987Y150609D01*
Y150863D01*
X141241Y151116D01*
X142002D01*
X144795Y148318D02*
Y149842D01*
X144034D01*
X143780Y149588D01*
Y149080D01*
X144034Y148826D01*
X144795D01*
X144288D02*
X143780Y148318D01*
X143272D02*
X142764D01*
X143018D01*
Y149842D01*
X143272Y149588D01*
X142002Y149842D02*
X140987D01*
Y149588D01*
X142002Y148572D01*
Y148318D01*
X120035Y158666D02*
Y160189D01*
X119273D01*
X119019Y159936D01*
Y159428D01*
X119273Y159174D01*
X120035D01*
X119527D02*
X119019Y158666D01*
X117495D02*
X118511D01*
X117495Y159682D01*
Y159936D01*
X117749Y160189D01*
X118257D01*
X118511Y159936D01*
X116988Y160189D02*
X115972D01*
Y159936D01*
X116988Y158920D01*
Y158666D01*
X120035Y156634D02*
Y158158D01*
X119273D01*
X119019Y157904D01*
Y157396D01*
X119273Y157142D01*
X120035D01*
X119527D02*
X119019Y156634D01*
X117495D02*
X118511D01*
X117495Y157650D01*
Y157904D01*
X117749Y158158D01*
X118257D01*
X118511Y157904D01*
X116988D02*
X116734Y158158D01*
X116226D01*
X115972Y157904D01*
Y157650D01*
X116226Y157396D01*
X115972Y157142D01*
Y156888D01*
X116226Y156634D01*
X116734D01*
X116988Y156888D01*
Y157142D01*
X116734Y157396D01*
X116988Y157650D01*
Y157904D01*
X116734Y157396D02*
X116226D01*
X120035Y152570D02*
Y154094D01*
X119273D01*
X119019Y153840D01*
Y153332D01*
X119273Y153078D01*
X120035D01*
X119527D02*
X119019Y152570D01*
X118511Y153840D02*
X118257Y154094D01*
X117749D01*
X117495Y153840D01*
Y153586D01*
X117749Y153332D01*
X118003D01*
X117749D01*
X117495Y153078D01*
Y152824D01*
X117749Y152570D01*
X118257D01*
X118511Y152824D01*
X116988Y153840D02*
X116734Y154094D01*
X116226D01*
X115972Y153840D01*
Y152824D01*
X116226Y152570D01*
X116734D01*
X116988Y152824D01*
Y153840D01*
X120035Y150538D02*
Y152062D01*
X119273D01*
X119019Y151808D01*
Y151300D01*
X119273Y151046D01*
X120035D01*
X119527D02*
X119019Y150538D01*
X118511Y151808D02*
X118257Y152062D01*
X117749D01*
X117495Y151808D01*
Y151554D01*
X117749Y151300D01*
X118003D01*
X117749D01*
X117495Y151046D01*
Y150792D01*
X117749Y150538D01*
X118257D01*
X118511Y150792D01*
X116988Y150538D02*
X116480D01*
X116734D01*
Y152062D01*
X116988Y151808D01*
X120035Y148506D02*
Y150030D01*
X119273D01*
X119019Y149776D01*
Y149268D01*
X119273Y149014D01*
X120035D01*
X119527D02*
X119019Y148506D01*
X118511Y149776D02*
X118257Y150030D01*
X117749D01*
X117495Y149776D01*
Y149522D01*
X117749Y149268D01*
X118003D01*
X117749D01*
X117495Y149014D01*
Y148760D01*
X117749Y148506D01*
X118257D01*
X118511Y148760D01*
X115972Y148506D02*
X116988D01*
X115972Y149522D01*
Y149776D01*
X116226Y150030D01*
X116734D01*
X116988Y149776D01*
X120035Y146474D02*
Y147998D01*
X119273D01*
X119019Y147744D01*
Y147236D01*
X119273Y146982D01*
X120035D01*
X119527D02*
X119019Y146474D01*
X118511Y147744D02*
X118257Y147998D01*
X117749D01*
X117495Y147744D01*
Y147490D01*
X117749Y147236D01*
X118003D01*
X117749D01*
X117495Y146982D01*
Y146728D01*
X117749Y146474D01*
X118257D01*
X118511Y146728D01*
X116988Y147744D02*
X116734Y147998D01*
X116226D01*
X115972Y147744D01*
Y147490D01*
X116226Y147236D01*
X116480D01*
X116226D01*
X115972Y146982D01*
Y146728D01*
X116226Y146474D01*
X116734D01*
X116988Y146728D01*
X120035Y144442D02*
Y145966D01*
X119273D01*
X119019Y145712D01*
Y145204D01*
X119273Y144950D01*
X120035D01*
X119527D02*
X119019Y144442D01*
X118511Y145712D02*
X118257Y145966D01*
X117749D01*
X117495Y145712D01*
Y145458D01*
X117749Y145204D01*
X118003D01*
X117749D01*
X117495Y144950D01*
Y144696D01*
X117749Y144442D01*
X118257D01*
X118511Y144696D01*
X116226Y144442D02*
Y145966D01*
X116988Y145204D01*
X115972D01*
X120035Y174954D02*
Y176478D01*
X119273D01*
X119019Y176224D01*
Y175716D01*
X119273Y175462D01*
X120035D01*
X119527D02*
X119019Y174954D01*
X118511D02*
X118003D01*
X118257D01*
Y176478D01*
X118511Y176224D01*
X117241Y175208D02*
X116988Y174954D01*
X116480D01*
X116226Y175208D01*
Y176224D01*
X116480Y176478D01*
X116988D01*
X117241Y176224D01*
Y175970D01*
X116988Y175716D01*
X116226D01*
X120035Y172918D02*
Y174442D01*
X119273D01*
X119019Y174188D01*
Y173680D01*
X119273Y173426D01*
X120035D01*
X119527D02*
X119019Y172918D01*
X117495D02*
X118511D01*
X117495Y173934D01*
Y174188D01*
X117749Y174442D01*
X118257D01*
X118511Y174188D01*
X116988D02*
X116734Y174442D01*
X116226D01*
X115972Y174188D01*
Y173172D01*
X116226Y172918D01*
X116734D01*
X116988Y173172D01*
Y174188D01*
X120035Y170882D02*
Y172406D01*
X119273D01*
X119019Y172152D01*
Y171644D01*
X119273Y171390D01*
X120035D01*
X119527D02*
X119019Y170882D01*
X117495D02*
X118511D01*
X117495Y171898D01*
Y172152D01*
X117749Y172406D01*
X118257D01*
X118511Y172152D01*
X116988Y170882D02*
X116480D01*
X116734D01*
Y172406D01*
X116988Y172152D01*
X120035Y168846D02*
Y170370D01*
X119273D01*
X119019Y170116D01*
Y169608D01*
X119273Y169354D01*
X120035D01*
X119527D02*
X119019Y168846D01*
X117495D02*
X118511D01*
X117495Y169862D01*
Y170116D01*
X117749Y170370D01*
X118257D01*
X118511Y170116D01*
X115972Y168846D02*
X116988D01*
X115972Y169862D01*
Y170116D01*
X116226Y170370D01*
X116734D01*
X116988Y170116D01*
X152623Y162583D02*
Y164107D01*
X151861D01*
X151607Y163853D01*
Y163345D01*
X151861Y163091D01*
X152623D01*
X152115D02*
X151607Y162583D01*
X150084Y164107D02*
X150592Y163853D01*
X151099Y163345D01*
Y162837D01*
X150846Y162583D01*
X150338D01*
X150084Y162837D01*
Y163091D01*
X150338Y163345D01*
X151099D01*
X152623Y157485D02*
Y159009D01*
X151861D01*
X151607Y158755D01*
Y158247D01*
X151861Y157993D01*
X152623D01*
X152115D02*
X151607Y157485D01*
X150084Y159009D02*
X151099D01*
Y158247D01*
X150592Y158501D01*
X150338D01*
X150084Y158247D01*
Y157739D01*
X150338Y157485D01*
X150846D01*
X151099Y157739D01*
X152623Y164615D02*
Y166139D01*
X151861D01*
X151607Y165885D01*
Y165377D01*
X151861Y165123D01*
X152623D01*
X152115D02*
X151607Y164615D01*
X150338D02*
Y166139D01*
X151099Y165377D01*
X150084D01*
X152623Y159517D02*
Y161041D01*
X151861D01*
X151607Y160787D01*
Y160279D01*
X151861Y160025D01*
X152623D01*
X152115D02*
X151607Y159517D01*
X151099Y160787D02*
X150846Y161041D01*
X150338D01*
X150084Y160787D01*
Y160533D01*
X150338Y160279D01*
X150592D01*
X150338D01*
X150084Y160025D01*
Y159771D01*
X150338Y159517D01*
X150846D01*
X151099Y159771D01*
X130759Y176118D02*
X131267D01*
X131013D01*
Y174848D01*
X131267Y174594D01*
X131521D01*
X131775Y174848D01*
X130251Y175864D02*
X129998Y176118D01*
X129490D01*
X129236Y175864D01*
Y175610D01*
X129490Y175356D01*
X129744D01*
X129490D01*
X129236Y175102D01*
Y174848D01*
X129490Y174594D01*
X129998D01*
X130251Y174848D01*
D28*
X46300Y26400D02*
G03*
X46300Y26400I-100J0D01*
G01*
X126800D02*
G03*
X126800Y26400I-100J0D01*
G01*
X46300Y86900D02*
G03*
X46300Y86900I-100J0D01*
G01*
X126800D02*
G03*
X126800Y86900I-100J0D01*
G01*
X46300Y147400D02*
G03*
X46300Y147400I-100J0D01*
G01*
X126800D02*
G03*
X126800Y147400I-100J0D01*
G01*
D30*
X53000Y23100D02*
Y25830D01*
X50360Y23100D02*
X53000D01*
X47000D02*
X49640D01*
X47000D02*
Y25830D01*
X53000Y50170D02*
Y52900D01*
X47000D02*
X53000D01*
X47000Y50170D02*
Y52900D01*
X133500Y23100D02*
Y25830D01*
X130860Y23100D02*
X133500D01*
X127500D02*
X130140D01*
X127500D02*
Y25830D01*
X133500Y50170D02*
Y52900D01*
X127500D02*
X133500D01*
X127500Y50170D02*
Y52900D01*
X53000Y83600D02*
Y86330D01*
X50360Y83600D02*
X53000D01*
X47000D02*
X49640D01*
X47000D02*
Y86330D01*
X53000Y110670D02*
Y113400D01*
X47000D02*
X53000D01*
X47000Y110670D02*
Y113400D01*
X133500Y83600D02*
Y86330D01*
X130860Y83600D02*
X133500D01*
X127500D02*
X130140D01*
X127500D02*
Y86330D01*
X133500Y110670D02*
Y113400D01*
X127500D02*
X133500D01*
X127500Y110670D02*
Y113400D01*
X53000Y144100D02*
Y146830D01*
X50360Y144100D02*
X53000D01*
X47000D02*
X49640D01*
X47000D02*
Y146830D01*
X53000Y171170D02*
Y173900D01*
X47000D02*
X53000D01*
X47000Y171170D02*
Y173900D01*
X133500Y144100D02*
Y146830D01*
X130860Y144100D02*
X133500D01*
X127500D02*
X130140D01*
X127500D02*
Y146830D01*
X133500Y171170D02*
Y173900D01*
X127500D02*
X133500D01*
X127500Y171170D02*
Y173900D01*
M02*
