G04*
G04 #@! TF.GenerationSoftware,Altium Limited,Altium Designer,19.0.15 (446)*
G04*
G04 Layer_Color=16711935*
%FSLAX43Y43*%
%MOMM*%
G71*
G01*
G75*
%ADD20C,1.700*%
%ADD34C,1.000*%
%ADD35R,1.300X1.200*%
%ADD39C,1.900*%
%ADD40C,1.400*%
%ADD41C,5.200*%
%ADD42R,1.700X1.700*%
%ADD43C,0.657*%
%ADD44R,2.200X0.700*%
%ADD45C,0.200*%
G36*
X167500Y162000D02*
X167598Y162000D01*
X167792Y161962D01*
X167974Y161886D01*
X168137Y161777D01*
X168277Y161637D01*
X168386Y161474D01*
X168462Y161292D01*
X168500Y161098D01*
X168500Y161000D01*
Y161000D01*
X168500Y160902D01*
X168462Y160708D01*
X168386Y160526D01*
X168277Y160363D01*
X168137Y160223D01*
X167974Y160114D01*
X167792Y160038D01*
X167599Y160000D01*
X167500D01*
X167402Y160000D01*
X167208Y160038D01*
X167026Y160114D01*
X166863Y160223D01*
X166723Y160363D01*
X166614Y160526D01*
X166538Y160708D01*
X166500Y160902D01*
X166500Y161000D01*
X166500Y161098D01*
X166538Y161292D01*
X166614Y161474D01*
X166723Y161637D01*
X166863Y161777D01*
X167026Y161886D01*
X167208Y161962D01*
X167402Y162000D01*
X167500Y162000D01*
D02*
G37*
G36*
X87000D02*
X87099Y162000D01*
X87292Y161962D01*
X87474Y161886D01*
X87637Y161777D01*
X87777Y161637D01*
X87886Y161474D01*
X87962Y161292D01*
X88000Y161098D01*
X88000Y161000D01*
Y161000D01*
X88000Y160902D01*
X87962Y160708D01*
X87886Y160526D01*
X87777Y160363D01*
X87637Y160223D01*
X87474Y160114D01*
X87292Y160038D01*
X87099Y160000D01*
X87000D01*
X86902Y160000D01*
X86708Y160038D01*
X86526Y160114D01*
X86363Y160223D01*
X86223Y160363D01*
X86114Y160526D01*
X86038Y160708D01*
X86000Y160902D01*
X86000Y161000D01*
X86000Y161098D01*
X86038Y161292D01*
X86114Y161474D01*
X86223Y161637D01*
X86363Y161777D01*
X86526Y161886D01*
X86708Y161962D01*
X86902Y162000D01*
X87000Y162000D01*
D02*
G37*
G36*
X93000Y142000D02*
X93099Y142000D01*
X93292Y141962D01*
X93474Y141886D01*
X93637Y141777D01*
X93777Y141637D01*
X93886Y141474D01*
X93962Y141292D01*
X94000Y141098D01*
X94000Y141000D01*
Y141000D01*
X94000Y140902D01*
X93962Y140708D01*
X93886Y140526D01*
X93777Y140363D01*
X93637Y140223D01*
X93474Y140114D01*
X93292Y140038D01*
X93099Y140000D01*
X93000D01*
X92902Y140000D01*
X92708Y140038D01*
X92526Y140114D01*
X92363Y140223D01*
X92223Y140363D01*
X92114Y140526D01*
X92038Y140708D01*
X92000Y140902D01*
X92000Y141000D01*
X92000Y141098D01*
X92038Y141292D01*
X92114Y141474D01*
X92223Y141637D01*
X92363Y141777D01*
X92526Y141886D01*
X92708Y141962D01*
X92902Y142000D01*
X93000Y142000D01*
D02*
G37*
G36*
X12500D02*
X12599Y142000D01*
X12792Y141962D01*
X12974Y141886D01*
X13137Y141777D01*
X13277Y141637D01*
X13386Y141474D01*
X13462Y141292D01*
X13500Y141098D01*
X13500Y141000D01*
Y141000D01*
X13500Y140902D01*
X13462Y140708D01*
X13386Y140526D01*
X13277Y140363D01*
X13137Y140223D01*
X12974Y140114D01*
X12792Y140038D01*
X12599Y140000D01*
X12500D01*
X12402Y140000D01*
X12208Y140038D01*
X12026Y140114D01*
X11863Y140223D01*
X11723Y140363D01*
X11614Y140526D01*
X11538Y140708D01*
X11500Y140902D01*
X11500Y141000D01*
X11500Y141098D01*
X11538Y141292D01*
X11614Y141474D01*
X11723Y141637D01*
X11863Y141777D01*
X12026Y141886D01*
X12208Y141962D01*
X12402Y142000D01*
X12500Y142000D01*
D02*
G37*
G36*
X140500Y125000D02*
X140598Y125000D01*
X140792Y124962D01*
X140974Y124886D01*
X141137Y124777D01*
X141277Y124637D01*
X141386Y124474D01*
X141462Y124292D01*
X141500Y124098D01*
X141500Y124000D01*
Y124000D01*
X141500Y123901D01*
X141462Y123708D01*
X141386Y123526D01*
X141277Y123363D01*
X141137Y123223D01*
X140974Y123114D01*
X140792Y123038D01*
X140599Y123000D01*
X140500D01*
X140402Y123000D01*
X140208Y123038D01*
X140026Y123114D01*
X139863Y123223D01*
X139723Y123363D01*
X139614Y123526D01*
X139538Y123708D01*
X139500Y123901D01*
X139500Y124000D01*
X139500Y124098D01*
X139538Y124292D01*
X139614Y124474D01*
X139723Y124637D01*
X139863Y124777D01*
X140026Y124886D01*
X140208Y124962D01*
X140402Y125000D01*
X140500Y125000D01*
D02*
G37*
G36*
X60000D02*
X60098Y125000D01*
X60292Y124962D01*
X60474Y124886D01*
X60637Y124777D01*
X60777Y124637D01*
X60886Y124474D01*
X60962Y124292D01*
X61000Y124098D01*
X61000Y124000D01*
Y124000D01*
X61000Y123901D01*
X60962Y123708D01*
X60886Y123526D01*
X60777Y123363D01*
X60637Y123223D01*
X60474Y123114D01*
X60292Y123038D01*
X60099Y123000D01*
X60000D01*
X59902Y123000D01*
X59708Y123038D01*
X59526Y123114D01*
X59363Y123223D01*
X59223Y123363D01*
X59114Y123526D01*
X59038Y123708D01*
X59000Y123901D01*
X59000Y124000D01*
X59000Y124098D01*
X59038Y124292D01*
X59114Y124474D01*
X59223Y124637D01*
X59363Y124777D01*
X59526Y124886D01*
X59708Y124962D01*
X59902Y125000D01*
X60000Y125000D01*
D02*
G37*
G36*
X167500Y101500D02*
X167598Y101500D01*
X167792Y101462D01*
X167974Y101386D01*
X168137Y101277D01*
X168277Y101137D01*
X168386Y100974D01*
X168462Y100792D01*
X168500Y100598D01*
X168500Y100500D01*
Y100500D01*
X168500Y100401D01*
X168462Y100208D01*
X168386Y100026D01*
X168277Y99863D01*
X168137Y99723D01*
X167974Y99614D01*
X167792Y99538D01*
X167599Y99500D01*
X167500D01*
X167402Y99500D01*
X167208Y99538D01*
X167026Y99614D01*
X166863Y99723D01*
X166723Y99863D01*
X166614Y100026D01*
X166538Y100208D01*
X166500Y100401D01*
X166500Y100500D01*
X166500Y100598D01*
X166538Y100792D01*
X166614Y100974D01*
X166723Y101137D01*
X166863Y101277D01*
X167026Y101386D01*
X167208Y101462D01*
X167402Y101500D01*
X167500Y101500D01*
D02*
G37*
G36*
X87000D02*
X87099Y101500D01*
X87292Y101462D01*
X87474Y101386D01*
X87637Y101277D01*
X87777Y101137D01*
X87886Y100974D01*
X87962Y100792D01*
X88000Y100598D01*
X88000Y100500D01*
Y100500D01*
X88000Y100401D01*
X87962Y100208D01*
X87886Y100026D01*
X87777Y99863D01*
X87637Y99723D01*
X87474Y99614D01*
X87292Y99538D01*
X87099Y99500D01*
X87000D01*
X86902Y99500D01*
X86708Y99538D01*
X86526Y99614D01*
X86363Y99723D01*
X86223Y99863D01*
X86114Y100026D01*
X86038Y100208D01*
X86000Y100401D01*
X86000Y100500D01*
X86000Y100598D01*
X86038Y100792D01*
X86114Y100974D01*
X86223Y101137D01*
X86363Y101277D01*
X86526Y101386D01*
X86708Y101462D01*
X86902Y101500D01*
X87000Y101500D01*
D02*
G37*
G36*
X93000Y81500D02*
X93099Y81500D01*
X93292Y81462D01*
X93474Y81386D01*
X93637Y81277D01*
X93777Y81137D01*
X93886Y80974D01*
X93962Y80792D01*
X94000Y80598D01*
X94000Y80500D01*
Y80500D01*
X94000Y80401D01*
X93962Y80208D01*
X93886Y80026D01*
X93777Y79863D01*
X93637Y79723D01*
X93474Y79614D01*
X93292Y79538D01*
X93099Y79500D01*
X93000D01*
X92902Y79500D01*
X92708Y79538D01*
X92526Y79614D01*
X92363Y79723D01*
X92223Y79863D01*
X92114Y80026D01*
X92038Y80208D01*
X92000Y80401D01*
X92000Y80500D01*
X92000Y80598D01*
X92038Y80792D01*
X92114Y80974D01*
X92223Y81137D01*
X92363Y81277D01*
X92526Y81386D01*
X92708Y81462D01*
X92902Y81500D01*
X93000Y81500D01*
D02*
G37*
G36*
X12500D02*
X12599Y81500D01*
X12792Y81462D01*
X12974Y81386D01*
X13137Y81277D01*
X13277Y81137D01*
X13386Y80974D01*
X13462Y80792D01*
X13500Y80598D01*
X13500Y80500D01*
Y80500D01*
X13500Y80401D01*
X13462Y80208D01*
X13386Y80026D01*
X13277Y79863D01*
X13137Y79723D01*
X12974Y79614D01*
X12792Y79538D01*
X12599Y79500D01*
X12500D01*
X12402Y79500D01*
X12208Y79538D01*
X12026Y79614D01*
X11863Y79723D01*
X11723Y79863D01*
X11614Y80026D01*
X11538Y80208D01*
X11500Y80401D01*
X11500Y80500D01*
X11500Y80598D01*
X11538Y80792D01*
X11614Y80974D01*
X11723Y81137D01*
X11863Y81277D01*
X12026Y81386D01*
X12208Y81462D01*
X12402Y81500D01*
X12500Y81500D01*
D02*
G37*
G36*
X140500Y64500D02*
X140598Y64500D01*
X140792Y64462D01*
X140974Y64386D01*
X141137Y64277D01*
X141277Y64137D01*
X141386Y63974D01*
X141462Y63792D01*
X141500Y63598D01*
X141500Y63500D01*
Y63500D01*
X141500Y63402D01*
X141462Y63208D01*
X141386Y63026D01*
X141277Y62863D01*
X141137Y62723D01*
X140974Y62614D01*
X140792Y62538D01*
X140599Y62500D01*
X140500D01*
X140402Y62500D01*
X140208Y62538D01*
X140026Y62614D01*
X139863Y62723D01*
X139723Y62862D01*
X139614Y63026D01*
X139538Y63208D01*
X139500Y63402D01*
X139500Y63500D01*
X139500Y63598D01*
X139538Y63792D01*
X139614Y63974D01*
X139723Y64137D01*
X139863Y64277D01*
X140026Y64386D01*
X140208Y64462D01*
X140402Y64500D01*
X140500Y64500D01*
D02*
G37*
G36*
X60000D02*
X60098Y64500D01*
X60292Y64462D01*
X60474Y64386D01*
X60637Y64277D01*
X60777Y64137D01*
X60886Y63974D01*
X60962Y63792D01*
X61000Y63598D01*
X61000Y63500D01*
Y63500D01*
X61000Y63402D01*
X60962Y63208D01*
X60886Y63026D01*
X60777Y62863D01*
X60637Y62723D01*
X60474Y62614D01*
X60292Y62538D01*
X60099Y62500D01*
X60000D01*
X59902Y62500D01*
X59708Y62538D01*
X59526Y62614D01*
X59363Y62723D01*
X59223Y62862D01*
X59114Y63026D01*
X59038Y63208D01*
X59000Y63402D01*
X59000Y63500D01*
X59000Y63598D01*
X59038Y63792D01*
X59114Y63974D01*
X59223Y64137D01*
X59363Y64277D01*
X59526Y64386D01*
X59708Y64462D01*
X59902Y64500D01*
X60000Y64500D01*
D02*
G37*
G36*
X167500Y41000D02*
X167598Y41000D01*
X167792Y40962D01*
X167974Y40886D01*
X168137Y40777D01*
X168277Y40637D01*
X168386Y40474D01*
X168462Y40292D01*
X168500Y40098D01*
X168500Y40000D01*
Y40000D01*
X168500Y39902D01*
X168462Y39708D01*
X168386Y39526D01*
X168277Y39363D01*
X168137Y39223D01*
X167974Y39114D01*
X167792Y39038D01*
X167599Y39000D01*
X167500D01*
X167402Y39000D01*
X167208Y39038D01*
X167026Y39114D01*
X166863Y39223D01*
X166723Y39362D01*
X166614Y39526D01*
X166538Y39708D01*
X166500Y39902D01*
X166500Y40000D01*
X166500Y40098D01*
X166538Y40292D01*
X166614Y40474D01*
X166723Y40637D01*
X166863Y40777D01*
X167026Y40886D01*
X167208Y40962D01*
X167402Y41000D01*
X167500Y41000D01*
D02*
G37*
G36*
X87000D02*
X87099Y41000D01*
X87292Y40962D01*
X87474Y40886D01*
X87637Y40777D01*
X87777Y40637D01*
X87886Y40474D01*
X87962Y40292D01*
X88000Y40098D01*
X88000Y40000D01*
Y40000D01*
X88000Y39902D01*
X87962Y39708D01*
X87886Y39526D01*
X87777Y39363D01*
X87637Y39223D01*
X87474Y39114D01*
X87292Y39038D01*
X87099Y39000D01*
X87000D01*
X86902Y39000D01*
X86708Y39038D01*
X86526Y39114D01*
X86363Y39223D01*
X86223Y39362D01*
X86114Y39526D01*
X86038Y39708D01*
X86000Y39902D01*
X86000Y40000D01*
X86000Y40098D01*
X86038Y40292D01*
X86114Y40474D01*
X86223Y40637D01*
X86363Y40777D01*
X86526Y40886D01*
X86708Y40962D01*
X86902Y41000D01*
X87000Y41000D01*
D02*
G37*
G36*
X93000Y21000D02*
X93099Y21000D01*
X93292Y20962D01*
X93474Y20886D01*
X93637Y20777D01*
X93777Y20637D01*
X93886Y20474D01*
X93962Y20292D01*
X94000Y20098D01*
X94000Y20000D01*
Y20000D01*
X94000Y19902D01*
X93962Y19708D01*
X93886Y19526D01*
X93777Y19363D01*
X93637Y19223D01*
X93474Y19114D01*
X93292Y19038D01*
X93099Y19000D01*
X93000D01*
X92902Y19000D01*
X92708Y19038D01*
X92526Y19114D01*
X92363Y19223D01*
X92223Y19362D01*
X92114Y19526D01*
X92038Y19708D01*
X92000Y19902D01*
X92000Y20000D01*
X92000Y20098D01*
X92038Y20292D01*
X92114Y20474D01*
X92223Y20637D01*
X92363Y20777D01*
X92526Y20886D01*
X92708Y20962D01*
X92902Y21000D01*
X93000Y21000D01*
D02*
G37*
G36*
X12500D02*
X12599Y21000D01*
X12792Y20962D01*
X12974Y20886D01*
X13137Y20777D01*
X13277Y20637D01*
X13386Y20474D01*
X13462Y20292D01*
X13500Y20098D01*
X13500Y20000D01*
Y20000D01*
X13500Y19902D01*
X13462Y19708D01*
X13386Y19526D01*
X13277Y19363D01*
X13137Y19223D01*
X12974Y19114D01*
X12792Y19038D01*
X12599Y19000D01*
X12500D01*
X12402Y19000D01*
X12208Y19038D01*
X12026Y19114D01*
X11863Y19223D01*
X11723Y19362D01*
X11614Y19526D01*
X11538Y19708D01*
X11500Y19902D01*
X11500Y20000D01*
X11500Y20098D01*
X11538Y20292D01*
X11614Y20474D01*
X11723Y20637D01*
X11863Y20777D01*
X12026Y20886D01*
X12208Y20962D01*
X12402Y21000D01*
X12500Y21000D01*
D02*
G37*
G36*
X140500Y4000D02*
X140598Y4000D01*
X140792Y3962D01*
X140974Y3886D01*
X141137Y3777D01*
X141277Y3637D01*
X141386Y3474D01*
X141462Y3292D01*
X141500Y3098D01*
X141500Y3000D01*
Y3000D01*
X141500Y2901D01*
X141462Y2708D01*
X141386Y2526D01*
X141277Y2363D01*
X141137Y2223D01*
X140974Y2114D01*
X140792Y2038D01*
X140599Y2000D01*
X140500D01*
X140402Y2000D01*
X140208Y2038D01*
X140026Y2114D01*
X139863Y2223D01*
X139723Y2362D01*
X139614Y2526D01*
X139538Y2708D01*
X139500Y2901D01*
X139500Y3000D01*
X139500Y3098D01*
X139538Y3292D01*
X139614Y3474D01*
X139723Y3637D01*
X139863Y3777D01*
X140026Y3886D01*
X140208Y3962D01*
X140402Y4000D01*
X140500Y4000D01*
D02*
G37*
G36*
X60000D02*
X60098Y4000D01*
X60292Y3962D01*
X60474Y3886D01*
X60637Y3777D01*
X60777Y3637D01*
X60886Y3474D01*
X60962Y3292D01*
X61000Y3098D01*
X61000Y3000D01*
Y3000D01*
X61000Y2901D01*
X60962Y2708D01*
X60886Y2526D01*
X60777Y2363D01*
X60637Y2223D01*
X60474Y2114D01*
X60292Y2038D01*
X60099Y2000D01*
X60000D01*
X59902Y2000D01*
X59708Y2038D01*
X59526Y2114D01*
X59363Y2223D01*
X59223Y2362D01*
X59114Y2526D01*
X59038Y2708D01*
X59000Y2901D01*
X59000Y3000D01*
X59000Y3098D01*
X59038Y3292D01*
X59114Y3474D01*
X59223Y3637D01*
X59363Y3777D01*
X59526Y3886D01*
X59708Y3962D01*
X59902Y4000D01*
X60000Y4000D01*
D02*
G37*
D20*
X30272Y56000D02*
D03*
X27732D02*
D03*
X25192D02*
D03*
X110772D02*
D03*
X108232D02*
D03*
X105692D02*
D03*
X30272Y116500D02*
D03*
X27732D02*
D03*
X25192D02*
D03*
X110772D02*
D03*
X108232D02*
D03*
X105692D02*
D03*
X30272Y177000D02*
D03*
X27732D02*
D03*
X25192D02*
D03*
X110772D02*
D03*
X108232D02*
D03*
X105692D02*
D03*
D34*
X50000Y52100D02*
D03*
X130500D02*
D03*
X50000Y112600D02*
D03*
X130500D02*
D03*
X50000Y173100D02*
D03*
X130500D02*
D03*
D35*
X40891Y34352D02*
D03*
X42591D02*
D03*
X42591Y46560D02*
D03*
X40891D02*
D03*
X42591Y44524D02*
D03*
X40891D02*
D03*
X42591Y42488D02*
D03*
X40891D02*
D03*
X42591Y40452D02*
D03*
X40891D02*
D03*
X58845Y32206D02*
D03*
X57145D02*
D03*
X58845Y26097D02*
D03*
X57145D02*
D03*
X67973Y37296D02*
D03*
X66273D02*
D03*
X67973Y39332D02*
D03*
X66273D02*
D03*
X67973Y42386D02*
D03*
X66273D02*
D03*
X67973Y44422D02*
D03*
X66273D02*
D03*
X58845Y40350D02*
D03*
X57145D02*
D03*
X58845Y42386D02*
D03*
X57145D02*
D03*
X58845Y44422D02*
D03*
X57145D02*
D03*
X58845Y34242D02*
D03*
X57145D02*
D03*
X58845Y36278D02*
D03*
X57145D02*
D03*
X58845Y38314D02*
D03*
X57145D02*
D03*
X58845Y49798D02*
D03*
X57145D02*
D03*
X58845Y47762D02*
D03*
X57145D02*
D03*
X58845Y30170D02*
D03*
X57145D02*
D03*
X58845Y28133D02*
D03*
X57145D02*
D03*
X42591Y30288D02*
D03*
X40891D02*
D03*
X42591Y28256D02*
D03*
X40891D02*
D03*
X42591Y26224D02*
D03*
X40891D02*
D03*
X42591Y24192D02*
D03*
X40891D02*
D03*
X42591Y54704D02*
D03*
X40891D02*
D03*
X42591Y52668D02*
D03*
X40891D02*
D03*
X42591Y50632D02*
D03*
X40891D02*
D03*
X42591Y48596D02*
D03*
X40891D02*
D03*
X42591Y32320D02*
D03*
X40891D02*
D03*
X42591Y38416D02*
D03*
X40891D02*
D03*
X42591Y36384D02*
D03*
X40891D02*
D03*
X121391Y34352D02*
D03*
X123091D02*
D03*
X123091Y46560D02*
D03*
X121391D02*
D03*
X123091Y44524D02*
D03*
X121391D02*
D03*
X123091Y42488D02*
D03*
X121391D02*
D03*
X123091Y40452D02*
D03*
X121391D02*
D03*
X139345Y32206D02*
D03*
X137645D02*
D03*
X139345Y26097D02*
D03*
X137645D02*
D03*
X148473Y37296D02*
D03*
X146773D02*
D03*
X148473Y39332D02*
D03*
X146773D02*
D03*
X148473Y42386D02*
D03*
X146773D02*
D03*
X148473Y44422D02*
D03*
X146773D02*
D03*
X139345Y40350D02*
D03*
X137645D02*
D03*
X139345Y42386D02*
D03*
X137645D02*
D03*
X139345Y44422D02*
D03*
X137645D02*
D03*
X139345Y34242D02*
D03*
X137645D02*
D03*
X139345Y36278D02*
D03*
X137645D02*
D03*
X139345Y38314D02*
D03*
X137645D02*
D03*
X139345Y49798D02*
D03*
X137645D02*
D03*
X139345Y47762D02*
D03*
X137645D02*
D03*
X139345Y30170D02*
D03*
X137645D02*
D03*
X139345Y28133D02*
D03*
X137645D02*
D03*
X123091Y30288D02*
D03*
X121391D02*
D03*
X123091Y28256D02*
D03*
X121391D02*
D03*
X123091Y26224D02*
D03*
X121391D02*
D03*
X123091Y24192D02*
D03*
X121391D02*
D03*
X123091Y54704D02*
D03*
X121391D02*
D03*
X123091Y52668D02*
D03*
X121391D02*
D03*
X123091Y50632D02*
D03*
X121391D02*
D03*
X123091Y48596D02*
D03*
X121391D02*
D03*
X123091Y32320D02*
D03*
X121391D02*
D03*
X123091Y38416D02*
D03*
X121391D02*
D03*
X123091Y36384D02*
D03*
X121391D02*
D03*
X40891Y94852D02*
D03*
X42591D02*
D03*
X42591Y107060D02*
D03*
X40891D02*
D03*
X42591Y105024D02*
D03*
X40891D02*
D03*
X42591Y102988D02*
D03*
X40891D02*
D03*
X42591Y100952D02*
D03*
X40891D02*
D03*
X58845Y92706D02*
D03*
X57145D02*
D03*
X58845Y86597D02*
D03*
X57145D02*
D03*
X67973Y97796D02*
D03*
X66273D02*
D03*
X67973Y99832D02*
D03*
X66273D02*
D03*
X67973Y102886D02*
D03*
X66273D02*
D03*
X67973Y104922D02*
D03*
X66273D02*
D03*
X58845Y100850D02*
D03*
X57145D02*
D03*
X58845Y102886D02*
D03*
X57145D02*
D03*
X58845Y104922D02*
D03*
X57145D02*
D03*
X58845Y94742D02*
D03*
X57145D02*
D03*
X58845Y96778D02*
D03*
X57145D02*
D03*
X58845Y98814D02*
D03*
X57145D02*
D03*
X58845Y110298D02*
D03*
X57145D02*
D03*
X58845Y108262D02*
D03*
X57145D02*
D03*
X58845Y90670D02*
D03*
X57145D02*
D03*
X58845Y88633D02*
D03*
X57145D02*
D03*
X42591Y90788D02*
D03*
X40891D02*
D03*
X42591Y88756D02*
D03*
X40891D02*
D03*
X42591Y86724D02*
D03*
X40891D02*
D03*
X42591Y84692D02*
D03*
X40891D02*
D03*
X42591Y115204D02*
D03*
X40891D02*
D03*
X42591Y113168D02*
D03*
X40891D02*
D03*
X42591Y111132D02*
D03*
X40891D02*
D03*
X42591Y109096D02*
D03*
X40891D02*
D03*
X42591Y92820D02*
D03*
X40891D02*
D03*
X42591Y98916D02*
D03*
X40891D02*
D03*
X42591Y96884D02*
D03*
X40891D02*
D03*
X121391Y94852D02*
D03*
X123091D02*
D03*
X123091Y107060D02*
D03*
X121391D02*
D03*
X123091Y105024D02*
D03*
X121391D02*
D03*
X123091Y102988D02*
D03*
X121391D02*
D03*
X123091Y100952D02*
D03*
X121391D02*
D03*
X139345Y92706D02*
D03*
X137645D02*
D03*
X139345Y86597D02*
D03*
X137645D02*
D03*
X148473Y97796D02*
D03*
X146773D02*
D03*
X148473Y99832D02*
D03*
X146773D02*
D03*
X148473Y102886D02*
D03*
X146773D02*
D03*
X148473Y104922D02*
D03*
X146773D02*
D03*
X139345Y100850D02*
D03*
X137645D02*
D03*
X139345Y102886D02*
D03*
X137645D02*
D03*
X139345Y104922D02*
D03*
X137645D02*
D03*
X139345Y94742D02*
D03*
X137645D02*
D03*
X139345Y96778D02*
D03*
X137645D02*
D03*
X139345Y98814D02*
D03*
X137645D02*
D03*
X139345Y110298D02*
D03*
X137645D02*
D03*
X139345Y108262D02*
D03*
X137645D02*
D03*
X139345Y90670D02*
D03*
X137645D02*
D03*
X139345Y88633D02*
D03*
X137645D02*
D03*
X123091Y90788D02*
D03*
X121391D02*
D03*
X123091Y88756D02*
D03*
X121391D02*
D03*
X123091Y86724D02*
D03*
X121391D02*
D03*
X123091Y84692D02*
D03*
X121391D02*
D03*
X123091Y115204D02*
D03*
X121391D02*
D03*
X123091Y113168D02*
D03*
X121391D02*
D03*
X123091Y111132D02*
D03*
X121391D02*
D03*
X123091Y109096D02*
D03*
X121391D02*
D03*
X123091Y92820D02*
D03*
X121391D02*
D03*
X123091Y98916D02*
D03*
X121391D02*
D03*
X123091Y96884D02*
D03*
X121391D02*
D03*
X40891Y155352D02*
D03*
X42591D02*
D03*
X42591Y167560D02*
D03*
X40891D02*
D03*
X42591Y165524D02*
D03*
X40891D02*
D03*
X42591Y163488D02*
D03*
X40891D02*
D03*
X42591Y161452D02*
D03*
X40891D02*
D03*
X58845Y153206D02*
D03*
X57145D02*
D03*
X58845Y147097D02*
D03*
X57145D02*
D03*
X67973Y158296D02*
D03*
X66273D02*
D03*
X67973Y160332D02*
D03*
X66273D02*
D03*
X67973Y163386D02*
D03*
X66273D02*
D03*
X67973Y165422D02*
D03*
X66273D02*
D03*
X58845Y161350D02*
D03*
X57145D02*
D03*
X58845Y163386D02*
D03*
X57145D02*
D03*
X58845Y165422D02*
D03*
X57145D02*
D03*
X58845Y155242D02*
D03*
X57145D02*
D03*
X58845Y157278D02*
D03*
X57145D02*
D03*
X58845Y159314D02*
D03*
X57145D02*
D03*
X58845Y170798D02*
D03*
X57145D02*
D03*
X58845Y168762D02*
D03*
X57145D02*
D03*
X58845Y151170D02*
D03*
X57145D02*
D03*
X58845Y149133D02*
D03*
X57145D02*
D03*
X42591Y151288D02*
D03*
X40891D02*
D03*
X42591Y149256D02*
D03*
X40891D02*
D03*
X42591Y147224D02*
D03*
X40891D02*
D03*
X42591Y145192D02*
D03*
X40891D02*
D03*
X42591Y175704D02*
D03*
X40891D02*
D03*
X42591Y173668D02*
D03*
X40891D02*
D03*
X42591Y171632D02*
D03*
X40891D02*
D03*
X42591Y169596D02*
D03*
X40891D02*
D03*
X42591Y153320D02*
D03*
X40891D02*
D03*
X42591Y159416D02*
D03*
X40891D02*
D03*
X42591Y157384D02*
D03*
X40891D02*
D03*
X121391Y155352D02*
D03*
X123091D02*
D03*
X123091Y167560D02*
D03*
X121391D02*
D03*
X123091Y165524D02*
D03*
X121391D02*
D03*
X123091Y163488D02*
D03*
X121391D02*
D03*
X123091Y161452D02*
D03*
X121391D02*
D03*
X139345Y153206D02*
D03*
X137645D02*
D03*
X139345Y147097D02*
D03*
X137645D02*
D03*
X148473Y158296D02*
D03*
X146773D02*
D03*
X148473Y160332D02*
D03*
X146773D02*
D03*
X148473Y163386D02*
D03*
X146773D02*
D03*
X148473Y165422D02*
D03*
X146773D02*
D03*
X139345Y161350D02*
D03*
X137645D02*
D03*
X139345Y163386D02*
D03*
X137645D02*
D03*
X139345Y165422D02*
D03*
X137645D02*
D03*
X139345Y155242D02*
D03*
X137645D02*
D03*
X139345Y157278D02*
D03*
X137645D02*
D03*
X139345Y159314D02*
D03*
X137645D02*
D03*
X139345Y170798D02*
D03*
X137645D02*
D03*
X139345Y168762D02*
D03*
X137645D02*
D03*
X139345Y151170D02*
D03*
X137645D02*
D03*
X139345Y149133D02*
D03*
X137645D02*
D03*
X123091Y151288D02*
D03*
X121391D02*
D03*
X123091Y149256D02*
D03*
X121391D02*
D03*
X123091Y147224D02*
D03*
X121391D02*
D03*
X123091Y145192D02*
D03*
X121391D02*
D03*
X123091Y175704D02*
D03*
X121391D02*
D03*
X123091Y173668D02*
D03*
X121391D02*
D03*
X123091Y171632D02*
D03*
X121391D02*
D03*
X123091Y169596D02*
D03*
X121391D02*
D03*
X123091Y153320D02*
D03*
X121391D02*
D03*
X123091Y159416D02*
D03*
X121391D02*
D03*
X123091Y157384D02*
D03*
X121391D02*
D03*
D39*
X16614Y13905D02*
D03*
X97114D02*
D03*
X16614Y74405D02*
D03*
X97114D02*
D03*
X16614Y134905D02*
D03*
X97114D02*
D03*
D40*
X83414Y13905D02*
D03*
X50000Y23900D02*
D03*
X163914Y13905D02*
D03*
X130500Y23900D02*
D03*
X83414Y74405D02*
D03*
X50000Y84400D02*
D03*
X163914Y74405D02*
D03*
X130500Y84400D02*
D03*
X83414Y134905D02*
D03*
X50000Y144900D02*
D03*
X163914Y134905D02*
D03*
X130500Y144900D02*
D03*
D41*
X14000Y56000D02*
D03*
Y4000D02*
D03*
X86000D02*
D03*
Y56000D02*
D03*
X94500D02*
D03*
Y4000D02*
D03*
X166500D02*
D03*
Y56000D02*
D03*
X14000Y116500D02*
D03*
Y64500D02*
D03*
X86000D02*
D03*
Y116500D02*
D03*
X94500D02*
D03*
Y64500D02*
D03*
X166500D02*
D03*
Y116500D02*
D03*
X14000Y177000D02*
D03*
Y125000D02*
D03*
X86000D02*
D03*
Y177000D02*
D03*
X94500D02*
D03*
Y125000D02*
D03*
X166500D02*
D03*
Y177000D02*
D03*
D42*
X32812Y56000D02*
D03*
X113312D02*
D03*
X32812Y116500D02*
D03*
X113312D02*
D03*
X32812Y177000D02*
D03*
X113312D02*
D03*
D43*
X64564Y37453D02*
D03*
X64610Y42386D02*
D03*
X47913Y51943D02*
D03*
X52164D02*
D03*
X41164Y11805D02*
D03*
X39191Y52324D02*
D03*
X50767Y7805D02*
D03*
X76294Y24162D02*
D03*
X78834Y26035D02*
D03*
X80104Y14925D02*
D03*
X54364Y7805D02*
D03*
X33697Y13895D02*
D03*
X51529Y11835D02*
D03*
X38764Y11805D02*
D03*
X26060Y13000D02*
D03*
X44694Y13918D02*
D03*
X80358Y15955D02*
D03*
X71788Y14925D02*
D03*
X69262Y15955D02*
D03*
X26060Y44596D02*
D03*
X70071Y33977D02*
D03*
X53900Y49603D02*
D03*
Y47203D02*
D03*
Y44803D02*
D03*
Y40803D02*
D03*
Y37603D02*
D03*
X48364Y25390D02*
D03*
X44671Y24062D02*
D03*
X33114Y24062D02*
D03*
X64500D02*
D03*
X20570Y25908D02*
D03*
X80464Y21000D02*
D03*
X79500Y19685D02*
D03*
X81074D02*
D03*
X81664Y21000D02*
D03*
X64160Y12865D02*
D03*
X62035D02*
D03*
X63098D02*
D03*
X60973D02*
D03*
X58849D02*
D03*
X77183Y19685D02*
D03*
X24224Y14957D02*
D03*
X27560Y48128D02*
D03*
X36938Y12812D02*
D03*
X33495Y48993D02*
D03*
X33686Y39404D02*
D03*
X33594Y41782D02*
D03*
X39191Y36384D02*
D03*
X45400Y43200D02*
D03*
X47446Y12847D02*
D03*
X51148Y21180D02*
D03*
X39288Y28256D02*
D03*
X39191Y32320D02*
D03*
X20500Y19685D02*
D03*
X59911Y12865D02*
D03*
X63064Y19685D02*
D03*
X70071Y42008D02*
D03*
X75064Y19685D02*
D03*
X46100Y44000D02*
D03*
Y39200D02*
D03*
Y36800D02*
D03*
Y33600D02*
D03*
X54710Y24062D02*
D03*
X76264Y19685D02*
D03*
X46100Y49600D02*
D03*
X53900Y26403D02*
D03*
X78064Y19656D02*
D03*
X21664Y19685D02*
D03*
X20764Y7805D02*
D03*
X21364D02*
D03*
X29764D02*
D03*
X33964D02*
D03*
X46564D02*
D03*
X65764D02*
D03*
X75964D02*
D03*
X80764D02*
D03*
X81364D02*
D03*
X24224Y32421D02*
D03*
Y37453D02*
D03*
X22527Y32421D02*
D03*
X24363Y44596D02*
D03*
X21684Y24112D02*
D03*
X72064Y24123D02*
D03*
X54500Y19685D02*
D03*
X34257D02*
D03*
X46864D02*
D03*
X66064D02*
D03*
X145064Y37453D02*
D03*
X145110Y42386D02*
D03*
X128413Y51943D02*
D03*
X132664D02*
D03*
X121664Y11805D02*
D03*
X119691Y52324D02*
D03*
X131267Y7805D02*
D03*
X156794Y24162D02*
D03*
X159334Y26035D02*
D03*
X160604Y14925D02*
D03*
X134864Y7805D02*
D03*
X114197Y13895D02*
D03*
X132029Y11835D02*
D03*
X119264Y11805D02*
D03*
X106560Y13000D02*
D03*
X125194Y13918D02*
D03*
X160858Y15955D02*
D03*
X152288Y14925D02*
D03*
X149762Y15955D02*
D03*
X106560Y44596D02*
D03*
X150571Y33977D02*
D03*
X134400Y49603D02*
D03*
Y47203D02*
D03*
Y44803D02*
D03*
Y40803D02*
D03*
Y37603D02*
D03*
X128864Y25390D02*
D03*
X125171Y24062D02*
D03*
X113614Y24062D02*
D03*
X145000D02*
D03*
X101070Y25908D02*
D03*
X160964Y21000D02*
D03*
X160000Y19685D02*
D03*
X161574D02*
D03*
X162164Y21000D02*
D03*
X144660Y12865D02*
D03*
X142535D02*
D03*
X143598D02*
D03*
X141473D02*
D03*
X139349D02*
D03*
X157683Y19685D02*
D03*
X104724Y14957D02*
D03*
X108060Y48128D02*
D03*
X117438Y12812D02*
D03*
X113995Y48993D02*
D03*
X114186Y39404D02*
D03*
X114094Y41782D02*
D03*
X119691Y36384D02*
D03*
X125900Y43200D02*
D03*
X127947Y12847D02*
D03*
X131648Y21180D02*
D03*
X119788Y28256D02*
D03*
X119691Y32320D02*
D03*
X101000Y19685D02*
D03*
X140411Y12865D02*
D03*
X143564Y19685D02*
D03*
X150571Y42008D02*
D03*
X155564Y19685D02*
D03*
X126600Y44000D02*
D03*
Y39200D02*
D03*
Y36800D02*
D03*
Y33600D02*
D03*
X135210Y24062D02*
D03*
X156764Y19685D02*
D03*
X126600Y49600D02*
D03*
X134400Y26403D02*
D03*
X158564Y19656D02*
D03*
X102164Y19685D02*
D03*
X101264Y7805D02*
D03*
X101864D02*
D03*
X110264D02*
D03*
X114464D02*
D03*
X127064D02*
D03*
X146264D02*
D03*
X156464D02*
D03*
X161264D02*
D03*
X161864D02*
D03*
X104724Y32421D02*
D03*
Y37453D02*
D03*
X103027Y32421D02*
D03*
X104863Y44596D02*
D03*
X102184Y24112D02*
D03*
X152564Y24123D02*
D03*
X135000Y19685D02*
D03*
X114757D02*
D03*
X127364D02*
D03*
X146564D02*
D03*
X64564Y97953D02*
D03*
X64610Y102886D02*
D03*
X47913Y112443D02*
D03*
X52164D02*
D03*
X41164Y72305D02*
D03*
X39191Y112824D02*
D03*
X50767Y68305D02*
D03*
X76294Y84662D02*
D03*
X78834Y86535D02*
D03*
X80104Y75425D02*
D03*
X54364Y68305D02*
D03*
X33697Y74395D02*
D03*
X51529Y72335D02*
D03*
X38764Y72305D02*
D03*
X26060Y73500D02*
D03*
X44694Y74418D02*
D03*
X80358Y76455D02*
D03*
X71788Y75425D02*
D03*
X69262Y76455D02*
D03*
X26060Y105096D02*
D03*
X70071Y94477D02*
D03*
X53900Y110103D02*
D03*
Y107703D02*
D03*
Y105303D02*
D03*
Y101303D02*
D03*
Y98103D02*
D03*
X48364Y85890D02*
D03*
X44671Y84562D02*
D03*
X33114Y84562D02*
D03*
X64500D02*
D03*
X20570Y86408D02*
D03*
X80464Y81500D02*
D03*
X79500Y80185D02*
D03*
X81074D02*
D03*
X81664Y81500D02*
D03*
X64160Y73365D02*
D03*
X62035D02*
D03*
X63098D02*
D03*
X60973D02*
D03*
X58849D02*
D03*
X77183Y80185D02*
D03*
X24224Y75457D02*
D03*
X27560Y108628D02*
D03*
X36938Y73312D02*
D03*
X33495Y109493D02*
D03*
X33686Y99905D02*
D03*
X33594Y102282D02*
D03*
X39191Y96884D02*
D03*
X45400Y103700D02*
D03*
X47446Y73346D02*
D03*
X51148Y81680D02*
D03*
X39288Y88756D02*
D03*
X39191Y92820D02*
D03*
X20500Y80185D02*
D03*
X59911Y73365D02*
D03*
X63064Y80185D02*
D03*
X70071Y102508D02*
D03*
X75064Y80185D02*
D03*
X46100Y104500D02*
D03*
Y99700D02*
D03*
Y97300D02*
D03*
Y94100D02*
D03*
X54710Y84562D02*
D03*
X76264Y80185D02*
D03*
X46100Y110100D02*
D03*
X53900Y86903D02*
D03*
X78064Y80156D02*
D03*
X21664Y80185D02*
D03*
X20764Y68305D02*
D03*
X21364D02*
D03*
X29764D02*
D03*
X33964D02*
D03*
X46564D02*
D03*
X65764D02*
D03*
X75964D02*
D03*
X80764D02*
D03*
X81364D02*
D03*
X24224Y92921D02*
D03*
Y97953D02*
D03*
X22527Y92921D02*
D03*
X24363Y105096D02*
D03*
X21684Y84612D02*
D03*
X72064Y84623D02*
D03*
X54500Y80185D02*
D03*
X34257D02*
D03*
X46864D02*
D03*
X66064D02*
D03*
X145064Y97953D02*
D03*
X145110Y102886D02*
D03*
X128413Y112443D02*
D03*
X132664D02*
D03*
X121664Y72305D02*
D03*
X119691Y112824D02*
D03*
X131267Y68305D02*
D03*
X156794Y84662D02*
D03*
X159334Y86535D02*
D03*
X160604Y75425D02*
D03*
X134864Y68305D02*
D03*
X114197Y74395D02*
D03*
X132029Y72335D02*
D03*
X119264Y72305D02*
D03*
X106560Y73500D02*
D03*
X125194Y74418D02*
D03*
X160858Y76455D02*
D03*
X152288Y75425D02*
D03*
X149762Y76455D02*
D03*
X106560Y105096D02*
D03*
X150571Y94477D02*
D03*
X134400Y110103D02*
D03*
Y107703D02*
D03*
Y105303D02*
D03*
Y101303D02*
D03*
Y98103D02*
D03*
X128864Y85890D02*
D03*
X125171Y84562D02*
D03*
X113614Y84562D02*
D03*
X145000D02*
D03*
X101070Y86408D02*
D03*
X160964Y81500D02*
D03*
X160000Y80185D02*
D03*
X161574D02*
D03*
X162164Y81500D02*
D03*
X144660Y73365D02*
D03*
X142535D02*
D03*
X143598D02*
D03*
X141473D02*
D03*
X139349D02*
D03*
X157683Y80185D02*
D03*
X104724Y75457D02*
D03*
X108060Y108628D02*
D03*
X117438Y73312D02*
D03*
X113995Y109493D02*
D03*
X114186Y99905D02*
D03*
X114094Y102282D02*
D03*
X119691Y96884D02*
D03*
X125900Y103700D02*
D03*
X127947Y73346D02*
D03*
X131648Y81680D02*
D03*
X119788Y88756D02*
D03*
X119691Y92820D02*
D03*
X101000Y80185D02*
D03*
X140411Y73365D02*
D03*
X143564Y80185D02*
D03*
X150571Y102508D02*
D03*
X155564Y80185D02*
D03*
X126600Y104500D02*
D03*
Y99700D02*
D03*
Y97300D02*
D03*
Y94100D02*
D03*
X135210Y84562D02*
D03*
X156764Y80185D02*
D03*
X126600Y110100D02*
D03*
X134400Y86903D02*
D03*
X158564Y80156D02*
D03*
X102164Y80185D02*
D03*
X101264Y68305D02*
D03*
X101864D02*
D03*
X110264D02*
D03*
X114464D02*
D03*
X127064D02*
D03*
X146264D02*
D03*
X156464D02*
D03*
X161264D02*
D03*
X161864D02*
D03*
X104724Y92921D02*
D03*
Y97953D02*
D03*
X103027Y92921D02*
D03*
X104863Y105096D02*
D03*
X102184Y84612D02*
D03*
X152564Y84623D02*
D03*
X135000Y80185D02*
D03*
X114757D02*
D03*
X127364D02*
D03*
X146564D02*
D03*
X64564Y158453D02*
D03*
X64610Y163386D02*
D03*
X47913Y172943D02*
D03*
X52164D02*
D03*
X41164Y132805D02*
D03*
X39191Y173324D02*
D03*
X50767Y128805D02*
D03*
X76294Y145162D02*
D03*
X78834Y147035D02*
D03*
X80104Y135925D02*
D03*
X54364Y128805D02*
D03*
X33697Y134895D02*
D03*
X51529Y132835D02*
D03*
X38764Y132805D02*
D03*
X26060Y134000D02*
D03*
X44694Y134918D02*
D03*
X80358Y136955D02*
D03*
X71788Y135925D02*
D03*
X69262Y136955D02*
D03*
X26060Y165596D02*
D03*
X70071Y154977D02*
D03*
X53900Y170603D02*
D03*
Y168203D02*
D03*
Y165803D02*
D03*
Y161803D02*
D03*
Y158603D02*
D03*
X48364Y146390D02*
D03*
X44671Y145062D02*
D03*
X33114Y145062D02*
D03*
X64500D02*
D03*
X20570Y146908D02*
D03*
X80464Y142000D02*
D03*
X79500Y140685D02*
D03*
X81074D02*
D03*
X81664Y142000D02*
D03*
X64160Y133865D02*
D03*
X62035D02*
D03*
X63098D02*
D03*
X60973D02*
D03*
X58849D02*
D03*
X77183Y140685D02*
D03*
X24224Y135957D02*
D03*
X27560Y169128D02*
D03*
X36938Y133812D02*
D03*
X33495Y169993D02*
D03*
X33686Y160404D02*
D03*
X33594Y162782D02*
D03*
X39191Y157384D02*
D03*
X45400Y164200D02*
D03*
X47446Y133846D02*
D03*
X51148Y142180D02*
D03*
X39288Y149256D02*
D03*
X39191Y153320D02*
D03*
X20500Y140685D02*
D03*
X59911Y133865D02*
D03*
X63064Y140685D02*
D03*
X70071Y163008D02*
D03*
X75064Y140685D02*
D03*
X46100Y165000D02*
D03*
Y160200D02*
D03*
Y157800D02*
D03*
Y154600D02*
D03*
X54710Y145062D02*
D03*
X76264Y140685D02*
D03*
X46100Y170600D02*
D03*
X53900Y147403D02*
D03*
X78064Y140656D02*
D03*
X21664Y140685D02*
D03*
X20764Y128805D02*
D03*
X21364D02*
D03*
X29764D02*
D03*
X33964D02*
D03*
X46564D02*
D03*
X65764D02*
D03*
X75964D02*
D03*
X80764D02*
D03*
X81364D02*
D03*
X24224Y153421D02*
D03*
Y158453D02*
D03*
X22527Y153421D02*
D03*
X24363Y165596D02*
D03*
X21684Y145112D02*
D03*
X72064Y145123D02*
D03*
X54500Y140685D02*
D03*
X34257D02*
D03*
X46864D02*
D03*
X66064D02*
D03*
X145064Y158453D02*
D03*
X145110Y163386D02*
D03*
X128413Y172943D02*
D03*
X132664D02*
D03*
X121664Y132805D02*
D03*
X119691Y173324D02*
D03*
X131267Y128805D02*
D03*
X156794Y145162D02*
D03*
X159334Y147035D02*
D03*
X160604Y135925D02*
D03*
X134864Y128805D02*
D03*
X114197Y134895D02*
D03*
X132029Y132835D02*
D03*
X119264Y132805D02*
D03*
X106560Y134000D02*
D03*
X125194Y134918D02*
D03*
X160858Y136955D02*
D03*
X152288Y135925D02*
D03*
X149762Y136955D02*
D03*
X106560Y165596D02*
D03*
X150571Y154977D02*
D03*
X134400Y170603D02*
D03*
Y168203D02*
D03*
Y165803D02*
D03*
Y161803D02*
D03*
Y158603D02*
D03*
X128864Y146390D02*
D03*
X125171Y145062D02*
D03*
X113614Y145062D02*
D03*
X145000D02*
D03*
X101070Y146908D02*
D03*
X160964Y142000D02*
D03*
X160000Y140685D02*
D03*
X161574D02*
D03*
X162164Y142000D02*
D03*
X144660Y133865D02*
D03*
X142535D02*
D03*
X143598D02*
D03*
X141473D02*
D03*
X139349D02*
D03*
X157683Y140685D02*
D03*
X104724Y135957D02*
D03*
X108060Y169128D02*
D03*
X117438Y133812D02*
D03*
X113995Y169993D02*
D03*
X114186Y160404D02*
D03*
X114094Y162782D02*
D03*
X119691Y157384D02*
D03*
X125900Y164200D02*
D03*
X127947Y133846D02*
D03*
X131648Y142180D02*
D03*
X119788Y149256D02*
D03*
X119691Y153320D02*
D03*
X101000Y140685D02*
D03*
X140411Y133865D02*
D03*
X143564Y140685D02*
D03*
X150571Y163008D02*
D03*
X155564Y140685D02*
D03*
X126600Y165000D02*
D03*
Y160200D02*
D03*
Y157800D02*
D03*
Y154600D02*
D03*
X135210Y145062D02*
D03*
X156764Y140685D02*
D03*
X126600Y170600D02*
D03*
X134400Y147403D02*
D03*
X158564Y140656D02*
D03*
X102164Y140685D02*
D03*
X101264Y128805D02*
D03*
X101864D02*
D03*
X110264D02*
D03*
X114464D02*
D03*
X127064D02*
D03*
X146264D02*
D03*
X156464D02*
D03*
X161264D02*
D03*
X161864D02*
D03*
X104724Y153421D02*
D03*
Y158453D02*
D03*
X103027Y153421D02*
D03*
X104863Y165596D02*
D03*
X102184Y145112D02*
D03*
X152564Y145123D02*
D03*
X135000Y140685D02*
D03*
X114757D02*
D03*
X127364D02*
D03*
X146564D02*
D03*
D44*
X52200Y49600D02*
D03*
X47800D02*
D03*
X52200Y48800D02*
D03*
X47800D02*
D03*
X52200Y48000D02*
D03*
X47800D02*
D03*
X52200Y47200D02*
D03*
X47800D02*
D03*
X52200Y46400D02*
D03*
X47800D02*
D03*
X52200Y45600D02*
D03*
X47800D02*
D03*
X52200Y44800D02*
D03*
X47800D02*
D03*
X52200Y44000D02*
D03*
X47800D02*
D03*
X52200Y43200D02*
D03*
X47800D02*
D03*
X52200Y42400D02*
D03*
X47800D02*
D03*
X52200Y41600D02*
D03*
X47800D02*
D03*
X52200Y40800D02*
D03*
X47800D02*
D03*
X52200Y40000D02*
D03*
X47800D02*
D03*
X52200Y39200D02*
D03*
X47800D02*
D03*
X52200Y38400D02*
D03*
X47800D02*
D03*
X52200Y37600D02*
D03*
X47800D02*
D03*
X52200Y36800D02*
D03*
X47800D02*
D03*
X52200Y36000D02*
D03*
X47800D02*
D03*
X52200Y35200D02*
D03*
X47800D02*
D03*
X52200Y34400D02*
D03*
X47800D02*
D03*
X52200Y33600D02*
D03*
X47800D02*
D03*
X52200Y32800D02*
D03*
X47800D02*
D03*
X52200Y32000D02*
D03*
X47800D02*
D03*
X52200Y31200D02*
D03*
X47800D02*
D03*
X52200Y30400D02*
D03*
X47800D02*
D03*
X52200Y29600D02*
D03*
X47800D02*
D03*
X52200Y28800D02*
D03*
X47800D02*
D03*
X52200Y28000D02*
D03*
X47800D02*
D03*
X52200Y27200D02*
D03*
X47800D02*
D03*
X52200Y26400D02*
D03*
X47800D02*
D03*
X132700Y49600D02*
D03*
X128300D02*
D03*
X132700Y48800D02*
D03*
X128300D02*
D03*
X132700Y48000D02*
D03*
X128300D02*
D03*
X132700Y47200D02*
D03*
X128300D02*
D03*
X132700Y46400D02*
D03*
X128300D02*
D03*
X132700Y45600D02*
D03*
X128300D02*
D03*
X132700Y44800D02*
D03*
X128300D02*
D03*
X132700Y44000D02*
D03*
X128300D02*
D03*
X132700Y43200D02*
D03*
X128300D02*
D03*
X132700Y42400D02*
D03*
X128300D02*
D03*
X132700Y41600D02*
D03*
X128300D02*
D03*
X132700Y40800D02*
D03*
X128300D02*
D03*
X132700Y40000D02*
D03*
X128300D02*
D03*
X132700Y39200D02*
D03*
X128300D02*
D03*
X132700Y38400D02*
D03*
X128300D02*
D03*
X132700Y37600D02*
D03*
X128300D02*
D03*
X132700Y36800D02*
D03*
X128300D02*
D03*
X132700Y36000D02*
D03*
X128300D02*
D03*
X132700Y35200D02*
D03*
X128300D02*
D03*
X132700Y34400D02*
D03*
X128300D02*
D03*
X132700Y33600D02*
D03*
X128300D02*
D03*
X132700Y32800D02*
D03*
X128300D02*
D03*
X132700Y32000D02*
D03*
X128300D02*
D03*
X132700Y31200D02*
D03*
X128300D02*
D03*
X132700Y30400D02*
D03*
X128300D02*
D03*
X132700Y29600D02*
D03*
X128300D02*
D03*
X132700Y28800D02*
D03*
X128300D02*
D03*
X132700Y28000D02*
D03*
X128300D02*
D03*
X132700Y27200D02*
D03*
X128300D02*
D03*
X132700Y26400D02*
D03*
X128300D02*
D03*
X52200Y110100D02*
D03*
X47800D02*
D03*
X52200Y109300D02*
D03*
X47800D02*
D03*
X52200Y108500D02*
D03*
X47800D02*
D03*
X52200Y107700D02*
D03*
X47800D02*
D03*
X52200Y106900D02*
D03*
X47800D02*
D03*
X52200Y106100D02*
D03*
X47800D02*
D03*
X52200Y105300D02*
D03*
X47800D02*
D03*
X52200Y104500D02*
D03*
X47800D02*
D03*
X52200Y103700D02*
D03*
X47800D02*
D03*
X52200Y102900D02*
D03*
X47800D02*
D03*
X52200Y102100D02*
D03*
X47800D02*
D03*
X52200Y101300D02*
D03*
X47800D02*
D03*
X52200Y100500D02*
D03*
X47800D02*
D03*
X52200Y99700D02*
D03*
X47800D02*
D03*
X52200Y98900D02*
D03*
X47800D02*
D03*
X52200Y98100D02*
D03*
X47800D02*
D03*
X52200Y97300D02*
D03*
X47800D02*
D03*
X52200Y96500D02*
D03*
X47800D02*
D03*
X52200Y95700D02*
D03*
X47800D02*
D03*
X52200Y94900D02*
D03*
X47800D02*
D03*
X52200Y94100D02*
D03*
X47800D02*
D03*
X52200Y93300D02*
D03*
X47800D02*
D03*
X52200Y92500D02*
D03*
X47800D02*
D03*
X52200Y91700D02*
D03*
X47800D02*
D03*
X52200Y90900D02*
D03*
X47800D02*
D03*
X52200Y90100D02*
D03*
X47800D02*
D03*
X52200Y89300D02*
D03*
X47800D02*
D03*
X52200Y88500D02*
D03*
X47800D02*
D03*
X52200Y87700D02*
D03*
X47800D02*
D03*
X52200Y86900D02*
D03*
X47800D02*
D03*
X132700Y110100D02*
D03*
X128300D02*
D03*
X132700Y109300D02*
D03*
X128300D02*
D03*
X132700Y108500D02*
D03*
X128300D02*
D03*
X132700Y107700D02*
D03*
X128300D02*
D03*
X132700Y106900D02*
D03*
X128300D02*
D03*
X132700Y106100D02*
D03*
X128300D02*
D03*
X132700Y105300D02*
D03*
X128300D02*
D03*
X132700Y104500D02*
D03*
X128300D02*
D03*
X132700Y103700D02*
D03*
X128300D02*
D03*
X132700Y102900D02*
D03*
X128300D02*
D03*
X132700Y102100D02*
D03*
X128300D02*
D03*
X132700Y101300D02*
D03*
X128300D02*
D03*
X132700Y100500D02*
D03*
X128300D02*
D03*
X132700Y99700D02*
D03*
X128300D02*
D03*
X132700Y98900D02*
D03*
X128300D02*
D03*
X132700Y98100D02*
D03*
X128300D02*
D03*
X132700Y97300D02*
D03*
X128300D02*
D03*
X132700Y96500D02*
D03*
X128300D02*
D03*
X132700Y95700D02*
D03*
X128300D02*
D03*
X132700Y94900D02*
D03*
X128300D02*
D03*
X132700Y94100D02*
D03*
X128300D02*
D03*
X132700Y93300D02*
D03*
X128300D02*
D03*
X132700Y92500D02*
D03*
X128300D02*
D03*
X132700Y91700D02*
D03*
X128300D02*
D03*
X132700Y90900D02*
D03*
X128300D02*
D03*
X132700Y90100D02*
D03*
X128300D02*
D03*
X132700Y89300D02*
D03*
X128300D02*
D03*
X132700Y88500D02*
D03*
X128300D02*
D03*
X132700Y87700D02*
D03*
X128300D02*
D03*
X132700Y86900D02*
D03*
X128300D02*
D03*
X52200Y170600D02*
D03*
X47800D02*
D03*
X52200Y169800D02*
D03*
X47800D02*
D03*
X52200Y169000D02*
D03*
X47800D02*
D03*
X52200Y168200D02*
D03*
X47800D02*
D03*
X52200Y167400D02*
D03*
X47800D02*
D03*
X52200Y166600D02*
D03*
X47800D02*
D03*
X52200Y165800D02*
D03*
X47800D02*
D03*
X52200Y165000D02*
D03*
X47800D02*
D03*
X52200Y164200D02*
D03*
X47800D02*
D03*
X52200Y163400D02*
D03*
X47800D02*
D03*
X52200Y162600D02*
D03*
X47800D02*
D03*
X52200Y161800D02*
D03*
X47800D02*
D03*
X52200Y161000D02*
D03*
X47800D02*
D03*
X52200Y160200D02*
D03*
X47800D02*
D03*
X52200Y159400D02*
D03*
X47800D02*
D03*
X52200Y158600D02*
D03*
X47800D02*
D03*
X52200Y157800D02*
D03*
X47800D02*
D03*
X52200Y157000D02*
D03*
X47800D02*
D03*
X52200Y156200D02*
D03*
X47800D02*
D03*
X52200Y155400D02*
D03*
X47800D02*
D03*
X52200Y154600D02*
D03*
X47800D02*
D03*
X52200Y153800D02*
D03*
X47800D02*
D03*
X52200Y153000D02*
D03*
X47800D02*
D03*
X52200Y152200D02*
D03*
X47800D02*
D03*
X52200Y151400D02*
D03*
X47800D02*
D03*
X52200Y150600D02*
D03*
X47800D02*
D03*
X52200Y149800D02*
D03*
X47800D02*
D03*
X52200Y149000D02*
D03*
X47800D02*
D03*
X52200Y148200D02*
D03*
X47800D02*
D03*
X52200Y147400D02*
D03*
X47800D02*
D03*
X132700Y170600D02*
D03*
X128300D02*
D03*
X132700Y169800D02*
D03*
X128300D02*
D03*
X132700Y169000D02*
D03*
X128300D02*
D03*
X132700Y168200D02*
D03*
X128300D02*
D03*
X132700Y167400D02*
D03*
X128300D02*
D03*
X132700Y166600D02*
D03*
X128300D02*
D03*
X132700Y165800D02*
D03*
X128300D02*
D03*
X132700Y165000D02*
D03*
X128300D02*
D03*
X132700Y164200D02*
D03*
X128300D02*
D03*
X132700Y163400D02*
D03*
X128300D02*
D03*
X132700Y162600D02*
D03*
X128300D02*
D03*
X132700Y161800D02*
D03*
X128300D02*
D03*
X132700Y161000D02*
D03*
X128300D02*
D03*
X132700Y160200D02*
D03*
X128300D02*
D03*
X132700Y159400D02*
D03*
X128300D02*
D03*
X132700Y158600D02*
D03*
X128300D02*
D03*
X132700Y157800D02*
D03*
X128300D02*
D03*
X132700Y157000D02*
D03*
X128300D02*
D03*
X132700Y156200D02*
D03*
X128300D02*
D03*
X132700Y155400D02*
D03*
X128300D02*
D03*
X132700Y154600D02*
D03*
X128300D02*
D03*
X132700Y153800D02*
D03*
X128300D02*
D03*
X132700Y153000D02*
D03*
X128300D02*
D03*
X132700Y152200D02*
D03*
X128300D02*
D03*
X132700Y151400D02*
D03*
X128300D02*
D03*
X132700Y150600D02*
D03*
X128300D02*
D03*
X132700Y149800D02*
D03*
X128300D02*
D03*
X132700Y149000D02*
D03*
X128300D02*
D03*
X132700Y148200D02*
D03*
X128300D02*
D03*
X132700Y147400D02*
D03*
X128300D02*
D03*
D45*
X18173Y46905D02*
D03*
X81813D02*
D03*
X98673D02*
D03*
X162313D02*
D03*
X18173Y107405D02*
D03*
X81813D02*
D03*
X98673D02*
D03*
X162313D02*
D03*
X18173Y167905D02*
D03*
X81813D02*
D03*
X98673D02*
D03*
X162313D02*
D03*
M02*
