G04*
G04 #@! TF.GenerationSoftware,Altium Limited,Altium Designer,19.0.15 (446)*
G04*
G04 Layer_Color=65535*
%FSLAX43Y43*%
%MOMM*%
G71*
G01*
G75*
%ADD18C,0.254*%
%ADD27C,0.508*%
%ADD28C,0.200*%
%ADD29C,0.152*%
%ADD30C,0.127*%
%ADD31C,0.150*%
D18*
X81000Y36000D02*
X86000D01*
Y41000D01*
X81000D02*
X86000D01*
X81000Y36000D02*
Y41000D01*
X27075Y33107D02*
Y51107D01*
X79075D01*
X27075Y33107D02*
X79075D01*
Y51107D01*
X37052Y30552D02*
X37909D01*
X38195Y30647D01*
X38290Y30743D01*
X38386Y30933D01*
Y31219D01*
X38290Y31409D01*
X38195Y31504D01*
X37909Y31600D01*
X37052D01*
Y29600D01*
X40261Y31123D02*
X40166Y31314D01*
X39976Y31504D01*
X39785Y31600D01*
X39404D01*
X39214Y31504D01*
X39023Y31314D01*
X38928Y31123D01*
X38833Y30838D01*
Y30362D01*
X38928Y30076D01*
X39023Y29886D01*
X39214Y29695D01*
X39404Y29600D01*
X39785D01*
X39976Y29695D01*
X40166Y29886D01*
X40261Y30076D01*
X40823Y31600D02*
Y29600D01*
Y31600D02*
X41680D01*
X41966Y31504D01*
X42061Y31409D01*
X42156Y31219D01*
Y31028D01*
X42061Y30838D01*
X41966Y30743D01*
X41680Y30647D01*
X40823D02*
X41680D01*
X41966Y30552D01*
X42061Y30457D01*
X42156Y30267D01*
Y29981D01*
X42061Y29790D01*
X41966Y29695D01*
X41680Y29600D01*
X40823D01*
X42699Y30933D02*
X42604Y30838D01*
X42699Y30743D01*
X42794Y30838D01*
X42699Y30933D01*
Y29790D02*
X42604Y29695D01*
X42699Y29600D01*
X42794Y29695D01*
X42699Y29790D01*
X44803Y31219D02*
X44994Y31314D01*
X45279Y31600D01*
Y29600D01*
X46841Y31600D02*
X46555Y31504D01*
X46365Y31219D01*
X46270Y30743D01*
Y30457D01*
X46365Y29981D01*
X46555Y29695D01*
X46841Y29600D01*
X47031D01*
X47317Y29695D01*
X47507Y29981D01*
X47603Y30457D01*
Y30743D01*
X47507Y31219D01*
X47317Y31504D01*
X47031Y31600D01*
X46841D01*
X48050Y31219D02*
X48241Y31314D01*
X48526Y31600D01*
Y29600D01*
X49516Y31219D02*
X49707Y31314D01*
X49993Y31600D01*
Y29600D01*
X51173Y31600D02*
X52221D01*
X51649Y30838D01*
X51935D01*
X52125Y30743D01*
X52221Y30647D01*
X52316Y30362D01*
Y30171D01*
X52221Y29886D01*
X52030Y29695D01*
X51745Y29600D01*
X51459D01*
X51173Y29695D01*
X51078Y29790D01*
X50983Y29981D01*
X54287Y29600D02*
X53525Y31600D01*
X52763Y29600D01*
X53049Y30267D02*
X54001D01*
X54753Y31600D02*
Y29600D01*
Y31600D02*
X55610D01*
X55896Y31504D01*
X55991Y31409D01*
X56086Y31219D01*
Y31028D01*
X55991Y30838D01*
X55896Y30743D01*
X55610Y30647D01*
X54753D02*
X55610D01*
X55896Y30552D01*
X55991Y30457D01*
X56086Y30267D01*
Y29981D01*
X55991Y29790D01*
X55896Y29695D01*
X55610Y29600D01*
X54753D01*
X56534Y31600D02*
Y29600D01*
Y31600D02*
X57391D01*
X57677Y31504D01*
X57772Y31409D01*
X57867Y31219D01*
Y31028D01*
X57772Y30838D01*
X57677Y30743D01*
X57391Y30647D01*
X56534D02*
X57391D01*
X57677Y30552D01*
X57772Y30457D01*
X57867Y30267D01*
Y29981D01*
X57772Y29790D01*
X57677Y29695D01*
X57391Y29600D01*
X56534D01*
X58886Y31600D02*
X58600Y31504D01*
X58410Y31219D01*
X58315Y30743D01*
Y30457D01*
X58410Y29981D01*
X58600Y29695D01*
X58886Y29600D01*
X59076D01*
X59362Y29695D01*
X59552Y29981D01*
X59648Y30457D01*
Y30743D01*
X59552Y31219D01*
X59362Y31504D01*
X59076Y31600D01*
X58886D01*
X60666D02*
X60381Y31504D01*
X60190Y31219D01*
X60095Y30743D01*
Y30457D01*
X60190Y29981D01*
X60381Y29695D01*
X60666Y29600D01*
X60857D01*
X61143Y29695D01*
X61333Y29981D01*
X61428Y30457D01*
Y30743D01*
X61333Y31219D01*
X61143Y31504D01*
X60857Y31600D01*
X60666D01*
X61876Y31219D02*
X62066Y31314D01*
X62352Y31600D01*
Y29600D01*
X64950Y55999D02*
X65966D01*
X65458D01*
Y54475D01*
X66474D02*
Y55999D01*
X67235D01*
X67489Y55745D01*
Y55237D01*
X67235Y54983D01*
X66474D01*
X67997Y55745D02*
X68251Y55999D01*
X68759D01*
X69013Y55745D01*
Y55491D01*
X68759Y55237D01*
X69013Y54983D01*
Y54729D01*
X68759Y54475D01*
X68251D01*
X67997Y54729D01*
Y54983D01*
X68251Y55237D01*
X67997Y55491D01*
Y55745D01*
X68251Y55237D02*
X68759D01*
X58300Y56049D02*
X59316D01*
X58808D01*
Y54525D01*
X59824D02*
Y56049D01*
X60585D01*
X60839Y55795D01*
Y55287D01*
X60585Y55033D01*
X59824D01*
X61347Y56049D02*
X62363D01*
Y55795D01*
X61347Y54779D01*
Y54525D01*
X51700Y55999D02*
X52716D01*
X52208D01*
Y54475D01*
X53224D02*
Y55999D01*
X53985D01*
X54239Y55745D01*
Y55237D01*
X53985Y54983D01*
X53224D01*
X55763Y55999D02*
X55255Y55745D01*
X54747Y55237D01*
Y54729D01*
X55001Y54475D01*
X55509D01*
X55763Y54729D01*
Y54983D01*
X55509Y55237D01*
X54747D01*
X43864Y55999D02*
X44880D01*
X44372D01*
Y54475D01*
X45388D02*
Y55999D01*
X46149D01*
X46403Y55745D01*
Y55237D01*
X46149Y54983D01*
X45388D01*
X47927Y55999D02*
X46911D01*
Y55237D01*
X47419Y55491D01*
X47673D01*
X47927Y55237D01*
Y54729D01*
X47673Y54475D01*
X47165D01*
X46911Y54729D01*
X27813Y4561D02*
X28829D01*
X28321D01*
Y3037D01*
X29337D02*
Y4561D01*
X30098D01*
X30352Y4307D01*
Y3799D01*
X30098Y3545D01*
X29337D01*
X31622Y3037D02*
Y4561D01*
X30860Y3799D01*
X31876D01*
X20541Y3809D02*
X21557D01*
X21049D01*
Y2286D01*
X22065D02*
Y3809D01*
X22826D01*
X23080Y3556D01*
Y3048D01*
X22826Y2794D01*
X22065D01*
X23588Y3556D02*
X23842Y3809D01*
X24350D01*
X24604Y3556D01*
Y3302D01*
X24350Y3048D01*
X24096D01*
X24350D01*
X24604Y2794D01*
Y2540D01*
X24350Y2286D01*
X23842D01*
X23588Y2540D01*
X41125Y3698D02*
X42141D01*
X41633D01*
Y2175D01*
X42649D02*
Y3698D01*
X43410D01*
X43664Y3445D01*
Y2937D01*
X43410Y2683D01*
X42649D01*
X45188Y2175D02*
X44172D01*
X45188Y3191D01*
Y3445D01*
X44934Y3698D01*
X44426D01*
X44172Y3445D01*
X36275Y3749D02*
X37291D01*
X36783D01*
Y2225D01*
X37799D02*
Y3749D01*
X38560D01*
X38814Y3495D01*
Y2987D01*
X38560Y2733D01*
X37799D01*
X39322Y2225D02*
X39830D01*
X39576D01*
Y3749D01*
X39322Y3495D01*
X23836Y51500D02*
Y53024D01*
X24597D01*
X24851Y52770D01*
Y52262D01*
X24597Y52008D01*
X23836D01*
X24343D02*
X24851Y51500D01*
X25359D02*
X25867D01*
X25613D01*
Y53024D01*
X25359Y52770D01*
X18025Y38816D02*
Y40340D01*
X18787D01*
X19041Y40086D01*
Y39578D01*
X18787Y39324D01*
X18025D01*
X18533D02*
X19041Y38816D01*
X20564D02*
X19549D01*
X20564Y39832D01*
Y40086D01*
X20310Y40340D01*
X19802D01*
X19549Y40086D01*
X35479Y56867D02*
X34971D01*
X35225D01*
Y55597D01*
X34971Y55343D01*
X34717D01*
X34463Y55597D01*
X37002Y55343D02*
X35987D01*
X37002Y56359D01*
Y56613D01*
X36748Y56867D01*
X36241D01*
X35987Y56613D01*
X12362Y26670D02*
X11854D01*
X12108D01*
Y25400D01*
X11854Y25146D01*
X11600D01*
X11346Y25400D01*
X12870Y25146D02*
X13377D01*
X13124D01*
Y26670D01*
X12870Y26416D01*
X18125Y35449D02*
Y33925D01*
X18887D01*
X19141Y34179D01*
Y35195D01*
X18887Y35449D01*
X18125D01*
X20664Y33925D02*
X19649D01*
X20664Y34941D01*
Y35195D01*
X20410Y35449D01*
X19902D01*
X19649Y35195D01*
X23823Y43599D02*
Y42075D01*
X24585D01*
X24838Y42329D01*
Y43345D01*
X24585Y43599D01*
X23823D01*
X25346Y42075D02*
X25854D01*
X25600D01*
Y43599D01*
X25346Y43345D01*
X23478Y27016D02*
X23224Y26762D01*
Y26254D01*
X23478Y26000D01*
X24494D01*
X24748Y26254D01*
Y26762D01*
X24494Y27016D01*
X24748Y28539D02*
Y27524D01*
X23732Y28539D01*
X23478D01*
X23224Y28285D01*
Y27777D01*
X23478Y27524D01*
X21030Y27016D02*
X20776Y26762D01*
Y26254D01*
X21030Y26000D01*
X22046D01*
X22300Y26254D01*
Y26762D01*
X22046Y27016D01*
X22300Y27524D02*
Y28031D01*
Y27777D01*
X20776D01*
X21030Y27524D01*
X77905Y27016D02*
X77651Y26762D01*
Y26254D01*
X77905Y26000D01*
X78921D01*
X79175Y26254D01*
Y26762D01*
X78921Y27016D01*
X79175Y27524D02*
Y28031D01*
Y27777D01*
X77651D01*
X77905Y27524D01*
X79175Y29555D02*
X77651D01*
X78413Y28793D01*
Y29809D01*
X75805Y27016D02*
X75551Y26762D01*
Y26254D01*
X75805Y26000D01*
X76821D01*
X77075Y26254D01*
Y26762D01*
X76821Y27016D01*
X77075Y27524D02*
Y28031D01*
Y27777D01*
X75551D01*
X75805Y27524D01*
Y28793D02*
X75551Y29047D01*
Y29555D01*
X75805Y29809D01*
X76059D01*
X76313Y29555D01*
Y29301D01*
Y29555D01*
X76567Y29809D01*
X76821D01*
X77075Y29555D01*
Y29047D01*
X76821Y28793D01*
X73655Y27016D02*
X73401Y26762D01*
Y26254D01*
X73655Y26000D01*
X74671D01*
X74925Y26254D01*
Y26762D01*
X74671Y27016D01*
X74925Y27524D02*
Y28031D01*
Y27777D01*
X73401D01*
X73655Y27524D01*
X74925Y29809D02*
Y28793D01*
X73909Y29809D01*
X73655D01*
X73401Y29555D01*
Y29047D01*
X73655Y28793D01*
X71205Y27016D02*
X70951Y26762D01*
Y26254D01*
X71205Y26000D01*
X72221D01*
X72475Y26254D01*
Y26762D01*
X72221Y27016D01*
X72475Y27524D02*
Y28031D01*
Y27777D01*
X70951D01*
X71205Y27524D01*
X72475Y28793D02*
Y29301D01*
Y29047D01*
X70951D01*
X71205Y28793D01*
X66105Y27016D02*
X65851Y26762D01*
Y26254D01*
X66105Y26000D01*
X67121D01*
X67375Y26254D01*
Y26762D01*
X67121Y27016D01*
X67375Y27524D02*
Y28031D01*
Y27777D01*
X65851D01*
X66105Y27524D01*
Y28793D02*
X65851Y29047D01*
Y29555D01*
X66105Y29809D01*
X67121D01*
X67375Y29555D01*
Y29047D01*
X67121Y28793D01*
X66105D01*
X63688Y27016D02*
X63435Y26762D01*
Y26254D01*
X63688Y26000D01*
X64704D01*
X64958Y26254D01*
Y26762D01*
X64704Y27016D01*
Y27524D02*
X64958Y27777D01*
Y28285D01*
X64704Y28539D01*
X63688D01*
X63435Y28285D01*
Y27777D01*
X63688Y27524D01*
X63942D01*
X64196Y27777D01*
Y28539D01*
X56430Y27016D02*
X56176Y26762D01*
Y26254D01*
X56430Y26000D01*
X57446D01*
X57700Y26254D01*
Y26762D01*
X57446Y27016D01*
X56430Y27524D02*
X56176Y27777D01*
Y28285D01*
X56430Y28539D01*
X56684D01*
X56938Y28285D01*
X57192Y28539D01*
X57446D01*
X57700Y28285D01*
Y27777D01*
X57446Y27524D01*
X57192D01*
X56938Y27777D01*
X56684Y27524D01*
X56430D01*
X56938Y27777D02*
Y28285D01*
X54030Y27016D02*
X53776Y26762D01*
Y26254D01*
X54030Y26000D01*
X55046D01*
X55300Y26254D01*
Y26762D01*
X55046Y27016D01*
X53776Y27524D02*
Y28539D01*
X54030D01*
X55046Y27524D01*
X55300D01*
X45530Y27016D02*
X45276Y26762D01*
Y26254D01*
X45530Y26000D01*
X46546D01*
X46800Y26254D01*
Y26762D01*
X46546Y27016D01*
X45276Y28539D02*
X45530Y28031D01*
X46038Y27524D01*
X46546D01*
X46800Y27777D01*
Y28285D01*
X46546Y28539D01*
X46292D01*
X46038Y28285D01*
Y27524D01*
X43180Y27016D02*
X42926Y26762D01*
Y26254D01*
X43180Y26000D01*
X44196D01*
X44450Y26254D01*
Y26762D01*
X44196Y27016D01*
X42926Y28539D02*
Y27524D01*
X43688D01*
X43434Y28031D01*
Y28285D01*
X43688Y28539D01*
X44196D01*
X44450Y28285D01*
Y27777D01*
X44196Y27524D01*
X34630Y27016D02*
X34376Y26762D01*
Y26254D01*
X34630Y26000D01*
X35646D01*
X35900Y26254D01*
Y26762D01*
X35646Y27016D01*
X35900Y28285D02*
X34376D01*
X35138Y27524D01*
Y28539D01*
X31980Y27016D02*
X31726Y26762D01*
Y26254D01*
X31980Y26000D01*
X32996D01*
X33250Y26254D01*
Y26762D01*
X32996Y27016D01*
X31980Y27524D02*
X31726Y27777D01*
Y28285D01*
X31980Y28539D01*
X32234D01*
X32488Y28285D01*
Y28031D01*
Y28285D01*
X32742Y28539D01*
X32996D01*
X33250Y28285D01*
Y27777D01*
X32996Y27524D01*
X161500Y36000D02*
X166500D01*
Y41000D01*
X161500D02*
X166500D01*
X161500Y36000D02*
Y41000D01*
X107575Y33107D02*
Y51107D01*
X159575D01*
X107575Y33107D02*
X159575D01*
Y51107D01*
X117552Y30552D02*
X118409D01*
X118695Y30647D01*
X118790Y30743D01*
X118886Y30933D01*
Y31219D01*
X118790Y31409D01*
X118695Y31504D01*
X118409Y31600D01*
X117552D01*
Y29600D01*
X120761Y31123D02*
X120666Y31314D01*
X120476Y31504D01*
X120285Y31600D01*
X119904D01*
X119714Y31504D01*
X119523Y31314D01*
X119428Y31123D01*
X119333Y30838D01*
Y30362D01*
X119428Y30076D01*
X119523Y29886D01*
X119714Y29695D01*
X119904Y29600D01*
X120285D01*
X120476Y29695D01*
X120666Y29886D01*
X120761Y30076D01*
X121323Y31600D02*
Y29600D01*
Y31600D02*
X122180D01*
X122466Y31504D01*
X122561Y31409D01*
X122656Y31219D01*
Y31028D01*
X122561Y30838D01*
X122466Y30743D01*
X122180Y30647D01*
X121323D02*
X122180D01*
X122466Y30552D01*
X122561Y30457D01*
X122656Y30267D01*
Y29981D01*
X122561Y29790D01*
X122466Y29695D01*
X122180Y29600D01*
X121323D01*
X123199Y30933D02*
X123104Y30838D01*
X123199Y30743D01*
X123294Y30838D01*
X123199Y30933D01*
Y29790D02*
X123104Y29695D01*
X123199Y29600D01*
X123294Y29695D01*
X123199Y29790D01*
X125303Y31219D02*
X125494Y31314D01*
X125779Y31600D01*
Y29600D01*
X127341Y31600D02*
X127055Y31504D01*
X126865Y31219D01*
X126770Y30743D01*
Y30457D01*
X126865Y29981D01*
X127055Y29695D01*
X127341Y29600D01*
X127531D01*
X127817Y29695D01*
X128007Y29981D01*
X128103Y30457D01*
Y30743D01*
X128007Y31219D01*
X127817Y31504D01*
X127531Y31600D01*
X127341D01*
X128550Y31219D02*
X128741Y31314D01*
X129026Y31600D01*
Y29600D01*
X130016Y31219D02*
X130207Y31314D01*
X130493Y31600D01*
Y29600D01*
X131673Y31600D02*
X132721D01*
X132149Y30838D01*
X132435D01*
X132625Y30743D01*
X132721Y30647D01*
X132816Y30362D01*
Y30171D01*
X132721Y29886D01*
X132530Y29695D01*
X132245Y29600D01*
X131959D01*
X131673Y29695D01*
X131578Y29790D01*
X131483Y29981D01*
X134787Y29600D02*
X134025Y31600D01*
X133263Y29600D01*
X133549Y30267D02*
X134501D01*
X135253Y31600D02*
Y29600D01*
Y31600D02*
X136110D01*
X136396Y31504D01*
X136491Y31409D01*
X136586Y31219D01*
Y31028D01*
X136491Y30838D01*
X136396Y30743D01*
X136110Y30647D01*
X135253D02*
X136110D01*
X136396Y30552D01*
X136491Y30457D01*
X136586Y30267D01*
Y29981D01*
X136491Y29790D01*
X136396Y29695D01*
X136110Y29600D01*
X135253D01*
X137034Y31600D02*
Y29600D01*
Y31600D02*
X137891D01*
X138177Y31504D01*
X138272Y31409D01*
X138367Y31219D01*
Y31028D01*
X138272Y30838D01*
X138177Y30743D01*
X137891Y30647D01*
X137034D02*
X137891D01*
X138177Y30552D01*
X138272Y30457D01*
X138367Y30267D01*
Y29981D01*
X138272Y29790D01*
X138177Y29695D01*
X137891Y29600D01*
X137034D01*
X139386Y31600D02*
X139100Y31504D01*
X138910Y31219D01*
X138815Y30743D01*
Y30457D01*
X138910Y29981D01*
X139100Y29695D01*
X139386Y29600D01*
X139576D01*
X139862Y29695D01*
X140052Y29981D01*
X140148Y30457D01*
Y30743D01*
X140052Y31219D01*
X139862Y31504D01*
X139576Y31600D01*
X139386D01*
X141166D02*
X140881Y31504D01*
X140690Y31219D01*
X140595Y30743D01*
Y30457D01*
X140690Y29981D01*
X140881Y29695D01*
X141166Y29600D01*
X141357D01*
X141643Y29695D01*
X141833Y29981D01*
X141928Y30457D01*
Y30743D01*
X141833Y31219D01*
X141643Y31504D01*
X141357Y31600D01*
X141166D01*
X142376Y31219D02*
X142566Y31314D01*
X142852Y31600D01*
Y29600D01*
X145450Y55999D02*
X146466D01*
X145958D01*
Y54475D01*
X146974D02*
Y55999D01*
X147735D01*
X147989Y55745D01*
Y55237D01*
X147735Y54983D01*
X146974D01*
X148497Y55745D02*
X148751Y55999D01*
X149259D01*
X149513Y55745D01*
Y55491D01*
X149259Y55237D01*
X149513Y54983D01*
Y54729D01*
X149259Y54475D01*
X148751D01*
X148497Y54729D01*
Y54983D01*
X148751Y55237D01*
X148497Y55491D01*
Y55745D01*
X148751Y55237D02*
X149259D01*
X138800Y56049D02*
X139816D01*
X139308D01*
Y54525D01*
X140324D02*
Y56049D01*
X141085D01*
X141339Y55795D01*
Y55287D01*
X141085Y55033D01*
X140324D01*
X141847Y56049D02*
X142863D01*
Y55795D01*
X141847Y54779D01*
Y54525D01*
X132200Y55999D02*
X133216D01*
X132708D01*
Y54475D01*
X133724D02*
Y55999D01*
X134485D01*
X134739Y55745D01*
Y55237D01*
X134485Y54983D01*
X133724D01*
X136263Y55999D02*
X135755Y55745D01*
X135247Y55237D01*
Y54729D01*
X135501Y54475D01*
X136009D01*
X136263Y54729D01*
Y54983D01*
X136009Y55237D01*
X135247D01*
X124364Y55999D02*
X125380D01*
X124872D01*
Y54475D01*
X125888D02*
Y55999D01*
X126649D01*
X126903Y55745D01*
Y55237D01*
X126649Y54983D01*
X125888D01*
X128427Y55999D02*
X127411D01*
Y55237D01*
X127919Y55491D01*
X128173D01*
X128427Y55237D01*
Y54729D01*
X128173Y54475D01*
X127665D01*
X127411Y54729D01*
X108313Y4561D02*
X109329D01*
X108821D01*
Y3037D01*
X109837D02*
Y4561D01*
X110598D01*
X110852Y4307D01*
Y3799D01*
X110598Y3545D01*
X109837D01*
X112122Y3037D02*
Y4561D01*
X111360Y3799D01*
X112376D01*
X101041Y3809D02*
X102057D01*
X101549D01*
Y2286D01*
X102565D02*
Y3809D01*
X103326D01*
X103580Y3556D01*
Y3048D01*
X103326Y2794D01*
X102565D01*
X104088Y3556D02*
X104342Y3809D01*
X104850D01*
X105104Y3556D01*
Y3302D01*
X104850Y3048D01*
X104596D01*
X104850D01*
X105104Y2794D01*
Y2540D01*
X104850Y2286D01*
X104342D01*
X104088Y2540D01*
X121625Y3698D02*
X122641D01*
X122133D01*
Y2175D01*
X123149D02*
Y3698D01*
X123910D01*
X124164Y3445D01*
Y2937D01*
X123910Y2683D01*
X123149D01*
X125688Y2175D02*
X124672D01*
X125688Y3191D01*
Y3445D01*
X125434Y3698D01*
X124926D01*
X124672Y3445D01*
X116775Y3749D02*
X117791D01*
X117283D01*
Y2225D01*
X118299D02*
Y3749D01*
X119060D01*
X119314Y3495D01*
Y2987D01*
X119060Y2733D01*
X118299D01*
X119822Y2225D02*
X120330D01*
X120076D01*
Y3749D01*
X119822Y3495D01*
X104336Y51500D02*
Y53024D01*
X105097D01*
X105351Y52770D01*
Y52262D01*
X105097Y52008D01*
X104336D01*
X104843D02*
X105351Y51500D01*
X105859D02*
X106367D01*
X106113D01*
Y53024D01*
X105859Y52770D01*
X98525Y38816D02*
Y40340D01*
X99287D01*
X99541Y40086D01*
Y39578D01*
X99287Y39324D01*
X98525D01*
X99033D02*
X99541Y38816D01*
X101064D02*
X100049D01*
X101064Y39832D01*
Y40086D01*
X100810Y40340D01*
X100302D01*
X100049Y40086D01*
X115979Y56867D02*
X115471D01*
X115725D01*
Y55597D01*
X115471Y55343D01*
X115217D01*
X114963Y55597D01*
X117502Y55343D02*
X116487D01*
X117502Y56359D01*
Y56613D01*
X117248Y56867D01*
X116741D01*
X116487Y56613D01*
X92862Y26670D02*
X92354D01*
X92608D01*
Y25400D01*
X92354Y25146D01*
X92100D01*
X91846Y25400D01*
X93370Y25146D02*
X93877D01*
X93624D01*
Y26670D01*
X93370Y26416D01*
X98625Y35449D02*
Y33925D01*
X99387D01*
X99641Y34179D01*
Y35195D01*
X99387Y35449D01*
X98625D01*
X101164Y33925D02*
X100149D01*
X101164Y34941D01*
Y35195D01*
X100910Y35449D01*
X100402D01*
X100149Y35195D01*
X104323Y43599D02*
Y42075D01*
X105085D01*
X105338Y42329D01*
Y43345D01*
X105085Y43599D01*
X104323D01*
X105846Y42075D02*
X106354D01*
X106100D01*
Y43599D01*
X105846Y43345D01*
X103978Y27016D02*
X103724Y26762D01*
Y26254D01*
X103978Y26000D01*
X104994D01*
X105248Y26254D01*
Y26762D01*
X104994Y27016D01*
X105248Y28539D02*
Y27524D01*
X104232Y28539D01*
X103978D01*
X103724Y28285D01*
Y27777D01*
X103978Y27524D01*
X101530Y27016D02*
X101276Y26762D01*
Y26254D01*
X101530Y26000D01*
X102546D01*
X102800Y26254D01*
Y26762D01*
X102546Y27016D01*
X102800Y27524D02*
Y28031D01*
Y27777D01*
X101276D01*
X101530Y27524D01*
X158405Y27016D02*
X158151Y26762D01*
Y26254D01*
X158405Y26000D01*
X159421D01*
X159675Y26254D01*
Y26762D01*
X159421Y27016D01*
X159675Y27524D02*
Y28031D01*
Y27777D01*
X158151D01*
X158405Y27524D01*
X159675Y29555D02*
X158151D01*
X158913Y28793D01*
Y29809D01*
X156305Y27016D02*
X156051Y26762D01*
Y26254D01*
X156305Y26000D01*
X157321D01*
X157575Y26254D01*
Y26762D01*
X157321Y27016D01*
X157575Y27524D02*
Y28031D01*
Y27777D01*
X156051D01*
X156305Y27524D01*
Y28793D02*
X156051Y29047D01*
Y29555D01*
X156305Y29809D01*
X156559D01*
X156813Y29555D01*
Y29301D01*
Y29555D01*
X157067Y29809D01*
X157321D01*
X157575Y29555D01*
Y29047D01*
X157321Y28793D01*
X154155Y27016D02*
X153901Y26762D01*
Y26254D01*
X154155Y26000D01*
X155171D01*
X155425Y26254D01*
Y26762D01*
X155171Y27016D01*
X155425Y27524D02*
Y28031D01*
Y27777D01*
X153901D01*
X154155Y27524D01*
X155425Y29809D02*
Y28793D01*
X154409Y29809D01*
X154155D01*
X153901Y29555D01*
Y29047D01*
X154155Y28793D01*
X151705Y27016D02*
X151451Y26762D01*
Y26254D01*
X151705Y26000D01*
X152721D01*
X152975Y26254D01*
Y26762D01*
X152721Y27016D01*
X152975Y27524D02*
Y28031D01*
Y27777D01*
X151451D01*
X151705Y27524D01*
X152975Y28793D02*
Y29301D01*
Y29047D01*
X151451D01*
X151705Y28793D01*
X146605Y27016D02*
X146351Y26762D01*
Y26254D01*
X146605Y26000D01*
X147621D01*
X147875Y26254D01*
Y26762D01*
X147621Y27016D01*
X147875Y27524D02*
Y28031D01*
Y27777D01*
X146351D01*
X146605Y27524D01*
Y28793D02*
X146351Y29047D01*
Y29555D01*
X146605Y29809D01*
X147621D01*
X147875Y29555D01*
Y29047D01*
X147621Y28793D01*
X146605D01*
X144188Y27016D02*
X143935Y26762D01*
Y26254D01*
X144188Y26000D01*
X145204D01*
X145458Y26254D01*
Y26762D01*
X145204Y27016D01*
Y27524D02*
X145458Y27777D01*
Y28285D01*
X145204Y28539D01*
X144188D01*
X143935Y28285D01*
Y27777D01*
X144188Y27524D01*
X144442D01*
X144696Y27777D01*
Y28539D01*
X136930Y27016D02*
X136676Y26762D01*
Y26254D01*
X136930Y26000D01*
X137946D01*
X138200Y26254D01*
Y26762D01*
X137946Y27016D01*
X136930Y27524D02*
X136676Y27777D01*
Y28285D01*
X136930Y28539D01*
X137184D01*
X137438Y28285D01*
X137692Y28539D01*
X137946D01*
X138200Y28285D01*
Y27777D01*
X137946Y27524D01*
X137692D01*
X137438Y27777D01*
X137184Y27524D01*
X136930D01*
X137438Y27777D02*
Y28285D01*
X134530Y27016D02*
X134276Y26762D01*
Y26254D01*
X134530Y26000D01*
X135546D01*
X135800Y26254D01*
Y26762D01*
X135546Y27016D01*
X134276Y27524D02*
Y28539D01*
X134530D01*
X135546Y27524D01*
X135800D01*
X126030Y27016D02*
X125776Y26762D01*
Y26254D01*
X126030Y26000D01*
X127046D01*
X127300Y26254D01*
Y26762D01*
X127046Y27016D01*
X125776Y28539D02*
X126030Y28031D01*
X126538Y27524D01*
X127046D01*
X127300Y27777D01*
Y28285D01*
X127046Y28539D01*
X126792D01*
X126538Y28285D01*
Y27524D01*
X123680Y27016D02*
X123426Y26762D01*
Y26254D01*
X123680Y26000D01*
X124696D01*
X124950Y26254D01*
Y26762D01*
X124696Y27016D01*
X123426Y28539D02*
Y27524D01*
X124188D01*
X123934Y28031D01*
Y28285D01*
X124188Y28539D01*
X124696D01*
X124950Y28285D01*
Y27777D01*
X124696Y27524D01*
X115130Y27016D02*
X114876Y26762D01*
Y26254D01*
X115130Y26000D01*
X116146D01*
X116400Y26254D01*
Y26762D01*
X116146Y27016D01*
X116400Y28285D02*
X114876D01*
X115638Y27524D01*
Y28539D01*
X112480Y27016D02*
X112226Y26762D01*
Y26254D01*
X112480Y26000D01*
X113496D01*
X113750Y26254D01*
Y26762D01*
X113496Y27016D01*
X112480Y27524D02*
X112226Y27777D01*
Y28285D01*
X112480Y28539D01*
X112734D01*
X112988Y28285D01*
Y28031D01*
Y28285D01*
X113242Y28539D01*
X113496D01*
X113750Y28285D01*
Y27777D01*
X113496Y27524D01*
X81000Y96500D02*
X86000D01*
Y101500D01*
X81000D02*
X86000D01*
X81000Y96500D02*
Y101500D01*
X27075Y93607D02*
Y111607D01*
X79075D01*
X27075Y93607D02*
X79075D01*
Y111607D01*
X37052Y91052D02*
X37909D01*
X38195Y91147D01*
X38290Y91243D01*
X38386Y91433D01*
Y91719D01*
X38290Y91909D01*
X38195Y92004D01*
X37909Y92100D01*
X37052D01*
Y90100D01*
X40261Y91623D02*
X40166Y91814D01*
X39976Y92004D01*
X39785Y92100D01*
X39404D01*
X39214Y92004D01*
X39023Y91814D01*
X38928Y91623D01*
X38833Y91338D01*
Y90862D01*
X38928Y90576D01*
X39023Y90386D01*
X39214Y90195D01*
X39404Y90100D01*
X39785D01*
X39976Y90195D01*
X40166Y90386D01*
X40261Y90576D01*
X40823Y92100D02*
Y90100D01*
Y92100D02*
X41680D01*
X41966Y92004D01*
X42061Y91909D01*
X42156Y91719D01*
Y91528D01*
X42061Y91338D01*
X41966Y91243D01*
X41680Y91147D01*
X40823D02*
X41680D01*
X41966Y91052D01*
X42061Y90957D01*
X42156Y90767D01*
Y90481D01*
X42061Y90290D01*
X41966Y90195D01*
X41680Y90100D01*
X40823D01*
X42699Y91433D02*
X42604Y91338D01*
X42699Y91243D01*
X42794Y91338D01*
X42699Y91433D01*
Y90290D02*
X42604Y90195D01*
X42699Y90100D01*
X42794Y90195D01*
X42699Y90290D01*
X44803Y91719D02*
X44994Y91814D01*
X45279Y92100D01*
Y90100D01*
X46841Y92100D02*
X46555Y92004D01*
X46365Y91719D01*
X46270Y91243D01*
Y90957D01*
X46365Y90481D01*
X46555Y90195D01*
X46841Y90100D01*
X47031D01*
X47317Y90195D01*
X47507Y90481D01*
X47603Y90957D01*
Y91243D01*
X47507Y91719D01*
X47317Y92004D01*
X47031Y92100D01*
X46841D01*
X48050Y91719D02*
X48241Y91814D01*
X48526Y92100D01*
Y90100D01*
X49516Y91719D02*
X49707Y91814D01*
X49993Y92100D01*
Y90100D01*
X51173Y92100D02*
X52221D01*
X51649Y91338D01*
X51935D01*
X52125Y91243D01*
X52221Y91147D01*
X52316Y90862D01*
Y90671D01*
X52221Y90386D01*
X52030Y90195D01*
X51745Y90100D01*
X51459D01*
X51173Y90195D01*
X51078Y90290D01*
X50983Y90481D01*
X54287Y90100D02*
X53525Y92100D01*
X52763Y90100D01*
X53049Y90767D02*
X54001D01*
X54753Y92100D02*
Y90100D01*
Y92100D02*
X55610D01*
X55896Y92004D01*
X55991Y91909D01*
X56086Y91719D01*
Y91528D01*
X55991Y91338D01*
X55896Y91243D01*
X55610Y91147D01*
X54753D02*
X55610D01*
X55896Y91052D01*
X55991Y90957D01*
X56086Y90767D01*
Y90481D01*
X55991Y90290D01*
X55896Y90195D01*
X55610Y90100D01*
X54753D01*
X56534Y92100D02*
Y90100D01*
Y92100D02*
X57391D01*
X57677Y92004D01*
X57772Y91909D01*
X57867Y91719D01*
Y91528D01*
X57772Y91338D01*
X57677Y91243D01*
X57391Y91147D01*
X56534D02*
X57391D01*
X57677Y91052D01*
X57772Y90957D01*
X57867Y90767D01*
Y90481D01*
X57772Y90290D01*
X57677Y90195D01*
X57391Y90100D01*
X56534D01*
X58886Y92100D02*
X58600Y92004D01*
X58410Y91719D01*
X58315Y91243D01*
Y90957D01*
X58410Y90481D01*
X58600Y90195D01*
X58886Y90100D01*
X59076D01*
X59362Y90195D01*
X59552Y90481D01*
X59648Y90957D01*
Y91243D01*
X59552Y91719D01*
X59362Y92004D01*
X59076Y92100D01*
X58886D01*
X60666D02*
X60381Y92004D01*
X60190Y91719D01*
X60095Y91243D01*
Y90957D01*
X60190Y90481D01*
X60381Y90195D01*
X60666Y90100D01*
X60857D01*
X61143Y90195D01*
X61333Y90481D01*
X61428Y90957D01*
Y91243D01*
X61333Y91719D01*
X61143Y92004D01*
X60857Y92100D01*
X60666D01*
X61876Y91719D02*
X62066Y91814D01*
X62352Y92100D01*
Y90100D01*
X64950Y116498D02*
X65966D01*
X65458D01*
Y114975D01*
X66474D02*
Y116498D01*
X67235D01*
X67489Y116245D01*
Y115737D01*
X67235Y115483D01*
X66474D01*
X67997Y116245D02*
X68251Y116498D01*
X68759D01*
X69013Y116245D01*
Y115991D01*
X68759Y115737D01*
X69013Y115483D01*
Y115229D01*
X68759Y114975D01*
X68251D01*
X67997Y115229D01*
Y115483D01*
X68251Y115737D01*
X67997Y115991D01*
Y116245D01*
X68251Y115737D02*
X68759D01*
X58300Y116549D02*
X59316D01*
X58808D01*
Y115025D01*
X59824D02*
Y116549D01*
X60585D01*
X60839Y116295D01*
Y115787D01*
X60585Y115533D01*
X59824D01*
X61347Y116549D02*
X62363D01*
Y116295D01*
X61347Y115279D01*
Y115025D01*
X51700Y116498D02*
X52716D01*
X52208D01*
Y114975D01*
X53224D02*
Y116498D01*
X53985D01*
X54239Y116245D01*
Y115737D01*
X53985Y115483D01*
X53224D01*
X55763Y116498D02*
X55255Y116245D01*
X54747Y115737D01*
Y115229D01*
X55001Y114975D01*
X55509D01*
X55763Y115229D01*
Y115483D01*
X55509Y115737D01*
X54747D01*
X43864Y116498D02*
X44880D01*
X44372D01*
Y114975D01*
X45388D02*
Y116498D01*
X46149D01*
X46403Y116245D01*
Y115737D01*
X46149Y115483D01*
X45388D01*
X47927Y116498D02*
X46911D01*
Y115737D01*
X47419Y115991D01*
X47673D01*
X47927Y115737D01*
Y115229D01*
X47673Y114975D01*
X47165D01*
X46911Y115229D01*
X27813Y65061D02*
X28829D01*
X28321D01*
Y63537D01*
X29337D02*
Y65061D01*
X30098D01*
X30352Y64807D01*
Y64299D01*
X30098Y64045D01*
X29337D01*
X31622Y63537D02*
Y65061D01*
X30860Y64299D01*
X31876D01*
X20541Y64310D02*
X21557D01*
X21049D01*
Y62786D01*
X22065D02*
Y64310D01*
X22826D01*
X23080Y64056D01*
Y63548D01*
X22826Y63294D01*
X22065D01*
X23588Y64056D02*
X23842Y64310D01*
X24350D01*
X24604Y64056D01*
Y63802D01*
X24350Y63548D01*
X24096D01*
X24350D01*
X24604Y63294D01*
Y63040D01*
X24350Y62786D01*
X23842D01*
X23588Y63040D01*
X41125Y64199D02*
X42141D01*
X41633D01*
Y62675D01*
X42649D02*
Y64199D01*
X43410D01*
X43664Y63945D01*
Y63437D01*
X43410Y63183D01*
X42649D01*
X45188Y62675D02*
X44172D01*
X45188Y63691D01*
Y63945D01*
X44934Y64199D01*
X44426D01*
X44172Y63945D01*
X36275Y64248D02*
X37291D01*
X36783D01*
Y62725D01*
X37799D02*
Y64248D01*
X38560D01*
X38814Y63995D01*
Y63487D01*
X38560Y63233D01*
X37799D01*
X39322Y62725D02*
X39830D01*
X39576D01*
Y64248D01*
X39322Y63995D01*
X23836Y112000D02*
Y113524D01*
X24597D01*
X24851Y113270D01*
Y112762D01*
X24597Y112508D01*
X23836D01*
X24343D02*
X24851Y112000D01*
X25359D02*
X25867D01*
X25613D01*
Y113524D01*
X25359Y113270D01*
X18025Y99316D02*
Y100840D01*
X18787D01*
X19041Y100586D01*
Y100078D01*
X18787Y99824D01*
X18025D01*
X18533D02*
X19041Y99316D01*
X20564D02*
X19549D01*
X20564Y100332D01*
Y100586D01*
X20310Y100840D01*
X19802D01*
X19549Y100586D01*
X35479Y117367D02*
X34971D01*
X35225D01*
Y116097D01*
X34971Y115843D01*
X34717D01*
X34463Y116097D01*
X37002Y115843D02*
X35987D01*
X37002Y116859D01*
Y117113D01*
X36748Y117367D01*
X36241D01*
X35987Y117113D01*
X12362Y87170D02*
X11854D01*
X12108D01*
Y85900D01*
X11854Y85646D01*
X11600D01*
X11346Y85900D01*
X12870Y85646D02*
X13377D01*
X13124D01*
Y87170D01*
X12870Y86916D01*
X18125Y95949D02*
Y94425D01*
X18887D01*
X19141Y94679D01*
Y95695D01*
X18887Y95949D01*
X18125D01*
X20664Y94425D02*
X19649D01*
X20664Y95441D01*
Y95695D01*
X20410Y95949D01*
X19902D01*
X19649Y95695D01*
X23823Y104099D02*
Y102575D01*
X24585D01*
X24838Y102829D01*
Y103845D01*
X24585Y104099D01*
X23823D01*
X25346Y102575D02*
X25854D01*
X25600D01*
Y104099D01*
X25346Y103845D01*
X23478Y87516D02*
X23224Y87262D01*
Y86754D01*
X23478Y86500D01*
X24494D01*
X24748Y86754D01*
Y87262D01*
X24494Y87516D01*
X24748Y89039D02*
Y88023D01*
X23732Y89039D01*
X23478D01*
X23224Y88785D01*
Y88277D01*
X23478Y88023D01*
X21030Y87516D02*
X20776Y87262D01*
Y86754D01*
X21030Y86500D01*
X22046D01*
X22300Y86754D01*
Y87262D01*
X22046Y87516D01*
X22300Y88023D02*
Y88531D01*
Y88277D01*
X20776D01*
X21030Y88023D01*
X77905Y87516D02*
X77651Y87262D01*
Y86754D01*
X77905Y86500D01*
X78921D01*
X79175Y86754D01*
Y87262D01*
X78921Y87516D01*
X79175Y88023D02*
Y88531D01*
Y88277D01*
X77651D01*
X77905Y88023D01*
X79175Y90055D02*
X77651D01*
X78413Y89293D01*
Y90309D01*
X75805Y87516D02*
X75551Y87262D01*
Y86754D01*
X75805Y86500D01*
X76821D01*
X77075Y86754D01*
Y87262D01*
X76821Y87516D01*
X77075Y88023D02*
Y88531D01*
Y88277D01*
X75551D01*
X75805Y88023D01*
Y89293D02*
X75551Y89547D01*
Y90055D01*
X75805Y90309D01*
X76059D01*
X76313Y90055D01*
Y89801D01*
Y90055D01*
X76567Y90309D01*
X76821D01*
X77075Y90055D01*
Y89547D01*
X76821Y89293D01*
X73655Y87516D02*
X73401Y87262D01*
Y86754D01*
X73655Y86500D01*
X74671D01*
X74925Y86754D01*
Y87262D01*
X74671Y87516D01*
X74925Y88023D02*
Y88531D01*
Y88277D01*
X73401D01*
X73655Y88023D01*
X74925Y90309D02*
Y89293D01*
X73909Y90309D01*
X73655D01*
X73401Y90055D01*
Y89547D01*
X73655Y89293D01*
X71205Y87516D02*
X70951Y87262D01*
Y86754D01*
X71205Y86500D01*
X72221D01*
X72475Y86754D01*
Y87262D01*
X72221Y87516D01*
X72475Y88023D02*
Y88531D01*
Y88277D01*
X70951D01*
X71205Y88023D01*
X72475Y89293D02*
Y89801D01*
Y89547D01*
X70951D01*
X71205Y89293D01*
X66105Y87516D02*
X65851Y87262D01*
Y86754D01*
X66105Y86500D01*
X67121D01*
X67375Y86754D01*
Y87262D01*
X67121Y87516D01*
X67375Y88023D02*
Y88531D01*
Y88277D01*
X65851D01*
X66105Y88023D01*
Y89293D02*
X65851Y89547D01*
Y90055D01*
X66105Y90309D01*
X67121D01*
X67375Y90055D01*
Y89547D01*
X67121Y89293D01*
X66105D01*
X63688Y87516D02*
X63435Y87262D01*
Y86754D01*
X63688Y86500D01*
X64704D01*
X64958Y86754D01*
Y87262D01*
X64704Y87516D01*
Y88023D02*
X64958Y88277D01*
Y88785D01*
X64704Y89039D01*
X63688D01*
X63435Y88785D01*
Y88277D01*
X63688Y88023D01*
X63942D01*
X64196Y88277D01*
Y89039D01*
X56430Y87516D02*
X56176Y87262D01*
Y86754D01*
X56430Y86500D01*
X57446D01*
X57700Y86754D01*
Y87262D01*
X57446Y87516D01*
X56430Y88023D02*
X56176Y88277D01*
Y88785D01*
X56430Y89039D01*
X56684D01*
X56938Y88785D01*
X57192Y89039D01*
X57446D01*
X57700Y88785D01*
Y88277D01*
X57446Y88023D01*
X57192D01*
X56938Y88277D01*
X56684Y88023D01*
X56430D01*
X56938Y88277D02*
Y88785D01*
X54030Y87516D02*
X53776Y87262D01*
Y86754D01*
X54030Y86500D01*
X55046D01*
X55300Y86754D01*
Y87262D01*
X55046Y87516D01*
X53776Y88023D02*
Y89039D01*
X54030D01*
X55046Y88023D01*
X55300D01*
X45530Y87516D02*
X45276Y87262D01*
Y86754D01*
X45530Y86500D01*
X46546D01*
X46800Y86754D01*
Y87262D01*
X46546Y87516D01*
X45276Y89039D02*
X45530Y88531D01*
X46038Y88023D01*
X46546D01*
X46800Y88277D01*
Y88785D01*
X46546Y89039D01*
X46292D01*
X46038Y88785D01*
Y88023D01*
X43180Y87516D02*
X42926Y87262D01*
Y86754D01*
X43180Y86500D01*
X44196D01*
X44450Y86754D01*
Y87262D01*
X44196Y87516D01*
X42926Y89039D02*
Y88023D01*
X43688D01*
X43434Y88531D01*
Y88785D01*
X43688Y89039D01*
X44196D01*
X44450Y88785D01*
Y88277D01*
X44196Y88023D01*
X34630Y87516D02*
X34376Y87262D01*
Y86754D01*
X34630Y86500D01*
X35646D01*
X35900Y86754D01*
Y87262D01*
X35646Y87516D01*
X35900Y88785D02*
X34376D01*
X35138Y88023D01*
Y89039D01*
X31980Y87516D02*
X31726Y87262D01*
Y86754D01*
X31980Y86500D01*
X32996D01*
X33250Y86754D01*
Y87262D01*
X32996Y87516D01*
X31980Y88023D02*
X31726Y88277D01*
Y88785D01*
X31980Y89039D01*
X32234D01*
X32488Y88785D01*
Y88531D01*
Y88785D01*
X32742Y89039D01*
X32996D01*
X33250Y88785D01*
Y88277D01*
X32996Y88023D01*
X161500Y96500D02*
X166500D01*
Y101500D01*
X161500D02*
X166500D01*
X161500Y96500D02*
Y101500D01*
X107575Y93607D02*
Y111607D01*
X159575D01*
X107575Y93607D02*
X159575D01*
Y111607D01*
X117552Y91052D02*
X118409D01*
X118695Y91147D01*
X118790Y91243D01*
X118886Y91433D01*
Y91719D01*
X118790Y91909D01*
X118695Y92004D01*
X118409Y92100D01*
X117552D01*
Y90100D01*
X120761Y91623D02*
X120666Y91814D01*
X120476Y92004D01*
X120285Y92100D01*
X119904D01*
X119714Y92004D01*
X119523Y91814D01*
X119428Y91623D01*
X119333Y91338D01*
Y90862D01*
X119428Y90576D01*
X119523Y90386D01*
X119714Y90195D01*
X119904Y90100D01*
X120285D01*
X120476Y90195D01*
X120666Y90386D01*
X120761Y90576D01*
X121323Y92100D02*
Y90100D01*
Y92100D02*
X122180D01*
X122466Y92004D01*
X122561Y91909D01*
X122656Y91719D01*
Y91528D01*
X122561Y91338D01*
X122466Y91243D01*
X122180Y91147D01*
X121323D02*
X122180D01*
X122466Y91052D01*
X122561Y90957D01*
X122656Y90767D01*
Y90481D01*
X122561Y90290D01*
X122466Y90195D01*
X122180Y90100D01*
X121323D01*
X123199Y91433D02*
X123104Y91338D01*
X123199Y91243D01*
X123294Y91338D01*
X123199Y91433D01*
Y90290D02*
X123104Y90195D01*
X123199Y90100D01*
X123294Y90195D01*
X123199Y90290D01*
X125303Y91719D02*
X125494Y91814D01*
X125779Y92100D01*
Y90100D01*
X127341Y92100D02*
X127055Y92004D01*
X126865Y91719D01*
X126770Y91243D01*
Y90957D01*
X126865Y90481D01*
X127055Y90195D01*
X127341Y90100D01*
X127531D01*
X127817Y90195D01*
X128007Y90481D01*
X128103Y90957D01*
Y91243D01*
X128007Y91719D01*
X127817Y92004D01*
X127531Y92100D01*
X127341D01*
X128550Y91719D02*
X128741Y91814D01*
X129026Y92100D01*
Y90100D01*
X130016Y91719D02*
X130207Y91814D01*
X130493Y92100D01*
Y90100D01*
X131673Y92100D02*
X132721D01*
X132149Y91338D01*
X132435D01*
X132625Y91243D01*
X132721Y91147D01*
X132816Y90862D01*
Y90671D01*
X132721Y90386D01*
X132530Y90195D01*
X132245Y90100D01*
X131959D01*
X131673Y90195D01*
X131578Y90290D01*
X131483Y90481D01*
X134787Y90100D02*
X134025Y92100D01*
X133263Y90100D01*
X133549Y90767D02*
X134501D01*
X135253Y92100D02*
Y90100D01*
Y92100D02*
X136110D01*
X136396Y92004D01*
X136491Y91909D01*
X136586Y91719D01*
Y91528D01*
X136491Y91338D01*
X136396Y91243D01*
X136110Y91147D01*
X135253D02*
X136110D01*
X136396Y91052D01*
X136491Y90957D01*
X136586Y90767D01*
Y90481D01*
X136491Y90290D01*
X136396Y90195D01*
X136110Y90100D01*
X135253D01*
X137034Y92100D02*
Y90100D01*
Y92100D02*
X137891D01*
X138177Y92004D01*
X138272Y91909D01*
X138367Y91719D01*
Y91528D01*
X138272Y91338D01*
X138177Y91243D01*
X137891Y91147D01*
X137034D02*
X137891D01*
X138177Y91052D01*
X138272Y90957D01*
X138367Y90767D01*
Y90481D01*
X138272Y90290D01*
X138177Y90195D01*
X137891Y90100D01*
X137034D01*
X139386Y92100D02*
X139100Y92004D01*
X138910Y91719D01*
X138815Y91243D01*
Y90957D01*
X138910Y90481D01*
X139100Y90195D01*
X139386Y90100D01*
X139576D01*
X139862Y90195D01*
X140052Y90481D01*
X140148Y90957D01*
Y91243D01*
X140052Y91719D01*
X139862Y92004D01*
X139576Y92100D01*
X139386D01*
X141166D02*
X140881Y92004D01*
X140690Y91719D01*
X140595Y91243D01*
Y90957D01*
X140690Y90481D01*
X140881Y90195D01*
X141166Y90100D01*
X141357D01*
X141643Y90195D01*
X141833Y90481D01*
X141928Y90957D01*
Y91243D01*
X141833Y91719D01*
X141643Y92004D01*
X141357Y92100D01*
X141166D01*
X142376Y91719D02*
X142566Y91814D01*
X142852Y92100D01*
Y90100D01*
X145450Y116498D02*
X146466D01*
X145958D01*
Y114975D01*
X146974D02*
Y116498D01*
X147735D01*
X147989Y116245D01*
Y115737D01*
X147735Y115483D01*
X146974D01*
X148497Y116245D02*
X148751Y116498D01*
X149259D01*
X149513Y116245D01*
Y115991D01*
X149259Y115737D01*
X149513Y115483D01*
Y115229D01*
X149259Y114975D01*
X148751D01*
X148497Y115229D01*
Y115483D01*
X148751Y115737D01*
X148497Y115991D01*
Y116245D01*
X148751Y115737D02*
X149259D01*
X138800Y116549D02*
X139816D01*
X139308D01*
Y115025D01*
X140324D02*
Y116549D01*
X141085D01*
X141339Y116295D01*
Y115787D01*
X141085Y115533D01*
X140324D01*
X141847Y116549D02*
X142863D01*
Y116295D01*
X141847Y115279D01*
Y115025D01*
X132200Y116498D02*
X133216D01*
X132708D01*
Y114975D01*
X133724D02*
Y116498D01*
X134485D01*
X134739Y116245D01*
Y115737D01*
X134485Y115483D01*
X133724D01*
X136263Y116498D02*
X135755Y116245D01*
X135247Y115737D01*
Y115229D01*
X135501Y114975D01*
X136009D01*
X136263Y115229D01*
Y115483D01*
X136009Y115737D01*
X135247D01*
X124364Y116498D02*
X125380D01*
X124872D01*
Y114975D01*
X125888D02*
Y116498D01*
X126649D01*
X126903Y116245D01*
Y115737D01*
X126649Y115483D01*
X125888D01*
X128427Y116498D02*
X127411D01*
Y115737D01*
X127919Y115991D01*
X128173D01*
X128427Y115737D01*
Y115229D01*
X128173Y114975D01*
X127665D01*
X127411Y115229D01*
X108313Y65061D02*
X109329D01*
X108821D01*
Y63537D01*
X109837D02*
Y65061D01*
X110598D01*
X110852Y64807D01*
Y64299D01*
X110598Y64045D01*
X109837D01*
X112122Y63537D02*
Y65061D01*
X111360Y64299D01*
X112376D01*
X101041Y64310D02*
X102057D01*
X101549D01*
Y62786D01*
X102565D02*
Y64310D01*
X103326D01*
X103580Y64056D01*
Y63548D01*
X103326Y63294D01*
X102565D01*
X104088Y64056D02*
X104342Y64310D01*
X104850D01*
X105104Y64056D01*
Y63802D01*
X104850Y63548D01*
X104596D01*
X104850D01*
X105104Y63294D01*
Y63040D01*
X104850Y62786D01*
X104342D01*
X104088Y63040D01*
X121625Y64199D02*
X122641D01*
X122133D01*
Y62675D01*
X123149D02*
Y64199D01*
X123910D01*
X124164Y63945D01*
Y63437D01*
X123910Y63183D01*
X123149D01*
X125688Y62675D02*
X124672D01*
X125688Y63691D01*
Y63945D01*
X125434Y64199D01*
X124926D01*
X124672Y63945D01*
X116775Y64248D02*
X117791D01*
X117283D01*
Y62725D01*
X118299D02*
Y64248D01*
X119060D01*
X119314Y63995D01*
Y63487D01*
X119060Y63233D01*
X118299D01*
X119822Y62725D02*
X120330D01*
X120076D01*
Y64248D01*
X119822Y63995D01*
X104336Y112000D02*
Y113524D01*
X105097D01*
X105351Y113270D01*
Y112762D01*
X105097Y112508D01*
X104336D01*
X104843D02*
X105351Y112000D01*
X105859D02*
X106367D01*
X106113D01*
Y113524D01*
X105859Y113270D01*
X98525Y99316D02*
Y100840D01*
X99287D01*
X99541Y100586D01*
Y100078D01*
X99287Y99824D01*
X98525D01*
X99033D02*
X99541Y99316D01*
X101064D02*
X100049D01*
X101064Y100332D01*
Y100586D01*
X100810Y100840D01*
X100302D01*
X100049Y100586D01*
X115979Y117367D02*
X115471D01*
X115725D01*
Y116097D01*
X115471Y115843D01*
X115217D01*
X114963Y116097D01*
X117502Y115843D02*
X116487D01*
X117502Y116859D01*
Y117113D01*
X117248Y117367D01*
X116741D01*
X116487Y117113D01*
X92862Y87170D02*
X92354D01*
X92608D01*
Y85900D01*
X92354Y85646D01*
X92100D01*
X91846Y85900D01*
X93370Y85646D02*
X93877D01*
X93624D01*
Y87170D01*
X93370Y86916D01*
X98625Y95949D02*
Y94425D01*
X99387D01*
X99641Y94679D01*
Y95695D01*
X99387Y95949D01*
X98625D01*
X101164Y94425D02*
X100149D01*
X101164Y95441D01*
Y95695D01*
X100910Y95949D01*
X100402D01*
X100149Y95695D01*
X104323Y104099D02*
Y102575D01*
X105085D01*
X105338Y102829D01*
Y103845D01*
X105085Y104099D01*
X104323D01*
X105846Y102575D02*
X106354D01*
X106100D01*
Y104099D01*
X105846Y103845D01*
X103978Y87516D02*
X103724Y87262D01*
Y86754D01*
X103978Y86500D01*
X104994D01*
X105248Y86754D01*
Y87262D01*
X104994Y87516D01*
X105248Y89039D02*
Y88023D01*
X104232Y89039D01*
X103978D01*
X103724Y88785D01*
Y88277D01*
X103978Y88023D01*
X101530Y87516D02*
X101276Y87262D01*
Y86754D01*
X101530Y86500D01*
X102546D01*
X102800Y86754D01*
Y87262D01*
X102546Y87516D01*
X102800Y88023D02*
Y88531D01*
Y88277D01*
X101276D01*
X101530Y88023D01*
X158405Y87516D02*
X158151Y87262D01*
Y86754D01*
X158405Y86500D01*
X159421D01*
X159675Y86754D01*
Y87262D01*
X159421Y87516D01*
X159675Y88023D02*
Y88531D01*
Y88277D01*
X158151D01*
X158405Y88023D01*
X159675Y90055D02*
X158151D01*
X158913Y89293D01*
Y90309D01*
X156305Y87516D02*
X156051Y87262D01*
Y86754D01*
X156305Y86500D01*
X157321D01*
X157575Y86754D01*
Y87262D01*
X157321Y87516D01*
X157575Y88023D02*
Y88531D01*
Y88277D01*
X156051D01*
X156305Y88023D01*
Y89293D02*
X156051Y89547D01*
Y90055D01*
X156305Y90309D01*
X156559D01*
X156813Y90055D01*
Y89801D01*
Y90055D01*
X157067Y90309D01*
X157321D01*
X157575Y90055D01*
Y89547D01*
X157321Y89293D01*
X154155Y87516D02*
X153901Y87262D01*
Y86754D01*
X154155Y86500D01*
X155171D01*
X155425Y86754D01*
Y87262D01*
X155171Y87516D01*
X155425Y88023D02*
Y88531D01*
Y88277D01*
X153901D01*
X154155Y88023D01*
X155425Y90309D02*
Y89293D01*
X154409Y90309D01*
X154155D01*
X153901Y90055D01*
Y89547D01*
X154155Y89293D01*
X151705Y87516D02*
X151451Y87262D01*
Y86754D01*
X151705Y86500D01*
X152721D01*
X152975Y86754D01*
Y87262D01*
X152721Y87516D01*
X152975Y88023D02*
Y88531D01*
Y88277D01*
X151451D01*
X151705Y88023D01*
X152975Y89293D02*
Y89801D01*
Y89547D01*
X151451D01*
X151705Y89293D01*
X146605Y87516D02*
X146351Y87262D01*
Y86754D01*
X146605Y86500D01*
X147621D01*
X147875Y86754D01*
Y87262D01*
X147621Y87516D01*
X147875Y88023D02*
Y88531D01*
Y88277D01*
X146351D01*
X146605Y88023D01*
Y89293D02*
X146351Y89547D01*
Y90055D01*
X146605Y90309D01*
X147621D01*
X147875Y90055D01*
Y89547D01*
X147621Y89293D01*
X146605D01*
X144188Y87516D02*
X143935Y87262D01*
Y86754D01*
X144188Y86500D01*
X145204D01*
X145458Y86754D01*
Y87262D01*
X145204Y87516D01*
Y88023D02*
X145458Y88277D01*
Y88785D01*
X145204Y89039D01*
X144188D01*
X143935Y88785D01*
Y88277D01*
X144188Y88023D01*
X144442D01*
X144696Y88277D01*
Y89039D01*
X136930Y87516D02*
X136676Y87262D01*
Y86754D01*
X136930Y86500D01*
X137946D01*
X138200Y86754D01*
Y87262D01*
X137946Y87516D01*
X136930Y88023D02*
X136676Y88277D01*
Y88785D01*
X136930Y89039D01*
X137184D01*
X137438Y88785D01*
X137692Y89039D01*
X137946D01*
X138200Y88785D01*
Y88277D01*
X137946Y88023D01*
X137692D01*
X137438Y88277D01*
X137184Y88023D01*
X136930D01*
X137438Y88277D02*
Y88785D01*
X134530Y87516D02*
X134276Y87262D01*
Y86754D01*
X134530Y86500D01*
X135546D01*
X135800Y86754D01*
Y87262D01*
X135546Y87516D01*
X134276Y88023D02*
Y89039D01*
X134530D01*
X135546Y88023D01*
X135800D01*
X126030Y87516D02*
X125776Y87262D01*
Y86754D01*
X126030Y86500D01*
X127046D01*
X127300Y86754D01*
Y87262D01*
X127046Y87516D01*
X125776Y89039D02*
X126030Y88531D01*
X126538Y88023D01*
X127046D01*
X127300Y88277D01*
Y88785D01*
X127046Y89039D01*
X126792D01*
X126538Y88785D01*
Y88023D01*
X123680Y87516D02*
X123426Y87262D01*
Y86754D01*
X123680Y86500D01*
X124696D01*
X124950Y86754D01*
Y87262D01*
X124696Y87516D01*
X123426Y89039D02*
Y88023D01*
X124188D01*
X123934Y88531D01*
Y88785D01*
X124188Y89039D01*
X124696D01*
X124950Y88785D01*
Y88277D01*
X124696Y88023D01*
X115130Y87516D02*
X114876Y87262D01*
Y86754D01*
X115130Y86500D01*
X116146D01*
X116400Y86754D01*
Y87262D01*
X116146Y87516D01*
X116400Y88785D02*
X114876D01*
X115638Y88023D01*
Y89039D01*
X112480Y87516D02*
X112226Y87262D01*
Y86754D01*
X112480Y86500D01*
X113496D01*
X113750Y86754D01*
Y87262D01*
X113496Y87516D01*
X112480Y88023D02*
X112226Y88277D01*
Y88785D01*
X112480Y89039D01*
X112734D01*
X112988Y88785D01*
Y88531D01*
Y88785D01*
X113242Y89039D01*
X113496D01*
X113750Y88785D01*
Y88277D01*
X113496Y88023D01*
X81000Y157000D02*
X86000D01*
Y162000D01*
X81000D02*
X86000D01*
X81000Y157000D02*
Y162000D01*
X27075Y154107D02*
Y172107D01*
X79075D01*
X27075Y154107D02*
X79075D01*
Y172107D01*
X37052Y151552D02*
X37909D01*
X38195Y151647D01*
X38290Y151743D01*
X38386Y151933D01*
Y152219D01*
X38290Y152409D01*
X38195Y152504D01*
X37909Y152600D01*
X37052D01*
Y150600D01*
X40261Y152123D02*
X40166Y152314D01*
X39976Y152504D01*
X39785Y152600D01*
X39404D01*
X39214Y152504D01*
X39023Y152314D01*
X38928Y152123D01*
X38833Y151838D01*
Y151362D01*
X38928Y151076D01*
X39023Y150886D01*
X39214Y150695D01*
X39404Y150600D01*
X39785D01*
X39976Y150695D01*
X40166Y150886D01*
X40261Y151076D01*
X40823Y152600D02*
Y150600D01*
Y152600D02*
X41680D01*
X41966Y152504D01*
X42061Y152409D01*
X42156Y152219D01*
Y152028D01*
X42061Y151838D01*
X41966Y151743D01*
X41680Y151647D01*
X40823D02*
X41680D01*
X41966Y151552D01*
X42061Y151457D01*
X42156Y151267D01*
Y150981D01*
X42061Y150790D01*
X41966Y150695D01*
X41680Y150600D01*
X40823D01*
X42699Y151933D02*
X42604Y151838D01*
X42699Y151743D01*
X42794Y151838D01*
X42699Y151933D01*
Y150790D02*
X42604Y150695D01*
X42699Y150600D01*
X42794Y150695D01*
X42699Y150790D01*
X44803Y152219D02*
X44994Y152314D01*
X45279Y152600D01*
Y150600D01*
X46841Y152600D02*
X46555Y152504D01*
X46365Y152219D01*
X46270Y151743D01*
Y151457D01*
X46365Y150981D01*
X46555Y150695D01*
X46841Y150600D01*
X47031D01*
X47317Y150695D01*
X47507Y150981D01*
X47603Y151457D01*
Y151743D01*
X47507Y152219D01*
X47317Y152504D01*
X47031Y152600D01*
X46841D01*
X48050Y152219D02*
X48241Y152314D01*
X48526Y152600D01*
Y150600D01*
X49516Y152219D02*
X49707Y152314D01*
X49993Y152600D01*
Y150600D01*
X51173Y152600D02*
X52221D01*
X51649Y151838D01*
X51935D01*
X52125Y151743D01*
X52221Y151647D01*
X52316Y151362D01*
Y151171D01*
X52221Y150886D01*
X52030Y150695D01*
X51745Y150600D01*
X51459D01*
X51173Y150695D01*
X51078Y150790D01*
X50983Y150981D01*
X54287Y150600D02*
X53525Y152600D01*
X52763Y150600D01*
X53049Y151267D02*
X54001D01*
X54753Y152600D02*
Y150600D01*
Y152600D02*
X55610D01*
X55896Y152504D01*
X55991Y152409D01*
X56086Y152219D01*
Y152028D01*
X55991Y151838D01*
X55896Y151743D01*
X55610Y151647D01*
X54753D02*
X55610D01*
X55896Y151552D01*
X55991Y151457D01*
X56086Y151267D01*
Y150981D01*
X55991Y150790D01*
X55896Y150695D01*
X55610Y150600D01*
X54753D01*
X56534Y152600D02*
Y150600D01*
Y152600D02*
X57391D01*
X57677Y152504D01*
X57772Y152409D01*
X57867Y152219D01*
Y152028D01*
X57772Y151838D01*
X57677Y151743D01*
X57391Y151647D01*
X56534D02*
X57391D01*
X57677Y151552D01*
X57772Y151457D01*
X57867Y151267D01*
Y150981D01*
X57772Y150790D01*
X57677Y150695D01*
X57391Y150600D01*
X56534D01*
X58886Y152600D02*
X58600Y152504D01*
X58410Y152219D01*
X58315Y151743D01*
Y151457D01*
X58410Y150981D01*
X58600Y150695D01*
X58886Y150600D01*
X59076D01*
X59362Y150695D01*
X59552Y150981D01*
X59648Y151457D01*
Y151743D01*
X59552Y152219D01*
X59362Y152504D01*
X59076Y152600D01*
X58886D01*
X60666D02*
X60381Y152504D01*
X60190Y152219D01*
X60095Y151743D01*
Y151457D01*
X60190Y150981D01*
X60381Y150695D01*
X60666Y150600D01*
X60857D01*
X61143Y150695D01*
X61333Y150981D01*
X61428Y151457D01*
Y151743D01*
X61333Y152219D01*
X61143Y152504D01*
X60857Y152600D01*
X60666D01*
X61876Y152219D02*
X62066Y152314D01*
X62352Y152600D01*
Y150600D01*
X64950Y176999D02*
X65966D01*
X65458D01*
Y175475D01*
X66474D02*
Y176999D01*
X67235D01*
X67489Y176745D01*
Y176237D01*
X67235Y175983D01*
X66474D01*
X67997Y176745D02*
X68251Y176999D01*
X68759D01*
X69013Y176745D01*
Y176491D01*
X68759Y176237D01*
X69013Y175983D01*
Y175729D01*
X68759Y175475D01*
X68251D01*
X67997Y175729D01*
Y175983D01*
X68251Y176237D01*
X67997Y176491D01*
Y176745D01*
X68251Y176237D02*
X68759D01*
X58300Y177049D02*
X59316D01*
X58808D01*
Y175525D01*
X59824D02*
Y177049D01*
X60585D01*
X60839Y176795D01*
Y176287D01*
X60585Y176033D01*
X59824D01*
X61347Y177049D02*
X62363D01*
Y176795D01*
X61347Y175779D01*
Y175525D01*
X51700Y176999D02*
X52716D01*
X52208D01*
Y175475D01*
X53224D02*
Y176999D01*
X53985D01*
X54239Y176745D01*
Y176237D01*
X53985Y175983D01*
X53224D01*
X55763Y176999D02*
X55255Y176745D01*
X54747Y176237D01*
Y175729D01*
X55001Y175475D01*
X55509D01*
X55763Y175729D01*
Y175983D01*
X55509Y176237D01*
X54747D01*
X43864Y176999D02*
X44880D01*
X44372D01*
Y175475D01*
X45388D02*
Y176999D01*
X46149D01*
X46403Y176745D01*
Y176237D01*
X46149Y175983D01*
X45388D01*
X47927Y176999D02*
X46911D01*
Y176237D01*
X47419Y176491D01*
X47673D01*
X47927Y176237D01*
Y175729D01*
X47673Y175475D01*
X47165D01*
X46911Y175729D01*
X27813Y125561D02*
X28829D01*
X28321D01*
Y124037D01*
X29337D02*
Y125561D01*
X30098D01*
X30352Y125307D01*
Y124799D01*
X30098Y124545D01*
X29337D01*
X31622Y124037D02*
Y125561D01*
X30860Y124799D01*
X31876D01*
X20541Y124810D02*
X21557D01*
X21049D01*
Y123286D01*
X22065D02*
Y124810D01*
X22826D01*
X23080Y124556D01*
Y124048D01*
X22826Y123794D01*
X22065D01*
X23588Y124556D02*
X23842Y124810D01*
X24350D01*
X24604Y124556D01*
Y124302D01*
X24350Y124048D01*
X24096D01*
X24350D01*
X24604Y123794D01*
Y123540D01*
X24350Y123286D01*
X23842D01*
X23588Y123540D01*
X41125Y124699D02*
X42141D01*
X41633D01*
Y123175D01*
X42649D02*
Y124699D01*
X43410D01*
X43664Y124445D01*
Y123937D01*
X43410Y123683D01*
X42649D01*
X45188Y123175D02*
X44172D01*
X45188Y124191D01*
Y124445D01*
X44934Y124699D01*
X44426D01*
X44172Y124445D01*
X36275Y124749D02*
X37291D01*
X36783D01*
Y123225D01*
X37799D02*
Y124749D01*
X38560D01*
X38814Y124495D01*
Y123987D01*
X38560Y123733D01*
X37799D01*
X39322Y123225D02*
X39830D01*
X39576D01*
Y124749D01*
X39322Y124495D01*
X23836Y172500D02*
Y174024D01*
X24597D01*
X24851Y173770D01*
Y173262D01*
X24597Y173008D01*
X23836D01*
X24343D02*
X24851Y172500D01*
X25359D02*
X25867D01*
X25613D01*
Y174024D01*
X25359Y173770D01*
X18025Y159816D02*
Y161339D01*
X18787D01*
X19041Y161086D01*
Y160578D01*
X18787Y160324D01*
X18025D01*
X18533D02*
X19041Y159816D01*
X20564D02*
X19549D01*
X20564Y160832D01*
Y161086D01*
X20310Y161339D01*
X19802D01*
X19549Y161086D01*
X35479Y177867D02*
X34971D01*
X35225D01*
Y176597D01*
X34971Y176343D01*
X34717D01*
X34463Y176597D01*
X37002Y176343D02*
X35987D01*
X37002Y177359D01*
Y177613D01*
X36748Y177867D01*
X36241D01*
X35987Y177613D01*
X12362Y147670D02*
X11854D01*
X12108D01*
Y146400D01*
X11854Y146146D01*
X11600D01*
X11346Y146400D01*
X12870Y146146D02*
X13377D01*
X13124D01*
Y147670D01*
X12870Y147416D01*
X18125Y156449D02*
Y154925D01*
X18887D01*
X19141Y155179D01*
Y156195D01*
X18887Y156449D01*
X18125D01*
X20664Y154925D02*
X19649D01*
X20664Y155941D01*
Y156195D01*
X20410Y156449D01*
X19902D01*
X19649Y156195D01*
X23823Y164599D02*
Y163075D01*
X24585D01*
X24838Y163329D01*
Y164345D01*
X24585Y164599D01*
X23823D01*
X25346Y163075D02*
X25854D01*
X25600D01*
Y164599D01*
X25346Y164345D01*
X23478Y148016D02*
X23224Y147762D01*
Y147254D01*
X23478Y147000D01*
X24494D01*
X24748Y147254D01*
Y147762D01*
X24494Y148016D01*
X24748Y149539D02*
Y148524D01*
X23732Y149539D01*
X23478D01*
X23224Y149285D01*
Y148777D01*
X23478Y148524D01*
X21030Y148016D02*
X20776Y147762D01*
Y147254D01*
X21030Y147000D01*
X22046D01*
X22300Y147254D01*
Y147762D01*
X22046Y148016D01*
X22300Y148524D02*
Y149031D01*
Y148777D01*
X20776D01*
X21030Y148524D01*
X77905Y148016D02*
X77651Y147762D01*
Y147254D01*
X77905Y147000D01*
X78921D01*
X79175Y147254D01*
Y147762D01*
X78921Y148016D01*
X79175Y148524D02*
Y149031D01*
Y148777D01*
X77651D01*
X77905Y148524D01*
X79175Y150555D02*
X77651D01*
X78413Y149793D01*
Y150809D01*
X75805Y148016D02*
X75551Y147762D01*
Y147254D01*
X75805Y147000D01*
X76821D01*
X77075Y147254D01*
Y147762D01*
X76821Y148016D01*
X77075Y148524D02*
Y149031D01*
Y148777D01*
X75551D01*
X75805Y148524D01*
Y149793D02*
X75551Y150047D01*
Y150555D01*
X75805Y150809D01*
X76059D01*
X76313Y150555D01*
Y150301D01*
Y150555D01*
X76567Y150809D01*
X76821D01*
X77075Y150555D01*
Y150047D01*
X76821Y149793D01*
X73655Y148016D02*
X73401Y147762D01*
Y147254D01*
X73655Y147000D01*
X74671D01*
X74925Y147254D01*
Y147762D01*
X74671Y148016D01*
X74925Y148524D02*
Y149031D01*
Y148777D01*
X73401D01*
X73655Y148524D01*
X74925Y150809D02*
Y149793D01*
X73909Y150809D01*
X73655D01*
X73401Y150555D01*
Y150047D01*
X73655Y149793D01*
X71205Y148016D02*
X70951Y147762D01*
Y147254D01*
X71205Y147000D01*
X72221D01*
X72475Y147254D01*
Y147762D01*
X72221Y148016D01*
X72475Y148524D02*
Y149031D01*
Y148777D01*
X70951D01*
X71205Y148524D01*
X72475Y149793D02*
Y150301D01*
Y150047D01*
X70951D01*
X71205Y149793D01*
X66105Y148016D02*
X65851Y147762D01*
Y147254D01*
X66105Y147000D01*
X67121D01*
X67375Y147254D01*
Y147762D01*
X67121Y148016D01*
X67375Y148524D02*
Y149031D01*
Y148777D01*
X65851D01*
X66105Y148524D01*
Y149793D02*
X65851Y150047D01*
Y150555D01*
X66105Y150809D01*
X67121D01*
X67375Y150555D01*
Y150047D01*
X67121Y149793D01*
X66105D01*
X63688Y148016D02*
X63435Y147762D01*
Y147254D01*
X63688Y147000D01*
X64704D01*
X64958Y147254D01*
Y147762D01*
X64704Y148016D01*
Y148524D02*
X64958Y148777D01*
Y149285D01*
X64704Y149539D01*
X63688D01*
X63435Y149285D01*
Y148777D01*
X63688Y148524D01*
X63942D01*
X64196Y148777D01*
Y149539D01*
X56430Y148016D02*
X56176Y147762D01*
Y147254D01*
X56430Y147000D01*
X57446D01*
X57700Y147254D01*
Y147762D01*
X57446Y148016D01*
X56430Y148524D02*
X56176Y148777D01*
Y149285D01*
X56430Y149539D01*
X56684D01*
X56938Y149285D01*
X57192Y149539D01*
X57446D01*
X57700Y149285D01*
Y148777D01*
X57446Y148524D01*
X57192D01*
X56938Y148777D01*
X56684Y148524D01*
X56430D01*
X56938Y148777D02*
Y149285D01*
X54030Y148016D02*
X53776Y147762D01*
Y147254D01*
X54030Y147000D01*
X55046D01*
X55300Y147254D01*
Y147762D01*
X55046Y148016D01*
X53776Y148524D02*
Y149539D01*
X54030D01*
X55046Y148524D01*
X55300D01*
X45530Y148016D02*
X45276Y147762D01*
Y147254D01*
X45530Y147000D01*
X46546D01*
X46800Y147254D01*
Y147762D01*
X46546Y148016D01*
X45276Y149539D02*
X45530Y149031D01*
X46038Y148524D01*
X46546D01*
X46800Y148777D01*
Y149285D01*
X46546Y149539D01*
X46292D01*
X46038Y149285D01*
Y148524D01*
X43180Y148016D02*
X42926Y147762D01*
Y147254D01*
X43180Y147000D01*
X44196D01*
X44450Y147254D01*
Y147762D01*
X44196Y148016D01*
X42926Y149539D02*
Y148524D01*
X43688D01*
X43434Y149031D01*
Y149285D01*
X43688Y149539D01*
X44196D01*
X44450Y149285D01*
Y148777D01*
X44196Y148524D01*
X34630Y148016D02*
X34376Y147762D01*
Y147254D01*
X34630Y147000D01*
X35646D01*
X35900Y147254D01*
Y147762D01*
X35646Y148016D01*
X35900Y149285D02*
X34376D01*
X35138Y148524D01*
Y149539D01*
X31980Y148016D02*
X31726Y147762D01*
Y147254D01*
X31980Y147000D01*
X32996D01*
X33250Y147254D01*
Y147762D01*
X32996Y148016D01*
X31980Y148524D02*
X31726Y148777D01*
Y149285D01*
X31980Y149539D01*
X32234D01*
X32488Y149285D01*
Y149031D01*
Y149285D01*
X32742Y149539D01*
X32996D01*
X33250Y149285D01*
Y148777D01*
X32996Y148524D01*
X161500Y157000D02*
X166500D01*
Y162000D01*
X161500D02*
X166500D01*
X161500Y157000D02*
Y162000D01*
X107575Y154107D02*
Y172107D01*
X159575D01*
X107575Y154107D02*
X159575D01*
Y172107D01*
X117552Y151552D02*
X118409D01*
X118695Y151647D01*
X118790Y151743D01*
X118886Y151933D01*
Y152219D01*
X118790Y152409D01*
X118695Y152504D01*
X118409Y152600D01*
X117552D01*
Y150600D01*
X120761Y152123D02*
X120666Y152314D01*
X120476Y152504D01*
X120285Y152600D01*
X119904D01*
X119714Y152504D01*
X119523Y152314D01*
X119428Y152123D01*
X119333Y151838D01*
Y151362D01*
X119428Y151076D01*
X119523Y150886D01*
X119714Y150695D01*
X119904Y150600D01*
X120285D01*
X120476Y150695D01*
X120666Y150886D01*
X120761Y151076D01*
X121323Y152600D02*
Y150600D01*
Y152600D02*
X122180D01*
X122466Y152504D01*
X122561Y152409D01*
X122656Y152219D01*
Y152028D01*
X122561Y151838D01*
X122466Y151743D01*
X122180Y151647D01*
X121323D02*
X122180D01*
X122466Y151552D01*
X122561Y151457D01*
X122656Y151267D01*
Y150981D01*
X122561Y150790D01*
X122466Y150695D01*
X122180Y150600D01*
X121323D01*
X123199Y151933D02*
X123104Y151838D01*
X123199Y151743D01*
X123294Y151838D01*
X123199Y151933D01*
Y150790D02*
X123104Y150695D01*
X123199Y150600D01*
X123294Y150695D01*
X123199Y150790D01*
X125303Y152219D02*
X125494Y152314D01*
X125779Y152600D01*
Y150600D01*
X127341Y152600D02*
X127055Y152504D01*
X126865Y152219D01*
X126770Y151743D01*
Y151457D01*
X126865Y150981D01*
X127055Y150695D01*
X127341Y150600D01*
X127531D01*
X127817Y150695D01*
X128007Y150981D01*
X128103Y151457D01*
Y151743D01*
X128007Y152219D01*
X127817Y152504D01*
X127531Y152600D01*
X127341D01*
X128550Y152219D02*
X128741Y152314D01*
X129026Y152600D01*
Y150600D01*
X130016Y152219D02*
X130207Y152314D01*
X130493Y152600D01*
Y150600D01*
X131673Y152600D02*
X132721D01*
X132149Y151838D01*
X132435D01*
X132625Y151743D01*
X132721Y151647D01*
X132816Y151362D01*
Y151171D01*
X132721Y150886D01*
X132530Y150695D01*
X132245Y150600D01*
X131959D01*
X131673Y150695D01*
X131578Y150790D01*
X131483Y150981D01*
X134787Y150600D02*
X134025Y152600D01*
X133263Y150600D01*
X133549Y151267D02*
X134501D01*
X135253Y152600D02*
Y150600D01*
Y152600D02*
X136110D01*
X136396Y152504D01*
X136491Y152409D01*
X136586Y152219D01*
Y152028D01*
X136491Y151838D01*
X136396Y151743D01*
X136110Y151647D01*
X135253D02*
X136110D01*
X136396Y151552D01*
X136491Y151457D01*
X136586Y151267D01*
Y150981D01*
X136491Y150790D01*
X136396Y150695D01*
X136110Y150600D01*
X135253D01*
X137034Y152600D02*
Y150600D01*
Y152600D02*
X137891D01*
X138177Y152504D01*
X138272Y152409D01*
X138367Y152219D01*
Y152028D01*
X138272Y151838D01*
X138177Y151743D01*
X137891Y151647D01*
X137034D02*
X137891D01*
X138177Y151552D01*
X138272Y151457D01*
X138367Y151267D01*
Y150981D01*
X138272Y150790D01*
X138177Y150695D01*
X137891Y150600D01*
X137034D01*
X139386Y152600D02*
X139100Y152504D01*
X138910Y152219D01*
X138815Y151743D01*
Y151457D01*
X138910Y150981D01*
X139100Y150695D01*
X139386Y150600D01*
X139576D01*
X139862Y150695D01*
X140052Y150981D01*
X140148Y151457D01*
Y151743D01*
X140052Y152219D01*
X139862Y152504D01*
X139576Y152600D01*
X139386D01*
X141166D02*
X140881Y152504D01*
X140690Y152219D01*
X140595Y151743D01*
Y151457D01*
X140690Y150981D01*
X140881Y150695D01*
X141166Y150600D01*
X141357D01*
X141643Y150695D01*
X141833Y150981D01*
X141928Y151457D01*
Y151743D01*
X141833Y152219D01*
X141643Y152504D01*
X141357Y152600D01*
X141166D01*
X142376Y152219D02*
X142566Y152314D01*
X142852Y152600D01*
Y150600D01*
X145450Y176999D02*
X146466D01*
X145958D01*
Y175475D01*
X146974D02*
Y176999D01*
X147735D01*
X147989Y176745D01*
Y176237D01*
X147735Y175983D01*
X146974D01*
X148497Y176745D02*
X148751Y176999D01*
X149259D01*
X149513Y176745D01*
Y176491D01*
X149259Y176237D01*
X149513Y175983D01*
Y175729D01*
X149259Y175475D01*
X148751D01*
X148497Y175729D01*
Y175983D01*
X148751Y176237D01*
X148497Y176491D01*
Y176745D01*
X148751Y176237D02*
X149259D01*
X138800Y177049D02*
X139816D01*
X139308D01*
Y175525D01*
X140324D02*
Y177049D01*
X141085D01*
X141339Y176795D01*
Y176287D01*
X141085Y176033D01*
X140324D01*
X141847Y177049D02*
X142863D01*
Y176795D01*
X141847Y175779D01*
Y175525D01*
X132200Y176999D02*
X133216D01*
X132708D01*
Y175475D01*
X133724D02*
Y176999D01*
X134485D01*
X134739Y176745D01*
Y176237D01*
X134485Y175983D01*
X133724D01*
X136263Y176999D02*
X135755Y176745D01*
X135247Y176237D01*
Y175729D01*
X135501Y175475D01*
X136009D01*
X136263Y175729D01*
Y175983D01*
X136009Y176237D01*
X135247D01*
X124364Y176999D02*
X125380D01*
X124872D01*
Y175475D01*
X125888D02*
Y176999D01*
X126649D01*
X126903Y176745D01*
Y176237D01*
X126649Y175983D01*
X125888D01*
X128427Y176999D02*
X127411D01*
Y176237D01*
X127919Y176491D01*
X128173D01*
X128427Y176237D01*
Y175729D01*
X128173Y175475D01*
X127665D01*
X127411Y175729D01*
X108313Y125561D02*
X109329D01*
X108821D01*
Y124037D01*
X109837D02*
Y125561D01*
X110598D01*
X110852Y125307D01*
Y124799D01*
X110598Y124545D01*
X109837D01*
X112122Y124037D02*
Y125561D01*
X111360Y124799D01*
X112376D01*
X101041Y124810D02*
X102057D01*
X101549D01*
Y123286D01*
X102565D02*
Y124810D01*
X103326D01*
X103580Y124556D01*
Y124048D01*
X103326Y123794D01*
X102565D01*
X104088Y124556D02*
X104342Y124810D01*
X104850D01*
X105104Y124556D01*
Y124302D01*
X104850Y124048D01*
X104596D01*
X104850D01*
X105104Y123794D01*
Y123540D01*
X104850Y123286D01*
X104342D01*
X104088Y123540D01*
X121625Y124699D02*
X122641D01*
X122133D01*
Y123175D01*
X123149D02*
Y124699D01*
X123910D01*
X124164Y124445D01*
Y123937D01*
X123910Y123683D01*
X123149D01*
X125688Y123175D02*
X124672D01*
X125688Y124191D01*
Y124445D01*
X125434Y124699D01*
X124926D01*
X124672Y124445D01*
X116775Y124749D02*
X117791D01*
X117283D01*
Y123225D01*
X118299D02*
Y124749D01*
X119060D01*
X119314Y124495D01*
Y123987D01*
X119060Y123733D01*
X118299D01*
X119822Y123225D02*
X120330D01*
X120076D01*
Y124749D01*
X119822Y124495D01*
X104336Y172500D02*
Y174024D01*
X105097D01*
X105351Y173770D01*
Y173262D01*
X105097Y173008D01*
X104336D01*
X104843D02*
X105351Y172500D01*
X105859D02*
X106367D01*
X106113D01*
Y174024D01*
X105859Y173770D01*
X98525Y159816D02*
Y161339D01*
X99287D01*
X99541Y161086D01*
Y160578D01*
X99287Y160324D01*
X98525D01*
X99033D02*
X99541Y159816D01*
X101064D02*
X100049D01*
X101064Y160832D01*
Y161086D01*
X100810Y161339D01*
X100302D01*
X100049Y161086D01*
X115979Y177867D02*
X115471D01*
X115725D01*
Y176597D01*
X115471Y176343D01*
X115217D01*
X114963Y176597D01*
X117502Y176343D02*
X116487D01*
X117502Y177359D01*
Y177613D01*
X117248Y177867D01*
X116741D01*
X116487Y177613D01*
X92862Y147670D02*
X92354D01*
X92608D01*
Y146400D01*
X92354Y146146D01*
X92100D01*
X91846Y146400D01*
X93370Y146146D02*
X93877D01*
X93624D01*
Y147670D01*
X93370Y147416D01*
X98625Y156449D02*
Y154925D01*
X99387D01*
X99641Y155179D01*
Y156195D01*
X99387Y156449D01*
X98625D01*
X101164Y154925D02*
X100149D01*
X101164Y155941D01*
Y156195D01*
X100910Y156449D01*
X100402D01*
X100149Y156195D01*
X104323Y164599D02*
Y163075D01*
X105085D01*
X105338Y163329D01*
Y164345D01*
X105085Y164599D01*
X104323D01*
X105846Y163075D02*
X106354D01*
X106100D01*
Y164599D01*
X105846Y164345D01*
X103978Y148016D02*
X103724Y147762D01*
Y147254D01*
X103978Y147000D01*
X104994D01*
X105248Y147254D01*
Y147762D01*
X104994Y148016D01*
X105248Y149539D02*
Y148524D01*
X104232Y149539D01*
X103978D01*
X103724Y149285D01*
Y148777D01*
X103978Y148524D01*
X101530Y148016D02*
X101276Y147762D01*
Y147254D01*
X101530Y147000D01*
X102546D01*
X102800Y147254D01*
Y147762D01*
X102546Y148016D01*
X102800Y148524D02*
Y149031D01*
Y148777D01*
X101276D01*
X101530Y148524D01*
X158405Y148016D02*
X158151Y147762D01*
Y147254D01*
X158405Y147000D01*
X159421D01*
X159675Y147254D01*
Y147762D01*
X159421Y148016D01*
X159675Y148524D02*
Y149031D01*
Y148777D01*
X158151D01*
X158405Y148524D01*
X159675Y150555D02*
X158151D01*
X158913Y149793D01*
Y150809D01*
X156305Y148016D02*
X156051Y147762D01*
Y147254D01*
X156305Y147000D01*
X157321D01*
X157575Y147254D01*
Y147762D01*
X157321Y148016D01*
X157575Y148524D02*
Y149031D01*
Y148777D01*
X156051D01*
X156305Y148524D01*
Y149793D02*
X156051Y150047D01*
Y150555D01*
X156305Y150809D01*
X156559D01*
X156813Y150555D01*
Y150301D01*
Y150555D01*
X157067Y150809D01*
X157321D01*
X157575Y150555D01*
Y150047D01*
X157321Y149793D01*
X154155Y148016D02*
X153901Y147762D01*
Y147254D01*
X154155Y147000D01*
X155171D01*
X155425Y147254D01*
Y147762D01*
X155171Y148016D01*
X155425Y148524D02*
Y149031D01*
Y148777D01*
X153901D01*
X154155Y148524D01*
X155425Y150809D02*
Y149793D01*
X154409Y150809D01*
X154155D01*
X153901Y150555D01*
Y150047D01*
X154155Y149793D01*
X151705Y148016D02*
X151451Y147762D01*
Y147254D01*
X151705Y147000D01*
X152721D01*
X152975Y147254D01*
Y147762D01*
X152721Y148016D01*
X152975Y148524D02*
Y149031D01*
Y148777D01*
X151451D01*
X151705Y148524D01*
X152975Y149793D02*
Y150301D01*
Y150047D01*
X151451D01*
X151705Y149793D01*
X146605Y148016D02*
X146351Y147762D01*
Y147254D01*
X146605Y147000D01*
X147621D01*
X147875Y147254D01*
Y147762D01*
X147621Y148016D01*
X147875Y148524D02*
Y149031D01*
Y148777D01*
X146351D01*
X146605Y148524D01*
Y149793D02*
X146351Y150047D01*
Y150555D01*
X146605Y150809D01*
X147621D01*
X147875Y150555D01*
Y150047D01*
X147621Y149793D01*
X146605D01*
X144188Y148016D02*
X143935Y147762D01*
Y147254D01*
X144188Y147000D01*
X145204D01*
X145458Y147254D01*
Y147762D01*
X145204Y148016D01*
Y148524D02*
X145458Y148777D01*
Y149285D01*
X145204Y149539D01*
X144188D01*
X143935Y149285D01*
Y148777D01*
X144188Y148524D01*
X144442D01*
X144696Y148777D01*
Y149539D01*
X136930Y148016D02*
X136676Y147762D01*
Y147254D01*
X136930Y147000D01*
X137946D01*
X138200Y147254D01*
Y147762D01*
X137946Y148016D01*
X136930Y148524D02*
X136676Y148777D01*
Y149285D01*
X136930Y149539D01*
X137184D01*
X137438Y149285D01*
X137692Y149539D01*
X137946D01*
X138200Y149285D01*
Y148777D01*
X137946Y148524D01*
X137692D01*
X137438Y148777D01*
X137184Y148524D01*
X136930D01*
X137438Y148777D02*
Y149285D01*
X134530Y148016D02*
X134276Y147762D01*
Y147254D01*
X134530Y147000D01*
X135546D01*
X135800Y147254D01*
Y147762D01*
X135546Y148016D01*
X134276Y148524D02*
Y149539D01*
X134530D01*
X135546Y148524D01*
X135800D01*
X126030Y148016D02*
X125776Y147762D01*
Y147254D01*
X126030Y147000D01*
X127046D01*
X127300Y147254D01*
Y147762D01*
X127046Y148016D01*
X125776Y149539D02*
X126030Y149031D01*
X126538Y148524D01*
X127046D01*
X127300Y148777D01*
Y149285D01*
X127046Y149539D01*
X126792D01*
X126538Y149285D01*
Y148524D01*
X123680Y148016D02*
X123426Y147762D01*
Y147254D01*
X123680Y147000D01*
X124696D01*
X124950Y147254D01*
Y147762D01*
X124696Y148016D01*
X123426Y149539D02*
Y148524D01*
X124188D01*
X123934Y149031D01*
Y149285D01*
X124188Y149539D01*
X124696D01*
X124950Y149285D01*
Y148777D01*
X124696Y148524D01*
X115130Y148016D02*
X114876Y147762D01*
Y147254D01*
X115130Y147000D01*
X116146D01*
X116400Y147254D01*
Y147762D01*
X116146Y148016D01*
X116400Y149285D02*
X114876D01*
X115638Y148524D01*
Y149539D01*
X112480Y148016D02*
X112226Y147762D01*
Y147254D01*
X112480Y147000D01*
X113496D01*
X113750Y147254D01*
Y147762D01*
X113496Y148016D01*
X112480Y148524D02*
X112226Y148777D01*
Y149285D01*
X112480Y149539D01*
X112734D01*
X112988Y149285D01*
Y149031D01*
Y149285D01*
X113242Y149539D01*
X113496D01*
X113750Y149285D01*
Y148777D01*
X113496Y148524D01*
D27*
X163250Y40197D02*
Y37150D01*
Y40197D02*
X165136D01*
X163250Y38746D02*
X164411D01*
X84136Y40197D02*
X82250D01*
Y37150D01*
X84136D01*
X82250Y38746D02*
X83411D01*
X163250Y100597D02*
Y97550D01*
Y100597D02*
X164266D01*
X164701Y100452D01*
X164991Y100162D01*
X165136Y99872D01*
X165282Y99436D01*
Y98711D01*
X165136Y98276D01*
X164991Y97985D01*
X164701Y97695D01*
X164266Y97550D01*
X163250D01*
X84427Y99872D02*
X84282Y100162D01*
X83991Y100452D01*
X83701Y100597D01*
X83121D01*
X82830Y100452D01*
X82540Y100162D01*
X82395Y99872D01*
X82250Y99436D01*
Y98711D01*
X82395Y98276D01*
X82540Y97985D01*
X82830Y97695D01*
X83121Y97550D01*
X83701D01*
X83991Y97695D01*
X84282Y97985D01*
X84427Y98276D01*
X163250Y161297D02*
Y158250D01*
Y161297D02*
X164556D01*
X164991Y161152D01*
X165136Y161007D01*
X165282Y160717D01*
Y160427D01*
X165136Y160136D01*
X164991Y159991D01*
X164556Y159846D01*
X163250D02*
X164556D01*
X164991Y159701D01*
X165136Y159556D01*
X165282Y159266D01*
Y158830D01*
X165136Y158540D01*
X164991Y158395D01*
X164556Y158250D01*
X163250D01*
X84572D02*
X83411Y161297D01*
X82250Y158250D01*
X82685Y159266D02*
X84136D01*
D28*
X18464Y8305D02*
G03*
X18464Y8305I-100J0D01*
G01*
X98964D02*
G03*
X98964Y8305I-100J0D01*
G01*
X18464Y68805D02*
G03*
X18464Y68805I-100J0D01*
G01*
X98964D02*
G03*
X98964Y68805I-100J0D01*
G01*
X18464Y129305D02*
G03*
X18464Y129305I-100J0D01*
G01*
X98964D02*
G03*
X98964Y129305I-100J0D01*
G01*
D29*
X23687Y45962D02*
G03*
X23687Y45962I-127J0D01*
G01*
X21851Y33787D02*
G03*
X21851Y33787I-127J0D01*
G01*
X23611Y46808D02*
Y47416D01*
X25140Y46414D02*
X25486D01*
X26609Y46808D02*
Y47416D01*
X24734Y47811D02*
X25486D01*
X21775Y34633D02*
Y35241D01*
X23304Y34239D02*
X23650D01*
X24773Y34633D02*
Y35241D01*
X22898Y35636D02*
X23650D01*
X104187Y45962D02*
G03*
X104187Y45962I-127J0D01*
G01*
X102351Y33787D02*
G03*
X102351Y33787I-127J0D01*
G01*
X104111Y46808D02*
Y47416D01*
X105640Y46414D02*
X105986D01*
X107109Y46808D02*
Y47416D01*
X105234Y47811D02*
X105986D01*
X102275Y34633D02*
Y35241D01*
X103804Y34239D02*
X104150D01*
X105273Y34633D02*
Y35241D01*
X103398Y35636D02*
X104150D01*
X23687Y106462D02*
G03*
X23687Y106462I-127J0D01*
G01*
X21851Y94287D02*
G03*
X21851Y94287I-127J0D01*
G01*
X23611Y107308D02*
Y107916D01*
X25140Y106913D02*
X25486D01*
X26609Y107308D02*
Y107916D01*
X24734Y108311D02*
X25486D01*
X21775Y95133D02*
Y95741D01*
X23304Y94739D02*
X23650D01*
X24773Y95133D02*
Y95741D01*
X22898Y96136D02*
X23650D01*
X104187Y106462D02*
G03*
X104187Y106462I-127J0D01*
G01*
X102351Y94287D02*
G03*
X102351Y94287I-127J0D01*
G01*
X104111Y107308D02*
Y107916D01*
X105640Y106913D02*
X105986D01*
X107109Y107308D02*
Y107916D01*
X105234Y108311D02*
X105986D01*
X102275Y95133D02*
Y95741D01*
X103804Y94739D02*
X104150D01*
X105273Y95133D02*
Y95741D01*
X103398Y96136D02*
X104150D01*
X23687Y166962D02*
G03*
X23687Y166962I-127J0D01*
G01*
X21851Y154787D02*
G03*
X21851Y154787I-127J0D01*
G01*
X23611Y167808D02*
Y168416D01*
X25140Y167413D02*
X25486D01*
X26609Y167808D02*
Y168416D01*
X24734Y168811D02*
X25486D01*
X21775Y155633D02*
Y156241D01*
X23304Y155239D02*
X23650D01*
X24773Y155633D02*
Y156241D01*
X22898Y156636D02*
X23650D01*
X104187Y166962D02*
G03*
X104187Y166962I-127J0D01*
G01*
X102351Y154787D02*
G03*
X102351Y154787I-127J0D01*
G01*
X104111Y167808D02*
Y168416D01*
X105640Y167413D02*
X105986D01*
X107109Y167808D02*
Y168416D01*
X105234Y168811D02*
X105986D01*
X102275Y155633D02*
Y156241D01*
X103804Y155239D02*
X104150D01*
X105273Y155633D02*
Y156241D01*
X103398Y156636D02*
X104150D01*
D30*
X30264Y8905D02*
X33464D01*
X30564Y17605D02*
X33764D01*
X81864Y8905D02*
X85564D01*
Y31205D01*
X81464D02*
X85564D01*
X14464Y8905D02*
X17864D01*
X14464D02*
Y31205D01*
X18564D01*
Y28525D02*
Y31205D01*
X81464Y28525D02*
Y31205D01*
X110764Y8905D02*
X113964D01*
X111064Y17605D02*
X114264D01*
X162364Y8905D02*
X166064D01*
Y31205D01*
X161964D02*
X166064D01*
X94964Y8905D02*
X98364D01*
X94964D02*
Y31205D01*
X99064D01*
Y28525D02*
Y31205D01*
X161964Y28525D02*
Y31205D01*
X30264Y69405D02*
X33464D01*
X30564Y78105D02*
X33764D01*
X81864Y69405D02*
X85564D01*
Y91705D01*
X81464D02*
X85564D01*
X14464Y69405D02*
X17864D01*
X14464D02*
Y91705D01*
X18564D01*
Y89025D02*
Y91705D01*
X81464Y89025D02*
Y91705D01*
X110764Y69405D02*
X113964D01*
X111064Y78105D02*
X114264D01*
X162364Y69405D02*
X166064D01*
Y91705D01*
X161964D02*
X166064D01*
X94964Y69405D02*
X98364D01*
X94964D02*
Y91705D01*
X99064D01*
Y89025D02*
Y91705D01*
X161964Y89025D02*
Y91705D01*
X30264Y129905D02*
X33464D01*
X30564Y138605D02*
X33764D01*
X81864Y129905D02*
X85564D01*
Y152205D01*
X81464D02*
X85564D01*
X14464Y129905D02*
X17864D01*
X14464D02*
Y152205D01*
X18564D01*
Y149525D02*
Y152205D01*
X81464Y149525D02*
Y152205D01*
X110764Y129905D02*
X113964D01*
X111064Y138605D02*
X114264D01*
X162364Y129905D02*
X166064D01*
Y152205D01*
X161964D02*
X166064D01*
X94964Y129905D02*
X98364D01*
X94964D02*
Y152205D01*
X99064D01*
Y149525D02*
Y152205D01*
X161964Y149525D02*
Y152205D01*
D31*
X75769Y20332D02*
X76819D01*
X77528Y20312D02*
X79378D01*
X73239D02*
X75089D01*
X71539Y20332D02*
X72589D01*
X65647Y20312D02*
X67497D01*
X63958Y20332D02*
X65008D01*
X56139Y20312D02*
X57989D01*
X54179Y20332D02*
X55229D01*
X45270Y20312D02*
X47120D01*
X43511Y20332D02*
X44561D01*
X32335D02*
X33385D01*
X34101Y20312D02*
X35951D01*
X21148Y20332D02*
X22198D01*
X22898Y20312D02*
X24748D01*
X156269Y20332D02*
X157319D01*
X158028Y20312D02*
X159878D01*
X153739D02*
X155589D01*
X152039Y20332D02*
X153089D01*
X146147Y20312D02*
X147997D01*
X144458Y20332D02*
X145508D01*
X136639Y20312D02*
X138489D01*
X134679Y20332D02*
X135729D01*
X125770Y20312D02*
X127620D01*
X124011Y20332D02*
X125061D01*
X112835D02*
X113885D01*
X114601Y20312D02*
X116451D01*
X101648Y20332D02*
X102698D01*
X103398Y20312D02*
X105248D01*
X75769Y80832D02*
X76819D01*
X77528Y80812D02*
X79378D01*
X73239D02*
X75089D01*
X71539Y80832D02*
X72589D01*
X65647Y80812D02*
X67497D01*
X63958Y80832D02*
X65008D01*
X56139Y80812D02*
X57989D01*
X54179Y80832D02*
X55229D01*
X45270Y80812D02*
X47120D01*
X43511Y80832D02*
X44561D01*
X32335D02*
X33385D01*
X34101Y80812D02*
X35951D01*
X21148Y80832D02*
X22198D01*
X22898Y80812D02*
X24748D01*
X156269Y80832D02*
X157319D01*
X158028Y80812D02*
X159878D01*
X153739D02*
X155589D01*
X152039Y80832D02*
X153089D01*
X146147Y80812D02*
X147997D01*
X144458Y80832D02*
X145508D01*
X136639Y80812D02*
X138489D01*
X134679Y80832D02*
X135729D01*
X125770Y80812D02*
X127620D01*
X124011Y80832D02*
X125061D01*
X112835D02*
X113885D01*
X114601Y80812D02*
X116451D01*
X101648Y80832D02*
X102698D01*
X103398Y80812D02*
X105248D01*
X75769Y141332D02*
X76819D01*
X77528Y141312D02*
X79378D01*
X73239D02*
X75089D01*
X71539Y141332D02*
X72589D01*
X65647Y141312D02*
X67497D01*
X63958Y141332D02*
X65008D01*
X56139Y141312D02*
X57989D01*
X54179Y141332D02*
X55229D01*
X45270Y141312D02*
X47120D01*
X43511Y141332D02*
X44561D01*
X32335D02*
X33385D01*
X34101Y141312D02*
X35951D01*
X21148Y141332D02*
X22198D01*
X22898Y141312D02*
X24748D01*
X156269Y141332D02*
X157319D01*
X158028Y141312D02*
X159878D01*
X153739D02*
X155589D01*
X152039Y141332D02*
X153089D01*
X146147Y141312D02*
X147997D01*
X144458Y141332D02*
X145508D01*
X136639Y141312D02*
X138489D01*
X134679Y141332D02*
X135729D01*
X125770Y141312D02*
X127620D01*
X124011Y141332D02*
X125061D01*
X112835D02*
X113885D01*
X114601Y141312D02*
X116451D01*
X101648Y141332D02*
X102698D01*
X103398Y141312D02*
X105248D01*
M02*
