M48
;Layer_Color=9474304
;FILE_FORMAT=4:3
METRIC,TZ
;TYPE=PLATED
T1F00S00C0.254
T2F00S00C0.900
T3F00S00C3.000
;TYPE=NON_PLATED
T4F00S00C0.800
T5F00S00C1.200
T6F00S00C1.700
T7F00S00C3.000
%
T01
X131267Y7805
X134864
X132029Y11835
X139349Y12865
X140411
X141473
X142535
X143598
X144660
X146264Y7805
X156464
X161264
X161864
X127064
X127947Y12847
X121664Y11805
X119264Y11805
X117438Y12812
X114464Y7805
X110264
X101864
X101264
X106560Y13000
X81364Y7805
X80764
X75964
X65764
X64160Y12865
X63098
X62035
X60973
X59911
X58849
X51529Y11835
X50767Y7805
X54364
X46564
X47446Y12847
X41164Y11805
X38764Y11805
X36938Y12812
X33964Y7805
X29764
X21364
X20764
X26060Y13000
X24224Y14957
X21664Y19685
X20500
X21684Y24112
X20570Y25908
X22527Y32421
X24224
Y37453
X24363Y44596
X26060
X27560Y48128
X33495Y48993
X33594Y41782
X33686Y39404
X39191Y36384
Y32320
X39288Y28256
X44671Y24062
X48364Y25390
X46864Y19685
X44694Y13918
X33697Y13895
X34257Y19685
X33114Y24062
X46100Y33600
Y36800
Y39200
X45400Y43200
X46100Y44000
Y49600
X47913Y51943
X39191Y52324
X52164Y51943
X53900Y49603
Y47203
Y44803
Y40803
Y37603
X64564Y37453
X64610Y42386
X70071Y42008
Y33977
X72064Y24123
X76294Y24162
X78834Y26035
X80464Y21000
X81664
X81074Y19685
X79500
X78064Y19656
X77183Y19685
X76264
X75064
X71788Y14925
X69262Y15955
X66064Y19685
X63064
X64500Y24062
X54710Y24062
X53900Y26403
X54500Y19685
X51148Y21180
X80358Y15955
X80104Y14925
X104724Y14957
X102164Y19685
X101000
X102184Y24112
X101070Y25908
X103027Y32421
X104724
Y37453
X104863Y44596
X106560
X108060Y48128
X113995Y48993
X114094Y41782
X114186Y39404
X119691Y36384
Y32320
X119788Y28256
X125171Y24062
X128864Y25390
X127364Y19685
X125194Y13918
X114197Y13895
X114757Y19685
X113614Y24062
X126600Y33600
Y36800
Y39200
X125900Y43200
X126600Y44000
Y49600
X128413Y51943
X119691Y52324
X132664Y51943
X134400Y49603
Y47203
Y44803
Y40803
Y37603
X145064Y37453
X145110Y42386
X150571Y42008
Y33977
X152564Y24123
X156794Y24162
X159334Y26035
X160964Y21000
X162164
X161574Y19685
X160000
X158564Y19656
X157683Y19685
X156764
X155564
X152288Y14925
X149762Y15955
X146564Y19685
X143564
X145000Y24062
X135210Y24062
X134400Y26403
X135000Y19685
X131648Y21180
X160858Y15955
X160604Y14925
X161264Y68305
X161864
X156464
X146264
X144660Y73365
X143598
X142535
X141473
X140411
X139349
X132029Y72335
X131267Y68305
X134864
X135000Y80185
X135210Y84562
X134400Y86903
X131648Y81680
X143564Y80185
X146564
X145000Y84562
X152564Y84623
X156794Y84662
X159334Y86535
X160964Y81500
X162164
X161574Y80185
X160000
X158564Y80156
X157683Y80185
X156764
X155564
X152288Y75425
X149762Y76455
X160858
X160604Y75425
X127947Y73346
X125194Y74418
X121664Y72305
X119264Y72305
X117438Y73312
X114197Y74395
X114757Y80185
X113614Y84562
X119788Y88756
X119691Y92820
X125171Y84562
X128864Y85890
X127364Y80185
X127064Y68305
X114464
X110264
X101864
X101264
X106560Y73500
X104724Y75457
X102164Y80185
X101000
X102184Y84612
X101070Y86408
X103027Y92921
X104724
X78834Y86535
X76294Y84662
X72064Y84623
X75064Y80185
X76264
X77183
X78064Y80156
X79500Y80185
X81074
X81664Y81500
X80464
X80358Y76455
X80104Y75425
X80764Y68305
X81364
X75964
X65764
X64160Y73365
X63098
X62035
X60973
X59911
X58849
X51529Y72335
X50767Y68305
X54364
X54500Y80185
X54710Y84562
X53900Y86903
X51148Y81680
X63064Y80185
X66064
X64500Y84562
X69262Y76455
X71788Y75425
X47446Y73346
X44694Y74418
X41164Y72305
X38764Y72305
X36938Y73312
X33697Y74395
X34257Y80185
X33114Y84562
X39288Y88756
X39191Y92820
X44671Y84562
X48364Y85890
X46864Y80185
X46564Y68305
X33964
X29764
X21364
X20764
X26060Y73500
X24224Y75457
X21664Y80185
X20500
X21684Y84612
X20570Y86408
X22527Y92921
X24224
Y97953
X24363Y105096
X26060
X27560Y108628
X33495Y109493
X33594Y102282
X33686Y99905
X39191Y96884
X46100Y97300
Y99700
X45400Y103700
X46100Y104500
Y110100
X47913Y112443
X39191Y112824
X38764Y132805
X41164Y132805
X46564Y128805
X33964
X29764
X21364
X20764
X46100Y94100
X53900Y98103
Y101303
Y105303
Y107703
Y110103
X52164Y112443
X50767Y128805
X54364
X51529Y132835
X65764Y128805
X75964
X80764
X81364
X70071Y102508
X64610Y102886
X64564Y97953
X70071Y94477
X104724Y97953
X104863Y105096
X106560
X108060Y108628
X113995Y109493
X114094Y102282
X114186Y99905
X119691Y96884
X126600Y97300
Y99700
X125900Y103700
X126600Y104500
Y110100
X128413Y112443
X119691Y112824
X119264Y132805
X121664Y132805
X127064Y128805
X114464
X110264
X101864
X101264
X126600Y94100
X134400Y98103
Y101303
Y105303
Y107703
Y110103
X132664Y112443
X131267Y128805
X134864
X132029Y132835
X146264Y128805
X156464
X161264
X161864
X150571Y102508
X145110Y102886
X145064Y97953
X150571Y94477
X152288Y135925
X149762Y136955
X146564Y140685
X143564
X145000Y145062
X152564Y145123
X156794Y145162
X159334Y147035
X160964Y142000
X162164
X161574Y140685
X160000
X158564Y140656
X157683Y140685
X156764
X155564
X160858Y136955
X160604Y135925
X144660Y133865
X143598
X142535
X141473
X140411
X139349
X135000Y140685
X135210Y145062
X134400Y147403
X131648Y142180
X134400Y158603
Y161803
Y165803
Y168203
Y170603
X145110Y163386
X145064Y158453
X150571Y154977
Y163008
X125900Y164200
X126600Y165000
Y160200
Y157800
Y154600
X119691Y153320
Y157384
X119788Y149256
X125171Y145062
X128864Y146390
X127364Y140685
X127947Y133846
X125194Y134918
X117438Y133812
X114197Y134895
X114757Y140685
X113614Y145062
X102184Y145112
X101070Y146908
X101000Y140685
X102164
X104724Y135957
X106560Y134000
X104724Y153421
X103027
X104724Y158453
X104863Y165596
X106560
X108060Y169128
X113995Y169993
X114094Y162782
X114186Y160404
X126600Y170600
X70071Y163008
X64610Y163386
X64564Y158453
X70071Y154977
X72064Y145123
X76294Y145162
X78834Y147035
X80464Y142000
X81664
X81074Y140685
X79500
X78064Y140656
X77183Y140685
X76264
X75064
X71788Y135925
X69262Y136955
X66064Y140685
X63064
X64500Y145062
X54710Y145062
X53900Y147403
X54500Y140685
X51148Y142180
X58849Y133865
X59911
X60973
X62035
X63098
X64160
X80104Y135925
X80358Y136955
X53900Y158603
Y161803
Y165803
Y168203
Y170603
X46100Y170600
Y165000
X45400Y164200
X46100Y160200
Y157800
Y154600
X39191Y153320
Y157384
X39288Y149256
X44671Y145062
X48364Y146390
X46864Y140685
X47446Y133846
X44694Y134918
X36938Y133812
X33697Y134895
X34257Y140685
X33114Y145062
X21684Y145112
X20570Y146908
X20500Y140685
X21664
X24224Y135957
X26060Y134000
X24224Y153421
X22527
X24224Y158453
X24363Y165596
X26060
X27560Y169128
X33495Y169993
X33594Y162782
X33686Y160404
X39191Y173324
X47913Y172943
X52164
X119691Y173324
X128413Y172943
X132664
T02
X105692Y56000
X108232
X110772
X113312
X32812
X30272
X27732
X25192
Y116500
X27732
X30272
X32812
X105692
X108232
X110772
X113312
X32812Y177000
X30272
X27732
X25192
X105692
X108232
X110772
X113312
T03
X166500Y4000
X94500
X86000
X14000
X166500Y56000
Y64500
X94500
Y56000
X86000
Y64500
X14000
Y56000
Y116500
Y125000
X86000
Y116500
X94500
Y125000
X166500
Y116500
X14000Y177000
X86000
X94500
X166500
T04
X50000Y52100
X130500
X50000Y112600
X130500
X50000Y173100
X130500
T05
X50000Y23900
X83414Y13905
X130500Y23900
X163914Y13905
Y74405
X130500Y84400
X83414Y74405
X50000Y84400
X130500Y144900
X163914Y134905
X83414
X50000Y144900
T06
X16614Y13905
X97114
Y74405
X16614
X97114Y134905
X16614
T07
X18173Y46905
X81813
X98673
X162313
X18173Y107405
X81813
X98673
X162313
Y167905
X98673
X81813
X18173
M30
