M48
;Layer_Color=9474304
;FILE_FORMAT=4:3
METRIC,TZ
;TYPE=PLATED
T1F00S00C0.254
T2F00S00C0.900
T3F00S00C3.000
;TYPE=NON_PLATED
T4F00S00C0.800
T5F00S00C1.200
T6F00S00C1.700
T7F00S00C3.000
%
T01
X10764Y7805
X11364
X19764
X16060Y13000
X14224Y14957
X23697Y13895
X26938Y12812
X28764Y11805
X31164Y11805
X34694Y13918
X37446Y12847
X41529Y11835
X40767Y7805
X44364
X36564
X23964
X48849Y12865
X49911
X50973
X52035
X53098
X54160
X55764Y7805
X59262Y15955
X61788Y14925
X70104
X70358Y15955
X70764Y7805
X71364
X65964
X66264Y19685
X67183
X68064Y19656
X69500Y19685
X71074
X71664Y21000
X70464
X68834Y26035
X66294Y24162
X62064Y24123
X65064Y19685
X56064
X53064
X54500Y24062
X44710Y24062
X43900Y26403
X38364Y25390
X34671Y24062
X36864Y19685
X41148Y21180
X44500Y19685
X43900Y37603
Y40803
Y44803
Y47203
Y49603
X42164Y51943
X37913
X36100Y49600
Y44000
X35400Y43200
X36100Y39200
Y36800
Y33600
X29191Y32320
Y36384
X29288Y28256
X23114Y24062
X24257Y19685
X23685Y39404
X23594Y41782
X23495Y48993
X29191Y52324
X54610Y42386
X54564Y37453
X60071Y33977
Y42008
X16060Y44596
X14363
X17560Y48128
X14224Y37453
Y32421
X12527
X10570Y25908
X11684Y24112
X11664Y19685
X10500
T02
X22812Y56000
X20272
X17732
X15192
T03
X4000Y4000
X76000
Y56000
X4000
T04
X40000Y52100
T05
X73414Y13905
X40000Y23900
T06
X6614Y13905
T07
X71813Y46905
X8173
M30
