G04*
G04 #@! TF.GenerationSoftware,Altium Limited,Altium Designer,19.0.15 (446)*
G04*
G04 Layer_Color=128*
%FSLAX43Y43*%
%MOMM*%
G71*
G01*
G75*
%ADD45C,0.051*%
D45*
X6673Y46905D02*
X9673D01*
X8173Y45405D02*
Y48405D01*
X5764Y13905D02*
X7464D01*
X6614Y13055D02*
Y14755D01*
X72814Y13905D02*
X74014D01*
X73414Y13305D02*
Y14505D01*
X2500Y56000D02*
X5500D01*
X4000Y54500D02*
Y57500D01*
X39400Y23900D02*
X40600D01*
X40000Y23300D02*
Y24500D01*
X39600Y52100D02*
X40400D01*
X40000Y51700D02*
Y52500D01*
X70313Y46905D02*
X73313D01*
X71813Y45405D02*
Y48405D01*
X2500Y4000D02*
X5500D01*
X4000Y2500D02*
Y5500D01*
X74500Y4000D02*
X77500D01*
X76000Y2500D02*
Y5500D01*
X74500Y56000D02*
X77500D01*
X76000Y54500D02*
Y57500D01*
X22362Y56000D02*
X23262D01*
X22812Y55550D02*
Y56450D01*
X19822Y56000D02*
X20722D01*
X20272Y55550D02*
Y56450D01*
X17282Y56000D02*
X18182D01*
X17732Y55550D02*
Y56450D01*
X14742Y56000D02*
X15642D01*
X15192Y55550D02*
Y56450D01*
X54437Y37453D02*
X54691D01*
X54564Y37326D02*
Y37580D01*
X54483Y42386D02*
X54737D01*
X54610Y42259D02*
Y42513D01*
X37786Y51943D02*
X38040D01*
X37913Y51816D02*
Y52070D01*
X42037Y51943D02*
X42291D01*
X42164Y51816D02*
Y52070D01*
X31037Y11805D02*
X31291D01*
X31164Y11678D02*
Y11932D01*
X29064Y52324D02*
X29318D01*
X29191Y52197D02*
Y52451D01*
X40640Y7805D02*
X40894D01*
X40767Y7678D02*
Y7932D01*
X66167Y24162D02*
X66421D01*
X66294Y24035D02*
Y24289D01*
X68707Y26035D02*
X68961D01*
X68834Y25908D02*
Y26162D01*
X69977Y14925D02*
X70231D01*
X70104Y14798D02*
Y15052D01*
X44237Y7805D02*
X44491D01*
X44364Y7678D02*
Y7932D01*
X23570Y13895D02*
X23824D01*
X23697Y13768D02*
Y14022D01*
X41402Y11835D02*
X41656D01*
X41529Y11708D02*
Y11962D01*
X28637Y11805D02*
X28891D01*
X28764Y11678D02*
Y11932D01*
X15933Y13000D02*
X16187D01*
X16060Y12873D02*
Y13127D01*
X34567Y13918D02*
X34821D01*
X34694Y13791D02*
Y14045D01*
X70231Y15955D02*
X70485D01*
X70358Y15828D02*
Y16082D01*
X61661Y14925D02*
X61915D01*
X61788Y14798D02*
Y15052D01*
X59135Y15955D02*
X59389D01*
X59262Y15828D02*
Y16082D01*
X15933Y44596D02*
X16187D01*
X16060Y44469D02*
Y44723D01*
X59944Y33977D02*
X60198D01*
X60071Y33849D02*
Y34104D01*
X43773Y49603D02*
X44027D01*
X43900Y49476D02*
Y49730D01*
X43773Y47203D02*
X44027D01*
X43900Y47076D02*
Y47330D01*
X43773Y44803D02*
X44027D01*
X43900Y44676D02*
Y44930D01*
X43773Y40803D02*
X44027D01*
X43900Y40676D02*
Y40930D01*
X43773Y37603D02*
X44027D01*
X43900Y37476D02*
Y37730D01*
X38237Y25390D02*
X38491D01*
X38364Y25263D02*
Y25517D01*
X34544Y24062D02*
X34798D01*
X34671Y23935D02*
Y24189D01*
X22987Y24062D02*
X23241D01*
X23114Y23935D02*
Y24189D01*
X54373Y24062D02*
X54627D01*
X54500Y23935D02*
Y24189D01*
X10443Y25908D02*
X10697D01*
X10570Y25781D02*
Y26035D01*
X70337Y21000D02*
X70591D01*
X70464Y20873D02*
Y21127D01*
X69373Y19685D02*
X69627D01*
X69500Y19558D02*
Y19812D01*
X70947Y19685D02*
X71201D01*
X71074Y19558D02*
Y19812D01*
X71537Y21000D02*
X71791D01*
X71664Y20873D02*
Y21127D01*
X54033Y12865D02*
X54287D01*
X54160Y12738D02*
Y12992D01*
X51908Y12865D02*
X52162D01*
X52035Y12738D02*
Y12992D01*
X52971Y12865D02*
X53225D01*
X53098Y12738D02*
Y12992D01*
X50847Y12865D02*
X51100D01*
X50973Y12738D02*
Y12992D01*
X48722Y12865D02*
X48976D01*
X48849Y12738D02*
Y12992D01*
X67056Y19685D02*
X67310D01*
X67183Y19558D02*
Y19812D01*
X14097Y14957D02*
X14351D01*
X14224Y14830D02*
Y15084D01*
X17433Y48128D02*
X17687D01*
X17560Y48001D02*
Y48255D01*
X26812Y12812D02*
X27066D01*
X26938Y12686D02*
Y12939D01*
X23368Y48993D02*
X23622D01*
X23495Y48866D02*
Y49120D01*
X23559Y39404D02*
X23812D01*
X23685Y39278D02*
Y39532D01*
X23467Y41782D02*
X23721D01*
X23594Y41655D02*
Y41909D01*
X29064Y36384D02*
X29318D01*
X29191Y36257D02*
Y36511D01*
X35273Y43200D02*
X35527D01*
X35400Y43073D02*
Y43327D01*
X37319Y12847D02*
X37574D01*
X37446Y12719D02*
Y12974D01*
X41021Y21180D02*
X41275D01*
X41148Y21053D02*
Y21307D01*
X29161Y28256D02*
X29415D01*
X29288Y28129D02*
Y28383D01*
X29064Y32320D02*
X29318D01*
X29191Y32193D02*
Y32447D01*
X10373Y19685D02*
X10627D01*
X10500Y19558D02*
Y19812D01*
X49784Y12865D02*
X50038D01*
X49911Y12738D02*
Y12992D01*
X52937Y19685D02*
X53191D01*
X53064Y19558D02*
Y19812D01*
X59944Y42008D02*
X60198D01*
X60071Y41881D02*
Y42135D01*
X64937Y19685D02*
X65191D01*
X65064Y19558D02*
Y19812D01*
X35973Y44000D02*
X36227D01*
X36100Y43873D02*
Y44127D01*
X35973Y39200D02*
X36227D01*
X36100Y39073D02*
Y39327D01*
X35973Y36800D02*
X36227D01*
X36100Y36673D02*
Y36927D01*
X35973Y33600D02*
X36227D01*
X36100Y33473D02*
Y33727D01*
X44583Y24062D02*
X44837D01*
X44710Y23935D02*
Y24189D01*
X66137Y19685D02*
X66391D01*
X66264Y19558D02*
Y19812D01*
X35973Y49600D02*
X36227D01*
X36100Y49473D02*
Y49727D01*
X43773Y26403D02*
X44027D01*
X43900Y26276D02*
Y26530D01*
X67937Y19656D02*
X68191D01*
X68064Y19529D02*
Y19783D01*
X11537Y19685D02*
X11791D01*
X11664Y19558D02*
Y19812D01*
X10637Y7805D02*
X10891D01*
X10764Y7678D02*
Y7932D01*
X11237Y7805D02*
X11491D01*
X11364Y7678D02*
Y7932D01*
X19637Y7805D02*
X19891D01*
X19764Y7678D02*
Y7932D01*
X23837Y7805D02*
X24091D01*
X23964Y7678D02*
Y7932D01*
X36437Y7805D02*
X36691D01*
X36564Y7678D02*
Y7932D01*
X55637Y7805D02*
X55891D01*
X55764Y7678D02*
Y7932D01*
X65837Y7805D02*
X66091D01*
X65964Y7678D02*
Y7932D01*
X70637Y7805D02*
X70891D01*
X70764Y7678D02*
Y7932D01*
X71237Y7805D02*
X71491D01*
X71364Y7678D02*
Y7932D01*
X14097Y32421D02*
X14351D01*
X14224Y32294D02*
Y32548D01*
X14097Y37453D02*
X14351D01*
X14224Y37326D02*
Y37580D01*
X12400Y32421D02*
X12654D01*
X12527Y32294D02*
Y32548D01*
X14236Y44596D02*
X14490D01*
X14363Y44469D02*
Y44723D01*
X11557Y24112D02*
X11811D01*
X11684Y23985D02*
Y24239D01*
X61937Y24123D02*
X62191D01*
X62064Y23996D02*
Y24250D01*
X44373Y19685D02*
X44627D01*
X44500Y19558D02*
Y19812D01*
X24130Y19685D02*
X24384D01*
X24257Y19558D02*
Y19812D01*
X36737Y19685D02*
X36991D01*
X36864Y19558D02*
Y19812D01*
X55937Y19685D02*
X56191D01*
X56064Y19558D02*
Y19812D01*
M02*
