G04*
G04 #@! TF.GenerationSoftware,Altium Limited,Altium Designer,19.0.15 (446)*
G04*
G04 Layer_Color=32896*
%FSLAX43Y43*%
%MOMM*%
G71*
G01*
G75*
%ADD10C,0.200*%
%ADD12C,0.127*%
%ADD14C,0.254*%
D10*
X36300Y26400D02*
G03*
X36300Y26400I-100J0D01*
G01*
D12*
X43000Y23100D02*
Y25830D01*
X40360Y23100D02*
X43000D01*
X37000D02*
X39640D01*
X37000D02*
Y25830D01*
X43000Y50170D02*
Y52900D01*
X37000D02*
X43000D01*
X37000Y50170D02*
Y52900D01*
D14*
X29535Y33602D02*
Y35125D01*
X28773D01*
X28519Y34872D01*
Y34364D01*
X28773Y34110D01*
X29535D01*
X29027D02*
X28519Y33602D01*
X26995D02*
X28011D01*
X26995Y34618D01*
Y34872D01*
X27249Y35125D01*
X27757D01*
X28011Y34872D01*
X26488Y33856D02*
X26234Y33602D01*
X25726D01*
X25472Y33856D01*
Y34872D01*
X25726Y35125D01*
X26234D01*
X26488Y34872D01*
Y34618D01*
X26234Y34364D01*
X25472D01*
X54295Y31392D02*
Y32916D01*
X53533D01*
X53279Y32662D01*
Y32154D01*
X53533Y31900D01*
X54295D01*
X53787D02*
X53279Y31392D01*
X52771D02*
X52264D01*
X52518D01*
Y32916D01*
X52771Y32662D01*
X50486Y32916D02*
X51502D01*
Y32154D01*
X50994Y32408D01*
X50740D01*
X50486Y32154D01*
Y31646D01*
X50740Y31392D01*
X51248D01*
X51502Y31646D01*
X54295Y25281D02*
Y26805D01*
X53534D01*
X53280Y26551D01*
Y26043D01*
X53534Y25789D01*
X54295D01*
X53788D02*
X53280Y25281D01*
X52772D02*
X52264D01*
X52518D01*
Y26805D01*
X52772Y26551D01*
X51502D02*
X51248Y26805D01*
X50741D01*
X50487Y26551D01*
Y26297D01*
X50741Y26043D01*
X50487Y25789D01*
Y25535D01*
X50741Y25281D01*
X51248D01*
X51502Y25535D01*
Y25789D01*
X51248Y26043D01*
X51502Y26297D01*
Y26551D01*
X51248Y26043D02*
X50741D01*
X29535Y45794D02*
Y47318D01*
X28773D01*
X28519Y47064D01*
Y46556D01*
X28773Y46302D01*
X29535D01*
X29027D02*
X28519Y45794D01*
X26996D02*
X28011D01*
X26996Y46810D01*
Y47064D01*
X27250Y47318D01*
X27758D01*
X28011Y47064D01*
X26488D02*
X26234Y47318D01*
X25726D01*
X25472Y47064D01*
Y46810D01*
X25726Y46556D01*
X25980D01*
X25726D01*
X25472Y46302D01*
Y46048D01*
X25726Y45794D01*
X26234D01*
X26488Y46048D01*
X29535Y43762D02*
Y45286D01*
X28773D01*
X28519Y45032D01*
Y44524D01*
X28773Y44270D01*
X29535D01*
X29027D02*
X28519Y43762D01*
X26996D02*
X28011D01*
X26996Y44778D01*
Y45032D01*
X27250Y45286D01*
X27758D01*
X28011Y45032D01*
X25726Y43762D02*
Y45286D01*
X26488Y44524D01*
X25472D01*
X29535Y41730D02*
Y43254D01*
X28773D01*
X28519Y43000D01*
Y42492D01*
X28773Y42238D01*
X29535D01*
X29027D02*
X28519Y41730D01*
X26996D02*
X28011D01*
X26996Y42746D01*
Y43000D01*
X27250Y43254D01*
X27758D01*
X28011Y43000D01*
X25472Y43254D02*
X26488D01*
Y42492D01*
X25980Y42746D01*
X25726D01*
X25472Y42492D01*
Y41984D01*
X25726Y41730D01*
X26234D01*
X26488Y41984D01*
X29535Y39698D02*
Y41222D01*
X28773D01*
X28519Y40968D01*
Y40460D01*
X28773Y40206D01*
X29535D01*
X29027D02*
X28519Y39698D01*
X26996D02*
X28011D01*
X26996Y40714D01*
Y40968D01*
X27250Y41222D01*
X27758D01*
X28011Y40968D01*
X25472Y41222D02*
X25980Y40968D01*
X26488Y40460D01*
Y39952D01*
X26234Y39698D01*
X25726D01*
X25472Y39952D01*
Y40206D01*
X25726Y40460D01*
X26488D01*
X54295Y37499D02*
Y39023D01*
X53534D01*
X53280Y38769D01*
Y38261D01*
X53534Y38007D01*
X54295D01*
X53788D02*
X53280Y37499D01*
X52772D02*
X52264D01*
X52518D01*
Y39023D01*
X52772Y38769D01*
X50487Y37499D02*
X51502D01*
X50487Y38515D01*
Y38769D01*
X50741Y39023D01*
X51248D01*
X51502Y38769D01*
X54295Y35463D02*
Y36987D01*
X53534D01*
X53280Y36733D01*
Y36225D01*
X53534Y35971D01*
X54295D01*
X53788D02*
X53280Y35463D01*
X52772D02*
X52264D01*
X52518D01*
Y36987D01*
X52772Y36733D01*
X51502D02*
X51248Y36987D01*
X50741D01*
X50487Y36733D01*
Y36479D01*
X50741Y36225D01*
X50995D01*
X50741D01*
X50487Y35971D01*
Y35717D01*
X50741Y35463D01*
X51248D01*
X51502Y35717D01*
X54295Y33427D02*
Y34951D01*
X53534D01*
X53280Y34697D01*
Y34189D01*
X53534Y33935D01*
X54295D01*
X53788D02*
X53280Y33427D01*
X52772D02*
X52264D01*
X52518D01*
Y34951D01*
X52772Y34697D01*
X50741Y33427D02*
Y34951D01*
X51502Y34189D01*
X50487D01*
X54295Y43607D02*
Y45131D01*
X53534D01*
X53280Y44877D01*
Y44369D01*
X53534Y44115D01*
X54295D01*
X53788D02*
X53280Y43607D01*
X52772Y43861D02*
X52518Y43607D01*
X52010D01*
X51756Y43861D01*
Y44877D01*
X52010Y45131D01*
X52518D01*
X52772Y44877D01*
Y44623D01*
X52518Y44369D01*
X51756D01*
X54295Y41571D02*
Y43095D01*
X53534D01*
X53280Y42841D01*
Y42333D01*
X53534Y42079D01*
X54295D01*
X53788D02*
X53280Y41571D01*
X52772D02*
X52264D01*
X52518D01*
Y43095D01*
X52772Y42841D01*
X51502D02*
X51248Y43095D01*
X50741D01*
X50487Y42841D01*
Y41825D01*
X50741Y41571D01*
X51248D01*
X51502Y41825D01*
Y42841D01*
X54295Y39535D02*
Y41059D01*
X53534D01*
X53280Y40805D01*
Y40297D01*
X53534Y40043D01*
X54295D01*
X53788D02*
X53280Y39535D01*
X52772D02*
X52264D01*
X52518D01*
Y41059D01*
X52772Y40805D01*
X51502Y39535D02*
X50995D01*
X51248D01*
Y41059D01*
X51502Y40805D01*
X54295Y48983D02*
Y50507D01*
X53534D01*
X53280Y50253D01*
Y49745D01*
X53534Y49491D01*
X54295D01*
X53788D02*
X53280Y48983D01*
X52772Y50507D02*
X51756D01*
Y50253D01*
X52772Y49237D01*
Y48983D01*
X54295Y46947D02*
Y48471D01*
X53534D01*
X53280Y48217D01*
Y47709D01*
X53534Y47455D01*
X54295D01*
X53788D02*
X53280Y46947D01*
X52772Y48217D02*
X52518Y48471D01*
X52010D01*
X51756Y48217D01*
Y47963D01*
X52010Y47709D01*
X51756Y47455D01*
Y47201D01*
X52010Y46947D01*
X52518D01*
X52772Y47201D01*
Y47455D01*
X52518Y47709D01*
X52772Y47963D01*
Y48217D01*
X52518Y47709D02*
X52010D01*
X54295Y29355D02*
Y30878D01*
X53534D01*
X53280Y30624D01*
Y30116D01*
X53534Y29862D01*
X54295D01*
X53788D02*
X53280Y29355D01*
X52772D02*
X52264D01*
X52518D01*
Y30878D01*
X52772Y30624D01*
X50487Y30878D02*
X50995Y30624D01*
X51502Y30116D01*
Y29609D01*
X51248Y29355D01*
X50741D01*
X50487Y29609D01*
Y29862D01*
X50741Y30116D01*
X51502D01*
X54295Y27318D02*
Y28842D01*
X53534D01*
X53280Y28588D01*
Y28080D01*
X53534Y27826D01*
X54295D01*
X53788D02*
X53280Y27318D01*
X52772D02*
X52264D01*
X52518D01*
Y28842D01*
X52772Y28588D01*
X51502Y28842D02*
X50487D01*
Y28588D01*
X51502Y27572D01*
Y27318D01*
X29535Y37666D02*
Y39189D01*
X28773D01*
X28519Y38936D01*
Y38428D01*
X28773Y38174D01*
X29535D01*
X29027D02*
X28519Y37666D01*
X26995D02*
X28011D01*
X26995Y38682D01*
Y38936D01*
X27249Y39189D01*
X27757D01*
X28011Y38936D01*
X26488Y39189D02*
X25472D01*
Y38936D01*
X26488Y37920D01*
Y37666D01*
X29535Y35634D02*
Y37158D01*
X28773D01*
X28519Y36904D01*
Y36396D01*
X28773Y36142D01*
X29535D01*
X29027D02*
X28519Y35634D01*
X26995D02*
X28011D01*
X26995Y36650D01*
Y36904D01*
X27249Y37158D01*
X27757D01*
X28011Y36904D01*
X26488D02*
X26234Y37158D01*
X25726D01*
X25472Y36904D01*
Y36650D01*
X25726Y36396D01*
X25472Y36142D01*
Y35888D01*
X25726Y35634D01*
X26234D01*
X26488Y35888D01*
Y36142D01*
X26234Y36396D01*
X26488Y36650D01*
Y36904D01*
X26234Y36396D02*
X25726D01*
X29535Y31570D02*
Y33094D01*
X28773D01*
X28519Y32840D01*
Y32332D01*
X28773Y32078D01*
X29535D01*
X29027D02*
X28519Y31570D01*
X28011Y32840D02*
X27757Y33094D01*
X27249D01*
X26995Y32840D01*
Y32586D01*
X27249Y32332D01*
X27503D01*
X27249D01*
X26995Y32078D01*
Y31824D01*
X27249Y31570D01*
X27757D01*
X28011Y31824D01*
X26488Y32840D02*
X26234Y33094D01*
X25726D01*
X25472Y32840D01*
Y31824D01*
X25726Y31570D01*
X26234D01*
X26488Y31824D01*
Y32840D01*
X29535Y29538D02*
Y31062D01*
X28773D01*
X28519Y30808D01*
Y30300D01*
X28773Y30046D01*
X29535D01*
X29027D02*
X28519Y29538D01*
X28011Y30808D02*
X27757Y31062D01*
X27249D01*
X26995Y30808D01*
Y30554D01*
X27249Y30300D01*
X27503D01*
X27249D01*
X26995Y30046D01*
Y29792D01*
X27249Y29538D01*
X27757D01*
X28011Y29792D01*
X26488Y29538D02*
X25980D01*
X26234D01*
Y31062D01*
X26488Y30808D01*
X29535Y27506D02*
Y29030D01*
X28773D01*
X28519Y28776D01*
Y28268D01*
X28773Y28014D01*
X29535D01*
X29027D02*
X28519Y27506D01*
X28011Y28776D02*
X27757Y29030D01*
X27249D01*
X26995Y28776D01*
Y28522D01*
X27249Y28268D01*
X27503D01*
X27249D01*
X26995Y28014D01*
Y27760D01*
X27249Y27506D01*
X27757D01*
X28011Y27760D01*
X25472Y27506D02*
X26488D01*
X25472Y28522D01*
Y28776D01*
X25726Y29030D01*
X26234D01*
X26488Y28776D01*
X29535Y25474D02*
Y26998D01*
X28773D01*
X28519Y26744D01*
Y26236D01*
X28773Y25982D01*
X29535D01*
X29027D02*
X28519Y25474D01*
X28011Y26744D02*
X27757Y26998D01*
X27249D01*
X26995Y26744D01*
Y26490D01*
X27249Y26236D01*
X27503D01*
X27249D01*
X26995Y25982D01*
Y25728D01*
X27249Y25474D01*
X27757D01*
X28011Y25728D01*
X26488Y26744D02*
X26234Y26998D01*
X25726D01*
X25472Y26744D01*
Y26490D01*
X25726Y26236D01*
X25980D01*
X25726D01*
X25472Y25982D01*
Y25728D01*
X25726Y25474D01*
X26234D01*
X26488Y25728D01*
X29535Y23442D02*
Y24966D01*
X28773D01*
X28519Y24712D01*
Y24204D01*
X28773Y23950D01*
X29535D01*
X29027D02*
X28519Y23442D01*
X28011Y24712D02*
X27757Y24966D01*
X27249D01*
X26995Y24712D01*
Y24458D01*
X27249Y24204D01*
X27503D01*
X27249D01*
X26995Y23950D01*
Y23696D01*
X27249Y23442D01*
X27757D01*
X28011Y23696D01*
X25726Y23442D02*
Y24966D01*
X26488Y24204D01*
X25472D01*
X29535Y53954D02*
Y55478D01*
X28773D01*
X28519Y55224D01*
Y54716D01*
X28773Y54462D01*
X29535D01*
X29027D02*
X28519Y53954D01*
X28011D02*
X27503D01*
X27757D01*
Y55478D01*
X28011Y55224D01*
X26741Y54208D02*
X26488Y53954D01*
X25980D01*
X25726Y54208D01*
Y55224D01*
X25980Y55478D01*
X26488D01*
X26741Y55224D01*
Y54970D01*
X26488Y54716D01*
X25726D01*
X29535Y51918D02*
Y53442D01*
X28773D01*
X28519Y53188D01*
Y52680D01*
X28773Y52426D01*
X29535D01*
X29027D02*
X28519Y51918D01*
X26995D02*
X28011D01*
X26995Y52934D01*
Y53188D01*
X27249Y53442D01*
X27757D01*
X28011Y53188D01*
X26488D02*
X26234Y53442D01*
X25726D01*
X25472Y53188D01*
Y52172D01*
X25726Y51918D01*
X26234D01*
X26488Y52172D01*
Y53188D01*
X29535Y49882D02*
Y51406D01*
X28773D01*
X28519Y51152D01*
Y50644D01*
X28773Y50390D01*
X29535D01*
X29027D02*
X28519Y49882D01*
X26995D02*
X28011D01*
X26995Y50898D01*
Y51152D01*
X27249Y51406D01*
X27757D01*
X28011Y51152D01*
X26488Y49882D02*
X25980D01*
X26234D01*
Y51406D01*
X26488Y51152D01*
X29535Y47846D02*
Y49370D01*
X28773D01*
X28519Y49116D01*
Y48608D01*
X28773Y48354D01*
X29535D01*
X29027D02*
X28519Y47846D01*
X26995D02*
X28011D01*
X26995Y48862D01*
Y49116D01*
X27249Y49370D01*
X27757D01*
X28011Y49116D01*
X25472Y47846D02*
X26488D01*
X25472Y48862D01*
Y49116D01*
X25726Y49370D01*
X26234D01*
X26488Y49116D01*
X62123Y41583D02*
Y43107D01*
X61361D01*
X61107Y42853D01*
Y42345D01*
X61361Y42091D01*
X62123D01*
X61615D02*
X61107Y41583D01*
X59584Y43107D02*
X60092Y42853D01*
X60599Y42345D01*
Y41837D01*
X60346Y41583D01*
X59838D01*
X59584Y41837D01*
Y42091D01*
X59838Y42345D01*
X60599D01*
X62123Y36485D02*
Y38009D01*
X61361D01*
X61107Y37755D01*
Y37247D01*
X61361Y36993D01*
X62123D01*
X61615D02*
X61107Y36485D01*
X59584Y38009D02*
X60599D01*
Y37247D01*
X60092Y37501D01*
X59838D01*
X59584Y37247D01*
Y36739D01*
X59838Y36485D01*
X60346D01*
X60599Y36739D01*
X62123Y43615D02*
Y45139D01*
X61361D01*
X61107Y44885D01*
Y44377D01*
X61361Y44123D01*
X62123D01*
X61615D02*
X61107Y43615D01*
X59838D02*
Y45139D01*
X60599Y44377D01*
X59584D01*
X62123Y38517D02*
Y40041D01*
X61361D01*
X61107Y39787D01*
Y39279D01*
X61361Y39025D01*
X62123D01*
X61615D02*
X61107Y38517D01*
X60599Y39787D02*
X60346Y40041D01*
X59838D01*
X59584Y39787D01*
Y39533D01*
X59838Y39279D01*
X60092D01*
X59838D01*
X59584Y39025D01*
Y38771D01*
X59838Y38517D01*
X60346D01*
X60599Y38771D01*
X40259Y55118D02*
X40767D01*
X40513D01*
Y53848D01*
X40767Y53594D01*
X41021D01*
X41275Y53848D01*
X39751Y54864D02*
X39498Y55118D01*
X38990D01*
X38736Y54864D01*
Y54610D01*
X38990Y54356D01*
X39244D01*
X38990D01*
X38736Y54102D01*
Y53848D01*
X38990Y53594D01*
X39498D01*
X39751Y53848D01*
M02*
