G04*
G04 #@! TF.GenerationSoftware,Altium Limited,Altium Designer,19.0.15 (446)*
G04*
G04 Layer_Physical_Order=4*
G04 Layer_Color=16711680*
%FSLAX43Y43*%
%MOMM*%
G71*
G01*
G75*
%ADD14C,0.254*%
%ADD17R,1.100X1.000*%
%ADD33C,1.700*%
%ADD35C,0.800*%
%ADD37C,1.200*%
%ADD38C,5.000*%
%ADD39R,1.500X1.500*%
%ADD40C,1.500*%
%ADD41C,0.457*%
%ADD42R,2.000X0.500*%
G36*
X79500Y500D02*
X500D01*
Y59500D01*
X79500D01*
Y500D01*
D02*
G37*
%LPC*%
G36*
X76127Y58753D02*
Y56127D01*
X78753D01*
X78729Y56432D01*
X78627Y56854D01*
X78461Y57254D01*
X78235Y57624D01*
X77953Y57953D01*
X77624Y58235D01*
X77254Y58461D01*
X76854Y58627D01*
X76432Y58729D01*
X76127Y58753D01*
D02*
G37*
G36*
X75873D02*
X75568Y58729D01*
X75146Y58627D01*
X74746Y58461D01*
X74376Y58235D01*
X74047Y57953D01*
X73765Y57624D01*
X73539Y57254D01*
X73373Y56854D01*
X73271Y56432D01*
X73247Y56127D01*
X75873D01*
Y58753D01*
D02*
G37*
G36*
X4127D02*
Y56127D01*
X6753D01*
X6729Y56432D01*
X6627Y56854D01*
X6461Y57254D01*
X6235Y57624D01*
X5953Y57953D01*
X5624Y58235D01*
X5254Y58461D01*
X4854Y58627D01*
X4432Y58729D01*
X4127Y58753D01*
D02*
G37*
G36*
X3873D02*
X3568Y58729D01*
X3146Y58627D01*
X2746Y58461D01*
X2376Y58235D01*
X2047Y57953D01*
X1765Y57624D01*
X1539Y57254D01*
X1373Y56854D01*
X1271Y56432D01*
X1247Y56127D01*
X3873D01*
Y58753D01*
D02*
G37*
G36*
X15319Y56996D02*
Y56127D01*
X16188D01*
X16170Y56262D01*
X16069Y56506D01*
X15908Y56716D01*
X15698Y56877D01*
X15454Y56978D01*
X15319Y56996D01*
D02*
G37*
G36*
X17859D02*
Y56127D01*
X18728D01*
X18710Y56262D01*
X18609Y56506D01*
X18448Y56716D01*
X18238Y56877D01*
X17994Y56978D01*
X17859Y56996D01*
D02*
G37*
G36*
X15065Y56996D02*
X14930Y56978D01*
X14686Y56877D01*
X14476Y56716D01*
X14315Y56506D01*
X14214Y56262D01*
X14196Y56127D01*
X15065D01*
Y56996D01*
D02*
G37*
G36*
X17605D02*
X17470Y56978D01*
X17226Y56877D01*
X17016Y56716D01*
X16855Y56506D01*
X16754Y56262D01*
X16736Y56127D01*
X17605D01*
Y56996D01*
D02*
G37*
G36*
X18728Y55873D02*
X17859D01*
Y55004D01*
X17994Y55022D01*
X18238Y55123D01*
X18448Y55284D01*
X18609Y55494D01*
X18710Y55738D01*
X18728Y55873D01*
D02*
G37*
G36*
X16188D02*
X15319D01*
Y55004D01*
X15454Y55022D01*
X15698Y55123D01*
X15908Y55284D01*
X16069Y55494D01*
X16170Y55738D01*
X16188Y55873D01*
D02*
G37*
G36*
X17605D02*
X16736D01*
X16754Y55738D01*
X16855Y55494D01*
X17016Y55284D01*
X17226Y55123D01*
X17470Y55022D01*
X17605Y55004D01*
Y55873D01*
D02*
G37*
G36*
X15065D02*
X14196D01*
X14214Y55738D01*
X14315Y55494D01*
X14476Y55284D01*
X14686Y55123D01*
X14930Y55022D01*
X15065Y55004D01*
Y55873D01*
D02*
G37*
G36*
X23816Y57004D02*
X21808D01*
Y54996D01*
X23816D01*
Y57004D01*
D02*
G37*
G36*
X20272Y57013D02*
X20010Y56978D01*
X19766Y56877D01*
X19556Y56716D01*
X19395Y56506D01*
X19294Y56262D01*
X19259Y56000D01*
X19294Y55738D01*
X19395Y55494D01*
X19556Y55284D01*
X19766Y55123D01*
X20010Y55022D01*
X20272Y54987D01*
X20534Y55022D01*
X20778Y55123D01*
X20988Y55284D01*
X21149Y55494D01*
X21250Y55738D01*
X21285Y56000D01*
X21250Y56262D01*
X21149Y56506D01*
X20988Y56716D01*
X20778Y56877D01*
X20534Y56978D01*
X20272Y57013D01*
D02*
G37*
G36*
X78753Y55873D02*
X76127D01*
Y53247D01*
X76432Y53271D01*
X76854Y53373D01*
X77254Y53539D01*
X77624Y53765D01*
X77953Y54047D01*
X78235Y54376D01*
X78461Y54746D01*
X78627Y55146D01*
X78729Y55568D01*
X78753Y55873D01*
D02*
G37*
G36*
X75873D02*
X73247D01*
X73271Y55568D01*
X73373Y55146D01*
X73539Y54746D01*
X73765Y54376D01*
X74047Y54047D01*
X74376Y53765D01*
X74746Y53539D01*
X75146Y53373D01*
X75568Y53271D01*
X75873Y53247D01*
Y55873D01*
D02*
G37*
G36*
X6753D02*
X4127D01*
Y53247D01*
X4432Y53271D01*
X4854Y53373D01*
X5254Y53539D01*
X5624Y53765D01*
X5953Y54047D01*
X6235Y54376D01*
X6461Y54746D01*
X6627Y55146D01*
X6729Y55568D01*
X6753Y55873D01*
D02*
G37*
G36*
X3873D02*
X1247D01*
X1271Y55568D01*
X1373Y55146D01*
X1539Y54746D01*
X1765Y54376D01*
X2047Y54047D01*
X2376Y53765D01*
X2746Y53539D01*
X3146Y53373D01*
X3568Y53271D01*
X3873Y53247D01*
Y55873D01*
D02*
G37*
G36*
X31787Y55458D02*
X31695D01*
X31660Y55458D01*
X30087D01*
Y55092D01*
X26805D01*
X26656Y55063D01*
X26530Y54979D01*
X19489Y47938D01*
X19405Y47812D01*
X19376Y47663D01*
X19376Y17828D01*
X19405Y17679D01*
X19489Y17553D01*
X23219Y13823D01*
X23242Y13707D01*
X23349Y13547D01*
X23509Y13441D01*
X23697Y13403D01*
X23885Y13441D01*
X24045Y13547D01*
X24152Y13707D01*
X24189Y13895D01*
X24152Y14083D01*
X24045Y14243D01*
X23885Y14350D01*
X23769Y14373D01*
X20152Y17989D01*
X20152Y47502D01*
X26966Y54315D01*
X30087D01*
Y53950D01*
X31660D01*
X31695Y53950D01*
X31787D01*
X31822Y53950D01*
X33395D01*
Y54315D01*
X33913D01*
X35012Y53217D01*
Y52444D01*
X34885Y52406D01*
X34848Y52461D01*
X34366Y52943D01*
X34240Y53027D01*
X34091Y53056D01*
X33395D01*
Y53422D01*
X31822D01*
X31787Y53422D01*
X31695D01*
X31660Y53422D01*
X30087D01*
Y53056D01*
X29535D01*
X29386Y53027D01*
X29260Y52943D01*
X29119Y52802D01*
X29003Y52779D01*
X28843Y52672D01*
X28736Y52512D01*
X28699Y52324D01*
X28736Y52136D01*
X28843Y51976D01*
X29003Y51869D01*
X29191Y51832D01*
X29379Y51869D01*
X29539Y51976D01*
X29646Y52136D01*
X29669Y52252D01*
X29696Y52279D01*
X30087D01*
Y51914D01*
X31660D01*
X31695Y51914D01*
X31787D01*
X31822Y51914D01*
X33395D01*
Y52279D01*
X33930D01*
X34185Y52025D01*
Y50716D01*
X34058Y50664D01*
X33815Y50907D01*
X33689Y50991D01*
X33540Y51020D01*
X33395D01*
Y51386D01*
X31822D01*
X31787Y51386D01*
X31695D01*
X31660Y51386D01*
X30087D01*
Y51020D01*
X25134D01*
X24985Y50991D01*
X24859Y50907D01*
X23423Y49471D01*
X23307Y49448D01*
X23147Y49341D01*
X23040Y49181D01*
X23003Y48993D01*
X23040Y48805D01*
X23147Y48645D01*
X23307Y48539D01*
X23495Y48501D01*
X23683Y48539D01*
X23843Y48645D01*
X23950Y48805D01*
X23973Y48921D01*
X25295Y50243D01*
X30087D01*
Y49878D01*
X31660D01*
X31695Y49878D01*
X31787D01*
X31822Y49878D01*
X33395D01*
Y49878D01*
X33521Y49875D01*
Y49352D01*
X33395Y49350D01*
Y49350D01*
X31822D01*
X31787Y49350D01*
X31695D01*
X31660Y49350D01*
X30087D01*
Y48984D01*
X27797D01*
X27648Y48955D01*
X27522Y48871D01*
X20807Y42156D01*
X20723Y42030D01*
X20694Y41881D01*
Y18669D01*
X20723Y18520D01*
X20807Y18394D01*
X26461Y12741D01*
X26484Y12624D01*
X26591Y12465D01*
X26750Y12358D01*
X26938Y12321D01*
X27127Y12358D01*
X27286Y12465D01*
X27393Y12624D01*
X27430Y12812D01*
X27393Y13001D01*
X27286Y13160D01*
X27127Y13267D01*
X27010Y13290D01*
X21470Y18830D01*
Y41720D01*
X27958Y48207D01*
X30087D01*
Y47842D01*
X31660D01*
X31695Y47842D01*
X31787D01*
X31822Y47842D01*
X33379D01*
X35092Y46128D01*
X35107Y46118D01*
X35069Y45991D01*
X34734D01*
X33891Y46835D01*
X33765Y46919D01*
X33616Y46948D01*
X33395D01*
Y47314D01*
X31822D01*
X31787Y47314D01*
X31695D01*
X31660Y47314D01*
X30087D01*
Y46948D01*
X28372D01*
X28223Y46919D01*
X28097Y46835D01*
X23522Y42260D01*
X23406Y42237D01*
X23246Y42130D01*
X23139Y41970D01*
X23102Y41782D01*
X23139Y41594D01*
X23246Y41434D01*
X23406Y41328D01*
X23594Y41290D01*
X23782Y41328D01*
X23942Y41434D01*
X24048Y41594D01*
X24072Y41710D01*
X28533Y46171D01*
X30087D01*
Y45806D01*
X31660D01*
X31695Y45806D01*
X31787D01*
X31822Y45806D01*
X33395D01*
Y46052D01*
X33522Y46105D01*
X34298Y45328D01*
X34424Y45244D01*
X34480Y45233D01*
X34507Y45098D01*
X34476Y45078D01*
X34311Y44912D01*
X33395D01*
Y45278D01*
X31822D01*
X31787Y45278D01*
X31695D01*
X31660Y45278D01*
X30087D01*
Y44912D01*
X28805D01*
X28656Y44883D01*
X28530Y44799D01*
X23614Y39882D01*
X23497Y39859D01*
X23338Y39752D01*
X23231Y39593D01*
X23194Y39404D01*
X23231Y39216D01*
X23338Y39057D01*
X23497Y38950D01*
X23685Y38913D01*
X23874Y38950D01*
X24033Y39057D01*
X24140Y39216D01*
X24163Y39333D01*
X28966Y44135D01*
X30087D01*
Y43770D01*
X31660D01*
X31695Y43770D01*
X31787D01*
X31822Y43770D01*
X33395D01*
Y44135D01*
X34472D01*
X34621Y44165D01*
X34747Y44249D01*
X34912Y44414D01*
X35644D01*
X35712Y44287D01*
X35645Y44188D01*
X35608Y44000D01*
X35645Y43812D01*
X35697Y43735D01*
X35606Y43643D01*
X35588Y43655D01*
X35400Y43692D01*
X35212Y43655D01*
X35052Y43548D01*
X34945Y43388D01*
X34908Y43200D01*
X34945Y43012D01*
X35052Y42852D01*
X35212Y42745D01*
X35400Y42708D01*
X35588Y42745D01*
X35687Y42812D01*
X36546D01*
Y41896D01*
Y41096D01*
Y40296D01*
Y39588D01*
X36387D01*
X36288Y39655D01*
X36100Y39692D01*
X35912Y39655D01*
X35752Y39548D01*
X35645Y39388D01*
X35623Y39273D01*
X35486Y39212D01*
X35440Y39242D01*
Y41026D01*
X35411Y41174D01*
X35327Y41300D01*
X33864Y42763D01*
X33738Y42847D01*
X33590Y42876D01*
X33395D01*
Y43242D01*
X31822D01*
X31787Y43242D01*
X31695D01*
X31660Y43242D01*
X30087D01*
Y42876D01*
X28928D01*
X28779Y42847D01*
X28653Y42763D01*
X21950Y36060D01*
X21866Y35934D01*
X21837Y35785D01*
Y19685D01*
X21866Y19536D01*
X21950Y19410D01*
X28376Y12985D01*
Y12092D01*
X28309Y11993D01*
X28272Y11805D01*
X28309Y11617D01*
X28416Y11457D01*
X28576Y11351D01*
X28764Y11313D01*
X28952Y11351D01*
X29112Y11457D01*
X29219Y11617D01*
X29256Y11805D01*
X29219Y11993D01*
X29152Y12092D01*
Y13146D01*
X29123Y13295D01*
X29039Y13421D01*
X22613Y19846D01*
Y35624D01*
X29089Y42099D01*
X30087D01*
Y41734D01*
X31660D01*
X31695Y41734D01*
X31787D01*
X31822Y41734D01*
X33395D01*
Y41954D01*
X33522Y42006D01*
X34664Y40865D01*
Y39220D01*
X34537Y39152D01*
X34513Y39168D01*
Y39930D01*
X34484Y40079D01*
X34400Y40205D01*
X33878Y40727D01*
X33752Y40811D01*
X33603Y40840D01*
X33395D01*
Y41206D01*
X31822D01*
X31787Y41206D01*
X31695D01*
X31660Y41206D01*
X30087D01*
Y40840D01*
X28924D01*
X28775Y40811D01*
X28649Y40727D01*
X25125Y37203D01*
X25041Y37077D01*
X25012Y36928D01*
Y18764D01*
X25041Y18615D01*
X25125Y18489D01*
X30776Y12839D01*
Y12092D01*
X30709Y11993D01*
X30672Y11805D01*
X30709Y11617D01*
X30816Y11457D01*
X30976Y11351D01*
X31164Y11313D01*
X31352Y11351D01*
X31512Y11457D01*
X31618Y11617D01*
X31656Y11805D01*
X31618Y11993D01*
X31552Y12092D01*
Y13000D01*
X31523Y13149D01*
X31439Y13275D01*
X25788Y18925D01*
Y36767D01*
X29085Y40063D01*
X30087D01*
Y39698D01*
X31660D01*
X31695Y39698D01*
X31787D01*
X31822Y39698D01*
X33395D01*
Y39931D01*
X33522Y39984D01*
X33737Y39769D01*
Y38902D01*
X33766Y38753D01*
X33850Y38627D01*
X35152Y37325D01*
X35278Y37241D01*
X35427Y37212D01*
X35642D01*
X35710Y37085D01*
X35645Y36988D01*
X35608Y36800D01*
X35620Y36742D01*
X35520Y36597D01*
X35495Y36593D01*
X33713Y38375D01*
X33587Y38459D01*
X33439Y38488D01*
X33395D01*
Y39170D01*
X31822D01*
X31787Y39170D01*
X31695D01*
X31660Y39170D01*
X30087D01*
Y38788D01*
X28764D01*
X28615Y38759D01*
X28489Y38675D01*
X26389Y36575D01*
X26305Y36449D01*
X26276Y36300D01*
Y20170D01*
X26305Y20021D01*
X26389Y19895D01*
X38754Y7530D01*
X38880Y7446D01*
X39029Y7417D01*
X40480D01*
X40579Y7351D01*
X40767Y7313D01*
X40955Y7351D01*
X41115Y7457D01*
X41222Y7617D01*
X41259Y7805D01*
X41222Y7993D01*
X41115Y8153D01*
X40955Y8260D01*
X40767Y8297D01*
X40579Y8260D01*
X40480Y8193D01*
X39190D01*
X27052Y20331D01*
Y21016D01*
X27179Y21028D01*
X27205Y20899D01*
X27289Y20773D01*
X34216Y13846D01*
X34239Y13730D01*
X34346Y13570D01*
X34506Y13464D01*
X34694Y13426D01*
X34882Y13464D01*
X35042Y13570D01*
X35148Y13730D01*
X35186Y13918D01*
X35148Y14106D01*
X35042Y14266D01*
X34882Y14373D01*
X34766Y14396D01*
X27952Y21209D01*
Y21732D01*
X28079Y21745D01*
X28089Y21696D01*
X28173Y21570D01*
X36969Y12775D01*
X36992Y12658D01*
X37099Y12499D01*
X37258Y12392D01*
X37446Y12355D01*
X37635Y12392D01*
X37794Y12499D01*
X37901Y12658D01*
X37938Y12847D01*
X37901Y13035D01*
X37794Y13194D01*
X37635Y13301D01*
X37518Y13324D01*
X28836Y22006D01*
Y27852D01*
X28963Y27892D01*
X29100Y27801D01*
X29288Y27764D01*
X29476Y27801D01*
X29575Y27867D01*
X30087D01*
Y27502D01*
X31660D01*
X31695Y27502D01*
X31787D01*
X31822Y27502D01*
X33395D01*
Y27867D01*
X34098D01*
X34247Y27897D01*
X34373Y27981D01*
X34785Y28394D01*
X34864Y28384D01*
X34886Y28349D01*
X34909Y28254D01*
X33512Y26856D01*
X33395Y26905D01*
Y26978D01*
X31822D01*
X31787Y26978D01*
X31695D01*
X31660Y26978D01*
X30087D01*
Y26612D01*
X30037D01*
X29888Y26583D01*
X29762Y26499D01*
X29089Y25826D01*
X29005Y25700D01*
X28976Y25551D01*
Y22550D01*
X29005Y22401D01*
X29089Y22275D01*
X38774Y12590D01*
X38900Y12506D01*
X39049Y12477D01*
X40314D01*
X41057Y11733D01*
X41074Y11647D01*
X41181Y11487D01*
X41341Y11380D01*
X41529Y11343D01*
X41717Y11380D01*
X41877Y11487D01*
X41984Y11647D01*
X42021Y11835D01*
X41984Y12023D01*
X41877Y12183D01*
X41717Y12290D01*
X41571Y12319D01*
X40750Y13140D01*
X40624Y13224D01*
X40475Y13253D01*
X39210D01*
X29752Y22711D01*
Y25390D01*
X29969Y25607D01*
X30087Y25558D01*
Y25470D01*
X31660D01*
X31695Y25470D01*
X31787D01*
X31822Y25470D01*
X33395D01*
Y25835D01*
X33429D01*
X33578Y25865D01*
X33704Y25949D01*
X34348Y26593D01*
X34446Y26512D01*
X34377Y26409D01*
X34347Y26260D01*
Y25626D01*
X33512Y24790D01*
X33395Y24839D01*
Y24946D01*
X31822D01*
X31787Y24946D01*
X31695D01*
X31660Y24946D01*
X30087D01*
Y23438D01*
X30502D01*
Y22769D01*
X30532Y22621D01*
X30616Y22495D01*
X31443Y21667D01*
X31569Y21583D01*
X31718Y21554D01*
X40225D01*
X40670Y21108D01*
X40693Y20992D01*
X40800Y20832D01*
X40960Y20726D01*
X41148Y20688D01*
X41336Y20726D01*
X41496Y20832D01*
X41603Y20992D01*
X41640Y21180D01*
X41603Y21368D01*
X41496Y21528D01*
X41336Y21635D01*
X41220Y21658D01*
X40661Y22217D01*
X40535Y22301D01*
X40386Y22330D01*
X31879D01*
X31279Y22930D01*
Y23438D01*
X31660D01*
X31695Y23438D01*
X31787D01*
X31822Y23438D01*
X33395D01*
Y23804D01*
X33463D01*
X33612Y23833D01*
X33738Y23917D01*
X35011Y25190D01*
X35095Y25316D01*
X35124Y25465D01*
Y26099D01*
X35837Y26812D01*
X36546D01*
Y25896D01*
X37976D01*
Y25677D01*
X37909Y25578D01*
X37872Y25390D01*
X37909Y25202D01*
X38016Y25042D01*
X38176Y24936D01*
X38364Y24898D01*
X38552Y24936D01*
X38712Y25042D01*
X38819Y25202D01*
X38856Y25390D01*
X38819Y25578D01*
X38752Y25677D01*
Y25896D01*
X39054D01*
Y26696D01*
Y27496D01*
Y28296D01*
Y29096D01*
Y29896D01*
Y30696D01*
Y31496D01*
Y32296D01*
Y33096D01*
Y33896D01*
Y34696D01*
Y35496D01*
Y36296D01*
Y37096D01*
Y37896D01*
Y38696D01*
Y39496D01*
Y40296D01*
Y41096D01*
Y41896D01*
Y42696D01*
Y43496D01*
Y44296D01*
Y45096D01*
Y46374D01*
X39181Y46386D01*
X39205Y46265D01*
X39289Y46139D01*
X40103Y45325D01*
X40229Y45241D01*
X40377Y45212D01*
X40946D01*
Y44927D01*
X43454D01*
Y45212D01*
X46229D01*
X46341Y45085D01*
Y44810D01*
X45975D01*
X45826Y44781D01*
X45700Y44697D01*
X44435Y43432D01*
X44351Y43306D01*
X44322Y43157D01*
Y40612D01*
X44098Y40388D01*
X43454D01*
Y40673D01*
X40946D01*
Y40296D01*
Y39496D01*
Y38696D01*
Y37896D01*
Y37727D01*
X43454D01*
Y38012D01*
X44634D01*
X44783Y38041D01*
X44909Y38125D01*
X46379Y39596D01*
X47914D01*
X47949Y39596D01*
X48041D01*
X48076Y39596D01*
X49649D01*
Y39961D01*
X50713D01*
X51617Y39057D01*
X51743Y38973D01*
X51892Y38944D01*
X55469D01*
Y38578D01*
X55885D01*
Y38050D01*
X55469D01*
Y37842D01*
X54851D01*
X54752Y37908D01*
X54564Y37945D01*
X54376Y37908D01*
X54216Y37801D01*
X54109Y37641D01*
X54072Y37453D01*
X54109Y37265D01*
X54216Y37105D01*
X54376Y36999D01*
X54564Y36961D01*
X54752Y36999D01*
X54851Y37065D01*
X55469D01*
Y36542D01*
X57042D01*
X57077Y36542D01*
X57169D01*
X57204Y36542D01*
X58777D01*
Y36908D01*
X59365D01*
X63176Y33097D01*
Y16862D01*
X62082Y15769D01*
X61716Y15403D01*
X61600Y15380D01*
X61440Y15273D01*
X61333Y15113D01*
X61296Y14925D01*
X61333Y14737D01*
X61440Y14577D01*
X61600Y14470D01*
X61788Y14433D01*
X61976Y14470D01*
X62136Y14577D01*
X62243Y14737D01*
X62266Y14853D01*
X62632Y15219D01*
X63839Y16426D01*
X63923Y16552D01*
X63952Y16701D01*
Y33258D01*
X63923Y33407D01*
X63839Y33533D01*
X59801Y37571D01*
X59675Y37655D01*
X59526Y37685D01*
X58777D01*
Y38050D01*
X57204D01*
X57169Y38050D01*
X57077D01*
X57042Y38050D01*
X56661D01*
Y38578D01*
X57042D01*
X57077Y38578D01*
X57169D01*
X57204Y38578D01*
X58777D01*
Y38944D01*
X59538D01*
X64676Y33806D01*
Y19972D01*
X64609Y19873D01*
X64572Y19685D01*
X64609Y19497D01*
X64716Y19337D01*
X64876Y19230D01*
X65064Y19193D01*
X65252Y19230D01*
X65412Y19337D01*
X65519Y19497D01*
X65556Y19685D01*
X65519Y19873D01*
X65452Y19972D01*
Y33967D01*
X65423Y34116D01*
X65339Y34242D01*
X59974Y39607D01*
X59848Y39691D01*
X59699Y39721D01*
X58777D01*
Y40086D01*
X57204D01*
X57169Y40086D01*
X57077D01*
X57042Y40086D01*
X55469D01*
Y39721D01*
X52053D01*
X51149Y40625D01*
X51023Y40709D01*
X50874Y40738D01*
X49649D01*
Y41104D01*
X48076D01*
X48041Y41104D01*
X47949D01*
X47914Y41104D01*
X46341D01*
Y40516D01*
X46217Y40491D01*
X46091Y40407D01*
X46079Y40395D01*
X45952Y40447D01*
Y41576D01*
X46224Y41848D01*
X46341Y41799D01*
Y41632D01*
X47914D01*
X47949Y41632D01*
X48041D01*
X48076Y41632D01*
X49649D01*
Y41997D01*
X51052D01*
X52524Y40525D01*
X52650Y40441D01*
X52799Y40412D01*
X60356D01*
X66795Y33973D01*
Y20094D01*
X66751Y20053D01*
X66612Y20033D01*
X66452Y20140D01*
X66264Y20177D01*
X66076Y20140D01*
X65916Y20033D01*
X65809Y19873D01*
X65772Y19685D01*
X65809Y19497D01*
X65916Y19337D01*
X66076Y19230D01*
X66264Y19193D01*
X66452Y19230D01*
X66612Y19337D01*
X66647Y19390D01*
X66800D01*
X66835Y19337D01*
X66995Y19230D01*
X67183Y19193D01*
X67371Y19230D01*
X67531Y19337D01*
X67550Y19366D01*
X67677D01*
X67716Y19308D01*
X67876Y19201D01*
X68064Y19164D01*
X68252Y19201D01*
X68412Y19308D01*
X68519Y19468D01*
X68556Y19656D01*
X68519Y19844D01*
X68452Y19943D01*
Y35920D01*
X68423Y36069D01*
X68339Y36195D01*
X59837Y44697D01*
X59711Y44781D01*
X59562Y44811D01*
X58867D01*
X58777Y44900D01*
X58777Y45176D01*
X58889Y45212D01*
X60403D01*
X69112Y36503D01*
Y19972D01*
X69046Y19873D01*
X69008Y19685D01*
X69046Y19497D01*
X69152Y19337D01*
X69312Y19230D01*
X69500Y19193D01*
X69688Y19230D01*
X69848Y19337D01*
X69955Y19497D01*
X69992Y19685D01*
X69955Y19873D01*
X69888Y19972D01*
Y20728D01*
X70006Y20804D01*
X70015Y20803D01*
X70116Y20652D01*
X70276Y20545D01*
X70464Y20508D01*
X70652Y20545D01*
X70812Y20652D01*
X70919Y20812D01*
X70956Y21000D01*
X70919Y21188D01*
X70852Y21287D01*
Y37838D01*
X70823Y37987D01*
X70739Y38113D01*
X62177Y46675D01*
X62051Y46759D01*
X61902Y46788D01*
X43454Y46788D01*
Y47073D01*
X42200D01*
Y47327D01*
X43454D01*
Y47614D01*
X46341D01*
Y47008D01*
X47914D01*
X47949Y47008D01*
X48041D01*
X48076Y47008D01*
X49649D01*
Y47373D01*
X62403D01*
X72176Y37601D01*
Y21332D01*
X72049Y21293D01*
X72012Y21348D01*
X71852Y21455D01*
X71664Y21492D01*
X71476Y21455D01*
X71316Y21348D01*
X71209Y21188D01*
X71172Y21000D01*
X71209Y20812D01*
X71316Y20652D01*
X71476Y20545D01*
X71664Y20508D01*
X71852Y20545D01*
X72012Y20652D01*
X72049Y20707D01*
X72176Y20669D01*
Y17861D01*
X70658Y16343D01*
X70645D01*
X70546Y16410D01*
X70358Y16447D01*
X70170Y16410D01*
X70010Y16303D01*
X69903Y16143D01*
X69866Y15955D01*
X69903Y15767D01*
X70010Y15607D01*
X70113Y15538D01*
X70111Y15507D01*
X70075Y15411D01*
X69916Y15380D01*
X69756Y15273D01*
X69649Y15113D01*
X69612Y14925D01*
X69649Y14737D01*
X69756Y14577D01*
X69916Y14470D01*
X70104Y14433D01*
X70292Y14470D01*
X70391Y14537D01*
X71059D01*
X71208Y14566D01*
X71334Y14650D01*
X73808Y17124D01*
X73892Y17250D01*
X73921Y17399D01*
Y38878D01*
X73892Y39027D01*
X73808Y39153D01*
X62888Y50073D01*
X62762Y50157D01*
X62613Y50186D01*
X49649D01*
Y50552D01*
X48076D01*
X48041Y50552D01*
X47949D01*
X47914Y50552D01*
X46341D01*
Y50186D01*
X45688D01*
X45539Y50157D01*
X45413Y50073D01*
X44532Y49191D01*
X43454D01*
Y49473D01*
X42200D01*
Y49600D01*
X42073D01*
Y50104D01*
X41054D01*
X41001Y50231D01*
X42236Y51465D01*
X42352Y51488D01*
X42512Y51595D01*
X42619Y51755D01*
X42656Y51943D01*
X42619Y52131D01*
X42512Y52291D01*
X42352Y52398D01*
X42164Y52435D01*
X41976Y52398D01*
X41816Y52291D01*
X41709Y52131D01*
X41686Y52015D01*
X40238Y50567D01*
X40154Y50441D01*
X40125Y50292D01*
Y46781D01*
X40154Y46632D01*
X40238Y46506D01*
X40550Y46195D01*
X40511Y46054D01*
X40480Y46046D01*
X39952Y46574D01*
Y50292D01*
X39923Y50441D01*
X39839Y50567D01*
X38391Y52015D01*
X38368Y52131D01*
X38261Y52291D01*
X38101Y52398D01*
X37913Y52435D01*
X37725Y52398D01*
X37565Y52291D01*
X37458Y52131D01*
X37421Y51943D01*
X37458Y51755D01*
X37565Y51595D01*
X37725Y51488D01*
X37841Y51465D01*
X39091Y50216D01*
X39023Y50104D01*
X36546D01*
Y49988D01*
X36387D01*
X36288Y50055D01*
X36100Y50092D01*
X35915Y50055D01*
X35893Y50052D01*
X35788Y50123D01*
Y53378D01*
X35759Y53526D01*
X35675Y53652D01*
X34348Y54979D01*
X34222Y55063D01*
X34074Y55092D01*
X33395D01*
Y55458D01*
X31822D01*
X31787Y55458D01*
D02*
G37*
G36*
X40000Y52760D02*
X39829Y52737D01*
X39670Y52671D01*
X39534Y52567D01*
X39429Y52430D01*
X39363Y52271D01*
X39340Y52100D01*
X39363Y51929D01*
X39429Y51770D01*
X39534Y51634D01*
X39670Y51529D01*
X39829Y51463D01*
X40000Y51440D01*
X40171Y51463D01*
X40330Y51529D01*
X40466Y51634D01*
X40571Y51770D01*
X40637Y51929D01*
X40660Y52100D01*
X40637Y52271D01*
X40571Y52430D01*
X40466Y52567D01*
X40330Y52671D01*
X40171Y52737D01*
X40000Y52760D01*
D02*
G37*
G36*
X43454Y50104D02*
X42327D01*
Y49727D01*
X43454D01*
Y50104D01*
D02*
G37*
G36*
X71813Y48667D02*
X71469Y48634D01*
X71139Y48533D01*
X70834Y48370D01*
X70567Y48151D01*
X70348Y47884D01*
X70185Y47579D01*
X70084Y47249D01*
X70051Y46905D01*
X70084Y46561D01*
X70185Y46231D01*
X70348Y45926D01*
X70567Y45659D01*
X70834Y45440D01*
X71139Y45277D01*
X71469Y45176D01*
X71813Y45143D01*
X72157Y45176D01*
X72487Y45277D01*
X72792Y45440D01*
X73059Y45659D01*
X73278Y45926D01*
X73441Y46231D01*
X73542Y46561D01*
X73575Y46905D01*
X73542Y47249D01*
X73441Y47579D01*
X73278Y47884D01*
X73059Y48151D01*
X72792Y48370D01*
X72487Y48533D01*
X72157Y48634D01*
X71813Y48667D01*
D02*
G37*
G36*
X8173D02*
X7829Y48634D01*
X7499Y48533D01*
X7194Y48370D01*
X6927Y48151D01*
X6708Y47884D01*
X6545Y47579D01*
X6444Y47249D01*
X6411Y46905D01*
X6444Y46561D01*
X6545Y46231D01*
X6708Y45926D01*
X6927Y45659D01*
X7194Y45440D01*
X7499Y45277D01*
X7829Y45176D01*
X8173Y45143D01*
X8517Y45176D01*
X8847Y45277D01*
X9152Y45440D01*
X9419Y45659D01*
X9638Y45926D01*
X9801Y46231D01*
X9902Y46561D01*
X9935Y46905D01*
X9902Y47249D01*
X9801Y47579D01*
X9638Y47884D01*
X9419Y48151D01*
X9152Y48370D01*
X8847Y48533D01*
X8517Y48634D01*
X8173Y48667D01*
D02*
G37*
G36*
X14363Y45088D02*
X14175Y45051D01*
X14015Y44944D01*
X13909Y44784D01*
X13871Y44596D01*
X13909Y44408D01*
X14015Y44248D01*
X14175Y44141D01*
X14363Y44104D01*
X14552Y44141D01*
X14711Y44248D01*
X14818Y44408D01*
X14855Y44596D01*
X14818Y44784D01*
X14711Y44944D01*
X14552Y45051D01*
X14363Y45088D01*
D02*
G37*
G36*
X43454Y44673D02*
X40946D01*
Y44296D01*
Y43496D01*
Y42696D01*
Y41896D01*
Y41096D01*
Y40927D01*
X43454D01*
Y41096D01*
Y41896D01*
Y42696D01*
Y43496D01*
Y44296D01*
Y44673D01*
D02*
G37*
G36*
X76882Y41200D02*
X76650Y41154D01*
X76432Y41063D01*
X76235Y40932D01*
X76068Y40765D01*
X75937Y40568D01*
X75846Y40350D01*
X75800Y40118D01*
X75800Y40000D01*
X75800Y39882D01*
X75846Y39650D01*
X75937Y39432D01*
X76068Y39235D01*
X76235Y39068D01*
X76432Y38937D01*
X76650Y38846D01*
X76882Y38800D01*
X77000Y38800D01*
X77118D01*
X77350Y38846D01*
X77568Y38937D01*
X77765Y39068D01*
X77932Y39235D01*
X78063Y39432D01*
X78154Y39650D01*
X78200Y39882D01*
Y40000D01*
X78200Y40000D01*
X78200Y40118D01*
X78154Y40350D01*
X78063Y40568D01*
X77932Y40765D01*
X77765Y40932D01*
X77568Y41063D01*
X77350Y41154D01*
X77118Y41200D01*
X77000Y41200D01*
X77000Y41200D01*
X76882Y41200D01*
D02*
G37*
G36*
X48041Y39068D02*
X47949D01*
X47914Y39068D01*
X46341D01*
Y38702D01*
X46136D01*
X45987Y38673D01*
X45861Y38589D01*
X43625Y36353D01*
X43581Y36286D01*
X43528Y36290D01*
X43454Y36325D01*
Y37096D01*
Y37473D01*
X40946D01*
Y37096D01*
Y36296D01*
Y35496D01*
Y34696D01*
Y33896D01*
Y33096D01*
Y32296D01*
Y31496D01*
Y30696D01*
Y29896D01*
Y29096D01*
Y28296D01*
Y27496D01*
Y26696D01*
Y26527D01*
X43454D01*
Y26814D01*
X44821D01*
X45813Y25822D01*
X45939Y25738D01*
X46088Y25708D01*
X46341D01*
Y25343D01*
X47914D01*
X47949Y25343D01*
X48041D01*
X48076Y25343D01*
X48457D01*
Y13147D01*
X48395Y13053D01*
X48357Y12865D01*
X48395Y12677D01*
X48501Y12517D01*
X48661Y12410D01*
X48849Y12373D01*
X49037Y12410D01*
X49197Y12517D01*
X49304Y12677D01*
X49315Y12736D01*
X49445D01*
X49456Y12677D01*
X49563Y12517D01*
X49723Y12410D01*
X49911Y12373D01*
X50099Y12410D01*
X50259Y12517D01*
X50366Y12677D01*
X50378Y12737D01*
X50507D01*
X50519Y12677D01*
X50626Y12517D01*
X50785Y12410D01*
X50973Y12373D01*
X51162Y12410D01*
X51321Y12517D01*
X51428Y12677D01*
X51440Y12735D01*
X51569D01*
X51580Y12677D01*
X51687Y12517D01*
X51847Y12410D01*
X52035Y12373D01*
X52223Y12410D01*
X52383Y12517D01*
X52489Y12677D01*
X52502Y12738D01*
X52631D01*
X52643Y12677D01*
X52750Y12517D01*
X52910Y12410D01*
X53098Y12373D01*
X53286Y12410D01*
X53446Y12517D01*
X53553Y12677D01*
X53564Y12736D01*
X53694D01*
X53706Y12677D01*
X53812Y12517D01*
X53972Y12410D01*
X54160Y12373D01*
X54348Y12410D01*
X54508Y12517D01*
X54615Y12677D01*
X54638Y12793D01*
X59039Y17194D01*
X59123Y17320D01*
X59152Y17469D01*
Y30263D01*
X59123Y30412D01*
X59039Y30538D01*
X50988Y38589D01*
X50862Y38673D01*
X50713Y38702D01*
X49649D01*
Y39068D01*
X48076D01*
X48041Y39068D01*
D02*
G37*
G36*
X12527Y32913D02*
X12339Y32876D01*
X12179Y32769D01*
X12073Y32609D01*
X12035Y32421D01*
X12073Y32233D01*
X12179Y32073D01*
X12339Y31967D01*
X12527Y31929D01*
X12715Y31967D01*
X12875Y32073D01*
X12982Y32233D01*
X13019Y32421D01*
X12982Y32609D01*
X12875Y32769D01*
X12715Y32876D01*
X12527Y32913D01*
D02*
G37*
G36*
X43454Y26273D02*
X42327D01*
Y25896D01*
X43454D01*
Y26273D01*
D02*
G37*
G36*
X42073D02*
X40946D01*
Y25896D01*
X42073D01*
Y26273D01*
D02*
G37*
G36*
X40000Y24761D02*
X39777Y24732D01*
X39569Y24646D01*
X39391Y24509D01*
X39254Y24331D01*
X39168Y24123D01*
X39139Y23900D01*
X39168Y23677D01*
X39254Y23469D01*
X39391Y23291D01*
X39569Y23154D01*
X39777Y23068D01*
X40000Y23039D01*
X40223Y23068D01*
X40431Y23154D01*
X40609Y23291D01*
X40746Y23469D01*
X40832Y23677D01*
X40861Y23900D01*
X40832Y24123D01*
X40746Y24331D01*
X40609Y24509D01*
X40431Y24646D01*
X40223Y24732D01*
X40000Y24761D01*
D02*
G37*
G36*
X71074Y20177D02*
X70885Y20140D01*
X70726Y20033D01*
X70619Y19873D01*
X70582Y19685D01*
X70619Y19497D01*
X70726Y19337D01*
X70885Y19230D01*
X71074Y19193D01*
X71262Y19230D01*
X71421Y19337D01*
X71528Y19497D01*
X71565Y19685D01*
X71528Y19873D01*
X71421Y20033D01*
X71262Y20140D01*
X71074Y20177D01*
D02*
G37*
G36*
X44500D02*
X44312Y20140D01*
X44152Y20033D01*
X44045Y19873D01*
X44008Y19685D01*
X44045Y19497D01*
X44152Y19337D01*
X44312Y19230D01*
X44500Y19193D01*
X44688Y19230D01*
X44848Y19337D01*
X44954Y19497D01*
X44992Y19685D01*
X44954Y19873D01*
X44848Y20033D01*
X44688Y20140D01*
X44500Y20177D01*
D02*
G37*
G36*
X36864D02*
X36676Y20140D01*
X36516Y20033D01*
X36410Y19873D01*
X36372Y19685D01*
X36410Y19497D01*
X36516Y19337D01*
X36676Y19230D01*
X36864Y19193D01*
X37052Y19230D01*
X37212Y19337D01*
X37319Y19497D01*
X37356Y19685D01*
X37319Y19873D01*
X37212Y20033D01*
X37052Y20140D01*
X36864Y20177D01*
D02*
G37*
G36*
X24257D02*
X24069Y20140D01*
X23909Y20033D01*
X23802Y19873D01*
X23765Y19685D01*
X23802Y19497D01*
X23909Y19337D01*
X24069Y19230D01*
X24257Y19193D01*
X24445Y19230D01*
X24605Y19337D01*
X24712Y19497D01*
X24749Y19685D01*
X24712Y19873D01*
X24605Y20033D01*
X24445Y20140D01*
X24257Y20177D01*
D02*
G37*
G36*
X11664D02*
X11476Y20140D01*
X11316Y20033D01*
X11209Y19873D01*
X11172Y19685D01*
X11209Y19497D01*
X11316Y19337D01*
X11476Y19230D01*
X11664Y19193D01*
X11852Y19230D01*
X12012Y19337D01*
X12119Y19497D01*
X12156Y19685D01*
X12119Y19873D01*
X12012Y20033D01*
X11852Y20140D01*
X11664Y20177D01*
D02*
G37*
G36*
X10500D02*
X10312Y20140D01*
X10152Y20033D01*
X10045Y19873D01*
X10008Y19685D01*
X10045Y19497D01*
X10152Y19337D01*
X10312Y19230D01*
X10500Y19193D01*
X10688Y19230D01*
X10848Y19337D01*
X10955Y19497D01*
X10992Y19685D01*
X10955Y19873D01*
X10848Y20033D01*
X10688Y20140D01*
X10500Y20177D01*
D02*
G37*
G36*
X2382Y21200D02*
X2150Y21154D01*
X1932Y21063D01*
X1735Y20932D01*
X1568Y20765D01*
X1437Y20568D01*
X1346Y20350D01*
X1300Y20118D01*
X1300Y20000D01*
X1300Y19882D01*
X1346Y19650D01*
X1437Y19432D01*
X1568Y19235D01*
X1735Y19068D01*
X1932Y18937D01*
X2150Y18846D01*
X2382Y18800D01*
X2500Y18800D01*
X2618D01*
X2850Y18846D01*
X3068Y18937D01*
X3265Y19068D01*
X3432Y19235D01*
X3563Y19432D01*
X3654Y19650D01*
X3700Y19882D01*
Y20000D01*
X3700Y20000D01*
X3700Y20118D01*
X3654Y20350D01*
X3563Y20568D01*
X3432Y20765D01*
X3265Y20932D01*
X3068Y21063D01*
X2850Y21154D01*
X2618Y21200D01*
X2500Y21200D01*
X2500Y21200D01*
X2382Y21200D01*
D02*
G37*
G36*
X60071Y34468D02*
X59883Y34431D01*
X59723Y34324D01*
X59616Y34165D01*
X59579Y33977D01*
X59616Y33788D01*
X59683Y33689D01*
Y16925D01*
X59190Y16433D01*
X59074Y16410D01*
X58914Y16303D01*
X58807Y16143D01*
X58770Y15955D01*
X58807Y15767D01*
X58914Y15607D01*
X59074Y15500D01*
X59262Y15463D01*
X59450Y15500D01*
X59610Y15607D01*
X59717Y15767D01*
X59740Y15883D01*
X60346Y16489D01*
X60430Y16615D01*
X60459Y16764D01*
Y33689D01*
X60526Y33788D01*
X60563Y33977D01*
X60526Y34165D01*
X60419Y34324D01*
X60259Y34431D01*
X60071Y34468D01*
D02*
G37*
G36*
X14224Y32913D02*
X14036Y32876D01*
X13876Y32769D01*
X13769Y32609D01*
X13732Y32421D01*
X13769Y32233D01*
X13836Y32134D01*
Y15244D01*
X13769Y15145D01*
X13732Y14957D01*
X13769Y14769D01*
X13876Y14609D01*
X14036Y14502D01*
X14224Y14465D01*
X14412Y14502D01*
X14572Y14609D01*
X14679Y14769D01*
X14716Y14957D01*
X14679Y15145D01*
X14612Y15244D01*
Y32134D01*
X14679Y32233D01*
X14716Y32421D01*
X14679Y32609D01*
X14572Y32769D01*
X14412Y32876D01*
X14224Y32913D01*
D02*
G37*
G36*
X73414Y14766D02*
X73191Y14737D01*
X72983Y14651D01*
X72805Y14514D01*
X72668Y14336D01*
X72582Y14128D01*
X72553Y13905D01*
X72582Y13682D01*
X72668Y13474D01*
X72805Y13296D01*
X72983Y13159D01*
X73191Y13073D01*
X73414Y13044D01*
X73637Y13073D01*
X73845Y13159D01*
X74023Y13296D01*
X74160Y13474D01*
X74246Y13682D01*
X74275Y13905D01*
X74246Y14128D01*
X74160Y14336D01*
X74023Y14514D01*
X73845Y14651D01*
X73637Y14737D01*
X73414Y14766D01*
D02*
G37*
G36*
X6614Y15019D02*
X6326Y14981D01*
X6057Y14869D01*
X5827Y14692D01*
X5650Y14462D01*
X5538Y14193D01*
X5500Y13905D01*
X5538Y13617D01*
X5650Y13348D01*
X5827Y13118D01*
X6057Y12941D01*
X6326Y12829D01*
X6614Y12791D01*
X6902Y12829D01*
X7171Y12941D01*
X7401Y13118D01*
X7578Y13348D01*
X7690Y13617D01*
X7728Y13905D01*
X7690Y14193D01*
X7578Y14462D01*
X7401Y14692D01*
X7171Y14869D01*
X6902Y14981D01*
X6614Y15019D01*
D02*
G37*
G36*
X16060Y45088D02*
X15872Y45051D01*
X15712Y44944D01*
X15606Y44784D01*
X15568Y44596D01*
X15606Y44408D01*
X15672Y44309D01*
X15672Y13287D01*
X15606Y13188D01*
X15568Y13000D01*
X15606Y12812D01*
X15712Y12652D01*
X15872Y12545D01*
X16060Y12508D01*
X16248Y12545D01*
X16408Y12652D01*
X16515Y12812D01*
X16552Y13000D01*
X16515Y13188D01*
X16448Y13287D01*
X16448Y44309D01*
X16515Y44408D01*
X16552Y44596D01*
X16515Y44784D01*
X16408Y44944D01*
X16248Y45051D01*
X16060Y45088D01*
D02*
G37*
G36*
X76127Y6753D02*
Y4127D01*
X78753D01*
X78729Y4432D01*
X78627Y4854D01*
X78461Y5254D01*
X78235Y5624D01*
X77953Y5953D01*
X77624Y6235D01*
X77254Y6461D01*
X76854Y6627D01*
X76432Y6729D01*
X76127Y6753D01*
D02*
G37*
G36*
X75873D02*
X75568Y6729D01*
X75146Y6627D01*
X74746Y6461D01*
X74376Y6235D01*
X74047Y5953D01*
X73765Y5624D01*
X73539Y5254D01*
X73373Y4854D01*
X73271Y4432D01*
X73247Y4127D01*
X75873D01*
Y6753D01*
D02*
G37*
G36*
X4127D02*
Y4127D01*
X6753D01*
X6729Y4432D01*
X6627Y4854D01*
X6461Y5254D01*
X6235Y5624D01*
X5953Y5953D01*
X5624Y6235D01*
X5254Y6461D01*
X4854Y6627D01*
X4432Y6729D01*
X4127Y6753D01*
D02*
G37*
G36*
X3873D02*
X3568Y6729D01*
X3146Y6627D01*
X2746Y6461D01*
X2376Y6235D01*
X2047Y5953D01*
X1765Y5624D01*
X1539Y5254D01*
X1373Y4854D01*
X1271Y4432D01*
X1247Y4127D01*
X3873D01*
Y6753D01*
D02*
G37*
G36*
X49882Y4200D02*
X49650Y4154D01*
X49432Y4063D01*
X49235Y3932D01*
X49068Y3765D01*
X48937Y3568D01*
X48846Y3350D01*
X48800Y3118D01*
X48800Y3000D01*
X48800Y2882D01*
X48846Y2650D01*
X48937Y2432D01*
X49068Y2235D01*
X49235Y2068D01*
X49432Y1936D01*
X49650Y1846D01*
X49882Y1800D01*
X50000Y1800D01*
X50118D01*
X50350Y1846D01*
X50568Y1937D01*
X50765Y2068D01*
X50932Y2235D01*
X51063Y2432D01*
X51154Y2650D01*
X51200Y2882D01*
Y3000D01*
X51200Y3000D01*
X51200Y3118D01*
X51154Y3350D01*
X51063Y3568D01*
X50932Y3765D01*
X50765Y3932D01*
X50568Y4063D01*
X50350Y4154D01*
X50118Y4200D01*
X50000Y4200D01*
X50000Y4200D01*
X49882Y4200D01*
D02*
G37*
G36*
X78753Y3873D02*
X76127D01*
Y1247D01*
X76432Y1271D01*
X76854Y1373D01*
X77254Y1539D01*
X77624Y1765D01*
X77953Y2047D01*
X78235Y2376D01*
X78461Y2746D01*
X78627Y3146D01*
X78729Y3568D01*
X78753Y3873D01*
D02*
G37*
G36*
X75873D02*
X73247D01*
X73271Y3568D01*
X73373Y3146D01*
X73539Y2746D01*
X73765Y2376D01*
X74047Y2047D01*
X74376Y1765D01*
X74746Y1539D01*
X75146Y1373D01*
X75568Y1271D01*
X75873Y1247D01*
Y3873D01*
D02*
G37*
G36*
X6753D02*
X4127D01*
Y1247D01*
X4432Y1271D01*
X4854Y1373D01*
X5254Y1539D01*
X5624Y1765D01*
X5953Y2047D01*
X6235Y2376D01*
X6461Y2746D01*
X6627Y3146D01*
X6729Y3568D01*
X6753Y3873D01*
D02*
G37*
G36*
X3873D02*
X1247D01*
X1271Y3568D01*
X1373Y3146D01*
X1539Y2746D01*
X1765Y2376D01*
X2047Y2047D01*
X2376Y1765D01*
X2746Y1539D01*
X3146Y1373D01*
X3568Y1271D01*
X3873Y1247D01*
Y3873D01*
D02*
G37*
%LPD*%
G36*
X77000Y40500D02*
X77000Y40500D01*
X77099Y40500D01*
X77283Y40424D01*
X77424Y40283D01*
X77500Y40099D01*
X77500Y40000D01*
Y40000D01*
X77500Y39901D01*
X77424Y39717D01*
X77283Y39576D01*
X77099Y39500D01*
X77000Y39500D01*
X76901Y39500D01*
X76717Y39576D01*
X76576Y39717D01*
X76500Y39901D01*
X76500Y40000D01*
X76500Y40099D01*
X76576Y40283D01*
X76717Y40424D01*
X76901Y40500D01*
X77000Y40500D01*
D02*
G37*
G36*
X57176Y28809D02*
Y18101D01*
X52823Y13749D01*
X52739Y13623D01*
X52710Y13474D01*
Y13152D01*
X52643Y13053D01*
X52631Y12992D01*
X52502D01*
X52489Y13053D01*
X52423Y13152D01*
Y29827D01*
X52394Y29976D01*
X52310Y30102D01*
X50039Y32373D01*
X49913Y32457D01*
X49764Y32486D01*
X49649D01*
Y32960D01*
X48076D01*
X48041Y32960D01*
X47949D01*
X47914Y32960D01*
X46341D01*
Y32594D01*
X46211D01*
X46062Y32565D01*
X45936Y32481D01*
X45727Y32272D01*
X45600Y32325D01*
Y33154D01*
X46214Y33768D01*
X46341Y33715D01*
Y33488D01*
X47914D01*
X47949Y33488D01*
X48041D01*
X48076Y33488D01*
X49649D01*
Y33853D01*
X49896D01*
X52676Y31074D01*
Y19972D01*
X52609Y19873D01*
X52572Y19685D01*
X52609Y19497D01*
X52716Y19337D01*
X52876Y19230D01*
X53064Y19193D01*
X53252Y19230D01*
X53412Y19337D01*
X53519Y19497D01*
X53556Y19685D01*
X53519Y19873D01*
X53452Y19972D01*
Y31235D01*
X53423Y31384D01*
X53339Y31510D01*
X50332Y34517D01*
X50206Y34601D01*
X50057Y34630D01*
X49649D01*
Y34996D01*
X48076D01*
X48041Y34996D01*
X47949D01*
X47914Y34996D01*
X46341D01*
Y34630D01*
X46139D01*
X45990Y34601D01*
X45864Y34517D01*
X45083Y33735D01*
X44965Y33784D01*
Y34655D01*
X46200Y35889D01*
X46341D01*
Y35524D01*
X47914D01*
X47949Y35524D01*
X48041D01*
X48076Y35524D01*
X49649D01*
Y35889D01*
X50095D01*
X57176Y28809D01*
D02*
G37*
%LPC*%
G36*
X56064Y20177D02*
X55876Y20140D01*
X55716Y20033D01*
X55610Y19873D01*
X55572Y19685D01*
X55610Y19497D01*
X55716Y19337D01*
X55876Y19230D01*
X56064Y19193D01*
X56252Y19230D01*
X56412Y19337D01*
X56519Y19497D01*
X56556Y19685D01*
X56519Y19873D01*
X56412Y20033D01*
X56252Y20140D01*
X56064Y20177D01*
D02*
G37*
%LPD*%
G36*
X2500Y20500D02*
X2500Y20500D01*
X2599Y20500D01*
X2783Y20424D01*
X2924Y20283D01*
X3000Y20099D01*
X3000Y20000D01*
Y20000D01*
X3000Y19901D01*
X2924Y19717D01*
X2783Y19576D01*
X2599Y19500D01*
X2500Y19500D01*
X2401Y19500D01*
X2217Y19576D01*
X2076Y19717D01*
X2000Y19901D01*
X2000Y20000D01*
X2000Y20099D01*
X2076Y20283D01*
X2217Y20424D01*
X2401Y20500D01*
X2500Y20500D01*
D02*
G37*
G36*
X50000Y3500D02*
X50000Y3500D01*
X50099Y3500D01*
X50283Y3424D01*
X50424Y3283D01*
X50500Y3099D01*
X50500Y3000D01*
Y3000D01*
X50500Y2901D01*
X50424Y2717D01*
X50283Y2576D01*
X50099Y2500D01*
X50000Y2500D01*
X49901Y2500D01*
X49717Y2576D01*
X49576Y2717D01*
X49500Y2901D01*
X49500Y3000D01*
X49500Y3099D01*
X49576Y3283D01*
X49717Y3424D01*
X49901Y3500D01*
X50000Y3500D01*
D02*
G37*
D14*
X38364Y25390D02*
Y26277D01*
X38241Y26400D02*
X38364Y26277D01*
X37800Y26400D02*
X38241D01*
X54564Y37453D02*
X56116D01*
X56273Y37296D01*
X54610Y42386D02*
X54610Y42386D01*
X56273D01*
X52799Y40800D02*
X60517D01*
X51213Y42386D02*
X52799Y40800D01*
X48845Y42386D02*
X51213D01*
X51892Y39332D02*
X56273D01*
X50874Y40350D02*
X51892Y39332D01*
X48845Y40350D02*
X50874D01*
X58764Y17469D02*
Y30263D01*
X50713Y38314D02*
X58764Y30263D01*
X48845Y38314D02*
X50713D01*
X37913Y51943D02*
X39564Y50292D01*
Y46414D02*
Y50292D01*
Y46414D02*
X40377Y45600D01*
X42200D01*
X40513Y50292D02*
X42164Y51943D01*
X40513Y46781D02*
Y50292D01*
Y46781D02*
X40894Y46400D01*
X42200D01*
X31164Y11805D02*
Y13000D01*
X28764Y11805D02*
Y13146D01*
X22225Y19685D02*
X28764Y13146D01*
X22225Y19685D02*
Y35785D01*
X29191Y52324D02*
X29535Y52668D01*
X26664Y20170D02*
X39029Y7805D01*
X40767D01*
X42200Y47203D02*
X43900D01*
X42200Y49603D02*
X43900D01*
X42200Y40803D02*
X43900D01*
X42200Y37603D02*
X43900D01*
X42200Y26403D02*
X43900D01*
X42200Y44803D02*
X43900D01*
X60564Y45600D02*
X69500Y36664D01*
Y19685D02*
Y36664D01*
X59562Y44422D02*
X68064Y35920D01*
Y19656D02*
Y35920D01*
X48845Y12865D02*
Y26097D01*
X57564Y17940D02*
Y28970D01*
X53098Y13474D02*
X57564Y17940D01*
X53098Y12865D02*
Y13474D01*
X54160Y12865D02*
X58764Y17469D01*
X72564Y17700D02*
Y37762D01*
X70819Y15955D02*
X72564Y17700D01*
X70358Y15955D02*
X70819D01*
X73533Y17399D02*
Y38878D01*
X71059Y14925D02*
X73533Y17399D01*
X70104Y14925D02*
X71059D01*
X62357Y15494D02*
X63564Y16701D01*
X61788Y14925D02*
X62357Y15494D01*
X59262Y15955D02*
X60071Y16764D01*
X26664Y20170D02*
Y36300D01*
X23697Y13895D02*
X23749D01*
X16060Y44596D02*
X16060Y13000D01*
X19764Y17828D02*
X23697Y13895D01*
X19764Y47663D02*
X19764Y17828D01*
X40475Y12865D02*
X41505Y11835D01*
X39049Y12865D02*
X40475D01*
X60071Y16764D02*
Y33977D01*
X29364Y22550D02*
X39049Y12865D01*
X28448Y21845D02*
X37446Y12847D01*
X28448Y21845D02*
Y29689D01*
X63564Y16701D02*
Y33258D01*
X21082Y18669D02*
X26938Y12812D01*
X21082Y18669D02*
Y41881D01*
X32566Y24192D02*
X33463D01*
X34736Y25465D02*
Y26260D01*
X33463Y24192D02*
X34736Y25465D01*
X34642Y28800D02*
X37800D01*
X34098Y28256D02*
X34642Y28800D01*
X32591Y28256D02*
X34098D01*
X34606Y29600D02*
X37800D01*
X33918Y30288D02*
X34606Y29600D01*
X32591Y30288D02*
X33918D01*
X35306Y33188D02*
Y36233D01*
X33439Y38100D02*
X35306Y36233D01*
X32906Y38100D02*
X33439D01*
X33429Y32005D02*
X35034Y30400D01*
X32905Y32005D02*
X33429D01*
X32591Y32320D02*
X32905Y32005D01*
X42200Y28803D02*
X44932D01*
X46299Y30170D02*
X47145D01*
X44932Y28803D02*
X46299Y30170D01*
X42200Y29603D02*
X44626D01*
X46211Y32206D02*
X47117D01*
X45964Y31959D02*
X46211Y32206D01*
X45964Y30941D02*
Y31959D01*
X46928Y40132D02*
X47145Y40350D01*
X46366Y40132D02*
X46928D01*
X44634Y38400D02*
X46366Y40132D01*
X28448Y29689D02*
X29047Y30288D01*
X29364Y25551D02*
X30037Y26224D01*
X29364Y22550D02*
Y25551D01*
X29535Y52668D02*
X30891D01*
X44577Y34816D02*
X46039Y36278D01*
X44577Y31955D02*
Y34816D01*
X43822Y31200D02*
X44577Y31955D01*
X42200Y27203D02*
X44982D01*
X46088Y26097D02*
X47145D01*
X44982Y27203D02*
X46088Y26097D01*
X44626Y29603D02*
X45964Y30941D01*
X45212Y33315D02*
X46139Y34242D01*
X45212Y31380D02*
Y33315D01*
X44232Y30400D02*
X45212Y31380D01*
X43900Y36078D02*
X46136Y38314D01*
X43900Y32289D02*
Y36078D01*
X43611Y32000D02*
X43900Y32289D01*
X42200Y32000D02*
X43611D01*
X46139Y34242D02*
X47145D01*
X46039Y36278D02*
X47145D01*
X46136Y38314D02*
X47145D01*
X46213Y42386D02*
X47145D01*
X45564Y41737D02*
X46213Y42386D01*
X45564Y40390D02*
Y41737D01*
X44374Y39200D02*
X45564Y40390D01*
X42200Y38400D02*
X44634D01*
X44710Y40451D02*
Y43157D01*
X44259Y40000D02*
X44710Y40451D01*
X42200Y40000D02*
X44259D01*
X42200Y39200D02*
X44374D01*
X44710Y43157D02*
X45975Y44422D01*
X35208Y28003D02*
X37800D01*
X33429Y26224D02*
X35208Y28003D01*
X32591Y26224D02*
X33429D01*
X35676Y27200D02*
X37800D01*
X34736Y26260D02*
X35676Y27200D01*
X35306Y33188D02*
X35694Y32800D01*
X33837Y36384D02*
X34573Y35648D01*
Y32906D02*
Y35648D01*
Y32906D02*
X35474Y32005D01*
X35694Y32800D02*
X37800D01*
X35474Y32005D02*
X37795D01*
X35159Y31200D02*
X37800D01*
X33909Y32450D02*
X35159Y31200D01*
X33909Y32450D02*
Y33909D01*
X35034Y30400D02*
X37800D01*
X32591Y38416D02*
X32906Y38100D01*
X35427Y37600D02*
X37800D01*
X34125Y38902D02*
X35427Y37600D01*
X34125Y38902D02*
Y39930D01*
X35670Y38400D02*
X37800D01*
X35052Y39018D02*
X35670Y38400D01*
X35052Y39018D02*
Y41026D01*
X33590Y42488D02*
X35052Y41026D01*
X33603Y40452D02*
X34125Y39930D01*
X32591Y40452D02*
X33603D01*
X35673Y48003D02*
X37800D01*
X34091Y52668D02*
X34573Y52186D01*
Y49103D02*
Y52186D01*
Y49103D02*
X35673Y48003D01*
X35474Y47203D02*
X37800D01*
X33540Y50632D02*
X33909Y50263D01*
Y48768D02*
Y50263D01*
Y48768D02*
X35474Y47203D01*
X35367Y46403D02*
X37800D01*
X33447Y48323D02*
X35367Y46403D01*
X32864Y48323D02*
X33447D01*
X32591Y48596D02*
X32864Y48323D01*
X35816Y48803D02*
X37800D01*
X35400Y49219D02*
X35816Y48803D01*
X35400Y49219D02*
Y53378D01*
X34074Y54704D02*
X35400Y53378D01*
X33466Y34352D02*
X33909Y33909D01*
X32591Y34352D02*
X33466D01*
X32591Y36384D02*
X33837D01*
X70464Y21000D02*
Y37838D01*
X25400Y18764D02*
X31164Y13000D01*
X25400Y18764D02*
Y36928D01*
X52035Y12865D02*
Y29827D01*
X49764Y32098D02*
X52035Y29827D01*
X49684Y30170D02*
X50973Y28881D01*
Y12865D02*
Y28881D01*
X59526Y37296D02*
X63564Y33258D01*
X50256Y36278D02*
X57564Y28970D01*
X34573Y45603D02*
X37800D01*
X33616Y46560D02*
X34573Y45603D01*
X32591Y46560D02*
X33616D01*
X67183Y19685D02*
Y34134D01*
X60517Y40800D02*
X67183Y34134D01*
X61902Y46400D02*
X70464Y37838D01*
X42200Y46400D02*
X61902Y46400D01*
X42200Y45600D02*
X60564Y45600D01*
X62564Y47762D02*
X72564Y37762D01*
X62613Y49798D02*
X73533Y38878D01*
X48845Y49798D02*
X62613D01*
X57973Y44422D02*
X59562D01*
X65064Y19685D02*
Y33967D01*
X59699Y39332D02*
X65064Y33967D01*
X57973Y39332D02*
X59699D01*
X57973Y37296D02*
X59526D01*
X48845Y47762D02*
X62564D01*
X14224Y14957D02*
Y32421D01*
X26805Y54704D02*
X30891D01*
X19764Y47663D02*
X26805Y54704D01*
X25134Y50632D02*
X30891D01*
X23495Y48993D02*
X25134Y50632D01*
X21082Y41881D02*
X27797Y48596D01*
X30891D01*
X29191Y36384D02*
X30891D01*
X23594Y41782D02*
X28372Y46560D01*
X30891D01*
X23685Y39404D02*
X28805Y44524D01*
X22225Y35785D02*
X28928Y42488D01*
X28805Y44524D02*
X30891D01*
X28924Y40452D02*
X30891D01*
X25400Y36928D02*
X28924Y40452D01*
X28928Y42488D02*
X30891D01*
X27564Y21048D02*
X34694Y13918D01*
X27564Y21048D02*
Y32615D01*
X26664Y36300D02*
X28764Y38400D01*
X27564Y32615D02*
X29301Y34352D01*
X30037Y26224D02*
X30891D01*
X28764Y38400D02*
X30875D01*
X30891Y38416D01*
X29301Y34352D02*
X30891D01*
X29047Y30288D02*
X30891D01*
X40386Y21942D02*
X41148Y21180D01*
X31718Y21942D02*
X40386D01*
X30891Y22769D02*
X31718Y21942D01*
X30891Y22769D02*
Y24192D01*
Y28256D02*
X30988D01*
X29288D02*
X30891D01*
X29191Y32320D02*
X30891D01*
X35400Y43200D02*
X37800D01*
X32591Y42488D02*
X33590D01*
X37795Y32005D02*
X37800Y32000D01*
X34751Y44803D02*
X37800D01*
X32591Y44524D02*
X34472D01*
X32591D02*
X32591D01*
X34472D02*
X34751Y44803D01*
X32591Y50632D02*
X33540D01*
X32591Y52668D02*
X34091D01*
X32591Y54704D02*
X34074D01*
X49911Y12865D02*
Y27879D01*
X49657Y28133D02*
X49911Y27879D01*
X48845Y34242D02*
X50057D01*
X53064Y31235D01*
Y19685D02*
Y31235D01*
X48845Y36278D02*
X50256D01*
X48953Y32098D02*
X49764D01*
X48845Y32206D02*
X48953Y32098D01*
X48845Y30170D02*
X49684D01*
X48845Y28133D02*
X49657D01*
X59693Y42386D02*
X60071Y42008D01*
X59436Y42386D02*
X59693D01*
X59436Y42386D02*
X59436Y42386D01*
X57973Y42386D02*
X59436D01*
X56273D02*
Y44422D01*
Y37296D02*
Y39332D01*
X48845Y44422D02*
X48846Y44422D01*
X56273D01*
X42200Y48803D02*
X44693D01*
X45688Y49798D02*
X47145D01*
X44693Y48803D02*
X45688Y49798D01*
X42200Y48003D02*
X46904D01*
X47145Y47762D01*
X45975Y44422D02*
X47145D01*
X42200Y31200D02*
X43822D01*
X42200Y30400D02*
X44232D01*
X42200Y28003D02*
X47015D01*
X47145Y28133D01*
Y30170D02*
X47245D01*
X36100Y44000D02*
X37800D01*
X36100Y39200D02*
X37800D01*
X36100Y36800D02*
X37800D01*
X36100Y33600D02*
X37800D01*
X36100Y49600D02*
X37800D01*
D17*
X30891Y34352D02*
D03*
X32591D02*
D03*
X32591Y46560D02*
D03*
X30891D02*
D03*
X32591Y44524D02*
D03*
X30891D02*
D03*
X32591Y42488D02*
D03*
X30891D02*
D03*
X32591Y40452D02*
D03*
X30891D02*
D03*
X48845Y32206D02*
D03*
X47145D02*
D03*
X48845Y26097D02*
D03*
X47145D02*
D03*
X57973Y37296D02*
D03*
X56273D02*
D03*
X57973Y39332D02*
D03*
X56273D02*
D03*
X57973Y42386D02*
D03*
X56273D02*
D03*
X57973Y44422D02*
D03*
X56273D02*
D03*
X48845Y40350D02*
D03*
X47145D02*
D03*
X48845Y42386D02*
D03*
X47145D02*
D03*
X48845Y44422D02*
D03*
X47145D02*
D03*
X48845Y34242D02*
D03*
X47145D02*
D03*
X48845Y36278D02*
D03*
X47145D02*
D03*
X48845Y38314D02*
D03*
X47145D02*
D03*
X48845Y49798D02*
D03*
X47145D02*
D03*
X48845Y47762D02*
D03*
X47145D02*
D03*
X48845Y30170D02*
D03*
X47145D02*
D03*
X48845Y28133D02*
D03*
X47145D02*
D03*
X32591Y30288D02*
D03*
X30891D02*
D03*
X32591Y28256D02*
D03*
X30891D02*
D03*
X32591Y26224D02*
D03*
X30891D02*
D03*
X32591Y24192D02*
D03*
X30891D02*
D03*
X32591Y54704D02*
D03*
X30891D02*
D03*
X32591Y52668D02*
D03*
X30891D02*
D03*
X32591Y50632D02*
D03*
X30891D02*
D03*
X32591Y48596D02*
D03*
X30891D02*
D03*
X32591Y32320D02*
D03*
X30891D02*
D03*
X32591Y38416D02*
D03*
X30891D02*
D03*
X32591Y36384D02*
D03*
X30891D02*
D03*
D33*
X6614Y13905D02*
D03*
D35*
X40000Y52100D02*
D03*
D37*
X73414Y13905D02*
D03*
X40000Y23900D02*
D03*
D38*
X4000Y56000D02*
D03*
Y4000D02*
D03*
X76000D02*
D03*
Y56000D02*
D03*
D39*
X22812D02*
D03*
D40*
X20272D02*
D03*
X17732D02*
D03*
X15192D02*
D03*
D41*
X54564Y37453D02*
D03*
X54610Y42386D02*
D03*
X37913Y51943D02*
D03*
X42164D02*
D03*
X31164Y11805D02*
D03*
X29191Y52324D02*
D03*
X40767Y7805D02*
D03*
X66294Y24162D02*
D03*
X68834Y26035D02*
D03*
X70104Y14925D02*
D03*
X44364Y7805D02*
D03*
X23697Y13895D02*
D03*
X41529Y11835D02*
D03*
X28764Y11805D02*
D03*
X16060Y13000D02*
D03*
X34694Y13918D02*
D03*
X70358Y15955D02*
D03*
X61788Y14925D02*
D03*
X59262Y15955D02*
D03*
X16060Y44596D02*
D03*
X60071Y33977D02*
D03*
X43900Y49603D02*
D03*
Y47203D02*
D03*
Y44803D02*
D03*
Y40803D02*
D03*
Y37603D02*
D03*
X38364Y25390D02*
D03*
X34671Y24062D02*
D03*
X23114Y24062D02*
D03*
X54500D02*
D03*
X10570Y25908D02*
D03*
X70464Y21000D02*
D03*
X69500Y19685D02*
D03*
X71074D02*
D03*
X71664Y21000D02*
D03*
X54160Y12865D02*
D03*
X52035D02*
D03*
X53098D02*
D03*
X50973D02*
D03*
X48849D02*
D03*
X67183Y19685D02*
D03*
X14224Y14957D02*
D03*
X17560Y48128D02*
D03*
X26938Y12812D02*
D03*
X23495Y48993D02*
D03*
X23685Y39404D02*
D03*
X23594Y41782D02*
D03*
X29191Y36384D02*
D03*
X35400Y43200D02*
D03*
X37446Y12847D02*
D03*
X41148Y21180D02*
D03*
X29288Y28256D02*
D03*
X29191Y32320D02*
D03*
X10500Y19685D02*
D03*
X49911Y12865D02*
D03*
X53064Y19685D02*
D03*
X60071Y42008D02*
D03*
X65064Y19685D02*
D03*
X36100Y44000D02*
D03*
Y39200D02*
D03*
Y36800D02*
D03*
Y33600D02*
D03*
X44710Y24062D02*
D03*
X66264Y19685D02*
D03*
X36100Y49600D02*
D03*
X43900Y26403D02*
D03*
X68064Y19656D02*
D03*
X11664Y19685D02*
D03*
X10764Y7805D02*
D03*
X11364D02*
D03*
X19764D02*
D03*
X23964D02*
D03*
X36564D02*
D03*
X55764D02*
D03*
X65964D02*
D03*
X70764D02*
D03*
X71364D02*
D03*
X14224Y32421D02*
D03*
Y37453D02*
D03*
X12527Y32421D02*
D03*
X14363Y44596D02*
D03*
X11684Y24112D02*
D03*
X62064Y24123D02*
D03*
X44500Y19685D02*
D03*
X24257D02*
D03*
X36864D02*
D03*
X56064D02*
D03*
D42*
X42200Y49600D02*
D03*
X37800D02*
D03*
X42200Y48800D02*
D03*
X37800D02*
D03*
X42200Y48000D02*
D03*
X37800D02*
D03*
X42200Y47200D02*
D03*
X37800D02*
D03*
X42200Y46400D02*
D03*
X37800D02*
D03*
X42200Y45600D02*
D03*
X37800D02*
D03*
X42200Y44800D02*
D03*
X37800D02*
D03*
X42200Y44000D02*
D03*
X37800D02*
D03*
X42200Y43200D02*
D03*
X37800D02*
D03*
X42200Y42400D02*
D03*
X37800D02*
D03*
X42200Y41600D02*
D03*
X37800D02*
D03*
X42200Y40800D02*
D03*
X37800D02*
D03*
X42200Y40000D02*
D03*
X37800D02*
D03*
X42200Y39200D02*
D03*
X37800D02*
D03*
X42200Y38400D02*
D03*
X37800D02*
D03*
X42200Y37600D02*
D03*
X37800D02*
D03*
X42200Y36800D02*
D03*
X37800D02*
D03*
X42200Y36000D02*
D03*
X37800D02*
D03*
X42200Y35200D02*
D03*
X37800D02*
D03*
X42200Y34400D02*
D03*
X37800D02*
D03*
X42200Y33600D02*
D03*
X37800D02*
D03*
X42200Y32800D02*
D03*
X37800D02*
D03*
X42200Y32000D02*
D03*
X37800D02*
D03*
X42200Y31200D02*
D03*
X37800D02*
D03*
X42200Y30400D02*
D03*
X37800D02*
D03*
X42200Y29600D02*
D03*
X37800D02*
D03*
X42200Y28800D02*
D03*
X37800D02*
D03*
X42200Y28000D02*
D03*
X37800D02*
D03*
X42200Y27200D02*
D03*
X37800D02*
D03*
X42200Y26400D02*
D03*
X37800D02*
D03*
M02*
