G04*
G04 #@! TF.GenerationSoftware,Altium Limited,Altium Designer,19.0.15 (446)*
G04*
G04 Layer_Color=128*
%FSLAX43Y43*%
%MOMM*%
G71*
G01*
G75*
%ADD17R,1.100X1.000*%
%ADD42R,2.000X0.500*%
D17*
X30891Y34352D02*
D03*
X32591D02*
D03*
X32591Y46560D02*
D03*
X30891D02*
D03*
X32591Y44524D02*
D03*
X30891D02*
D03*
X32591Y42488D02*
D03*
X30891D02*
D03*
X32591Y40452D02*
D03*
X30891D02*
D03*
X48845Y32206D02*
D03*
X47145D02*
D03*
X48845Y26097D02*
D03*
X47145D02*
D03*
X57973Y37296D02*
D03*
X56273D02*
D03*
X57973Y39332D02*
D03*
X56273D02*
D03*
X57973Y42386D02*
D03*
X56273D02*
D03*
X57973Y44422D02*
D03*
X56273D02*
D03*
X48845Y40350D02*
D03*
X47145D02*
D03*
X48845Y42386D02*
D03*
X47145D02*
D03*
X48845Y44422D02*
D03*
X47145D02*
D03*
X48845Y34242D02*
D03*
X47145D02*
D03*
X48845Y36278D02*
D03*
X47145D02*
D03*
X48845Y38314D02*
D03*
X47145D02*
D03*
X48845Y49798D02*
D03*
X47145D02*
D03*
X48845Y47762D02*
D03*
X47145D02*
D03*
X48845Y30170D02*
D03*
X47145D02*
D03*
X48845Y28133D02*
D03*
X47145D02*
D03*
X32591Y30288D02*
D03*
X30891D02*
D03*
X32591Y28256D02*
D03*
X30891D02*
D03*
X32591Y26224D02*
D03*
X30891D02*
D03*
X32591Y24192D02*
D03*
X30891D02*
D03*
X32591Y54704D02*
D03*
X30891D02*
D03*
X32591Y52668D02*
D03*
X30891D02*
D03*
X32591Y50632D02*
D03*
X30891D02*
D03*
X32591Y48596D02*
D03*
X30891D02*
D03*
X32591Y32320D02*
D03*
X30891D02*
D03*
X32591Y38416D02*
D03*
X30891D02*
D03*
X32591Y36384D02*
D03*
X30891D02*
D03*
D42*
X42200Y49600D02*
D03*
X37800D02*
D03*
X42200Y48800D02*
D03*
X37800D02*
D03*
X42200Y48000D02*
D03*
X37800D02*
D03*
X42200Y47200D02*
D03*
X37800D02*
D03*
X42200Y46400D02*
D03*
X37800D02*
D03*
X42200Y45600D02*
D03*
X37800D02*
D03*
X42200Y44800D02*
D03*
X37800D02*
D03*
X42200Y44000D02*
D03*
X37800D02*
D03*
X42200Y43200D02*
D03*
X37800D02*
D03*
X42200Y42400D02*
D03*
X37800D02*
D03*
X42200Y41600D02*
D03*
X37800D02*
D03*
X42200Y40800D02*
D03*
X37800D02*
D03*
X42200Y40000D02*
D03*
X37800D02*
D03*
X42200Y39200D02*
D03*
X37800D02*
D03*
X42200Y38400D02*
D03*
X37800D02*
D03*
X42200Y37600D02*
D03*
X37800D02*
D03*
X42200Y36800D02*
D03*
X37800D02*
D03*
X42200Y36000D02*
D03*
X37800D02*
D03*
X42200Y35200D02*
D03*
X37800D02*
D03*
X42200Y34400D02*
D03*
X37800D02*
D03*
X42200Y33600D02*
D03*
X37800D02*
D03*
X42200Y32800D02*
D03*
X37800D02*
D03*
X42200Y32000D02*
D03*
X37800D02*
D03*
X42200Y31200D02*
D03*
X37800D02*
D03*
X42200Y30400D02*
D03*
X37800D02*
D03*
X42200Y29600D02*
D03*
X37800D02*
D03*
X42200Y28800D02*
D03*
X37800D02*
D03*
X42200Y28000D02*
D03*
X37800D02*
D03*
X42200Y27200D02*
D03*
X37800D02*
D03*
X42200Y26400D02*
D03*
X37800D02*
D03*
M02*
