G04*
G04 #@! TF.GenerationSoftware,Altium Limited,Altium Designer,19.0.15 (446)*
G04*
G04 Layer_Color=65535*
%FSLAX43Y43*%
%MOMM*%
G71*
G01*
G75*
%ADD10C,0.200*%
%ADD11C,0.152*%
%ADD12C,0.127*%
%ADD13C,0.150*%
%ADD14C,0.254*%
D10*
X8464Y8305D02*
G03*
X8464Y8305I-100J0D01*
G01*
D11*
X13687Y45962D02*
G03*
X13687Y45962I-127J0D01*
G01*
X11851Y33787D02*
G03*
X11851Y33787I-127J0D01*
G01*
X13611Y46808D02*
Y47416D01*
X15140Y46414D02*
X15486D01*
X16609Y46808D02*
Y47416D01*
X14734Y47811D02*
X15486D01*
X11775Y34633D02*
Y35241D01*
X13304Y34239D02*
X13650D01*
X14773Y34633D02*
Y35241D01*
X12898Y35636D02*
X13650D01*
D12*
X20264Y8905D02*
X23464D01*
X20564Y17605D02*
X23764D01*
X71864Y8905D02*
X75564D01*
Y31205D01*
X71464D02*
X75564D01*
X4464Y8905D02*
X7864D01*
X4464D02*
Y31205D01*
X8564D01*
Y28525D02*
Y31205D01*
X71464Y28525D02*
Y31205D01*
D13*
X65769Y20332D02*
X66819D01*
X67528Y20312D02*
X69378D01*
X63239D02*
X65089D01*
X61539Y20332D02*
X62589D01*
X55647Y20312D02*
X57497D01*
X53958Y20332D02*
X55008D01*
X46139Y20312D02*
X47989D01*
X44179Y20332D02*
X45229D01*
X35270Y20312D02*
X37120D01*
X33511Y20332D02*
X34561D01*
X22335D02*
X23385D01*
X24101Y20312D02*
X25951D01*
X11148Y20332D02*
X12198D01*
X12898Y20312D02*
X14748D01*
D14*
X55570Y56642D02*
X56586D01*
X56078D01*
Y55118D01*
X57094D02*
Y56642D01*
X57855D01*
X58109Y56388D01*
Y55880D01*
X57855Y55626D01*
X57094D01*
X58617Y56388D02*
X58871Y56642D01*
X59379D01*
X59633Y56388D01*
Y56134D01*
X59379Y55880D01*
X59633Y55626D01*
Y55372D01*
X59379Y55118D01*
X58871D01*
X58617Y55372D01*
Y55626D01*
X58871Y55880D01*
X58617Y56134D01*
Y56388D01*
X58871Y55880D02*
X59379D01*
X49982Y56642D02*
X50998D01*
X50490D01*
Y55118D01*
X51506D02*
Y56642D01*
X52267D01*
X52521Y56388D01*
Y55880D01*
X52267Y55626D01*
X51506D01*
X53029Y56642D02*
X54045D01*
Y56388D01*
X53029Y55372D01*
Y55118D01*
X40820Y56642D02*
X41835D01*
X41327D01*
Y55118D01*
X42343D02*
Y56642D01*
X43105D01*
X43359Y56388D01*
Y55880D01*
X43105Y55626D01*
X42343D01*
X44882Y56642D02*
X44374Y56388D01*
X43867Y55880D01*
Y55372D01*
X44120Y55118D01*
X44628D01*
X44882Y55372D01*
Y55626D01*
X44628Y55880D01*
X43867D01*
X35179Y56642D02*
X36195D01*
X35687D01*
Y55118D01*
X36703D02*
Y56642D01*
X37464D01*
X37718Y56388D01*
Y55880D01*
X37464Y55626D01*
X36703D01*
X39242Y56642D02*
X38226D01*
Y55880D01*
X38734Y56134D01*
X38988D01*
X39242Y55880D01*
Y55372D01*
X38988Y55118D01*
X38480D01*
X38226Y55372D01*
X16256Y3810D02*
X17272D01*
X16764D01*
Y2286D01*
X17780D02*
Y3810D01*
X18541D01*
X18795Y3556D01*
Y3048D01*
X18541Y2794D01*
X17780D01*
X20065Y2286D02*
Y3810D01*
X19303Y3048D01*
X20319D01*
X10541Y3810D02*
X11557D01*
X11049D01*
Y2286D01*
X12065D02*
Y3810D01*
X12826D01*
X13080Y3556D01*
Y3048D01*
X12826Y2794D01*
X12065D01*
X13588Y3556D02*
X13842Y3810D01*
X14350D01*
X14604Y3556D01*
Y3302D01*
X14350Y3048D01*
X14096D01*
X14350D01*
X14604Y2794D01*
Y2540D01*
X14350Y2286D01*
X13842D01*
X13588Y2540D01*
X30637Y3810D02*
X31653D01*
X31145D01*
Y2286D01*
X32161D02*
Y3810D01*
X32922D01*
X33176Y3556D01*
Y3048D01*
X32922Y2794D01*
X32161D01*
X34700Y2286D02*
X33684D01*
X34700Y3302D01*
Y3556D01*
X34446Y3810D01*
X33938D01*
X33684Y3556D01*
X25557Y3810D02*
X26573D01*
X26065D01*
Y2286D01*
X27081D02*
Y3810D01*
X27842D01*
X28096Y3556D01*
Y3048D01*
X27842Y2794D01*
X27081D01*
X28604Y2286D02*
X29112D01*
X28858D01*
Y3810D01*
X28604Y3556D01*
X17100Y49501D02*
Y51025D01*
X17862D01*
X18116Y50771D01*
Y50263D01*
X17862Y50009D01*
X17100D01*
X17608D02*
X18116Y49501D01*
X18624D02*
X19131D01*
X18877D01*
Y51025D01*
X18624Y50771D01*
X13464Y38491D02*
Y40015D01*
X14226D01*
X14480Y39761D01*
Y39253D01*
X14226Y38999D01*
X13464D01*
X13972D02*
X14480Y38491D01*
X16003D02*
X14988D01*
X16003Y39507D01*
Y39761D01*
X15749Y40015D01*
X15241D01*
X14988Y39761D01*
X25479Y56867D02*
X24971D01*
X25225D01*
Y55597D01*
X24971Y55343D01*
X24717D01*
X24463Y55597D01*
X27002Y55343D02*
X25987D01*
X27002Y56359D01*
Y56613D01*
X26748Y56867D01*
X26241D01*
X25987Y56613D01*
X2362Y26670D02*
X1854D01*
X2108D01*
Y25400D01*
X1854Y25146D01*
X1600D01*
X1346Y25400D01*
X2870Y25146D02*
X3377D01*
X3124D01*
Y26670D01*
X2870Y26416D01*
X15367Y35762D02*
Y34239D01*
X16129D01*
X16383Y34493D01*
Y35508D01*
X16129Y35762D01*
X15367D01*
X17906Y34239D02*
X16891D01*
X17906Y35254D01*
Y35508D01*
X17652Y35762D01*
X17144D01*
X16891Y35508D01*
X17272Y47850D02*
Y46326D01*
X18034D01*
X18288Y46580D01*
Y47596D01*
X18034Y47850D01*
X17272D01*
X18796Y46326D02*
X19303D01*
X19049D01*
Y47850D01*
X18796Y47596D01*
X13310Y26716D02*
X13056Y26462D01*
Y25954D01*
X13310Y25700D01*
X14326D01*
X14580Y25954D01*
Y26462D01*
X14326Y26716D01*
X14580Y28239D02*
Y27224D01*
X13564Y28239D01*
X13310D01*
X13056Y27985D01*
Y27477D01*
X13310Y27224D01*
X11155Y25016D02*
X10901Y24762D01*
Y24254D01*
X11155Y24000D01*
X12171D01*
X12425Y24254D01*
Y24762D01*
X12171Y25016D01*
X12425Y25524D02*
Y26031D01*
Y25777D01*
X10901D01*
X11155Y25524D01*
X67945Y26716D02*
X67691Y26462D01*
Y25954D01*
X67945Y25700D01*
X68961D01*
X69215Y25954D01*
Y26462D01*
X68961Y26716D01*
X69215Y27224D02*
Y27731D01*
Y27477D01*
X67691D01*
X67945Y27224D01*
X69215Y29255D02*
X67691D01*
X68453Y28493D01*
Y29509D01*
X65786Y25016D02*
X65532Y24762D01*
Y24254D01*
X65786Y24000D01*
X66802D01*
X67056Y24254D01*
Y24762D01*
X66802Y25016D01*
X67056Y25524D02*
Y26031D01*
Y25777D01*
X65532D01*
X65786Y25524D01*
Y26793D02*
X65532Y27047D01*
Y27555D01*
X65786Y27809D01*
X66040D01*
X66294Y27555D01*
Y27301D01*
Y27555D01*
X66548Y27809D01*
X66802D01*
X67056Y27555D01*
Y27047D01*
X66802Y26793D01*
X63650Y26716D02*
X63396Y26462D01*
Y25954D01*
X63650Y25700D01*
X64666D01*
X64920Y25954D01*
Y26462D01*
X64666Y26716D01*
X64920Y27224D02*
Y27731D01*
Y27477D01*
X63396D01*
X63650Y27224D01*
X64920Y29509D02*
Y28493D01*
X63904Y29509D01*
X63650D01*
X63396Y29255D01*
Y28747D01*
X63650Y28493D01*
X61555Y25016D02*
X61301Y24762D01*
Y24254D01*
X61555Y24000D01*
X62571D01*
X62825Y24254D01*
Y24762D01*
X62571Y25016D01*
X62825Y25524D02*
Y26031D01*
Y25777D01*
X61301D01*
X61555Y25524D01*
X62825Y26793D02*
Y27301D01*
Y27047D01*
X61301D01*
X61555Y26793D01*
X56060Y26716D02*
X55806Y26462D01*
Y25954D01*
X56060Y25700D01*
X57076D01*
X57330Y25954D01*
Y26462D01*
X57076Y26716D01*
X57330Y27224D02*
Y27731D01*
Y27477D01*
X55806D01*
X56060Y27224D01*
Y28493D02*
X55806Y28747D01*
Y29255D01*
X56060Y29509D01*
X57076D01*
X57330Y29255D01*
Y28747D01*
X57076Y28493D01*
X56060D01*
X53975Y25016D02*
X53721Y24762D01*
Y24254D01*
X53975Y24000D01*
X54991D01*
X55245Y24254D01*
Y24762D01*
X54991Y25016D01*
Y25524D02*
X55245Y25777D01*
Y26285D01*
X54991Y26539D01*
X53975D01*
X53721Y26285D01*
Y25777D01*
X53975Y25524D01*
X54229D01*
X54483Y25777D01*
Y26539D01*
X46550Y26716D02*
X46296Y26462D01*
Y25954D01*
X46550Y25700D01*
X47566D01*
X47820Y25954D01*
Y26462D01*
X47566Y26716D01*
X46550Y27224D02*
X46296Y27477D01*
Y27985D01*
X46550Y28239D01*
X46804D01*
X47058Y27985D01*
X47312Y28239D01*
X47566D01*
X47820Y27985D01*
Y27477D01*
X47566Y27224D01*
X47312D01*
X47058Y27477D01*
X46804Y27224D01*
X46550D01*
X47058Y27477D02*
Y27985D01*
X44196Y25016D02*
X43943Y24762D01*
Y24254D01*
X44196Y24000D01*
X45212D01*
X45466Y24254D01*
Y24762D01*
X45212Y25016D01*
X43943Y25524D02*
Y26539D01*
X44196D01*
X45212Y25524D01*
X45466D01*
X35687Y26716D02*
X35433Y26462D01*
Y25954D01*
X35687Y25700D01*
X36703D01*
X36957Y25954D01*
Y26462D01*
X36703Y26716D01*
X35433Y28239D02*
X35687Y27731D01*
X36195Y27224D01*
X36703D01*
X36957Y27477D01*
Y27985D01*
X36703Y28239D01*
X36449D01*
X36195Y27985D01*
Y27224D01*
X33528Y25016D02*
X33274Y24762D01*
Y24254D01*
X33528Y24000D01*
X34544D01*
X34798Y24254D01*
Y24762D01*
X34544Y25016D01*
X33274Y26539D02*
Y25524D01*
X34036D01*
X33782Y26031D01*
Y26285D01*
X34036Y26539D01*
X34544D01*
X34798Y26285D01*
Y25777D01*
X34544Y25524D01*
X24511Y26716D02*
X24257Y26462D01*
Y25954D01*
X24511Y25700D01*
X25527D01*
X25781Y25954D01*
Y26462D01*
X25527Y26716D01*
X25781Y27985D02*
X24257D01*
X25019Y27224D01*
Y28239D01*
X22352Y25016D02*
X22098Y24762D01*
Y24254D01*
X22352Y24000D01*
X23368D01*
X23622Y24254D01*
Y24762D01*
X23368Y25016D01*
X22352Y25524D02*
X22098Y25777D01*
Y26285D01*
X22352Y26539D01*
X22606D01*
X22860Y26285D01*
Y26031D01*
Y26285D01*
X23114Y26539D01*
X23368D01*
X23622Y26285D01*
Y25777D01*
X23368Y25524D01*
M02*
